# Exported from Wings 3D 0.98.32a
mtllib spider.mtl
o leg_copy9
#108 vertices, 82 faces
v -2.49447291 1.50770604 -1.17858663
v -2.49447291 1.50770604 -1.17858663
v -2.49447291 1.50770604 -1.17858663
v -2.49447291 1.50770604 -1.17858663
v -3.49330356 -0.24253872 -1.29053586
v -3.11170024 -0.23393638 -1.18265371
v -3.02246944 -0.23393638 -1.49828302
v -3.40407276 -0.24253872 -1.60616518
v -2.51430058 1.53452792 -1.17616258
v -2.51430058 1.53452792 -1.17616258
v -2.51430058 1.53452792 -1.17616258
v -2.51430058 1.53452792 -1.17616258
v -1.21855745 8.3146713e-2 -0.63941840
v -1.06806100 0.45586182 -0.59687191
v -0.97883020 0.45586182 -0.91250122
v -1.12932665 8.3146713e-2 -0.95504771
v 0.28087244 -0.23371881 1.90321011
v 8.0872445e-2 0.23042643 1.90321011
v -1.11912756 -0.23371881 1.90321011
v -0.91912756 0.23042643 1.90321011
v 0.38087244 0.49200000 -0.44078989
v 0.58087244 -0.23371881 -0.44078989
v -1.21912756 0.49200000 -0.44078989
v -1.41912756 -0.23371881 -0.44078989
v -0.41912756 0.0000000e+0 -2.78478989
v -0.41912756 0.0000000e+0 -2.78478989
v -0.41912756 0.0000000e+0 -2.78478989
v -0.41912756 0.0000000e+0 -2.78478989
v 1.80168288 1.50770604 4.0524700e-2
v 1.80168288 1.50770604 4.0524700e-2
v 1.80168288 1.50770604 4.0524700e-2
v 1.80168288 1.50770604 4.0524700e-2
v 2.80065357 -0.24253872 0.15121732
v 2.40466218 -0.23393638 0.17244165
v 2.38710725 -0.23393638 -0.15508824
v 2.78309865 -0.24253872 -0.17631256
v 1.82049043 1.53452792 4.7254390e-2
v 1.82049043 1.53452792 4.7254390e-2
v 1.82049043 1.53452792 4.7254390e-2
v 1.82049043 1.53452792 4.7254390e-2
v 0.43837213 8.3146713e-2 0.28556848
v 0.28220132 0.45586182 0.29393891
v 0.26464640 0.45586182 -3.3590970e-2
v 0.42081721 8.3146713e-2 -4.1961400e-2
v 1.58073473 1.50770604 1.22863363
v 1.58073473 1.50770604 1.22863363
v 1.58073473 1.50770604 1.22863363
v 1.58073473 1.50770604 1.22863363
v 2.53384159 -0.24253872 1.54766749
v 2.14229052 -0.23393638 1.48483902
v 2.19425681 -0.23393638 1.16098179
v 2.58580788 -0.24253872 1.22381026
v 1.59769831 1.53452792 1.23918110
v 1.59769831 1.53452792 1.23918110
v 1.59769831 1.53452792 1.23918110
v 1.59769831 1.53452792 1.23918110
v 0.19641579 8.3146713e-2 1.18042852
v 4.1996155e-2 0.45586182 1.15565027
v 9.3962445e-2 0.45586182 0.83179304
v 0.24838207 8.3146713e-2 0.85657129
v 1.60819890 1.50770604 -1.17858663
v 1.60819890 1.50770604 -1.17858663
v 1.60819890 1.50770604 -1.17858663
v 1.60819890 1.50770604 -1.17858663
v 2.60702955 -0.24253872 -1.29053586
v 2.22542623 -0.23393638 -1.18265371
v 2.13619542 -0.23393638 -1.49828302
v 2.51779875 -0.24253872 -1.60616518
v 1.62802657 1.53452792 -1.17616258
v 1.62802657 1.53452792 -1.17616258
v 1.62802657 1.53452792 -1.17616258
v 1.62802657 1.53452792 -1.17616258
v 0.33228343 8.3146713e-2 -0.63941840
v 0.18178698 0.45586182 -0.59687191
v 9.2556185e-2 0.45586182 -0.91250122
v 0.24305263 8.3146713e-2 -0.95504771
v -2.64466870 1.50770604 4.0524700e-2
v -2.64466870 1.50770604 4.0524700e-2
v -2.64466870 1.50770604 4.0524700e-2
v -2.64466870 1.50770604 4.0524700e-2
v -3.64363939 -0.24253872 0.15121732
v -3.24764800 -0.23393638 0.17244165
v -3.23009307 -0.23393638 -0.15508824
v -3.62608447 -0.24253872 -0.17631256
v -2.66347624 1.53452792 4.7254390e-2
v -2.66347624 1.53452792 4.7254390e-2
v -2.66347624 1.53452792 4.7254390e-2
v -2.66347624 1.53452792 4.7254390e-2
v -1.28135795 8.3146713e-2 0.28556848
v -1.12518714 0.45586182 0.29393891
v -1.10763222 0.45586182 -3.3590970e-2
v -1.26380302 8.3146713e-2 -4.1961400e-2
v -2.43935064 1.50770604 1.22863363
v -2.43935064 1.50770604 1.22863363
v -2.43935064 1.50770604 1.22863363
v -2.43935064 1.50770604 1.22863363
v -3.39245750 -0.24253872 1.54766749
v -3.00090643 -0.23393638 1.48483902
v -3.05287272 -0.23393638 1.16098179
v -3.44442378 -0.24253872 1.22381026
v -2.45631422 1.53452792 1.23918110
v -2.45631422 1.53452792 1.23918110
v -2.45631422 1.53452792 1.23918110
v -2.45631422 1.53452792 1.23918110
v -1.05503170 8.3146713e-2 1.18042852
v -0.90061206 0.45586182 1.15565027
v -0.95257835 0.45586182 0.83179304
v -1.10699798 8.3146713e-2 0.85657129
vn -0.76661316 0.40565452 0.49774358
vn 0.45850020 -0.16452904 0.87333142
vn 0.84788412 -0.16452905 -0.50400666
vn -0.39253788 0.40565453 -0.82544437
vn -0.79344649 -0.30041206 0.52933473
vn 0.35546054 -0.66304855 0.65879771
vn 0.64777277 -0.66304855 -0.37517605
vn -0.39885927 -0.30041207 -0.86640861
vn -0.72542215 -0.45742957 0.51431595
vn 0.14298904 0.61019935 0.77923738
vn 0.52980923 0.61019935 -0.58903220
vn -0.34876706 -0.45742957 -0.81799739
vn -0.10799842 -0.72143558 0.68400807
vn 0.60758459 0.26142776 0.74999766
vn 0.91032767 0.26142776 -0.32087235
vn 0.26611305 -0.72143558 -0.63930787
vn 0.57734101 -0.42086877 0.69967624
vn 0.46056553 0.64237500 0.61256327
vn -0.57734101 -0.42086877 0.69967624
vn -0.46056553 0.64237500 0.61256327
vn 0.58399036 0.80553632 -0.10033198
vn 0.78167965 -0.60860561 -0.13629428
vn -0.58399036 0.80553632 -0.10033198
vn -0.78167965 -0.60860561 -0.13629428
vn 0.55450299 0.75595972 -0.34792431
vn 0.71630094 -0.59478148 -0.36489444
vn -0.71630094 -0.59478148 -0.36489444
vn -0.55450299 0.75595972 -0.34792431
vn 0.63822506 0.40565453 0.65430358
vn -0.63951732 -0.16452904 0.75096458
vn -0.71612324 -0.16452904 -0.67830503
vn 0.56463093 0.40565453 -0.71877418
vn 0.65744518 -0.30041205 0.69102708
vn -0.49177553 -0.66304855 0.56437882
vn -0.54928393 -0.66304855 -0.50858017
vn 0.57981561 -0.30041206 -0.75734170
vn 0.59439620 -0.45742956 0.66140106
vn -0.31103206 0.61019936 0.72863970
vn -0.38713357 0.61019934 -0.69121947
vn 0.52029453 -0.45742957 -0.72114617
vn -4.5237488e-2 -0.72143558 0.69100237
vn -0.75779176 0.26142776 0.59783541
vn -0.81735226 0.26142775 -0.51341096
vn -0.11883874 -0.72143558 -0.68220822
vn 0.48575698 0.40565452 0.77426389
vn -0.78360458 -0.16452904 0.59907768
vn -0.55683494 -0.16452904 -0.81416525
vn 0.70361115 0.40565453 -0.58341730
vn 0.49679360 -0.30041206 0.81421663
vn -0.59981142 -0.66304855 0.44787597
vn -0.42957446 -0.66304854 -0.61305172
vn 0.72659354 -0.30041206 -0.61791134
vn 0.44141744 -0.45742957 0.77195131
vn -0.45780677 0.61019935 0.64658311
vn -0.23253020 0.61019934 -0.75735491
vn 0.66077405 -0.45742957 -0.59509315
vn -0.19005583 -0.72143558 0.66588999
vn -0.86689666 0.26142776 0.42443575
vn -0.69058497 0.26142776 -0.67435000
vn 2.7819424e-2 -0.72143558 -0.69192253
vn 0.76661316 0.40565452 0.49774358
vn -0.45850019 -0.16452904 0.87333142
vn -0.84788413 -0.16452904 -0.50400665
vn 0.39253789 0.40565453 -0.82544437
vn 0.79344649 -0.30041206 0.52933473
vn -0.35546053 -0.66304854 0.65879772
vn -0.64777277 -0.66304855 -0.37517604
vn 0.39885927 -0.30041207 -0.86640861
vn 0.72542215 -0.45742957 0.51431595
vn -0.14298904 0.61019935 0.77923738
vn -0.52980923 0.61019935 -0.58903220
vn 0.34876706 -0.45742957 -0.81799739
vn 0.10799841 -0.72143558 0.68400807
vn -0.60758459 0.26142776 0.74999766
vn -0.91032767 0.26142776 -0.32087235
vn -0.26611305 -0.72143558 -0.63930787
vn -0.63822506 0.40565453 0.65430358
vn 0.63951732 -0.16452904 0.75096458
vn 0.71612324 -0.16452904 -0.67830503
vn -0.56463093 0.40565453 -0.71877418
vn -0.65744518 -0.30041205 0.69102708
vn 0.49177553 -0.66304855 0.56437882
vn 0.54928393 -0.66304855 -0.50858017
vn -0.57981561 -0.30041206 -0.75734170
vn -0.59439620 -0.45742957 0.66140105
vn 0.31103206 0.61019935 0.72863970
vn 0.38713357 0.61019934 -0.69121947
vn -0.52029452 -0.45742957 -0.72114617
vn 4.5237490e-2 -0.72143558 0.69100237
vn 0.75779175 0.26142777 0.59783541
vn 0.81735226 0.26142776 -0.51341096
vn 0.11883874 -0.72143558 -0.68220823
vn -0.48575699 0.40565453 0.77426388
vn 0.78360458 -0.16452904 0.59907768
vn 0.55683494 -0.16452904 -0.81416525
vn -0.70361115 0.40565452 -0.58341731
vn -0.49679361 -0.30041206 0.81421662
vn 0.59981142 -0.66304855 0.44787597
vn 0.42957445 -0.66304854 -0.61305172
vn -0.72659353 -0.30041206 -0.61791135
vn -0.44141744 -0.45742957 0.77195131
vn 0.45780677 0.61019935 0.64658311
vn 0.23253020 0.61019934 -0.75735491
vn -0.66077405 -0.45742957 -0.59509315
vn 0.19005583 -0.72143558 0.66588999
vn 0.86689666 0.26142776 0.42443575
vn 0.69058497 0.26142776 -0.67435000
vn -2.7819424e-2 -0.72143558 -0.69192253
g leg_copy9_body
usemtl body
f 17//17 22//22 21//21 18//18
f 18//18 20//20 19//19 17//17
f 18//18 21//21 23//23 20//20
f 19//19 24//24 22//22 17//17
f 20//20 23//23 24//24 19//19
f 21//21 25//25 28//28 23//23
f 22//22 26//26 25//25 21//21
f 23//23 28//28 27//27 24//24
f 24//24 27//27 26//26 22//22
f 26//26 27//27 28//28 25//25
g leg_copy9_legs
usemtl legs
f 1//1 5//5 6//6 2//2
f 2//2 3//3 4//4 1//1
f 2//2 6//6 7//7 3//3
f 3//3 7//7 8//8 4//4
f 4//4 8//8 5//5 1//1
f 5//5 8//8 7//7 6//6
f 9//9 13//13 14//14 10//10
f 10//10 11//11 12//12 9//9
f 10//10 14//14 15//15 11//11
f 11//11 15//15 16//16 12//12
f 12//12 16//16 13//13 9//9
f 13//13 16//16 15//15 14//14
f 29//29 32//32 31//31 30//30
f 29//29 33//33 36//36 32//32
f 30//30 34//34 33//33 29//29
f 31//31 35//35 34//34 30//30
f 32//32 36//36 35//35 31//31
f 34//34 35//35 36//36 33//33
f 37//37 40//40 39//39 38//38
f 37//37 41//41 44//44 40//40
f 38//38 42//42 41//41 37//37
f 39//39 43//43 42//42 38//38
f 40//40 44//44 43//43 39//39
f 42//42 43//43 44//44 41//41
f 45//45 48//48 47//47 46//46
f 45//45 49//49 52//52 48//48
f 46//46 50//50 49//49 45//45
f 47//47 51//51 50//50 46//46
f 48//48 52//52 51//51 47//47
f 50//50 51//51 52//52 49//49
f 53//53 56//56 55//55 54//54
f 53//53 57//57 60//60 56//56
f 54//54 58//58 57//57 53//53
f 55//55 59//59 58//58 54//54
f 56//56 60//60 59//59 55//55
f 58//58 59//59 60//60 57//57
f 61//61 64//64 63//63 62//62
f 61//61 65//65 68//68 64//64
f 62//62 66//66 65//65 61//61
f 63//63 67//67 66//66 62//62
f 64//64 68//68 67//67 63//63
f 66//66 67//67 68//68 65//65
f 69//69 72//72 71//71 70//70
f 69//69 73//73 76//76 72//72
f 70//70 74//74 73//73 69//69
f 71//71 75//75 74//74 70//70
f 72//72 76//76 75//75 71//71
f 74//74 75//75 76//76 73//73
f 77//77 81//81 82//82 78//78
f 78//78 79//79 80//80 77//77
f 78//78 82//82 83//83 79//79
f 79//79 83//83 84//84 80//80
f 80//80 84//84 81//81 77//77
f 81//81 84//84 83//83 82//82
f 85//85 89//89 90//90 86//86
f 86//86 87//87 88//88 85//85
f 86//86 90//90 91//91 87//87
f 87//87 91//91 92//92 88//88
f 88//88 92//92 89//89 85//85
f 89//89 92//92 91//91 90//90
f 93//93 97//97 98//98 94//94
f 94//94 95//95 96//96 93//93
f 94//94 98//98 99//99 95//95
f 95//95 99//99 100//100 96//96
f 96//96 100//100 97//97 93//93
f 97//97 100//100 99//99 98//98
f 101//101 105//105 106//106 102//102
f 102//102 103//103 104//104 101//101
f 102//102 106//106 107//107 103//103
f 103//103 107//107 108//108 104//104
f 104//104 108//108 105//105 101//101
f 105//105 108//108 107//107 106//106
