# Exported from Wings 3D 0.98.22c
mtllib plane2.mtl
o tail
#72 vertices, 51 faces
v 5.01204e-2 0.776000 -2.84460
v 5.01204e-2 1.97600 -2.84460
v -4.98796e-2 1.97600 -2.84460
v -4.98796e-2 0.776000 -2.84460
v 5.01164e-2 0.776000 -1.34460
v 5.01205e-2 1.97600 -2.35060
v -4.98795e-2 1.97600 -2.35060
v -4.98836e-2 0.776000 -1.34460
v 2.00012 -0.100000 -2.85260
v 2.00012 0.100000 -2.85260
v -1.99988 0.100000 -2.85261
v -1.99988 -0.100000 -2.85261
v 2.03812 -0.100004 -1.87860
v 2.00012 9.99960e-2 -1.84460
v -1.99788 9.99960e-2 -1.84661
v -2.04588 -0.100004 -1.86661
v 1.08214e-4 0.100000 1.14740
v 2.10807e-3 -9.99999e-2 1.20340
v -0.499895 0.297647 1.12975
v -0.461835 0.488989 1.12975
v -0.353448 0.651200 1.12975
v -0.191237 0.759587 1.12975
v 1.05475e-4 0.797647 1.12975
v 0.191447 0.759587 1.12975
v 0.353659 0.651200 1.12975
v 0.462045 0.488989 1.12975
v 0.500105 0.297647 1.12975
v 0.462045 0.106305 1.12975
v 0.353659 -5.59065e-2 1.12975
v 0.191447 -0.164293 1.12975
v 1.05475e-4 -0.202353 1.12975
v -0.191237 -0.164293 1.12975
v -0.353448 -5.59065e-2 1.12975
v -0.461835 0.106305 1.12975
v 1.00168e-4 0.297650 3.12975
v -0.176673 0.474425 2.12975
v -9.55680e-2 0.528618 2.12975
v 1.02821e-4 0.547648 2.12975
v 9.57737e-2 0.528618 2.12975
v 0.176880 0.474425 2.12975
v -0.499892 0.300001 1.14740
v -0.461832 0.491343 1.14740
v -0.353445 0.653555 1.14740
v -0.191234 0.761941 1.14740
v 1.08214e-4 0.800001 1.14740
v 0.191450 0.761941 1.14740
v 0.353661 0.653555 1.14740
v 0.462048 0.491343 1.14740
v 0.500108 0.300001 1.14740
v 0.462048 0.108660 1.14740
v 0.353661 -5.35521e-2 1.14740
v 0.191450 -0.161938 1.14740
v 1.08214e-4 -0.199999 1.14740
v -0.191234 -0.161938 1.14740
v -0.353445 -5.35521e-2 1.14740
v -0.461832 0.108660 1.14740
v -0.499881 0.299999 -2.85260
v -0.461821 0.491340 -2.85260
v -0.353434 0.653552 -2.85260
v -0.191223 0.761938 -2.85260
v 1.18829e-4 0.799999 -2.85260
v 0.191461 0.761938 -2.85260
v 0.353672 0.653552 -2.85260
v 0.462059 0.491340 -2.85260
v 0.500119 0.299999 -2.85260
v 0.462059 0.108657 -2.85260
v 0.353672 -5.35547e-2 -2.85260
v 0.191461 -0.161941 -2.85260
v 1.18829e-4 -0.200001 -2.85260
v -0.191223 -0.161941 -2.85260
v -0.353434 -5.35547e-2 -2.85260
v -0.461821 0.108657 -2.85260
vn 0.577351 -0.577350 -0.577349
vn 0.577352 0.577350 -0.577349
vn -0.577349 0.577351 -0.577351
vn -0.577349 -0.577350 -0.577352
vn 0.763577 -0.273023 0.585157
vn 0.483092 0.793452 0.370211
vn -0.483093 0.793452 0.370209
vn -0.763580 -0.273022 0.585154
vn 0.589928 -0.535778 -0.604091
vn 0.553694 0.609876 -0.566987
vn -0.547666 0.618126 -0.563899
vn -0.592770 -0.525459 -0.610341
vn 0.648439 -0.439952 0.621264
vn 0.521032 0.692336 0.499197
vn -0.514959 0.700257 0.494427
vn -0.651714 -0.428640 0.625728
vn 7.67155e-4 0.783521 0.621365
vn 9.67357e-4 -0.621366 0.783520
vn -0.964230 1.29814e-8 -0.265066
vn -0.890831 0.368997 -0.265067
vn -0.681812 0.681815 -0.265066
vn -0.368995 0.890833 -0.265066
vn 8.18528e-7 0.964231 -0.265065
vn 0.368995 0.890833 -0.265064
vn 0.681815 0.681814 -0.265063
vn 0.890834 0.368995 -0.265062
vn 0.964232 1.29814e-8 -0.265061
vn 0.890834 -0.368994 -0.265061
vn 0.681815 -0.681814 -0.265061
vn 0.368995 -0.890834 -0.265062
vn 9.09913e-7 -0.964231 -0.265063
vn -0.368995 -0.890833 -0.265064
vn -0.681813 -0.681815 -0.265065
vn -0.890832 -0.368996 -0.265066
vn -2.39238e-6 2.27608e-6 1.000000
vn -0.639189 0.729971 0.242033
vn -0.371259 0.896295 0.242533
vn -6.20921e-7 0.970143 0.242534
vn 0.371256 0.896295 0.242535
vn 0.639188 0.729971 0.242036
vn -0.890910 2.52121e-17 0.454179
vn -0.823094 0.340937 0.454179
vn -0.629969 0.629969 0.454179
vn -0.340938 0.823093 0.454180
vn -1.20521e-6 0.890909 0.454181
vn 0.340936 0.823093 0.454182
vn 0.629966 0.629969 0.454183
vn 0.823091 0.340937 0.454184
vn 0.890908 2.52121e-17 0.454184
vn 0.823091 -0.340937 0.454184
vn 0.629966 -0.629968 0.454183
vn 0.340936 -0.823092 0.454183
vn -1.20521e-6 -0.890909 0.454182
vn -0.340938 -0.823092 0.454181
vn -0.629969 -0.629968 0.454180
vn -0.823094 -0.340937 0.454180
vn -0.890908 2.52122e-17 -0.454184
vn -0.823091 0.340936 -0.454184
vn -0.629966 0.629968 -0.454184
vn -0.340935 0.823092 -0.454183
vn 1.20521e-6 0.890909 -0.454182
vn 0.340938 0.823092 -0.454181
vn 0.629969 0.629968 -0.454180
vn 0.823094 0.340936 -0.454180
vn 0.890910 2.52122e-17 -0.454179
vn 0.823094 -0.340937 -0.454179
vn 0.629969 -0.629968 -0.454179
vn 0.340938 -0.823093 -0.454180
vn 1.20521e-6 -0.890909 -0.454181
vn -0.340936 -0.823093 -0.454182
vn -0.629966 -0.629968 -0.454183
vn -0.823091 -0.340937 -0.454184
g tail_default
usemtl default
f 20//20 21//21 22//22 23//23 24//24 25//25 26//26 27//27 28//28 29//29 30//30 31//31 32//32 33//33 34//34 19//19
g tail_mtl_body
usemtl mtl_body
f 11//11 15//15 17//17 14//14 10//10
f 19//19 35//35 20//20
f 20//20 35//35 36//36 21//21
f 25//25 40//40 35//35 26//26
f 26//26 35//35 27//27
f 27//27 35//35 28//28
f 28//28 35//35 29//29
f 29//29 35//35 30//30
f 30//30 35//35 31//31
f 31//31 35//35 32//32
f 32//32 35//35 33//33
f 33//33 35//35 34//34
f 34//34 35//35 19//19
f 35//35 37//37 36//36
f 35//35 38//38 37//37
f 35//35 39//39 38//38
f 35//35 40//40 39//39
f 41//41 56//56 55//55 54//54 53//53 52//52 51//51 50//50 49//49 48//48 47//47 46//46 45//45 44//44 43//43 42//42
f 41//41 57//57 72//72 56//56
f 42//42 58//58 57//57 41//41
f 43//43 59//59 58//58 42//42
f 44//44 60//60 59//59 43//43
f 45//45 61//61 60//60 44//44
f 46//46 62//62 61//61 45//45
f 47//47 63//63 62//62 46//46
f 48//48 64//64 63//63 47//47
f 49//49 65//65 64//64 48//48
f 50//50 66//66 65//65 49//49
f 51//51 67//67 66//66 50//50
f 52//52 68//68 67//67 51//51
f 53//53 69//69 68//68 52//52
f 54//54 70//70 69//69 53//53
f 55//55 71//71 70//70 54//54
f 56//56 72//72 71//71 55//55
f 58//58 59//59 60//60 61//61 62//62 63//63 64//64 65//65 66//66 67//67 68//68 69//69 70//70 71//71 72//72 57//57
g tail_mtl_tail
usemtl mtl_tail
f 1//1 4//4 3//3 2//2
f 1//1 5//5 8//8 4//4
f 2//2 6//6 5//5 1//1
f 3//3 7//7 6//6 2//2
f 4//4 8//8 7//7 3//3
f 6//6 7//7 8//8 5//5
g tail_mtl_window
usemtl mtl_window
f 21//21 36//36 37//37 22//22
f 22//22 37//37 38//38 23//23
f 23//23 38//38 39//39 24//24
f 24//24 39//39 40//40 25//25
g tail_mtl_wing
usemtl mtl_wing
f 9//9 12//12 11//11 10//10
f 9//9 13//13 18//18 16//16 12//12
f 10//10 14//14 13//13 9//9
f 12//12 16//16 15//15 11//11
f 14//14 17//17 15//15 16//16 18//18 13//13
