# Exported from Wings 3D 0.98.32a
mtllib spider.mtl
o leg_copy9
#16 vertices, 12 faces
v 0.73779674 1.50770604 -2.07534535
v 0.73779674 1.50770604 -2.07534535
v 0.73779674 1.50770604 -2.07534535
v 0.73779674 1.50770604 -2.07534535
v 0.84974597 -0.24253872 -3.07417600
v 0.74186382 -0.23393638 -2.69257268
v 1.05749313 -0.23393638 -2.60334188
v 1.16537529 -0.24253872 -2.98494520
v 0.73537269 1.53452792 -2.09517302
v 0.73537269 1.53452792 -2.09517302
v 0.73537269 1.53452792 -2.09517302
v 0.73537269 1.53452792 -2.09517302
v 0.19862851 8.3146713e-2 -0.79942989
v 0.15608202 0.45586182 -0.64893344
v 0.47171133 0.45586182 -0.55970264
v 0.51425782 8.3146713e-2 -0.71019909
vn -0.49774358 0.40565453 -0.76661316
vn -0.87333142 -0.16452904 0.45850020
vn 0.50400666 -0.16452904 0.84788412
vn 0.82544437 0.40565453 -0.39253789
vn -0.52933472 -0.30041206 -0.79344650
vn -0.65879772 -0.66304855 0.35546054
vn 0.37517605 -0.66304855 0.64777277
vn 0.86640861 -0.30041206 -0.39885927
vn -0.51431595 -0.45742957 -0.72542215
vn -0.77923738 0.61019935 0.14298904
vn 0.58903220 0.61019935 0.52980923
vn 0.81799739 -0.45742957 -0.34876707
vn -0.68400808 -0.72143558 -0.10799841
vn -0.74999766 0.26142776 0.60758459
vn 0.32087235 0.26142776 0.91032767
vn 0.63930787 -0.72143558 0.26611304
g leg_copy9_legs
usemtl legs
f 1//1 5//5 6//6 2//2
f 2//2 3//3 4//4 1//1
f 2//2 6//6 7//7 3//3
f 3//3 7//7 8//8 4//4
f 4//4 8//8 5//5 1//1
f 5//5 8//8 7//7 6//6
f 9//9 13//13 14//14 10//10
f 10//10 11//11 12//12 9//9
f 10//10 14//14 15//15 11//11
f 11//11 15//15 16//16 12//12
f 12//12 16//16 13//13 9//9
f 13//13 16//16 15//15 14//14
o leg_copy8
#16 vertices, 12 faces
v -1.66942352 1.50770604 -2.02022308
v -1.66942352 1.50770604 -2.02022308
v -1.66942352 1.50770604 -2.02022308
v -1.66942352 1.50770604 -2.02022308
v -1.98845738 -0.24253872 -2.97332994
v -1.92562891 -0.23393638 -2.58177887
v -1.60177168 -0.23393638 -2.63374516
v -1.66460015 -0.24253872 -3.02529622
v -1.67997099 1.53452792 -2.03718666
v -1.67997099 1.53452792 -2.03718666
v -1.67997099 1.53452792 -2.03718666
v -1.67997099 1.53452792 -2.03718666
v -1.62121841 8.3146713e-2 -0.63590414
v -1.59644016 0.45586182 -0.48148450
v -1.27258293 0.45586182 -0.53345079
v -1.29736118 8.3146713e-2 -0.68787042
vn -0.77426388 0.40565453 -0.48575698
vn -0.59907768 -0.16452904 0.78360457
vn 0.81416524 -0.16452904 0.55683494
vn 0.58341731 0.40565453 -0.70361115
vn -0.81421663 -0.30041206 -0.49679360
vn -0.44787597 -0.66304855 0.59981142
vn 0.61305172 -0.66304855 0.42957446
vn 0.61791134 -0.30041206 -0.72659354
vn -0.77195132 -0.45742957 -0.44141744
vn -0.64658311 0.61019935 0.45780677
vn 0.75735491 0.61019935 0.23253020
vn 0.59509314 -0.45742957 -0.66077405
vn -0.66589000 -0.72143558 0.19005583
vn -0.42443575 0.26142776 0.86689666
vn 0.67435000 0.26142776 0.69058497
vn 0.69192253 -0.72143558 -2.7819419e-2
g leg_copy8_legs
usemtl legs
f 17//17 21//21 22//22 18//18
f 18//18 19//19 20//20 17//17
f 18//18 22//22 23//23 19//19
f 19//19 23//23 24//24 20//20
f 20//20 24//24 21//21 17//17
f 21//21 24//24 23//23 22//22
f 25//25 29//29 30//30 26//26
f 26//26 27//27 28//28 25//25
f 26//26 30//30 31//31 27//27
f 27//27 31//31 32//32 28//28
f 28//28 32//32 29//29 25//25
f 29//29 32//32 31//31 30//30
o leg_copy7
#16 vertices, 12 faces
v -0.48131459 1.50770604 -2.22554114
v -0.48131459 1.50770604 -2.22554114
v -0.48131459 1.50770604 -2.22554114
v -0.48131459 1.50770604 -2.22554114
v -0.59200721 -0.24253872 -3.22451183
v -0.61323154 -0.23393638 -2.82852044
v -0.28570165 -0.23393638 -2.81096551
v -0.26447733 -0.24253872 -3.20695691
v -0.48804428 1.53452792 -2.24434868
v -0.48804428 1.53452792 -2.24434868
v -0.48804428 1.53452792 -2.24434868
v -0.48804428 1.53452792 -2.24434868
v -0.72635837 8.3146713e-2 -0.86223039
v -0.73472880 0.45586182 -0.70605958
v -0.40719892 0.45586182 -0.68850466
v -0.39882849 8.3146713e-2 -0.84467546
vn -0.65430358 0.40565453 -0.63822506
vn -0.75096456 -0.16452904 0.63951733
vn 0.67830503 -0.16452904 0.71612323
vn 0.71877418 0.40565453 -0.56463092
vn -0.69102709 -0.30041206 -0.65744518
vn -0.56437881 -0.66304855 0.49177554
vn 0.50858017 -0.66304855 0.54928393
vn 0.75734171 -0.30041206 -0.57981560
vn -0.66140105 -0.45742957 -0.59439620
vn -0.72863970 0.61019935 0.31103205
vn 0.69121947 0.61019935 0.38713358
vn 0.72114617 -0.45742957 -0.52029452
vn -0.69100237 -0.72143558 4.5237486e-2
vn -0.59783542 0.26142776 0.75779175
vn 0.51341095 0.26142776 0.81735226
vn 0.68220822 -0.72143558 0.11883874
g leg_copy7_legs
usemtl legs
f 33//33 37//37 38//38 34//34
f 34//34 35//35 36//36 33//33
f 34//34 38//38 39//39 35//35
f 35//35 39//39 40//40 36//36
f 36//36 40//40 37//37 33//33
f 37//37 40//40 39//39 38//38
f 41//41 45//45 46//46 42//42
f 42//42 43//43 44//44 41//41
f 42//42 46//46 47//47 43//43
f 43//43 47//47 48//48 44//44
f 44//44 48//48 45//45 41//41
f 45//45 48//48 47//47 46//46
o leg_copy6
#16 vertices, 12 faces
v 0.73779674 1.50770604 2.02732646
v 0.73779674 1.50770604 2.02732646
v 0.73779674 1.50770604 2.02732646
v 0.73779674 1.50770604 2.02732646
v 0.84974597 -0.24253872 3.02615711
v 0.74186382 -0.23393638 2.64455379
v 1.05749313 -0.23393638 2.55532298
v 1.16537529 -0.24253872 2.93692631
v 0.73537269 1.53452792 2.04715413
v 0.73537269 1.53452792 2.04715413
v 0.73537269 1.53452792 2.04715413
v 0.73537269 1.53452792 2.04715413
v 0.19862851 8.3146713e-2 0.75141099
v 0.15608202 0.45586182 0.60091454
v 0.47171133 0.45586182 0.51168374
v 0.51425782 8.3146713e-2 0.66218019
vn -0.49774358 0.40565453 0.76661316
vn -0.87333142 -0.16452904 -0.45850020
vn 0.50400666 -0.16452904 -0.84788412
vn 0.82544437 0.40565453 0.39253789
vn -0.52933472 -0.30041206 0.79344650
vn -0.65879772 -0.66304855 -0.35546054
vn 0.37517605 -0.66304855 -0.64777277
vn 0.86640861 -0.30041206 0.39885927
vn -0.51431595 -0.45742957 0.72542215
vn -0.77923738 0.61019935 -0.14298904
vn 0.58903220 0.61019935 -0.52980923
vn 0.81799739 -0.45742957 0.34876707
vn -0.68400808 -0.72143558 0.10799841
vn -0.74999766 0.26142776 -0.60758459
vn 0.32087235 0.26142776 -0.91032767
vn 0.63930787 -0.72143558 -0.26611304
g leg_copy6_legs
usemtl legs
f 49//49 52//52 51//51 50//50
f 49//49 53//53 56//56 52//52
f 50//50 54//54 53//53 49//49
f 51//51 55//55 54//54 50//50
f 52//52 56//56 55//55 51//51
f 54//54 55//55 56//56 53//53
f 57//57 60//60 59//59 58//58
f 57//57 61//61 64//64 60//60
f 58//58 62//62 61//61 57//57
f 59//59 63//63 62//62 58//58
f 60//60 64//64 63//63 59//59
f 62//62 63//63 64//64 61//61
o leg_copy5
#16 vertices, 12 faces
v -1.66942352 1.50770604 1.99986229
v -1.66942352 1.50770604 1.99986229
v -1.66942352 1.50770604 1.99986229
v -1.66942352 1.50770604 1.99986229
v -1.98845738 -0.24253872 2.95296915
v -1.92562891 -0.23393638 2.56141808
v -1.60177168 -0.23393638 2.61338437
v -1.66460015 -0.24253872 3.00493544
v -1.67997099 1.53452792 2.01682587
v -1.67997099 1.53452792 2.01682587
v -1.67997099 1.53452792 2.01682587
v -1.67997099 1.53452792 2.01682587
v -1.62121841 8.3146713e-2 0.61554335
v -1.59644016 0.45586182 0.46112371
v -1.27258293 0.45586182 0.51309000
v -1.29736118 8.3146713e-2 0.66750963
vn -0.77426388 0.40565453 0.48575698
vn -0.59907768 -0.16452904 -0.78360457
vn 0.81416524 -0.16452904 -0.55683494
vn 0.58341731 0.40565453 0.70361115
vn -0.81421663 -0.30041206 0.49679360
vn -0.44787597 -0.66304855 -0.59981142
vn 0.61305172 -0.66304855 -0.42957446
vn 0.61791134 -0.30041206 0.72659354
vn -0.77195132 -0.45742957 0.44141744
vn -0.64658311 0.61019935 -0.45780677
vn 0.75735491 0.61019935 -0.23253020
vn 0.59509314 -0.45742957 0.66077405
vn -0.66589000 -0.72143558 -0.19005583
vn -0.42443575 0.26142776 -0.86689666
vn 0.67435000 0.26142776 -0.69058497
vn 0.69192253 -0.72143558 2.7819419e-2
g leg_copy5_legs
usemtl legs
f 65//65 68//68 67//67 66//66
f 65//65 69//69 72//72 68//68
f 66//66 70//70 69//69 65//65
f 67//67 71//71 70//70 66//66
f 68//68 72//72 71//71 67//67
f 70//70 71//71 72//72 69//69
f 73//73 76//76 75//75 74//74
f 73//73 77//77 80//80 76//76
f 74//74 78//78 77//77 73//73
f 75//75 79//79 78//78 74//74
f 76//76 80//80 79//79 75//75
f 78//78 79//79 80//80 77//77
o leg
#16 vertices, 12 faces
v -0.48131459 1.50770604 2.22081044
v -0.48131459 1.50770604 2.22081044
v -0.48131459 1.50770604 2.22081044
v -0.48131459 1.50770604 2.22081044
v -0.59200721 -0.24253872 3.21978113
v -0.61323154 -0.23393638 2.82378974
v -0.28570165 -0.23393638 2.80623481
v -0.26447733 -0.24253872 3.20222621
v -0.48804428 1.53452792 2.23961799
v -0.48804428 1.53452792 2.23961799
v -0.48804428 1.53452792 2.23961799
v -0.48804428 1.53452792 2.23961799
v -0.72635837 8.3146713e-2 0.85749969
v -0.73472880 0.45586182 0.70132888
v -0.40719892 0.45586182 0.68377396
v -0.39882849 8.3146713e-2 0.83994477
vn -0.65430358 0.40565453 0.63822506
vn -0.75096456 -0.16452904 -0.63951733
vn 0.67830503 -0.16452904 -0.71612323
vn 0.71877418 0.40565453 0.56463092
vn -0.69102709 -0.30041206 0.65744518
vn -0.56437881 -0.66304855 -0.49177554
vn 0.50858017 -0.66304855 -0.54928393
vn 0.75734171 -0.30041206 0.57981560
vn -0.66140105 -0.45742957 0.59439620
vn -0.72863970 0.61019935 -0.31103205
vn 0.69121947 0.61019935 -0.38713358
vn 0.72114617 -0.45742957 0.52029452
vn -0.69100237 -0.72143558 -4.5237486e-2
vn -0.59783542 0.26142776 -0.75779175
vn 0.51341095 0.26142776 -0.81735226
vn 0.68220822 -0.72143558 -0.11883874
g leg_legs
usemtl legs
f 81//81 84//84 83//83 82//82
f 81//81 85//85 88//88 84//84
f 82//82 86//86 85//85 81//81
f 83//83 87//87 86//86 82//82
f 84//84 88//88 87//87 83//83
f 86//86 87//87 88//88 85//85
f 89//89 92//92 91//91 90//90
f 89//89 93//93 96//96 92//92
f 90//90 94//94 93//93 89//89
f 91//91 95//95 94//94 90//90
f 92//92 96//96 95//95 91//91
f 94//94 95//95 96//96 93//93
o body
#12 vertices, 10 faces
v -2.34400000 -0.23371881 0.70000000
v -2.34400000 0.23042643 0.50000000
v -2.34400000 -0.23371881 -0.70000000
v -2.34400000 0.23042643 -0.50000000
v 0.0000000e+0 0.49200000 0.80000000
v 0.0000000e+0 -0.23371881 1.00000000
v 0.0000000e+0 0.49200000 -0.80000000
v 0.0000000e+0 -0.23371881 -1.00000000
v 2.34400000 0.0000000e+0 0.0000000e+0
v 2.34400000 0.0000000e+0 0.0000000e+0
v 2.34400000 0.0000000e+0 0.0000000e+0
v 2.34400000 0.0000000e+0 0.0000000e+0
vn -0.69967624 -0.42086877 0.57734101
vn -0.61256327 0.64237500 0.46056553
vn -0.69967624 -0.42086877 -0.57734101
vn -0.61256327 0.64237500 -0.46056553
vn 0.10033198 0.80553632 0.58399036
vn 0.13629428 -0.60860561 0.78167965
vn 0.10033198 0.80553632 -0.58399036
vn 0.13629428 -0.60860561 -0.78167965
vn 0.34792431 0.75595972 0.55450299
vn 0.36489444 -0.59478148 0.71630094
vn 0.36489444 -0.59478148 -0.71630094
vn 0.34792431 0.75595972 -0.55450299
g body_body
usemtl body
f 97//97 99//99 104//104 102//102
f 97//97 102//102 101//101 98//98
f 98//98 100//100 99//99 97//97
f 100//100 103//103 104//104 99//99
f 101//101 103//103 100//100 98//98
f 101//101 105//105 108//108 103//103
f 102//102 106//106 105//105 101//101
f 103//103 108//108 107//107 104//104
f 104//104 107//107 106//106 102//102
f 106//106 107//107 108//108 105//105
