# Exported from Wings 3D 0.98.32a
mtllib plane2.mtl
o tail
#70 vertices, 124 faces
v 5.0120400e-2 0.77600000 -2.84460000
v 5.0120400e-2 1.97600000 -2.84460000
v -4.9879600e-2 1.97600000 -2.84460000
v -4.9879600e-2 0.77600000 -2.84460000
v 5.0116400e-2 0.77600000 -1.34460000
v 5.0120500e-2 1.97600000 -2.35060000
v -4.9879500e-2 1.97600000 -2.35060000
v -4.9883600e-2 0.77600000 -1.34460000
v 2.00012000 -0.10000000 -2.85260000
v 2.00012000 0.10000000 -2.85260000
v -1.99988000 0.10000000 -2.85261000
v -1.99988000 -0.10000000 -2.85261000
v 2.03812000 -0.10000400 -1.87860000
v 2.00012000 9.9996000e-2 -1.84460000
v -1.99788000 9.9996000e-2 -1.84661000
v -2.04588000 -0.10000400 -1.86661000
v -0.49989500 0.29764700 1.12975000
v -0.46183500 0.48898900 1.12975000
v -0.35344800 0.65120000 1.12975000
v -0.19123700 0.75958700 1.12975000
v 1.0547500e-4 0.79764700 1.12975000
v 0.19144700 0.75958700 1.12975000
v 0.35365900 0.65120000 1.12975000
v 0.46204500 0.48898900 1.12975000
v 0.50010500 0.29764700 1.12975000
v 0.46204500 0.10630500 1.12975000
v 0.35365900 -5.5906500e-2 1.12975000
v 0.19144700 -0.16429300 1.12975000
v 1.0547500e-4 -0.20235300 1.12975000
v -0.19123700 -0.16429300 1.12975000
v -0.35344800 -5.5906500e-2 1.12975000
v -0.46183500 0.10630500 1.12975000
v 1.0016800e-4 0.29765000 3.12975000
v -0.17667300 0.47442500 2.12975000
v -9.5568000e-2 0.52861800 2.12975000
v 1.0282100e-4 0.54764800 2.12975000
v 9.5773700e-2 0.52861800 2.12975000
v 0.17688000 0.47442500 2.12975000
v -0.49989200 0.30000100 1.14740000
v -0.46183200 0.49134300 1.14740000
v -0.35344500 0.65355500 1.14740000
v -0.19123400 0.76194100 1.14740000
v 1.0821400e-4 0.80000100 1.14740000
v 0.19145000 0.76194100 1.14740000
v 0.35366100 0.65355500 1.14740000
v 0.46204800 0.49134300 1.14740000
v 0.50010800 0.30000100 1.14740000
v 0.46204800 0.10866000 1.14740000
v 0.35366100 -5.3552100e-2 1.14740000
v 0.19145000 -0.16193800 1.14740000
v 1.0821400e-4 -0.19999900 1.14740000
v -0.19123400 -0.16193800 1.14740000
v -0.35344500 -5.3552100e-2 1.14740000
v -0.46183200 0.10866000 1.14740000
v -0.49988100 0.29999900 -2.85260000
v -0.46182100 0.49134000 -2.85260000
v -0.35343400 0.65355200 -2.85260000
v -0.19122300 0.76193800 -2.85260000
v 1.1882900e-4 0.79999900 -2.85260000
v 0.19146100 0.76193800 -2.85260000
v 0.35367200 0.65355200 -2.85260000
v 0.46205900 0.49134000 -2.85260000
v 0.50011900 0.29999900 -2.85260000
v 0.46205900 0.10865700 -2.85260000
v 0.35367200 -5.3554700e-2 -2.85260000
v 0.19146100 -0.16194100 -2.85260000
v 1.1882900e-4 -0.20000100 -2.85260000
v -0.19122300 -0.16194100 -2.85260000
v -0.35343400 -5.3554700e-2 -2.85260000
v -0.46182100 0.10865700 -2.85260000
vn 0.57735039 -0.57735073 -0.57734968
vn 0.57735023 0.57735023 -0.57735035
vn -0.57734969 0.57735072 -0.57735040
vn -0.57734976 -0.57734976 -0.57735130
vn 0.76357705 -0.27302327 0.58515672
vn 0.48309259 0.79345172 0.37021064
vn -0.48309190 0.79345262 0.37020962
vn -0.76357885 -0.27302164 0.58515513
vn 0.58804835 -0.53659387 -0.60519927
vn 0.57735200 0.57735055 -0.57734826
vn -0.54561987 0.61809427 -0.56591380
vn -0.56796583 -0.56858501 -0.59508478
vn 0.58618632 -0.58074776 0.56490499
vn 0.58684472 0.57011273 0.57496500
vn -0.54168059 0.63124818 0.55507465
vn -0.57415214 -0.59290424 0.56463606
vn -0.60249637 8.1113196e-9 -0.79812163
vn -0.89211102 0.44078656 -9.9222700e-2
vn -0.19821886 0.19821886 -0.95990550
vn -0.36899608 0.89083233 -0.26506536
vn 4.3606499e-7 0.96423068 -0.26506453
vn 0.33709771 0.81382862 -0.47333721
vn 0.55221381 0.55221305 -0.62459640
vn 0.81791630 0.40412062 -0.40951123
vn 0.60249727 8.1114707e-9 -0.79812095
vn 0.72150260 -0.29885507 -0.62459559
vn 0.42603000 -0.42602970 -0.79812100
vn 0.29885543 -0.72150228 -0.62459578
vn 4.3606938e-7 -0.96423122 -0.26506256
vn -0.23056563 -0.55663423 -0.79812143
vn -0.23055429 -0.23055444 -0.94535145
vn -0.89083250 -0.36899577 -0.26506525
vn -3.6405013e-7 2.7379006e-6 1.00000000
vn -0.65821337 0.71275549 0.24235257
vn -0.37125859 0.89629486 0.24253366
vn 9.4793838e-8 0.97014280 0.24253443
vn 0.37125502 0.89629589 0.24253535
vn 0.65821306 0.71275465 0.24235591
vn -0.79436374 -5.1956819e-14 0.60744238
vn -0.50559880 0.20942596 0.83696513
vn -0.56169952 0.56170031 0.60744252
vn -0.20942546 0.50559876 0.83696528
vn 2.0831803e-8 0.96901564 0.24699939
vn 0.26796012 0.64691381 0.71393270
vn 0.56169846 0.56169926 0.60744447
vn 0.50559762 0.20942547 0.83696596
vn 0.79436163 5.1967921e-14 0.60744514
vn 0.50559746 -0.20942562 0.83696602
vn 0.56169824 -0.56169896 0.60744495
vn 0.20942648 -0.50559763 0.83696570
vn 2.0836013e-8 -0.96901535 0.24700053
vn -0.26796164 -0.64691365 0.71393228
vn -0.56169929 -0.56170001 0.60744300
vn -0.50559863 -0.20942610 0.83696519
vn -0.44029909 2.2014875e-7 -0.89785116
vn -0.73389419 0.30398926 -0.60744535
vn -0.38696751 0.38696806 -0.83696587
vn -0.34093650 0.82309196 -0.45418271
vn -1.5234777e-7 0.89090884 -0.45418216
vn 0.30399000 0.73389533 -0.60744360
vn 0.38696820 0.38696875 -0.83696523
vn 0.73389599 0.30399000 -0.60744280
vn 0.54725640 2.7362727e-7 -0.83696501
vn 0.82309343 -0.34093697 -0.45417967
vn 0.38696852 -0.38696890 -0.83696501
vn 0.34093715 -0.82309298 -0.45418036
vn -1.5234425e-7 -0.89090939 -0.45418109
vn -0.30399001 -0.73389496 -0.60744404
vn -0.25824541 -0.25824567 -0.93092346
vn -0.89525289 -0.37082644 -0.24700205
g tail_default
usemtl default
f 17//17 19//19 31//31
f 17//17 31//31 32//32
f 18//18 19//19 17//17
f 20//20 22//22 19//19
f 21//21 22//22 20//20
f 23//23 19//19 22//22
f 24//24 19//19 23//23
f 25//25 19//19 24//24
f 25//25 31//31 19//19
f 26//26 31//31 25//25
f 27//27 31//31 26//26
f 28//28 30//30 27//27
f 29//29 30//30 28//28
f 31//31 27//27 30//30
g tail_mtl_body
usemtl mtl_body
f 11//11 14//14 10//10
f 15//15 14//14 11//11
f 17//17 33//33 18//18
f 18//18 34//34 19//19
f 23//23 38//38 24//24
f 24//24 33//33 25//25
f 24//24 38//38 33//33
f 25//25 33//33 26//26
f 26//26 33//33 27//27
f 27//27 33//33 28//28
f 28//28 33//33 29//29
f 29//29 33//33 30//30
f 30//30 33//33 31//31
f 31//31 33//33 32//32
f 32//32 33//33 17//17
f 33//33 34//34 18//18
f 33//33 35//35 34//34
f 33//33 36//36 35//35
f 33//33 37//37 36//36
f 33//33 38//38 37//37
f 39//39 47//47 40//40
f 39//39 56//56 55//55
f 39//39 70//70 54//54
f 40//40 46//46 41//41
f 40//40 56//56 39//39
f 41//41 45//45 42//42
f 41//41 56//56 40//40
f 41//41 58//58 57//57
f 42//42 44//44 43//43
f 42//42 58//58 41//41
f 43//43 58//58 42//42
f 43//43 60//60 59//59
f 44//44 42//42 45//45
f 44//44 60//60 43//43
f 45//45 41//41 46//46
f 45//45 60//60 44//44
f 45//45 62//62 61//61
f 46//46 40//40 47//47
f 46//46 62//62 45//45
f 47//47 39//39 48//48
f 47//47 62//62 46//46
f 47//47 64//64 63//63
f 48//48 54//54 49//49
f 48//48 64//64 47//47
f 49//49 53//53 50//50
f 49//49 64//64 48//48
f 49//49 66//66 65//65
f 50//50 52//52 51//51
f 50//50 66//66 49//49
f 51//51 66//66 50//50
f 51//51 68//68 67//67
f 52//52 50//50 53//53
f 52//52 68//68 51//51
f 53//53 49//49 54//54
f 53//53 68//68 52//52
f 53//53 70//70 69//69
f 54//54 48//48 39//39
f 54//54 70//70 53//53
f 55//55 63//63 69//69
f 55//55 69//69 70//70
f 55//55 70//70 39//39
f 56//56 62//62 55//55
f 57//57 56//56 41//41
f 57//57 61//61 56//56
f 58//58 60//60 57//57
f 59//59 58//58 43//43
f 59//59 60//60 58//58
f 61//61 57//57 60//60
f 61//61 60//60 45//45
f 62//62 56//56 61//61
f 63//63 55//55 62//62
f 63//63 62//62 47//47
f 64//64 69//69 63//63
f 65//65 64//64 49//49
f 65//65 69//69 64//64
f 66//66 68//68 65//65
f 67//67 66//66 51//51
f 67//67 68//68 66//66
f 69//69 65//65 68//68
f 69//69 68//68 53//53
g tail_mtl_tail
usemtl mtl_tail
f 1//1 3//3 2//2
f 1//1 6//6 5//5
f 1//1 8//8 4//4
f 2//2 6//6 1//1
f 3//3 6//6 2//2
f 3//3 8//8 7//7
f 4//4 3//3 1//1
f 4//4 8//8 3//3
f 5//5 8//8 1//1
f 6//6 8//8 5//5
f 7//7 6//6 3//3
f 7//7 8//8 6//6
g tail_mtl_window
usemtl mtl_window
f 19//19 34//34 20//20
f 20//20 34//34 35//35
f 20//20 36//36 21//21
f 21//21 36//36 22//22
f 22//22 36//36 37//37
f 22//22 38//38 23//23
f 35//35 36//36 20//20
f 37//37 38//38 22//22
g tail_mtl_wing
usemtl mtl_wing
f 9//9 11//11 10//10
f 9//9 14//14 13//13
f 9//9 16//16 12//12
f 10//10 14//14 9//9
f 11//11 16//16 15//15
f 12//12 11//11 9//9
f 12//12 16//16 11//11
f 13//13 16//16 9//9
f 14//14 16//16 13//13
f 16//16 14//14 15//15
