  0
SECTION
  2
HEADER
  9
$ACADVER
  1
AC1015
  9
$ACADMAINTVER
 70
    13
  9
$DWGCODEPAGE
  3
ANSI_1252
  9
$INSBASE
 10
0.0
 20
0.0
 30
0.0
  9
$EXTMIN
 10
-29.46059275735974
 20
150.3194472772361
 30
0.0
  9
$EXTMAX
 10
1385.271235885516
 20
740.0524560000137
 30
0.0
  9
$LIMMIN
 10
0.0
 20
0.0
  9
$LIMMAX
 10
420.0
 20
297.0
  9
$ORTHOMODE
 70
     0
  9
$REGENMODE
 70
     1
  9
$FILLMODE
 70
     1
  9
$QTEXTMODE
 70
     0
  9
$MIRRTEXT
 70
     1
  9
$LTSCALE
 40
1.0
  9
$ATTMODE
 70
     1
  9
$TEXTSIZE
 40
2.5
  9
$TRACEWID
 40
1.0
  9
$TEXTSTYLE
  7
Standard
  9
$CLAYER
  8
0
  9
$CELTYPE
  6
ByLayer
  9
$CECOLOR
 62
     3
  9
$CELTSCALE
 40
1.0
  9
$DISPSILH
 70
     0
  9
$DIMSCALE
 40
1.0
  9
$DIMASZ
 40
2.5
  9
$DIMEXO
 40
0.625
  9
$DIMDLI
 40
3.75
  9
$DIMRND
 40
0.0
  9
$DIMDLE
 40
0.0
  9
$DIMEXE
 40
1.25
  9
$DIMTP
 40
0.0
  9
$DIMTM
 40
0.0
  9
$DIMTXT
 40
2.5
  9
$DIMCEN
 40
2.5
  9
$DIMTSZ
 40
0.0
  9
$DIMTOL
 70
     0
  9
$DIMLIM
 70
     0
  9
$DIMTIH
 70
     0
  9
$DIMTOH
 70
     0
  9
$DIMSE1
 70
     0
  9
$DIMSE2
 70
     0
  9
$DIMTAD
 70
     1
  9
$DIMZIN
 70
     8
  9
$DIMBLK
  1

  9
$DIMASO
 70
     1
  9
$DIMSHO
 70
     1
  9
$DIMPOST
  1

  9
$DIMAPOST
  1

  9
$DIMALT
 70
     0
  9
$DIMALTD
 70
     3
  9
$DIMALTF
 40
0.03937007874016
  9
$DIMLFAC
 40
1.0
  9
$DIMTOFL
 70
     1
  9
$DIMTVP
 40
0.0
  9
$DIMTIX
 70
     0
  9
$DIMSOXD
 70
     0
  9
$DIMSAH
 70
     0
  9
$DIMBLK1
  1

  9
$DIMBLK2
  1

  9
$DIMSTYLE
  2
ISO-25
  9
$DIMCLRD
 70
     0
  9
$DIMCLRE
 70
     0
  9
$DIMCLRT
 70
     0
  9
$DIMTFAC
 40
1.0
  9
$DIMGAP
 40
0.625
  9
$DIMJUST
 70
     0
  9
$DIMSD1
 70
     0
  9
$DIMSD2
 70
     0
  9
$DIMTOLJ
 70
     0
  9
$DIMTZIN
 70
     8
  9
$DIMALTZ
 70
     0
  9
$DIMALTTZ
 70
     0
  9
$DIMUPT
 70
     0
  9
$DIMDEC
 70
     2
  9
$DIMTDEC
 70
     2
  9
$DIMALTU
 70
     2
  9
$DIMALTTD
 70
     3
  9
$DIMTXSTY
  7
Standard
  9
$DIMAUNIT
 70
     0
  9
$DIMADEC
 70
     0
  9
$DIMALTRND
 40
0.0
  9
$DIMAZIN
 70
     0
  9
$DIMDSEP
 70
    44
  9
$DIMATFIT
 70
     3
  9
$DIMFRAC
 70
     0
  9
$DIMLDRBLK
  1

  9
$DIMLUNIT
 70
     2
  9
$DIMLWD
 70
    -2
  9
$DIMLWE
 70
    -2
  9
$DIMTMOVE
 70
     0
  9
$LUNITS
 70
     2
  9
$LUPREC
 70
     4
  9
$SKETCHINC
 40
1.0
  9
$FILLETRAD
 40
10.0
  9
$AUNITS
 70
     0
  9
$AUPREC
 70
     0
  9
$MENU
  1
.
  9
$ELEVATION
 40
0.0
  9
$PELEVATION
 40
0.0
  9
$THICKNESS
 40
0.0
  9
$LIMCHECK
 70
     0
  9
$CHAMFERA
 40
10.0
  9
$CHAMFERB
 40
10.0
  9
$CHAMFERC
 40
20.0
  9
$CHAMFERD
 40
0.0
  9
$SKPOLY
 70
     0
  9
$TDCREATE
 40
2454278.358278935
  9
$TDUCREATE
 40
2454278.274945602
  9
$TDUPDATE
 40
2454278.414806342
  9
$TDUUPDATE
 40
2454278.331473009
  9
$TDINDWG
 40
0.0557796296
  9
$TDUSRTIMER
 40
0.0557776505
  9
$USRTIMER
 70
     1
  9
$ANGBASE
 50
0.0
  9
$ANGDIR
 70
     0
  9
$PDMODE
 70
     0
  9
$PDSIZE
 40
0.0
  9
$PLINEWID
 40
0.0
  9
$SPLFRAME
 70
     0
  9
$SPLINETYPE
 70
     6
  9
$SPLINESEGS
 70
     8
  9
$HANDSEED
  5
21C
  9
$SURFTAB1
 70
     6
  9
$SURFTAB2
 70
     6
  9
$SURFTYPE
 70
     6
  9
$SURFU
 70
     6
  9
$SURFV
 70
     6
  9
$UCSBASE
  2

  9
$UCSNAME
  2

  9
$UCSORG
 10
0.0
 20
0.0
 30
0.0
  9
$UCSXDIR
 10
1.0
 20
0.0
 30
0.0
  9
$UCSYDIR
 10
0.0
 20
1.0
 30
0.0
  9
$UCSORTHOREF
  2

  9
$UCSORTHOVIEW
 70
     0
  9
$UCSORGTOP
 10
0.0
 20
0.0
 30
0.0
  9
$UCSORGBOTTOM
 10
0.0
 20
0.0
 30
0.0
  9
$UCSORGLEFT
 10
0.0
 20
0.0
 30
0.0
  9
$UCSORGRIGHT
 10
0.0
 20
0.0
 30
0.0
  9
$UCSORGFRONT
 10
0.0
 20
0.0
 30
0.0
  9
$UCSORGBACK
 10
0.0
 20
0.0
 30
0.0
  9
$PUCSBASE
  2

  9
$PUCSNAME
  2

  9
$PUCSORG
 10
0.0
 20
0.0
 30
0.0
  9
$PUCSXDIR
 10
1.0
 20
0.0
 30
0.0
  9
$PUCSYDIR
 10
0.0
 20
1.0
 30
0.0
  9
$PUCSORTHOREF
  2

  9
$PUCSORTHOVIEW
 70
     0
  9
$PUCSORGTOP
 10
0.0
 20
0.0
 30
0.0
  9
$PUCSORGBOTTOM
 10
0.0
 20
0.0
 30
0.0
  9
$PUCSORGLEFT
 10
0.0
 20
0.0
 30
0.0
  9
$PUCSORGRIGHT
 10
0.0
 20
0.0
 30
0.0
  9
$PUCSORGFRONT
 10
0.0
 20
0.0
 30
0.0
  9
$PUCSORGBACK
 10
0.0
 20
0.0
 30
0.0
  9
$USERI1
 70
     0
  9
$USERI2
 70
     0
  9
$USERI3
 70
     0
  9
$USERI4
 70
     0
  9
$USERI5
 70
     0
  9
$USERR1
 40
0.0
  9
$USERR2
 40
0.0
  9
$USERR3
 40
0.0
  9
$USERR4
 40
0.0
  9
$USERR5
 40
0.0
  9
$WORLDVIEW
 70
     1
  9
$SHADEDGE
 70
     3
  9
$SHADEDIF
 70
    70
  9
$TILEMODE
 70
     1
  9
$MAXACTVP
 70
    64
  9
$PINSBASE
 10
0.0
 20
0.0
 30
0.0
  9
$PLIMCHECK
 70
     0
  9
$PEXTMIN
 10
0.0
 20
0.0
 30
0.0
  9
$PEXTMAX
 10
0.0
 20
0.0
 30
0.0
  9
$PLIMMIN
 10
0.0
 20
0.0
  9
$PLIMMAX
 10
12.0
 20
9.0
  9
$UNITMODE
 70
     0
  9
$VISRETAIN
 70
     1
  9
$PLINEGEN
 70
     0
  9
$PSLTSCALE
 70
     1
  9
$TREEDEPTH
 70
  3020
  9
$CMLSTYLE
  2
Standard
  9
$CMLJUST
 70
     0
  9
$CMLSCALE
 40
20.0
  9
$PROXYGRAPHICS
 70
     1
  9
$MEASUREMENT
 70
     1
  9
$CELWEIGHT
370
    -1
  9
$ENDCAPS
280
     0
  9
$JOINSTYLE
280
     0
  9
$LWDISPLAY
290
     0
  9
$INSUNITS
 70
     4
  9
$HYPERLINKBASE
  1

  9
$STYLESHEET
  1

  9
$XEDIT
290
     1
  9
$CEPSNTYPE
380
     0
  9
$PSTYLEMODE
290
     1
  9
$FINGERPRINTGUID
  2
{FDEAD578-A652-11D2-9A35-0060089B3A3F}
  9
$VERSIONGUID
  2
{7C9D8D50-CA6B-435E-8542-B1CCCA43CBA7}
  9
$EXTNAMES
290
     1
  9
$PSVPSCALE
 40
0.0
  9
$OLESTARTUP
290
     0
  0
ENDSEC
  0
SECTION
  2
CLASSES
  0
CLASS
  1
ACDBDICTIONARYWDFLT
  2
AcDbDictionaryWithDefault
  3
AutoCAD 2000
 90
        0
280
     0
281
     0
  0
CLASS
  1
ACDBPLACEHOLDER
  2
AcDbPlaceHolder
  3
AutoCAD 2000
 90
        0
280
     0
281
     0
  0
CLASS
  1
LAYOUT
  2
AcDbLayout
  3
AutoCAD 2000
 90
        0
280
     0
281
     0
  0
CLASS
  1
DICTIONARYVAR
  2
AcDbDictionaryVar
  3
AutoCAD 2000
 90
        0
280
     0
281
     0
  0
ENDSEC
  0
SECTION
  2
TABLES
  0
TABLE
  2
VPORT
  5
8
330
0
100
AcDbSymbolTable
 70
     3
  0
VPORT
  5
21B
330
8
100
AcDbSymbolTableRecord
100
AcDbViewportTableRecord
  2
*Active
 70
     0
 10
0.0
 20
0.0
 11
1.0
 21
1.0
 12
666.6822476066682
 22
354.0148824974258
 13
0.0
 23
0.0
 14
10.0
 24
10.0
 15
10.0
 25
10.0
 16
0.0
 26
0.0
 36
1.0
 17
0.0
 27
0.0
 37
0.0
 40
1428.997584443819
 41
1.243935309973045
 42
50.0
 43
0.0
 44
0.0
 50
0.0
 51
0.0
 71
     0
 72
   100
 73
     1
 74
     3
 75
     0
 76
     0
 77
     0
 78
     0
281
     0
 65
     1
110
0.0
120
0.0
130
0.0
111
1.0
121
0.0
131
0.0
112
0.0
122
1.0
132
0.0
 79
     0
146
0.0
  0
ENDTAB
  0
TABLE
  2
LTYPE
  5
5
330
0
100
AcDbSymbolTable
 70
     1
  0
LTYPE
  5
14
330
5
100
AcDbSymbolTableRecord
100
AcDbLinetypeTableRecord
  2
ByBlock
 70
     0
  3

 72
    65
 73
     0
 40
0.0
  0
LTYPE
  5
15
330
5
100
AcDbSymbolTableRecord
100
AcDbLinetypeTableRecord
  2
ByLayer
 70
     0
  3

 72
    65
 73
     0
 40
0.0
  0
LTYPE
  5
16
330
5
100
AcDbSymbolTableRecord
100
AcDbLinetypeTableRecord
  2
Continuous
 70
     0
  3
Solid line
 72
    65
 73
     0
 40
0.0
  0
ENDTAB
  0
TABLE
  2
LAYER
  5
2
330
0
100
AcDbSymbolTable
 70
     3
  0
LAYER
  5
10
330
2
100
AcDbSymbolTableRecord
100
AcDbLayerTableRecord
  2
0
 70
     0
 62
     7
  6
Continuous
370
    -3
390
F
  0
LAYER
  5
BD
330
2
100
AcDbSymbolTableRecord
100
AcDbLayerTableRecord
  2
constr
 70
     0
 62
   253
  6
Continuous
370
    -3
390
F
  0
LAYER
  5
15B
330
2
100
AcDbSymbolTableRecord
100
AcDbLayerTableRecord
  2
ASHADE
 70
     4
 62
     7
  6
Continuous
370
    -3
390
F
  0
ENDTAB
  0
TABLE
  2
STYLE
  5
3
330
0
100
AcDbSymbolTable
 70
     2
  0
STYLE
  5
11
330
3
100
AcDbSymbolTableRecord
100
AcDbTextStyleTableRecord
  2
Standard
 70
     0
 40
0.0
 41
1.0
 50
0.0
 71
     0
 42
2.5
  3
txt
  4

  0
STYLE
  5
158
330
3
100
AcDbSymbolTableRecord
100
AcDbTextStyleTableRecord
  2
ASHADE
 70
     0
 40
0.2
 41
1.0
 50
0.0
 71
     0
 42
2.5
  3
simplex.shx
  4

  0
ENDTAB
  0
TABLE
  2
VIEW
  5
6
330
0
100
AcDbSymbolTable
 70
     3
  0
ENDTAB
  0
TABLE
  2
UCS
  5
7
330
0
100
AcDbSymbolTable
 70
     0
  0
ENDTAB
  0
TABLE
  2
APPID
  5
9
330
0
100
AcDbSymbolTable
 70
     6
  0
APPID
  5
12
330
9
100
AcDbSymbolTableRecord
100
AcDbRegAppTableRecord
  2
ACAD
 70
     0
  0
APPID
  5
159
330
9
100
AcDbSymbolTableRecord
100
AcDbRegAppTableRecord
  2
AVE_RENDER
 70
     0
  0
APPID
  5
15A
330
9
100
AcDbSymbolTableRecord
100
AcDbRegAppTableRecord
  2
AVE_ENTITY_MATERIAL
 70
     0
  0
APPID
  5
167
330
9
100
AcDbSymbolTableRecord
100
AcDbRegAppTableRecord
  2
AVE_FINISH
 70
     0
  0
APPID
  5
168
330
9
100
AcDbSymbolTableRecord
100
AcDbRegAppTableRecord
  2
AVE_MATERIAL
 70
     0
  0
APPID
  5
169
330
9
100
AcDbSymbolTableRecord
100
AcDbRegAppTableRecord
  2
AVE_GLOBAL
 70
     0
  0
ENDTAB
  0
TABLE
  2
DIMSTYLE
  5
A
330
0
100
AcDbSymbolTable
 70
     1
100
AcDbDimStyleTable
 71
     0
  0
DIMSTYLE
105
27
330
A
100
AcDbSymbolTableRecord
100
AcDbDimStyleTableRecord
  2
ISO-25
 70
     0
 41
2.5
 42
0.625
 43
3.75
 44
1.25
 73
     0
 74
     0
 77
     1
 78
     8
140
2.5
141
2.5
143
0.03937007874016
147
0.625
171
     3
172
     1
271
     2
272
     2
274
     3
278
    44
283
     0
284
     8
340
11
  0
ENDTAB
  0
TABLE
  2
BLOCK_RECORD
  5
1
330
0
100
AcDbSymbolTable
 70
     8
  0
BLOCK_RECORD
  5
1F
330
1
100
AcDbSymbolTableRecord
100
AcDbBlockTableRecord
  2
*Model_Space
340
22
  0
BLOCK_RECORD
  5
50
330
1
100
AcDbSymbolTableRecord
100
AcDbBlockTableRecord
  2
*Paper_Space
340
51
  0
BLOCK_RECORD
  5
55
330
1
100
AcDbSymbolTableRecord
100
AcDbBlockTableRecord
  2
*Paper_Space0
340
56
  0
BLOCK_RECORD
  5
95
330
1
100
AcDbSymbolTableRecord
100
AcDbBlockTableRecord
  2
arrow1
340
0
310
2800000020000000200000000100080000000000000400000000000000000000000000000000000000000000000080000080000000808000800000008000800080800000C0C0C000C0DCC000F0CAA6000020400000206000002080000020A0000020C0000020E00000400000004020000040400000406000004080000040A0
310
000040C0000040E00000600000006020000060400000606000006080000060A0000060C0000060E00000800000008020000080400000806000008080000080A0000080C0000080E00000A0000000A0200000A0400000A0600000A0800000A0A00000A0C00000A0E00000C0000000C0200000C0400000C0600000C0800000C0
310
A00000C0C00000C0E00000E0000000E0200000E0400000E0600000E0800000E0A00000E0C00000E0E00040000000400020004000400040006000400080004000A0004000C0004000E00040200000402020004020400040206000402080004020A0004020C0004020E000404000004040200040404000404060004040800040
310
40A0004040C0004040E00040600000406020004060400040606000406080004060A0004060C0004060E00040800000408020004080400040806000408080004080A0004080C0004080E00040A0000040A0200040A0400040A0600040A0800040A0A00040A0C00040A0E00040C0000040C0200040C0400040C0600040C08000
310
40C0A00040C0C00040C0E00040E0000040E0200040E0400040E0600040E0800040E0A00040E0C00040E0E00080000000800020008000400080006000800080008000A0008000C0008000E00080200000802020008020400080206000802080008020A0008020C0008020E00080400000804020008040400080406000804080
310
008040A0008040C0008040E00080600000806020008060400080606000806080008060A0008060C0008060E00080800000808020008080400080806000808080008080A0008080C0008080E00080A0000080A0200080A0400080A0600080A0800080A0A00080A0C00080A0E00080C0000080C0200080C0400080C0600080C0
310
800080C0A00080C0C00080C0E00080E0000080E0200080E0400080E0600080E0800080E0A00080E0C00080E0E000C0000000C0002000C0004000C0006000C0008000C000A000C000C000C000E000C0200000C0202000C0204000C0206000C0208000C020A000C020C000C020E000C0400000C0402000C0404000C0406000C0
310
408000C040A000C040C000C040E000C0600000C0602000C0604000C0606000C0608000C060A000C060C000C060E000C0800000C0802000C0804000C0806000C0808000C080A000C080C000C080E000C0A00000C0A02000C0A04000C0A06000C0A08000C0A0A000C0A0C000C0A0E000C0C00000C0C02000C0C04000C0C06000
310
C0C08000C0C0A000F0FBFF00A4A0A000808080000000FF0000FF000000FFFF00FF000000FF00FF00FFFF0000FFFFFF0000000000000000000000000000000000000000000000000000000000000000000000000000000000000000000000000000000000000000000000000000000000000000000000000000000000000000
310
00000000000000000000000000000000000000000000000000000000000000000000000000000000000000000000000000000000000000000000000000000000000000000000000000000000000000000000000000000000000000000000000000000000000000000000000000000000000000000000000000000000000000
310
00000000000000000000000000000000000000000000000000000000000000000000000000000000000000000000000000000000000000000000000000000000000000000000000000000000000002000000000028180000000000000000000000000000000000000000000000020200000000000028180000000000000000
310
00000000000000000000000000020200000000000000002818000000000000000000000000000000000000000202000000000000000000002818000000000000000000000000000000000002020000000000000000000000002818000000000000000000000000000000020200000000000000000000000000002818000000
310
00000000000000000000020200000000000000000000000000000000281800000000000000000000000202000000000000000000000000000000000000281800000000000000000002020000000000000000000000000000000000000000281800000000000000020200000000000000000000000000000000000000000000
310
28180000000000020200000000000000000000000000000000000000000000000028180000000202000000000000000000000000000000000000000000000000000028180002020000000000000000000000000000000000000000000000000000000028280200000000000000000000000000000000000000000000000000
310
00000000003018000000000000000000000000000000000000000000000000000000000000000000000000000000000000000000000000000000000000000000000000000000000000000000000000000000000000000000000000000000000000000000000000000000000000000000000000000000000000000000000000
310
00000000000000000000000000000000000000000000000000000000000000000000000000000000000000000000000000000000000000000000000000000000000000000000000000000000000000000000000000000000000000000000000000000000000000000000000000000000000000000000000000000000000000
310
0000000000000000000000000000000000000000000000000000000000000000000000000000000000000000000000000000000000000000
102
{BLKREFS
331
9A
331
9B
331
9C
331
9D
102
}
1001
ACAD
1000
DesignCenter Data
1002
{
1070
     1
1070
     4
1002
}
  0
BLOCK_RECORD
  5
A0
330
1
100
AcDbSymbolTableRecord
100
AcDbBlockTableRecord
  2
gp32_arrow
340
0
310
2800000020000000200000000100080000000000000400000000000000000000000000000000000000000000000080000080000000808000800000008000800080800000C0C0C000C0DCC000F0CAA6000020400000206000002080000020A0000020C0000020E00000400000004020000040400000406000004080000040A0
310
000040C0000040E00000600000006020000060400000606000006080000060A0000060C0000060E00000800000008020000080400000806000008080000080A0000080C0000080E00000A0000000A0200000A0400000A0600000A0800000A0A00000A0C00000A0E00000C0000000C0200000C0400000C0600000C0800000C0
310
A00000C0C00000C0E00000E0000000E0200000E0400000E0600000E0800000E0A00000E0C00000E0E00040000000400020004000400040006000400080004000A0004000C0004000E00040200000402020004020400040206000402080004020A0004020C0004020E000404000004040200040404000404060004040800040
310
40A0004040C0004040E00040600000406020004060400040606000406080004060A0004060C0004060E00040800000408020004080400040806000408080004080A0004080C0004080E00040A0000040A0200040A0400040A0600040A0800040A0A00040A0C00040A0E00040C0000040C0200040C0400040C0600040C08000
310
40C0A00040C0C00040C0E00040E0000040E0200040E0400040E0600040E0800040E0A00040E0C00040E0E00080000000800020008000400080006000800080008000A0008000C0008000E00080200000802020008020400080206000802080008020A0008020C0008020E00080400000804020008040400080406000804080
310
008040A0008040C0008040E00080600000806020008060400080606000806080008060A0008060C0008060E00080800000808020008080400080806000808080008080A0008080C0008080E00080A0000080A0200080A0400080A0600080A0800080A0A00080A0C00080A0E00080C0000080C0200080C0400080C0600080C0
310
800080C0A00080C0C00080C0E00080E0000080E0200080E0400080E0600080E0800080E0A00080E0C00080E0E000C0000000C0002000C0004000C0006000C0008000C000A000C000C000C000E000C0200000C0202000C0204000C0206000C0208000C020A000C020C000C020E000C0400000C0402000C0404000C0406000C0
310
408000C040A000C040C000C040E000C0600000C0602000C0604000C0606000C0608000C060A000C060C000C060E000C0800000C0802000C0804000C0806000C0808000C080A000C080C000C080E000C0A00000C0A02000C0A04000C0A06000C0A08000C0A0A000C0A0C000C0A0E000C0C00000C0C02000C0C04000C0C06000
310
C0C08000C0C0A000F0FBFF00A4A0A000808080000000FF0000FF000000FFFF00FF000000FF00FF00FFFF0000FFFFFF0000000000000000000000000000000000000000000000000000000000000000000000000000000000000000000000000000000000000000000000000000000000000000000000000000000000000000
310
00000000000000000000000000000000000000000000000000000000000000000000000000000000000000000000000000000000000000000000000000000000000000000000000000000000000000000000000000000000000000000000000000000000000000000000000000000000000000000000000000000000000000
310
00000000000000000000000000000000000000020202020202020202020202020202020202020202020202020202020000000002020202020202020202020202020202020202020202020202020230000000000002020000000000000000000000000000000000000000000000020200000000000002020000000000000000
310
00000000000000000000000000020200000000000000000202000000000000000000000000000000000000000202000000000000000000000202000000000000000000000000000000000002020000000000000000000000000202000000000000000000000000000000020200000000000000000000000000000202000000
310
00000000000000000000020200000000000000000000000000000000021800000000000000000000000202000000000000000000000000000000000000020200000000000000000002020000000000000000000000000000000000000000021800000000000000020200000000000000000000000000000000000000000000
310
02020000000000020200000000000000000000000000000000000000000000000002180000000202000000000000000000000000000000000000000000000000000002020002020000000000000000000000000000000000000000000000000000000002300200000000000000000000000000000000000000000000000000
310
00000000003002000000000000000000000000000000000000000000000000000000000000000000000000000000000000000000000000000000000000000000000000000000000000000000000000000000000000000000000000000000000000000000000000000000000000000000000000000000000000000000000000
310
00000000000000000000000000000000000000000000000000000000000000000000000000000000000000000000000000000000000000000000000000000000000000000000000000000000000000000000000000000000000000000000000000000000000000000000000000000000000000000000000000000000000000
310
0000000000000000000000000000000000000000000000000000000000000000000000000000000000000000000000000000000000000000
1001
ACAD
1000
DesignCenter Data
1002
{
1070
     1
1070
     4
1002
}
  0
BLOCK_RECORD
  5
C4
330
1
100
AcDbSymbolTableRecord
100
AcDbBlockTableRecord
  2
gp32_arrow2
340
0
310
2800000020000000200000000100080000000000000400000000000000000000000000000000000000000000000080000080000000808000800000008000800080800000C0C0C000C0DCC000F0CAA6000020400000206000002080000020A0000020C0000020E00000400000004020000040400000406000004080000040A0
310
000040C0000040E00000600000006020000060400000606000006080000060A0000060C0000060E00000800000008020000080400000806000008080000080A0000080C0000080E00000A0000000A0200000A0400000A0600000A0800000A0A00000A0C00000A0E00000C0000000C0200000C0400000C0600000C0800000C0
310
A00000C0C00000C0E00000E0000000E0200000E0400000E0600000E0800000E0A00000E0C00000E0E00040000000400020004000400040006000400080004000A0004000C0004000E00040200000402020004020400040206000402080004020A0004020C0004020E000404000004040200040404000404060004040800040
310
40A0004040C0004040E00040600000406020004060400040606000406080004060A0004060C0004060E00040800000408020004080400040806000408080004080A0004080C0004080E00040A0000040A0200040A0400040A0600040A0800040A0A00040A0C00040A0E00040C0000040C0200040C0400040C0600040C08000
310
40C0A00040C0C00040C0E00040E0000040E0200040E0400040E0600040E0800040E0A00040E0C00040E0E00080000000800020008000400080006000800080008000A0008000C0008000E00080200000802020008020400080206000802080008020A0008020C0008020E00080400000804020008040400080406000804080
310
008040A0008040C0008040E00080600000806020008060400080606000806080008060A0008060C0008060E00080800000808020008080400080806000808080008080A0008080C0008080E00080A0000080A0200080A0400080A0600080A0800080A0A00080A0C00080A0E00080C0000080C0200080C0400080C0600080C0
310
800080C0A00080C0C00080C0E00080E0000080E0200080E0400080E0600080E0800080E0A00080E0C00080E0E000C0000000C0002000C0004000C0006000C0008000C000A000C000C000C000E000C0200000C0202000C0204000C0206000C0208000C020A000C020C000C020E000C0400000C0402000C0404000C0406000C0
310
408000C040A000C040C000C040E000C0600000C0602000C0604000C0606000C0608000C060A000C060C000C060E000C0800000C0802000C0804000C0806000C0808000C080A000C080C000C080E000C0A00000C0A02000C0A04000C0A06000C0A08000C0A0A000C0A0C000C0A0E000C0C00000C0C02000C0C04000C0C06000
310
C0C08000C0C0A000F0FBFF00A4A0A000808080000000FF0000FF000000FFFF00FF000000FF00FF00FFFF0000FFFFFF0000000000000000000000000000000000000000000000000000000000000000000000000000000000000000000000000000000000000000000000000000000000000000000000000000000000000000
310
00000000000000000000000000000000000000000000000000000000000000000000000000000000000000000000000000003838383838383838383838383838383838383838383838383838383800000000000000000000000000000000000000000000000000000000000000000000000000281800000000000000000000
310
000000000000000000000000000018280000000000FA000000000000000000000000000000000000000000000000380000000000001030000000000000000000000000000000000000000000003010000000000000002818000000000000000000000000000000000000000018280000000000000000003800000000000000
310
00000000000000000000000000380000000000000000000010300000000000000000000000000000000000003010000000000000000000000028180000000000000000000000000000000018020000000000000000000000000038000000000000000000000000000000003800000000000000000000000000001030000000
310
00000000000000000000003010000000000000000000000000000000020200000000000000000000000002020000000000000000000000000000000000381000000000000000000000103800000000000000000000000000000000000010300000000000000000000030100000000000000000000000000000000000000002
310
02000000000000000002020000000000000000000000000000000000000000003810000000000000103800000000000000000000000000000000000000000000103800000000000038100000000000000000000000000000000000000000000000020200000000020200000000000000000000000000000000000000000000
310
00000030100000103000000000000000000000000000000000000000000000000000000038000038000000000000000000000000000000000000000000000000000000000202020200000000000000000000000000000000000000000000000000000000003030000000000000000000000000000000000000000000000000
310
00000000000000000000000000000000000000000000000000000000000000000000000000000000000000000000000000000000000000000000000000000000000000000000000000000000000000000000000000000000000000000000000000000000000000000000000000000000000000000000000000000000000000
310
0000000000000000000000000000000000000000000000000000000000000000000000000000000000000000000000000000000000000000
102
{BLKREFS
331
CA
331
CC
331
CD
331
CE
102
}
1001
ACAD
1000
DesignCenter Data
1002
{
1070
     1
1070
     4
1002
}
  0
BLOCK_RECORD
  5
EA
330
1
100
AcDbSymbolTableRecord
100
AcDbBlockTableRecord
  2
psp_leaf
340
0
310
2800000020000000200000000100080000000000000400000000000000000000000000000000000000000000000080000080000000808000800000008000800080800000C0C0C000C0DCC000F0CAA6000020400000206000002080000020A0000020C0000020E00000400000004020000040400000406000004080000040A0
310
000040C0000040E00000600000006020000060400000606000006080000060A0000060C0000060E00000800000008020000080400000806000008080000080A0000080C0000080E00000A0000000A0200000A0400000A0600000A0800000A0A00000A0C00000A0E00000C0000000C0200000C0400000C0600000C0800000C0
310
A00000C0C00000C0E00000E0000000E0200000E0400000E0600000E0800000E0A00000E0C00000E0E00040000000400020004000400040006000400080004000A0004000C0004000E00040200000402020004020400040206000402080004020A0004020C0004020E000404000004040200040404000404060004040800040
310
40A0004040C0004040E00040600000406020004060400040606000406080004060A0004060C0004060E00040800000408020004080400040806000408080004080A0004080C0004080E00040A0000040A0200040A0400040A0600040A0800040A0A00040A0C00040A0E00040C0000040C0200040C0400040C0600040C08000
310
40C0A00040C0C00040C0E00040E0000040E0200040E0400040E0600040E0800040E0A00040E0C00040E0E00080000000800020008000400080006000800080008000A0008000C0008000E00080200000802020008020400080206000802080008020A0008020C0008020E00080400000804020008040400080406000804080
310
008040A0008040C0008040E00080600000806020008060400080606000806080008060A0008060C0008060E00080800000808020008080400080806000808080008080A0008080C0008080E00080A0000080A0200080A0400080A0600080A0800080A0A00080A0C00080A0E00080C0000080C0200080C0400080C0600080C0
310
800080C0A00080C0C00080C0E00080E0000080E0200080E0400080E0600080E0800080E0A00080E0C00080E0E000C0000000C0002000C0004000C0006000C0008000C000A000C000C000C000E000C0200000C0202000C0204000C0206000C0208000C020A000C020C000C020E000C0400000C0402000C0404000C0406000C0
310
408000C040A000C040C000C040E000C0600000C0602000C0604000C0606000C0608000C060A000C060C000C060E000C0800000C0802000C0804000C0806000C0808000C080A000C080C000C080E000C0A00000C0A02000C0A04000C0A06000C0A08000C0A0A000C0A0C000C0A0E000C0C00000C0C02000C0C04000C0C06000
310
C0C08000C0C0A000F0FBFF00A4A0A000808080000000FF0000FF000000FFFF00FF000000FF00FF00FFFF0000FFFFFF0000000000000000000000000000003002020000000000000000000000000000000000000000000000000000000010301818020000000000000000000000000000000000000000000000000000103000
310
00001802000000000000000000000000000000000000000000000000103000000000001802000000000000000000000000000000000000000000001030000000000000001802000000000000000000000000000000000000000010300000000000000000001802000000000000000000000000000000000000103000000000
310
00000000000000182800000000000000000000000000000000102800000000000000000000000000180200000000000000000000000000001028000000000000000000000000000000182800000000000000000000000010280000000000000000000000000000000000182800000000000000000000002800000000000000
310
00000000000000000000000018000000000000000000000038000000000000000000000000000000000000000038000000000000000000020200000000000000000000000000000000000000000202000000000000000002020000000000000000000000000000000000000000020200000000000000000202000000000000
310
00000000000000000000000000000202000000000000000002020000000000000000000000000000000000000000020200000000000000000202000000000000000000000000000000000000000002020000000000000000020200000000001010101010101010100000000000000202000000000000000002020000000000
310
30303030303030303800000000000002020000000000000000020200000000000038000000000028180000000000000202000000000000000002020000000000000038000000281800000000000000020200000000000000000202000000000000000038002818000000000000000002020000000000000000020200000000
310
00000000003818000000000000000000020200000000000000000202000000000000000000000000000000000000000002020000000000000000020200000000000000000000000000000000000000000202000000000000000002020000000000000000000000000000000000000000020200000000000000000202000000
310
00000000000000000000000000000000000202000000000000000038001010101010101010101010101010101010101010103000000000000000000000383838383830383038303830383030303030303000000000000000000000000000000000000000000000000000000000000000000000000000000000000000000000
310
0000000000000000000000000000000000000000000000000000000000000000000000000000000000000000000000000000000000000000
102
{BLKREFS
331
FA
331
FB
331
FC
331
FD
102
}
1001
ACAD
1000
DesignCenter Data
1002
{
1070
     1
1070
     4
1002
}
  0
BLOCK_RECORD
  5
138
330
1
100
AcDbSymbolTableRecord
100
AcDbBlockTableRecord
  2
nds_leaf
340
0
310
2800000020000000200000000100080000000000000400000000000000000000000000000000000000000000000080000080000000808000800000008000800080800000C0C0C000C0DCC000F0CAA6000020400000206000002080000020A0000020C0000020E00000400000004020000040400000406000004080000040A0
310
000040C0000040E00000600000006020000060400000606000006080000060A0000060C0000060E00000800000008020000080400000806000008080000080A0000080C0000080E00000A0000000A0200000A0400000A0600000A0800000A0A00000A0C00000A0E00000C0000000C0200000C0400000C0600000C0800000C0
310
A00000C0C00000C0E00000E0000000E0200000E0400000E0600000E0800000E0A00000E0C00000E0E00040000000400020004000400040006000400080004000A0004000C0004000E00040200000402020004020400040206000402080004020A0004020C0004020E000404000004040200040404000404060004040800040
310
40A0004040C0004040E00040600000406020004060400040606000406080004060A0004060C0004060E00040800000408020004080400040806000408080004080A0004080C0004080E00040A0000040A0200040A0400040A0600040A0800040A0A00040A0C00040A0E00040C0000040C0200040C0400040C0600040C08000
310
40C0A00040C0C00040C0E00040E0000040E0200040E0400040E0600040E0800040E0A00040E0C00040E0E00080000000800020008000400080006000800080008000A0008000C0008000E00080200000802020008020400080206000802080008020A0008020C0008020E00080400000804020008040400080406000804080
310
008040A0008040C0008040E00080600000806020008060400080606000806080008060A0008060C0008060E00080800000808020008080400080806000808080008080A0008080C0008080E00080A0000080A0200080A0400080A0600080A0800080A0A00080A0C00080A0E00080C0000080C0200080C0400080C0600080C0
310
800080C0A00080C0C00080C0E00080E0000080E0200080E0400080E0600080E0800080E0A00080E0C00080E0E000C0000000C0002000C0004000C0006000C0008000C000A000C000C000C000E000C0200000C0202000C0204000C0206000C0208000C020A000C020C000C020E000C0400000C0402000C0404000C0406000C0
310
408000C040A000C040C000C040E000C0600000C0602000C0604000C0606000C0608000C060A000C060C000C060E000C0800000C0802000C0804000C0806000C0808000C080A000C080C000C080E000C0A00000C0A02000C0A04000C0A06000C0A08000C0A0A000C0A0C000C0A0E000C0C00000C0C02000C0C04000C0C06000
310
C0C08000C0C0A000F0FBFF00A4A0A000808080000000FF0000FF000000FFFF00FF000000FF00FF00FFFF0000FFFFFF0000000000000000000000000000000000000000000000000000000000000000000000000000000000000000000000000000000000000000000000000000000000000000000000000000000000000000
310
00000000000000000000281800000000000000000038100000000000000000000000000000000000000002180000000000000000003810000000000000000038380000000000000000000202000000000000000000381000000000000000020210381000000000000000021800000000000000000038100000000000000002
310
02003800000000000000000202000000000000000000381000000000000000020200381000000000000000021800000000000000000038100000000000000002020038000000000000000002020000000000000000003810000000000000000202003810000000000000000218000000000000000000381000000000000000
310
02020038000000000000000002020000000000000000003810000000000000000202003810000000000000000218000000000000000000381000000000000000020200380000000000000000020200000000000000000038100000000000000002020038100000000000000002180000000000000000003810000000000000
310
00020200380000000000000000020200000000000000000038100000000000000002020038100000000000000002180000000000000000003810000000000000000202003800000000000000000202000000000000000000381000000000000000020200381000000000000000021800000000000000000038100000000000
310
00002828183800000000000000000202000000000000000000381000000000000000282828381000000000000000021800000000000000000038100000000000000000000000000000000000000002020000000000000000003810000000000000000000000000000000000000000218000000000000000000381000000000
310
00000000000000000000000000000002020000000000000000003810000000000000000000000000000000000000000218000000000000000000381000000000000000000000000000000000000000020200000000000000000038100000000000000000000000000000000000000002180000000000000000003810000000
310
000000000000000000000000000000000202000000000000000000381000000000000000000000000000000000000000382800000000000000000002FA383028280202021818180202020228303038381000000000000000000000000000101018020202022802020202181810100000000000000000000000000000000000
310
0000000000000000000000000000000000000000000000000000000000000000000000000000000000000000000000000000000000000000
102
{BLKREFS
331
150
331
151
331
152
331
153
102
}
1001
ACAD
1000
DesignCenter Data
1002
{
1070
     1
1070
     4
1002
}
  0
BLOCK_RECORD
  5
15C
330
1
100
AcDbSymbolTableRecord
100
AcDbBlockTableRecord
  2
AVE_RENDER
340
0
102
{BLKREFS
331
15F
331
160
331
161
331
162
331
163
331
164
331
165
331
166
102
}
  0
BLOCK_RECORD
  5
16A
330
1
100
AcDbSymbolTableRecord
100
AcDbBlockTableRecord
  2
AVE_GLOBAL
340
0
102
{BLKREFS
331
16D
102
}
  0
ENDTAB
  0
ENDSEC
  0
SECTION
  2
BLOCKS
  0
BLOCK
  5
20
330
1F
100
AcDbEntity
  8
0
100
AcDbBlockBegin
  2
*Model_Space
 70
     0
 10
0.0
 20
0.0
 30
0.0
  3
*Model_Space
  1

  0
ENDBLK
  5
21
330
1F
100
AcDbEntity
  8
0
100
AcDbBlockEnd
  0
BLOCK
  5
52
330
50
100
AcDbEntity
 67
     1
  8
0
100
AcDbBlockBegin
  2
*Paper_Space
 70
     0
 10
0.0
 20
0.0
 30
0.0
  3
*Paper_Space
  1

  0
ENDBLK
  5
53
330
50
100
AcDbEntity
 67
     1
  8
0
100
AcDbBlockEnd
  0
BLOCK
  5
57
330
55
100
AcDbEntity
  8
0
100
AcDbBlockBegin
  2
*Paper_Space0
 70
     0
 10
0.0
 20
0.0
 30
0.0
  3
*Paper_Space0
  1

  0
ENDBLK
  5
58
330
55
100
AcDbEntity
  8
0
100
AcDbBlockEnd
  0
BLOCK
  5
96
330
95
100
AcDbEntity
  8
0
 62
     3
100
AcDbBlockBegin
  2
arrow1
 70
     0
 10
0.0
 20
0.0
 30
0.0
  3
arrow1
  1

  0
LINE
  5
98
330
95
100
AcDbEntity
  8
0
 62
     3
100
AcDbLine
 10
0.0
 20
0.0
 30
0.0
 11
14.51768983202327
 21
-14.51030262378503
 31
0.0
  0
LINE
  5
99
330
95
100
AcDbEntity
  8
0
 62
     3
100
AcDbLine
 10
0.0
 20
0.0
 30
0.0
 11
-14.38188577873458
 21
-14.38922253091732
 31
0.0
  0
ENDBLK
  5
97
330
95
100
AcDbEntity
  8
0
 62
     3
100
AcDbBlockEnd
  0
BLOCK
  5
A1
330
A0
100
AcDbEntity
  8
0
 62
     3
100
AcDbBlockBegin
  2
gp32_arrow
 70
     0
 10
0.0
 20
0.0
 30
0.0
  3
gp32_arrow
  1

  0
LINE
  5
A3
330
A0
100
AcDbEntity
  8
0
 62
     3
100
AcDbLine
 10
-9.430976126607177
 20
-9.435787229667425
 30
0.0
 11
9.453090128680749
 21
-9.448280000755175
 31
0.0
  0
LINE
  5
A4
330
A0
100
AcDbEntity
  8
0
 62
     3
100
AcDbLine
 10
0.0
 20
0.0
 30
0.0
 11
9.453090128680749
 21
-9.448280000755175
 31
0.0
  0
LINE
  5
A5
330
A0
100
AcDbEntity
  8
0
 62
     3
100
AcDbLine
 10
0.0
 20
0.0
 30
0.0
 11
-9.430976126607177
 21
-9.435787229667425
 31
0.0
  0
ENDBLK
  5
A2
330
A0
100
AcDbEntity
  8
0
 62
     3
100
AcDbBlockEnd
  0
BLOCK
  5
C5
330
C4
100
AcDbEntity
  8
0
 62
     3
100
AcDbBlockBegin
  2
gp32_arrow2
 70
     0
 10
0.0
 20
0.0
 30
0.0
  3
gp32_arrow2
  1

  0
LINE
  5
C7
330
C4
100
AcDbEntity
  8
0
 62
     3
100
AcDbLine
 10
0.0
 20
0.0
 30
0.0
 11
9.435972474168472
 21
-13.94185351718419
 31
0.0
  0
LINE
  5
C8
330
C4
100
AcDbEntity
  8
0
 62
     3
100
AcDbLine
 10
-9.448093781119453
 20
-13.92936074609645
 30
0.0
 11
9.435972474168472
 21
-13.94185351718419
 31
0.0
  0
LINE
  5
C9
330
C4
100
AcDbEntity
  8
0
 62
     3
100
AcDbLine
 10
0.0
 20
0.0
 30
0.0
 11
-9.448093781119453
 21
-13.92936074609645
 31
0.0
  0
ENDBLK
  5
C6
330
C4
100
AcDbEntity
  8
0
 62
     3
100
AcDbBlockEnd
  0
BLOCK
  5
EB
330
EA
100
AcDbEntity
  8
0
 62
     3
100
AcDbBlockBegin
  2
psp_leaf
 70
     0
 10
0.0
 20
0.0
 30
0.0
  3
psp_leaf
  1

  0
LINE
  5
ED
330
EA
100
AcDbEntity
  8
0
 62
     3
100
AcDbLine
 10
-2.319632623667871
 20
-0.0216057078610561
 30
0.0
 11
2.365381317492278
 21
0.0220318240070583
 31
0.0
  0
LINE
  5
EE
330
EA
100
AcDbEntity
  8
0
 62
     3
100
AcDbLine
 10
-30.98208352451104
 20
31.1241583867282
 30
0.0
 11
-30.97191912332118
 21
73.64119077781703
 31
0.0
  0
LINE
  5
EF
330
EA
100
AcDbEntity
  8
0
 62
     3
100
AcDbLine
 10
30.21543795691457
 20
30.98607631870459
 30
0.0
 11
30.11461725059064
 21
73.64127594452447
 31
0.0
  0
LINE
  5
F0
330
EA
100
AcDbEntity
  8
0
 62
     3
100
AcDbLine
 10
-29.41427664985098
 20
27.00383599385321
 30
0.0
 11
-30.98208352451104
 21
31.1241583867282
 31
0.0
  0
LINE
  5
F1
330
EA
100
AcDbEntity
  8
0
 62
     3
100
AcDbLine
 10
-2.319632623667871
 20
-0.0216057078610561
 30
0.0
 11
-29.41427664985098
 21
27.00383599385321
 31
0.0
  0
LINE
  5
F2
330
EA
100
AcDbEntity
  8
0
 62
     3
100
AcDbLine
 10
2.365381317492278
 20
0.0220318240070583
 30
0.0
 11
28.48476251995191
 21
26.08953295664247
 31
0.0
  0
LINE
  5
F3
330
EA
100
AcDbEntity
  8
0
 62
     3
100
AcDbLine
 10
0.1936947796847335
 20
60.42746865893462
 30
0.0
 11
12.48271194696974
 21
48.1447046579529
 31
0.0
  0
LINE
  5
F4
330
EA
100
AcDbEntity
  8
0
 62
     3
100
AcDbLine
 10
-12.06657418490465
 20
48.16094526036699
 30
0.0
 11
12.48271194696974
 21
48.1447046579529
 31
0.0
  0
LINE
  5
F5
330
EA
100
AcDbEntity
  8
0
 62
     3
100
AcDbLine
 10
0.1936947796847335
 20
60.42746865893462
 30
0.0
 11
-12.06657418490465
 21
48.16094526036699
 31
0.0
  0
LINE
  5
F6
330
EA
100
AcDbEntity
  8
0
 62
     3
100
AcDbLine
 10
28.48476251995191
 20
26.08953295664247
 30
0.0
 11
30.21543795691457
 21
30.98607631870459
 31
0.0
  0
LINE
  5
F7
330
EA
100
AcDbEntity
  8
0
 62
     3
100
AcDbLine
 10
-30.97191912332118
 20
73.64119077781703
 30
0.0
 11
-28.09938898002349
 21
76.28789950678885
 31
0.0
  0
LINE
  5
F8
330
EA
100
AcDbEntity
  8
0
 62
     3
100
AcDbLine
 10
30.11461725059064
 20
73.64127594452447
 30
0.0
 11
27.7103012362179
 21
76.2383717047889
 31
0.0
  0
ARC
  5
F9
330
EA
100
AcDbEntity
  8
0
 62
     3
100
AcDbCircle
 10
-0.3562051325678794
 20
-105.9025271810738
 30
0.0
 40
184.2906287001571
100
AcDbArc
 50
81.24006232168186
 51
98.65824446814894
  0
ENDBLK
  5
EC
330
EA
100
AcDbEntity
  8
0
 62
     3
100
AcDbBlockEnd
  0
BLOCK
  5
139
330
138
100
AcDbEntity
  8
0
 62
     3
100
AcDbBlockBegin
  2
nds_leaf
 70
     0
 10
0.0
 20
0.0
 30
0.0
  3
nds_leaf
  1

  0
LWPOLYLINE
  5
13B
330
138
100
AcDbEntity
  8
0
 62
     3
100
AcDbPolyline
 90
        4
 70
     1
 43
0.0
 10
-3.165263537659939
 20
45.67158946130439
 10
3.374445238041062
 20
45.67158946130439
 10
3.37155391781971
 20
9.405818101500926
 10
-3.190305678184813
 20
9.395771369260728
  0
LINE
  5
13C
330
138
100
AcDbEntity
  8
0
 62
     3
100
AcDbLine
 10
-26.58073041569287
 20
3.596669118977274
 30
0.0
 11
-26.58073041569287
 21
65.58773704008832
 31
0.0
  0
LINE
  5
13D
330
138
100
AcDbEntity
  8
0
 62
     3
100
AcDbLine
 10
-23.48911543155531
 20
69.038018710627
 30
0.0
 11
-17.99083002326597
 21
69.66569019895513
 31
0.0
  0
LINE
  5
13E
330
138
100
AcDbEntity
  8
0
 62
     3
100
AcDbLine
 10
26.64839077153874
 20
65.54440733452861
 30
0.0
 11
26.64839077153874
 21
3.596669118977274
 31
0.0
  0
LINE
  5
13F
330
138
100
AcDbEntity
  8
0
 62
     3
100
AcDbLine
 10
18.59433573736896
 20
69.6266036473171
 30
0.0
 11
23.63560476879411
 21
69.03750916844228
 31
0.0
  0
LINE
  5
140
330
138
100
AcDbEntity
  8
0
 62
     3
100
AcDbLine
 10
24.85851111877991
 20
68.64188057959234
 30
0.0
 11
23.63560476879411
 21
69.03750916844228
 31
0.0
  0
LINE
  5
141
330
138
100
AcDbEntity
  8
0
 62
     3
100
AcDbLine
 10
25.81617961944584
 20
67.86497716564127
 30
0.0
 11
24.85851111877991
 21
68.64188057959234
 31
0.0
  0
LINE
  5
142
330
138
100
AcDbEntity
  8
0
 62
     3
100
AcDbLine
 10
26.36719916665924
 20
66.99943824395865
 30
0.0
 11
25.81617961944584
 21
67.86497716564127
 31
0.0
  0
LINE
  5
143
330
138
100
AcDbEntity
  8
0
 62
     3
100
AcDbLine
 10
26.64839077153874
 20
65.54440733452861
 30
0.0
 11
26.36719916665924
 21
66.99943824395865
 31
0.0
  0
LINE
  5
144
330
138
100
AcDbEntity
  8
0
 62
     3
100
AcDbLine
 10
-24.70465302060484
 20
68.65667416494915
 30
0.0
 11
-23.48911543155554
 21
69.03801871062694
 31
0.0
  0
LINE
  5
145
330
138
100
AcDbEntity
  8
0
 62
     3
100
AcDbLine
 10
-25.73507845660765
 20
67.83281476252466
 30
0.0
 11
-24.70465302060484
 21
68.65667416494915
 31
0.0
  0
LINE
  5
146
330
138
100
AcDbEntity
  8
0
 62
     3
100
AcDbLine
 10
-26.32446544700019
 20
66.86255448360481
 30
0.0
 11
-25.73507845660765
 21
67.83281476252466
 31
0.0
  0
LINE
  5
147
330
138
100
AcDbEntity
  8
0
 62
     3
100
AcDbLine
 10
-26.58073041569287
 20
65.58773704008832
 30
0.0
 11
-26.32446544700019
 21
66.86255448360481
 31
0.0
  0
LINE
  5
148
330
138
100
AcDbEntity
  8
0
 62
     3
100
AcDbLine
 10
28.81702327842117
 20
0.3415598423173378
 30
0.0
 11
30.17301937095044
 21
0.073328010637681
 31
0.0
  0
LINE
  5
149
330
138
100
AcDbEntity
  8
0
 62
     3
100
AcDbLine
 10
27.63926952063616
 20
1.141305272141607
 30
0.0
 11
28.81702327842117
 21
0.3415598423173378
 31
0.0
  0
LINE
  5
14A
330
138
100
AcDbEntity
  8
0
 62
     3
100
AcDbLine
 10
26.9903058228383
 20
2.072276779721391
 30
0.0
 11
27.63926952063616
 21
1.141305272141607
 31
0.0
  0
LINE
  5
14B
330
138
100
AcDbEntity
  8
0
 62
     3
100
AcDbLine
 10
26.64464276873809
 20
3.59667249704745
 30
0.0
 11
26.9903058228383
 21
2.072276779721391
 31
0.0
  0
LINE
  5
14C
330
138
100
AcDbEntity
  8
0
 62
     3
100
AcDbLine
 10
9.166899405196545
 20
70.29796723880281
 30
0.0
 11
18.59433573736896
 21
69.6266036473171
 31
0.0
  0
LINE
  5
14D
330
138
100
AcDbEntity
  8
0
 62
     3
100
AcDbLine
 10
-0.0276183187800143
 20
70.51000682581719
 30
0.0
 11
9.166899405196545
 21
70.29796723880281
 31
0.0
  0
LINE
  5
14E
330
138
100
AcDbEntity
  8
0
 62
     3
100
AcDbLine
 10
-9.468694168245747
 20
70.27430750754985
 30
0.0
 11
-0.0276183187800143
 21
70.51000682581719
 31
0.0
  0
LINE
  5
14F
330
138
100
AcDbEntity
  8
0
 62
     3
100
AcDbLine
 10
-17.99083002326597
 20
69.66569019895513
 30
0.0
 11
-9.468694168245747
 21
70.27430750754985
 31
0.0
  0
ENDBLK
  5
13A
330
138
100
AcDbEntity
  8
0
 62
     3
100
AcDbBlockEnd
  0
BLOCK
  5
15D
330
15C
100
AcDbEntity
  8
ASHADE
100
AcDbBlockBegin
  2
AVE_RENDER
 70
     0
 10
0.0
 20
0.0
 30
0.0
  3
AVE_RENDER
  1
AVE_RENDER
  0
ENDBLK
  5
15E
330
15C
100
AcDbEntity
  8
0
100
AcDbBlockEnd
  0
BLOCK
  5
16B
330
16A
100
AcDbEntity
  8
ASHADE
100
AcDbBlockBegin
  2
AVE_GLOBAL
 70
     0
 10
0.0
 20
0.0
 30
0.0
  3
AVE_GLOBAL
  1
AVE_GLOBAL
  0
ENDBLK
  5
16C
330
16A
100
AcDbEntity
  8
0
100
AcDbBlockEnd
  0
ENDSEC
  0
SECTION
  2
ENTITIES
  0
XLINE
  5
6C
330
1F
100
AcDbEntity
  8
constr
100
AcDbXline
 10
201.5140925332721
 20
250.3194472772361
 30
0.0
 11
0.0
 21
1.0
 31
0.0
  0
XLINE
  5
6D
330
1F
100
AcDbEntity
  8
constr
100
AcDbXline
 10
201.5140925332721
 20
250.3194472772361
 30
0.0
 11
1.0
 21
0.0
 31
0.0
  0
CIRCLE
  5
6E
330
1F
100
AcDbEntity
  8
0
 62
     3
100
AcDbCircle
 10
201.5140925332721
 20
250.3194472772361
 30
0.0
 40
100.0
  0
CIRCLE
  5
75
330
1F
100
AcDbEntity
  8
0
 62
     3
100
AcDbCircle
 10
612.8805651383195
 20
250.3194472772361
 30
0.0
 40
100.0
  0
CIRCLE
  5
7B
330
1F
100
AcDbEntity
  8
0
 62
     3
100
AcDbCircle
 10
961.7339862575645
 20
250.3194472772361
 30
0.0
 40
100.0
  0
CIRCLE
  5
82
330
1F
100
AcDbEntity
  8
0
 62
     3
100
AcDbCircle
 10
201.5140925332721
 20
250.3194472772361
 30
0.0
 40
60.0
  0
CIRCLE
  5
85
330
1F
100
AcDbEntity
  8
0
 62
     3
100
AcDbCircle
 10
201.5140925332721
 20
250.3194472772361
 30
0.0
 40
54.41338077643178
  0
LINE
  5
92
330
1F
100
AcDbEntity
  8
0
 62
     3
100
AcDbLine
 10
-20.01249897624029
 20
740.0524560000137
 30
0.0
 11
-10.57652650207182
 21
726.1106024828295
 31
0.0
  0
LINE
  5
93
330
1F
100
AcDbEntity
  8
0
 62
     3
100
AcDbLine
 10
-20.01249897624029
 20
740.0524560000137
 30
0.0
 11
-29.46059275735974
 21
726.1230952539173
 31
0.0
  0
LINE
  5
9F
330
1F
100
AcDbEntity
  8
0
 62
     3
100
AcDbLine
 10
-29.46059275735974
 20
726.1230952539173
 30
0.0
 11
-10.57652650207182
 21
726.1106024828295
 31
0.0
  0
CIRCLE
  5
A6
330
1F
100
AcDbEntity
  8
0
 62
     3
100
AcDbCircle
 10
612.8805651383195
 20
250.3194472772361
 30
0.0
 40
75.0
  0
ARC
  5
BE
330
1F
100
AcDbEntity
  8
0
 62
     3
100
AcDbCircle
 10
612.854416414078
 20
286.1726844812893
 30
0.0
 40
35.93578046904792
100
AcDbArc
 50
0.1315958104659831
 51
179.868394596192
  0
ARC
  5
BF
330
1F
100
AcDbEntity
  8
0
 62
     3
100
AcDbCircle
 10
648.8121268967875
 20
250.319447277236
 30
0.0
 40
35.93578046904807
100
AcDbArc
 50
269.98560778709
 51
90.035116199571
  0
ARC
  5
C0
330
1F
100
AcDbEntity
  8
0
 62
     3
100
AcDbCircle
 10
612.8689429708929
 20
214.7252332817584
 30
0.0
 40
35.93578046904798
100
AcDbArc
 50
180.5445978927772
 51
359.4554021972094
  0
ARC
  5
C1
330
1F
100
AcDbEntity
  8
0
 62
     3
100
AcDbCircle
 10
576.9259865911575
 20
250.3194472772361
 30
0.0
 40
35.93578046904799
100
AcDbArc
 50
90.01156867815716
 51
270.014029415607
  0
XLINE
  5
C3
330
1F
100
AcDbEntity
  8
constr
100
AcDbXline
 10
612.8801822112032
 20
250.8444892105399
 30
0.0
 11
-0.001532392368379
 21
0.9999988258861256
 31
0.0
  0
XLINE
  5
D1
330
1F
100
AcDbEntity
  8
constr
100
AcDbXline
 10
961.7339862575645
 20
250.3194472772361
 30
0.0
 11
-0.0007156752289868
 21
0.9999997439044504
 31
0.0
  0
XLINE
  5
FF
330
1F
100
AcDbEntity
  8
constr
100
AcDbXline
 10
1295.197669148665
 20
250.3194472772361
 30
0.0
 11
-0.000633083230345
 21
0.9999997996027916
 31
0.0
  0
CIRCLE
  5
10B
330
1F
100
AcDbEntity
  8
0
 62
     3
100
AcDbCircle
 10
1295.197669148665
 20
250.3194472772361
 30
0.0
 40
26.61456059361583
  0
INSERT
  5
15F
330
1F
100
AcDbEntity
  8
ASHADE
 62
     1
100
AcDbBlockReference
  2
AVE_RENDER
 10
0.0
 20
0.0
 30
0.0
1001
AVE_RENDER
1002
{
1070
     7
1000
Pref
1070
    30
1070
    20
1070
     1
1070
     0
1000

1070
    10
1070
     1
1070
    10
1040
1.0
1070
     1
1040
0.7
1040
1.0
1040
0.0
1040
10.0
1010
-1.0
1020
-1.0
1030
-1.0
1040
0.3
1070
    49
1070
     0
1070
     0
1010
1.0
1020
1.0
1030
1.0
1040
45.0
1070
     1
1070
     0
1000
WCS
1040
0.0
1070
     0
1040
10.0
1002
}
  0
INSERT
  5
160
330
1F
100
AcDbEntity
  8
ASHADE
 62
     3
100
AcDbBlockReference
  2
AVE_RENDER
 10
0.0
 20
0.0
 30
0.0
1001
AVE_RENDER
1002
{
1070
     0
1000
Full Opt
1070
     0
1070
     1
1070
     1
1070
     1
1070
     0
1070
     0
1070
     0
1070
     1
1070
     1
1040
0.0001
1040
0.0001
1002
}
  0
INSERT
  5
161
330
1F
100
AcDbEntity
  8
ASHADE
 62
     4
100
AcDbBlockReference
  2
AVE_RENDER
 10
0.0
 20
0.0
 30
0.0
1001
AVE_RENDER
1002
{
1070
     0
1000
Quick Opt
1070
     0
1070
     1
1070
     1
1070
     1
1070
     0
1070
     0
1070
     1
1002
}
  0
INSERT
  5
162
330
1F
100
AcDbEntity
  8
ASHADE
 62
     5
100
AcDbBlockReference
  2
AVE_RENDER
 10
0.0
 20
0.0
 30
0.0
1001
AVE_RENDER
1002
{
1070
     1
1000
Scanl Opt
1070
     2
1070
     0
1070
     2
1040
2.0
1040
4.0
1070
     0
1070
     1
1070
     0
1040
0.03
1002
}
  0
INSERT
  5
163
330
1F
100
AcDbEntity
  8
ASHADE
 62
     6
100
AcDbBlockReference
  2
AVE_RENDER
 10
0.0
 20
0.0
 30
0.0
1001
AVE_RENDER
1002
{
1070
     2
1000
Raytr Opt
1070
     2
1070
     0
1070
     2
1040
2.0
1040
4.0
1070
     0
1070
     1
1070
     1
1040
0.03
1070
     3
1040
0.03
1002
}
  0
INSERT
  5
164
330
1F
100
AcDbEntity
  8
ASHADE
 62
     7
100
AcDbBlockReference
  2
AVE_RENDER
 10
0.0
 20
0.0
 30
0.0
1001
AVE_RENDER
1002
{
1070
     0
1000
RFile Opt
1070
     1
1070
   640
1070
   480
1070
 10000
1070
     1
1070
     8
1070
     8
1070
     0
1070
     0
1070
     0
1070
     0
1070
     0
1070
     0
1070
     0
1002
}
  0
INSERT
  5
165
330
1F
100
AcDbEntity
  8
ASHADE
 62
     8
100
AcDbBlockReference
  2
AVE_RENDER
 10
0.0
 20
0.0
 30
0.0
1001
AVE_RENDER
1002
{
1070
     0
1000
Fog Opt
1070
     0
1070
     0
1040
0.0
1040
1.0
1040
0.0
1040
1.0
1010
0.5
1020
0.5
1030
0.5
1002
}
  0
INSERT
  5
166
330
1F
100
AcDbEntity
  8
ASHADE
 62
     9
100
AcDbBlockReference
  2
AVE_RENDER
 10
0.0
 20
0.0
 30
0.0
1001
AVE_RENDER
1002
{
1070
     0
1000
BG Opt
1070
     0
1070
     1
1010
0.0
1020
0.0
1030
0.0
1010
1.0
1020
0.0
1030
0.0
1010
0.0
1020
1.0
1030
0.0
1010
0.0
1020
0.0
1030
1.0
1040
0.5
1040
0.33
1040
0.0
1000

1070
     1
1000

1070
     1
1070
     1
1040
1.0
1040
1.0
1040
0.0
1040
0.0
1070
     0
1002
}
  0
INSERT
  5
16D
330
1F
100
AcDbEntity
  8
ASHADE
 62
     1
100
AcDbBlockReference
  2
AVE_GLOBAL
 10
0.0
 20
0.0
 30
0.0
1001
AVE_MATERIAL
1002
{
1000
*GLOBAL*
1000
2
1000
Global finish.
1002
{
1002
}
1002
{
1070
    63
1002
{
1002
{
1010
-1.0
1020
-1.0
1030
-1.0
1002
}
1040
0.6999999880790711
1000

1040
0.0
1002
{
1002
}
1040
0.0
1002
{
1002
}
1040
0.0
1002
}
1002
{
1002
{
1010
-1.0
1020
-1.0
1030
-1.0
1002
}
1040
1.0
1000

1040
0.0
1002
{
1002
}
1040
0.0
1002
{
1002
}
1040
0.0
1002
}
1002
{
1002
{
1010
-1.0
1020
-1.0
1030
-1.0
1002
}
1040
0.2000000029802322
1000

1040
0.0
1002
{
1002
}
1040
0.0
1002
{
1002
}
1040
0.0
1002
}
1002
{
1070
     0
1002
{
1070
     1
1002
{
1040
1.0
1040
1.0
1000

1040
0.0
1002
{
1002
}
1040
0.0
1002
{
1002
}
1040
0.0
1002
}
1002
}
1040
1.0
1040
0.0
1040
0.0
1002
}
1002
{
1040
1.0
1040
1.0
1000

1040
0.0
1002
{
1002
}
1040
0.0
1002
{
1002
}
1040
0.0
1002
}
1002
{
1040
0.5
1040
1.0
1000

1040
0.0
1002
{
1002
}
1040
0.0
1002
{
1002
}
1040
0.0
1002
}
1002
{
1070
     0
1040
0.0
1002
{
1002
}
1040
1.0
1002
{
1002
}
1040
0.0
1002
}
1002
{
1040
0.0
1002
{
1002
{
1010
0.0
1020
0.0
1030
0.0
1002
}
1040
1.0
1000

1040
0.0
1002
{
1002
}
1040
0.0
1002
{
1002
}
1040
0.0
1002
}
1002
}
1002
{
1002
{
1070
     1
1002
{
1040
0.0
1040
1.0
1000

1040
0.0
1002
{
1002
}
1040
0.0
1002
{
1002
}
1040
0.0
1002
}
1002
}
1040
0.0
1002
{
1002
}
1010
1.0
1020
0.0
1030
0.0
1010
0.0
1020
1.0
1030
0.0
1010
0.0
1020
0.0
1030
1.0
1070
     0
1002
}
1002
{
1002
{
1040
1.0
1040
1.0
1002
{
1070
     1
1002
{
1040
1.0
1040
1.0
1000

1040
0.0
1002
{
1002
}
1040
0.0
1002
{
1002
}
1040
0.0
1002
}
1002
}
1002
}
1070
     0
1040
0.0
1002
{
1002
}
1002
}
1002
{
1002
}
1002
}
1002
{
1071
        3
1070
     3
1070
     0
1002
{
1070
     2
1070
     0
1070
     0
1040
0.0
1002
}
1070
     0
1070
     2
1002
{
1002
}
1002
}
1002
{
1040
8030.0
1040
190.3000030517578
1040
0.3050000071525574
1040
228.0
1040
545.0
1040
14.0
1040
17.39999961853027
1040
0.4560000002384186
1002
}
1002
}
  0
LINE
  5
171
330
1F
100
AcDbEntity
  8
0
 62
     3
100
AcDbLine
 10
201.5140925332721
 20
162.5336807153901
 30
0.0
 11
186.9964027012488
 21
177.0439833391751
 31
0.0
  0
LINE
  5
172
330
1F
100
AcDbEntity
  8
0
 62
     3
100
AcDbLine
 10
201.5140925332721
 20
162.5336807153901
 30
0.0
 11
215.8959783120066
 21
176.9229032463074
 31
0.0
  0
LINE
  5
173
330
1F
100
AcDbEntity
  8
0
 62
     3
100
AcDbLine
 10
115.2999443794669
 20
250.3194472772361
 30
0.0
 11
129.810247003252
 21
264.8371371092594
 31
0.0
  0
LINE
  5
174
330
1F
100
AcDbEntity
  8
0
 62
     3
100
AcDbLine
 10
115.2999443794669
 20
250.3194472772361
 30
0.0
 11
129.6891669103843
 21
235.9375614985015
 31
0.0
  0
LINE
  5
175
330
1F
100
AcDbEntity
  8
0
 62
     3
100
AcDbLine
 10
201.5140925332721
 20
337.7165832843763
 30
0.0
 11
216.0317823652953
 21
323.2062806605913
 31
0.0
  0
LINE
  5
176
330
1F
100
AcDbEntity
  8
0
 62
     3
100
AcDbLine
 10
201.5140925332721
 20
337.7165832843763
 30
0.0
 11
187.1322067545375
 21
323.327360753459
 31
0.0
  0
LINE
  5
177
330
1F
100
AcDbEntity
  8
0
 62
     3
100
AcDbLine
 10
288.3934199443301
 20
250.3194472772361
 30
0.0
 11
273.8831173205451
 21
235.8017574452128
 31
0.0
  0
LINE
  5
178
330
1F
100
AcDbEntity
  8
0
 62
     3
100
AcDbLine
 10
288.3934199443301
 20
250.3194472772361
 30
0.0
 11
274.0041974134128
 21
264.7013330559707
 31
0.0
  0
LINE
  5
179
330
1F
100
AcDbEntity
  8
0
 62
     3
100
AcDbLine
 10
612.9791756757006
 20
186.2439663220156
 30
0.0
 11
603.5432032015322
 21
200.1858198391998
 31
0.0
  0
LINE
  5
17A
330
1F
100
AcDbEntity
  8
0
 62
     3
100
AcDbLine
 10
622.4272694568201
 20
200.173327068112
 30
0.0
 11
603.5432032015322
 21
200.1858198391998
 31
0.0
  0
LINE
  5
17B
330
1F
100
AcDbEntity
  8
0
 62
     3
100
AcDbLine
 10
612.9791756757006
 20
186.2439663220156
 30
0.0
 11
622.4272694568201
 21
200.173327068112
 31
0.0
  0
LINE
  5
17C
330
1F
100
AcDbEntity
  8
0
 62
     3
100
AcDbLine
 10
612.7846347649819
 20
315.6361137278748
 30
0.0
 11
622.2206072391505
 21
301.6942602106906
 31
0.0
  0
LINE
  5
17D
330
1F
100
AcDbEntity
  8
0
 62
     3
100
AcDbLine
 10
603.3365409838625
 20
301.7067529817783
 30
0.0
 11
622.2206072391505
 21
301.6942602106906
 31
0.0
  0
LINE
  5
17E
330
1F
100
AcDbEntity
  8
0
 62
     3
100
AcDbLine
 10
612.7846347649819
 20
315.6361137278748
 30
0.0
 11
603.3365409838625
 21
301.7067529817783
 31
0.0
  0
LINE
  5
17F
330
1F
100
AcDbEntity
  8
0
 62
     3
100
AcDbLine
 10
548.1135304368604
 20
250.3194472772361
 30
0.0
 11
562.0553839540446
 21
259.7554197514046
 31
0.0
  0
LINE
  5
180
330
1F
100
AcDbEntity
  8
0
 62
     3
100
AcDbLine
 10
562.0428911829568
 20
240.8713534961167
 30
0.0
 11
562.0553839540446
 21
259.7554197514046
 31
0.0
  0
LINE
  5
181
330
1F
100
AcDbEntity
  8
0
 62
     3
100
AcDbLine
 10
548.1135304368604
 20
250.3194472772361
 30
0.0
 11
562.0428911829568
 21
240.8713534961167
 31
0.0
  0
LINE
  5
182
330
1F
100
AcDbEntity
  8
0
 62
     3
100
AcDbLine
 10
678.2117337622703
 20
250.3194472772361
 30
0.0
 11
664.2698802450861
 21
240.8834748030676
 31
0.0
  0
LINE
  5
183
330
1F
100
AcDbEntity
  8
0
 62
     3
100
AcDbLine
 10
664.2823730161738
 20
259.7675410583555
 30
0.0
 11
664.2698802450861
 21
240.8834748030676
 31
0.0
  0
LINE
  5
184
330
1F
100
AcDbEntity
  8
0
 62
     3
100
AcDbLine
 10
678.2117337622703
 20
250.3194472772361
 30
0.0
 11
664.2823730161738
 21
259.7675410583555
 31
0.0
  0
LINE
  5
185
330
1F
100
AcDbEntity
  8
0
 62
     3
100
AcDbLine
 10
964.0646857218646
 20
234.8775615161026
 30
0.0
 11
959.3796717807045
 21
234.8339239842345
 31
0.0
  0
LINE
  5
186
330
1F
100
AcDbEntity
  8
0
 62
     3
100
AcDbLine
 10
992.7271366227078
 20
203.7317974215134
 30
0.0
 11
992.7169722215179
 21
161.2147650304246
 31
0.0
  0
LINE
  5
187
330
1F
100
AcDbEntity
  8
0
 62
     3
100
AcDbLine
 10
931.5296151412821
 20
203.869879489537
 30
0.0
 11
931.6304358476061
 21
161.2146798637171
 31
0.0
  0
LINE
  5
188
330
1F
100
AcDbEntity
  8
0
 62
     3
100
AcDbLine
 10
991.1593297480477
 20
207.8521198143884
 30
0.0
 11
992.7271366227078
 21
203.7317974215134
 31
0.0
  0
LINE
  5
189
330
1F
100
AcDbEntity
  8
0
 62
     3
100
AcDbLine
 10
964.0646857218646
 20
234.8775615161026
 30
0.0
 11
991.1593297480477
 21
207.8521198143884
 31
0.0
  0
LINE
  5
18A
330
1F
100
AcDbEntity
  8
0
 62
     3
100
AcDbLine
 10
959.3796717807045
 20
234.8339239842345
 30
0.0
 11
933.2602905782449
 21
208.7664228515991
 31
0.0
  0
LINE
  5
18B
330
1F
100
AcDbEntity
  8
0
 62
     3
100
AcDbLine
 10
961.5513583185119
 20
174.4284871493069
 30
0.0
 11
949.2623411512269
 21
186.7112511502887
 31
0.0
  0
LINE
  5
18C
330
1F
100
AcDbEntity
  8
0
 62
     3
100
AcDbLine
 10
973.8116272831014
 20
186.6950105478746
 30
0.0
 11
949.2623411512269
 21
186.7112511502887
 31
0.0
  0
LINE
  5
18D
330
1F
100
AcDbEntity
  8
0
 62
     3
100
AcDbLine
 10
961.5513583185119
 20
174.4284871493069
 30
0.0
 11
973.8116272831014
 21
186.6950105478746
 31
0.0
  0
LINE
  5
18E
330
1F
100
AcDbEntity
  8
0
 62
     3
100
AcDbLine
 10
933.2602905782449
 20
208.7664228515991
 30
0.0
 11
931.5296151412821
 21
203.869879489537
 31
0.0
  0
LINE
  5
18F
330
1F
100
AcDbEntity
  8
0
 62
     3
100
AcDbLine
 10
992.7169722215179
 20
161.2147650304246
 30
0.0
 11
989.8444420782203
 21
158.5680563014527
 31
0.0
  0
LINE
  5
190
330
1F
100
AcDbEntity
  8
0
 62
     3
100
AcDbLine
 10
931.6304358476061
 20
161.2146798637171
 30
0.0
 11
934.0347518619788
 21
158.6175841034527
 31
0.0
  0
ARC
  5
191
330
1F
100
AcDbEntity
  8
0
 62
     3
100
AcDbCircle
 10
962.1012582307645
 20
340.7584829893155
 30
0.0
 40
184.2906287001571
100
AcDbArc
 50
261.2400623216818
 51
278.6582444681491
  0
LINE
  5
192
330
1F
100
AcDbEntity
  8
0
 62
     3
100
AcDbLine
 10
959.4032963310363
 20
265.7480060865645
 30
0.0
 11
964.0883102721964
 21
265.7916436184326
 31
0.0
  0
LINE
  5
193
330
1F
100
AcDbEntity
  8
0
 62
     3
100
AcDbLine
 10
930.7408454301931
 20
296.8937701811537
 30
0.0
 11
930.7510098313828
 21
339.4108025722425
 31
0.0
  0
LINE
  5
194
330
1F
100
AcDbEntity
  8
0
 62
     3
100
AcDbLine
 10
991.9383669116186
 20
296.7556881131301
 30
0.0
 11
991.8375462052948
 21
339.41088773895
 31
0.0
  0
LINE
  5
195
330
1F
100
AcDbEntity
  8
0
 62
     3
100
AcDbLine
 10
932.308652304853
 20
292.7734477882787
 30
0.0
 11
930.7408454301931
 21
296.8937701811537
 31
0.0
  0
LINE
  5
196
330
1F
100
AcDbEntity
  8
0
 62
     3
100
AcDbLine
 10
959.4032963310363
 20
265.7480060865645
 30
0.0
 11
932.308652304853
 21
292.7734477882787
 31
0.0
  0
LINE
  5
197
330
1F
100
AcDbEntity
  8
0
 62
     3
100
AcDbLine
 10
964.0883102721964
 20
265.7916436184326
 30
0.0
 11
990.207691474656
 21
291.859144751068
 31
0.0
  0
LINE
  5
198
330
1F
100
AcDbEntity
  8
0
 62
     3
100
AcDbLine
 10
961.9166237343888
 20
326.1970804533601
 30
0.0
 11
974.2056409016738
 21
313.9143164523784
 31
0.0
  0
LINE
  5
199
330
1F
100
AcDbEntity
  8
0
 62
     3
100
AcDbLine
 10
949.6563547697995
 20
313.9305570547925
 30
0.0
 11
974.2056409016738
 21
313.9143164523784
 31
0.0
  0
LINE
  5
19A
330
1F
100
AcDbEntity
  8
0
 62
     3
100
AcDbLine
 10
961.9166237343888
 20
326.1970804533601
 30
0.0
 11
949.6563547697995
 21
313.9305570547925
 31
0.0
  0
LINE
  5
19B
330
1F
100
AcDbEntity
  8
0
 62
     3
100
AcDbLine
 10
990.207691474656
 20
291.859144751068
 30
0.0
 11
991.9383669116186
 21
296.7556881131301
 31
0.0
  0
LINE
  5
19C
330
1F
100
AcDbEntity
  8
0
 62
     3
100
AcDbLine
 10
930.7510098313828
 20
339.4108025722425
 30
0.0
 11
933.6235399746806
 21
342.0575113012144
 31
0.0
  0
LINE
  5
19D
330
1F
100
AcDbEntity
  8
0
 62
     3
100
AcDbLine
 10
991.8375462052948
 20
339.41088773895
 30
0.0
 11
989.4332301909219
 21
342.0079834992144
 31
0.0
  0
ARC
  5
19E
330
1F
100
AcDbEntity
  8
0
 62
     3
100
AcDbCircle
 10
961.3667238221362
 20
159.8670846133516
 30
0.0
 40
184.2906287001571
100
AcDbArc
 50
81.24006232168186
 51
98.65824446814894
  0
LINE
  5
19F
330
1F
100
AcDbEntity
  8
0
 62
     3
100
AcDbLine
 10
946.0972874359409
 20
247.9998146535682
 30
0.0
 11
946.0536499040728
 21
252.6848285947284
 31
0.0
  0
LINE
  5
1A0
330
1F
100
AcDbEntity
  8
0
 62
     3
100
AcDbLine
 10
914.9515233413517
 20
219.337363752725
 30
0.0
 11
872.4344909502629
 21
219.3475281539149
 31
0.0
  0
LINE
  5
1A1
330
1F
100
AcDbEntity
  8
0
 62
     3
100
AcDbLine
 10
915.0896054093752
 20
280.5348852341507
 30
0.0
 11
872.4344057835553
 21
280.4340645278267
 31
0.0
  0
LINE
  5
1A2
330
1F
100
AcDbEntity
  8
0
 62
     3
100
AcDbLine
 10
919.0718457342265
 20
220.9051706273851
 30
0.0
 11
914.9515233413517
 21
219.337363752725
 31
0.0
  0
LINE
  5
1A3
330
1F
100
AcDbEntity
  8
0
 62
     3
100
AcDbLine
 10
946.0972874359409
 20
247.9998146535682
 30
0.0
 11
919.0718457342265
 21
220.9051706273851
 31
0.0
  0
LINE
  5
1A4
330
1F
100
AcDbEntity
  8
0
 62
     3
100
AcDbLine
 10
946.0536499040728
 20
252.6848285947284
 30
0.0
 11
919.9861487714374
 21
278.804209797188
 31
0.0
  0
LINE
  5
1A5
330
1F
100
AcDbEntity
  8
0
 62
     3
100
AcDbLine
 10
885.6482130691452
 20
250.5131420569208
 30
0.0
 11
897.930977070127
 21
262.8021592242058
 31
0.0
  0
LINE
  5
1A6
330
1F
100
AcDbEntity
  8
0
 62
     3
100
AcDbLine
 10
897.9147364677128
 20
238.2528730923314
 30
0.0
 11
897.930977070127
 21
262.8021592242058
 31
0.0
  0
LINE
  5
1A7
330
1F
100
AcDbEntity
  8
0
 62
     3
100
AcDbLine
 10
885.6482130691452
 20
250.5131420569208
 30
0.0
 11
897.9147364677128
 21
238.2528730923314
 31
0.0
  0
LINE
  5
1A8
330
1F
100
AcDbEntity
  8
0
 62
     3
100
AcDbLine
 10
919.9861487714374
 20
278.804209797188
 30
0.0
 11
915.0896054093752
 21
280.5348852341507
 31
0.0
  0
LINE
  5
1A9
330
1F
100
AcDbEntity
  8
0
 62
     3
100
AcDbLine
 10
872.4344909502629
 20
219.3475281539149
 30
0.0
 11
869.7877822212911
 21
222.2200582972126
 31
0.0
  0
LINE
  5
1AA
330
1F
100
AcDbEntity
  8
0
 62
     3
100
AcDbLine
 10
872.4344057835553
 20
280.4340645278267
 30
0.0
 11
869.837310023291
 21
278.029748513454
 31
0.0
  0
ARC
  5
1AB
330
1F
100
AcDbEntity
  8
0
 62
     3
100
AcDbCircle
 10
1051.978208909153
 20
249.9632421446682
 30
0.0
 40
184.2906287001571
100
AcDbArc
 50
171.2400623216818
 51
188.6582444681489
  0
LINE
  5
1AC
330
1F
100
AcDbEntity
  8
0
 62
     3
100
AcDbLine
 10
977.2678094818411
 20
252.6390799009039
 30
0.0
 11
977.3114470137091
 21
247.9540659597438
 31
0.0
  0
LINE
  5
1AD
330
1F
100
AcDbEntity
  8
0
 62
     3
100
AcDbLine
 10
1008.41357357643
 20
281.3015308017471
 30
0.0
 11
1050.930605967519
 21
281.2913664005573
 31
0.0
  0
LINE
  5
1AE
330
1F
100
AcDbEntity
  8
0
 62
     3
100
AcDbLine
 10
1008.275491508406
 20
220.1040093203215
 30
0.0
 11
1050.930691134226
 21
220.2048300266454
 31
0.0
  0
LINE
  5
1AF
330
1F
100
AcDbEntity
  8
0
 62
     3
100
AcDbLine
 10
1004.293251183555
 20
279.7337239270871
 30
0.0
 11
1008.41357357643
 21
281.3015308017471
 31
0.0
  0
LINE
  5
1B0
330
1F
100
AcDbEntity
  8
0
 62
     3
100
AcDbLine
 10
977.2678094818411
 20
252.6390799009039
 30
0.0
 11
1004.293251183555
 21
279.7337239270871
 31
0.0
  0
LINE
  5
1B1
330
1F
100
AcDbEntity
  8
0
 62
     3
100
AcDbLine
 10
977.3114470137091
 20
247.9540659597438
 30
0.0
 11
1003.378948146344
 21
221.8346847572842
 31
0.0
  0
LINE
  5
1B2
330
1F
100
AcDbEntity
  8
0
 62
     3
100
AcDbLine
 10
1037.716883848636
 20
250.1257524975514
 30
0.0
 11
1025.434119847655
 21
237.8367353302663
 31
0.0
  0
LINE
  5
1B3
330
1F
100
AcDbEntity
  8
0
 62
     3
100
AcDbLine
 10
1025.450360450069
 20
262.3860214621407
 30
0.0
 11
1025.434119847655
 21
237.8367353302663
 31
0.0
  0
LINE
  5
1B4
330
1F
100
AcDbEntity
  8
0
 62
     3
100
AcDbLine
 10
1037.716883848636
 20
250.1257524975514
 30
0.0
 11
1025.450360450069
 21
262.3860214621407
 31
0.0
  0
LINE
  5
1B5
330
1F
100
AcDbEntity
  8
0
 62
     3
100
AcDbLine
 10
1003.378948146344
 20
221.8346847572842
 30
0.0
 11
1008.275491508406
 21
220.1040093203215
 31
0.0
  0
LINE
  5
1B6
330
1F
100
AcDbEntity
  8
0
 62
     3
100
AcDbLine
 10
1050.930605967519
 20
281.2913664005573
 30
0.0
 11
1053.577314696491
 21
278.4188362572596
 31
0.0
  0
LINE
  5
1B7
330
1F
100
AcDbEntity
  8
0
 62
     3
100
AcDbLine
 10
1050.930691134226
 20
220.2048300266454
 30
0.0
 11
1053.527786894491
 21
222.6091460410182
 31
0.0
  0
ARC
  5
1B8
330
1F
100
AcDbEntity
  8
0
 62
     3
100
AcDbCircle
 10
871.3868880086282
 20
250.675652409804
 30
0.0
 40
184.2906287001571
100
AcDbArc
 50
351.2400623216818
 51
8.658244468148925
  0
LINE
  5
1B9
330
1F
100
AcDbEntity
  8
0
 62
     3
100
AcDbLine
 10
1298.379781918317
 20
182.6004615019299
 30
0.0
 11
1291.840073142616
 21
182.6004615019299
 31
0.0
  0
LINE
  5
1BA
330
1F
100
AcDbEntity
  8
0
 62
     3
100
AcDbLine
 10
1291.840073142616
 20
182.6004615019299
 30
0.0
 11
1291.842964462837
 21
215.2396557257531
 31
0.0
  0
LINE
  5
1BB
330
1F
100
AcDbEntity
  8
0
 62
     3
100
AcDbLine
 10
1291.842964462837
 20
215.2396557257531
 30
0.0
 11
1298.404824058842
 21
215.2486977847693
 31
0.0
  0
LINE
  5
1BC
330
1F
100
AcDbEntity
  8
0
 62
     3
100
AcDbLine
 10
1298.404824058842
 20
215.2486977847693
 30
0.0
 11
1298.379781918317
 21
182.6004615019299
 31
0.0
  0
LINE
  5
1BD
330
1F
100
AcDbEntity
  8
0
 62
     3
100
AcDbLine
 10
1321.79524879635
 20
220.4678898100243
 30
0.0
 11
1321.79524879635
 21
164.6759286810243
 31
0.0
  0
LINE
  5
1BE
330
1F
100
AcDbEntity
  8
0
 62
     3
100
AcDbLine
 10
1318.703633812212
 20
161.5706751775395
 30
0.0
 11
1313.205348403923
 21
161.0057708380442
 31
0.0
  0
LINE
  5
1BF
330
1F
100
AcDbEntity
  8
0
 62
     3
100
AcDbLine
 10
1268.566127609118
 20
164.714925416028
 30
0.0
 11
1268.566127609118
 21
220.4678898100244
 31
0.0
  0
LINE
  5
1C0
330
1F
100
AcDbEntity
  8
0
 62
     3
100
AcDbLine
 10
1276.620182643288
 20
161.0409487345184
 30
0.0
 11
1271.578913611863
 21
161.5711337655057
 31
0.0
  0
LINE
  5
1C1
330
1F
100
AcDbEntity
  8
0
 62
     3
100
AcDbLine
 10
1270.356007261877
 20
161.9271994954707
 30
0.0
 11
1271.578913611863
 21
161.5711337655057
 31
0.0
  0
LINE
  5
1C2
330
1F
100
AcDbEntity
  8
0
 62
     3
100
AcDbLine
 10
1269.398338761211
 20
162.6264125680267
 30
0.0
 11
1270.356007261877
 21
161.9271994954707
 31
0.0
  0
LINE
  5
1C3
330
1F
100
AcDbEntity
  8
0
 62
     3
100
AcDbLine
 10
1268.847319213998
 20
163.405397597541
 30
0.0
 11
1269.398338761211
 21
162.6264125680267
 31
0.0
  0
LINE
  5
1C4
330
1F
100
AcDbEntity
  8
0
 62
     3
100
AcDbLine
 10
1268.566127609118
 20
164.714925416028
 30
0.0
 11
1268.847319213998
 21
163.405397597541
 31
0.0
  0
LINE
  5
1C5
330
1F
100
AcDbEntity
  8
0
 62
     3
100
AcDbLine
 10
1319.919171401262
 20
161.9138852686496
 30
0.0
 11
1318.703633812213
 21
161.5706751775395
 31
0.0
  0
LINE
  5
1C6
330
1F
100
AcDbEntity
  8
0
 62
     3
100
AcDbLine
 10
1320.949596837265
 20
162.6553587308316
 30
0.0
 11
1319.919171401262
 21
161.9138852686496
 31
0.0
  0
LINE
  5
1C7
330
1F
100
AcDbEntity
  8
0
 62
     3
100
AcDbLine
 10
1321.538983827657
 20
163.5285929818595
 30
0.0
 11
1320.949596837265
 21
162.6553587308316
 31
0.0
  0
LINE
  5
1C8
330
1F
100
AcDbEntity
  8
0
 62
     3
100
AcDbLine
 10
1321.79524879635
 20
164.6759286810243
 30
0.0
 11
1321.538983827657
 21
163.5285929818595
 31
0.0
  0
LINE
  5
1C9
330
1F
100
AcDbEntity
  8
0
 62
     3
100
AcDbLine
 10
1266.397495102236
 20
223.3974881590183
 30
0.0
 11
1265.041499009707
 21
223.63889680753
 31
0.0
  0
LINE
  5
1CA
330
1F
100
AcDbEntity
  8
0
 62
     3
100
AcDbLine
 10
1267.575248860021
 20
222.6777172721765
 30
0.0
 11
1266.397495102236
 21
223.3974881590183
 31
0.0
  0
LINE
  5
1CB
330
1F
100
AcDbEntity
  8
0
 62
     3
100
AcDbLine
 10
1268.224212557819
 20
221.8398429153547
 30
0.0
 11
1267.575248860021
 21
222.6777172721765
 31
0.0
  0
LINE
  5
1CC
330
1F
100
AcDbEntity
  8
0
 62
     3
100
AcDbLine
 10
1268.569875611919
 20
220.4678867697612
 30
0.0
 11
1268.224212557819
 21
221.8398429153547
 31
0.0
  0
LINE
  5
1CD
330
1F
100
AcDbEntity
  8
0
 62
     3
100
AcDbLine
 10
1286.047618975461
 20
160.4367215021812
 30
0.0
 11
1276.620182643288
 21
161.0409487345184
 31
0.0
  0
LINE
  5
1CE
330
1F
100
AcDbEntity
  8
0
 62
     3
100
AcDbLine
 10
1295.242136699437
 20
160.2458858738683
 30
0.0
 11
1286.047618975461
 21
160.4367215021812
 31
0.0
  0
LINE
  5
1CF
330
1F
100
AcDbEntity
  8
0
 62
     3
100
AcDbLine
 10
1304.683212548903
 20
160.4580152603089
 30
0.0
 11
1295.242136699437
 21
160.2458858738683
 31
0.0
  0
LINE
  5
1D0
330
1F
100
AcDbEntity
  8
0
 62
     3
100
AcDbLine
 10
1313.205348403923
 20
161.0057708380442
 30
0.0
 11
1304.683212548903
 21
160.4580152603089
 31
0.0
  0
LINE
  5
1D1
330
1F
100
AcDbEntity
  8
0
 62
     3
100
AcDbLine
 10
1362.916660257455
 20
253.484710814896
 30
0.0
 11
1362.916660257455
 21
246.945002039195
 31
0.0
  0
LINE
  5
1D2
330
1F
100
AcDbEntity
  8
0
 62
     3
100
AcDbLine
 10
1362.916660257455
 20
246.945002039195
 30
0.0
 11
1330.277466033631
 21
246.9478933594164
 31
0.0
  0
LINE
  5
1D3
330
1F
100
AcDbEntity
  8
0
 62
     3
100
AcDbLine
 10
1330.277466033631
 20
246.9478933594164
 30
0.0
 11
1330.268423974615
 21
253.5097529554209
 31
0.0
  0
LINE
  5
1D4
330
1F
100
AcDbEntity
  8
0
 62
     3
100
AcDbLine
 10
1330.268423974615
 20
253.5097529554209
 30
0.0
 11
1362.916660257455
 21
253.484710814896
 31
0.0
  0
LINE
  5
1D5
330
1F
100
AcDbEntity
  8
0
 62
     3
100
AcDbLine
 10
1325.04923194936
 20
276.900177692929
 30
0.0
 11
1380.84119307836
 21
276.900177692929
 31
0.0
  0
LINE
  5
1D6
330
1F
100
AcDbEntity
  8
0
 62
     3
100
AcDbLine
 10
1383.946446581845
 20
273.8085627087914
 30
0.0
 11
1384.51135092134
 21
268.3102773005021
 31
0.0
  0
LINE
  5
1D7
330
1F
100
AcDbEntity
  8
0
 62
     3
100
AcDbLine
 10
1380.802196343356
 20
223.6710565056973
 30
0.0
 11
1325.04923194936
 21
223.6710565056973
 31
0.0
  0
LINE
  5
1D8
330
1F
100
AcDbEntity
  8
0
 62
     3
100
AcDbLine
 10
1384.476173024866
 20
231.7251115398671
 30
0.0
 11
1383.945987993879
 21
226.683842508442
 31
0.0
  0
LINE
  5
1D9
330
1F
100
AcDbEntity
  8
0
 62
     3
100
AcDbLine
 10
1383.589922263914
 20
225.4609361584562
 30
0.0
 11
1383.945987993879
 21
226.683842508442
 31
0.0
  0
LINE
  5
1DA
330
1F
100
AcDbEntity
  8
0
 62
     3
100
AcDbLine
 10
1382.890709191358
 20
224.5032676577902
 30
0.0
 11
1383.589922263914
 21
225.4609361584562
 31
0.0
  0
LINE
  5
1DB
330
1F
100
AcDbEntity
  8
0
 62
     3
100
AcDbLine
 10
1382.111724161843
 20
223.9522481105769
 30
0.0
 11
1382.890709191358
 21
224.5032676577902
 31
0.0
  0
LINE
  5
1DC
330
1F
100
AcDbEntity
  8
0
 62
     3
100
AcDbLine
 10
1380.802196343356
 20
223.6710565056973
 30
0.0
 11
1382.111724161843
 21
223.9522481105769
 31
0.0
  0
LINE
  5
1DD
330
1F
100
AcDbEntity
  8
0
 62
     3
100
AcDbLine
 10
1383.603236490735
 20
275.0241002978409
 30
0.0
 11
1383.946446581845
 21
273.8085627087916
 31
0.0
  0
LINE
  5
1DE
330
1F
100
AcDbEntity
  8
0
 62
     3
100
AcDbLine
 10
1382.861763028553
 20
276.0545257338437
 30
0.0
 11
1383.603236490735
 21
275.0241002978409
 31
0.0
  0
LINE
  5
1DF
330
1F
100
AcDbEntity
  8
0
 62
     3
100
AcDbLine
 10
1381.988528777525
 20
276.6439127242363
 30
0.0
 11
1382.861763028553
 21
276.0545257338437
 31
0.0
  0
LINE
  5
1E0
330
1F
100
AcDbEntity
  8
0
 62
     3
100
AcDbLine
 10
1380.84119307836
 20
276.900177692929
 30
0.0
 11
1381.988528777525
 21
276.6439127242363
 31
0.0
  0
LINE
  5
1E1
330
1F
100
AcDbEntity
  8
0
 62
     3
100
AcDbLine
 10
1322.119633600366
 20
221.5024239988149
 30
0.0
 11
1321.878224951855
 21
220.1464279062856
 31
0.0
  0
LINE
  5
1E2
330
1F
100
AcDbEntity
  8
0
 62
     3
100
AcDbLine
 10
1322.839404487208
 20
222.6801777565999
 30
0.0
 11
1322.119633600366
 21
221.5024239988149
 31
0.0
  0
LINE
  5
1E3
330
1F
100
AcDbEntity
  8
0
 62
     3
100
AcDbLine
 10
1323.67727884403
 20
223.3291414543978
 30
0.0
 11
1322.839404487208
 21
222.6801777565999
 31
0.0
  0
LINE
  5
1E4
330
1F
100
AcDbEntity
  8
0
 62
     3
100
AcDbLine
 10
1325.049234989623
 20
223.674804508498
 30
0.0
 11
1323.67727884403
 21
223.3291414543978
 31
0.0
  0
LINE
  5
1E5
330
1F
100
AcDbEntity
  8
0
 62
     3
100
AcDbLine
 10
1385.080400257203
 20
241.1525478720395
 30
0.0
 11
1384.476173024866
 21
231.7251115398671
 31
0.0
  0
LINE
  5
1E6
330
1F
100
AcDbEntity
  8
0
 62
     3
100
AcDbLine
 10
1385.271235885516
 20
250.3470655960161
 30
0.0
 11
1385.080400257203
 21
241.1525478720395
 31
0.0
  0
LINE
  5
1E7
330
1F
100
AcDbEntity
  8
0
 62
     3
100
AcDbLine
 10
1385.059106499076
 20
259.7881414454818
 30
0.0
 11
1385.271235885516
 21
250.3470655960161
 31
0.0
  0
LINE
  5
1E8
330
1F
100
AcDbEntity
  8
0
 62
     3
100
AcDbLine
 10
1384.51135092134
 20
268.3102773005021
 30
0.0
 11
1385.059106499076
 21
259.7881414454818
 31
0.0
  0
LINE
  5
1E9
330
1F
100
AcDbEntity
  8
0
 62
     3
100
AcDbLine
 10
1291.998575433082
 20
317.9761235322183
 30
0.0
 11
1298.538284208783
 21
317.9761235322183
 31
0.0
  0
LINE
  5
1EA
330
1F
100
AcDbEntity
  8
0
 62
     3
100
AcDbLine
 10
1298.538284208783
 20
317.9761235322183
 30
0.0
 11
1298.535392888562
 21
285.3369293083952
 31
0.0
  0
LINE
  5
1EB
330
1F
100
AcDbEntity
  8
0
 62
     3
100
AcDbLine
 10
1298.535392888562
 20
285.3369293083952
 30
0.0
 11
1291.973533292557
 21
285.327887249379
 31
0.0
  0
LINE
  5
1EC
330
1F
100
AcDbEntity
  8
0
 62
     3
100
AcDbLine
 10
1291.973533292557
 20
285.327887249379
 30
0.0
 11
1291.998575433082
 21
317.9761235322183
 31
0.0
  0
LINE
  5
1ED
330
1F
100
AcDbEntity
  8
0
 62
     3
100
AcDbLine
 10
1268.583108555049
 20
280.108695224124
 30
0.0
 11
1268.583108555049
 21
335.9006563531238
 31
0.0
  0
LINE
  5
1EE
330
1F
100
AcDbEntity
  8
0
 62
     3
100
AcDbLine
 10
1271.674723539186
 20
339.0059098566087
 30
0.0
 11
1277.173008947476
 21
339.570814196104
 31
0.0
  0
LINE
  5
1EF
330
1F
100
AcDbEntity
  8
0
 62
     3
100
AcDbLine
 10
1321.812229742281
 20
335.8616596181202
 30
0.0
 11
1321.812229742281
 21
280.108695224124
 31
0.0
  0
LINE
  5
1F0
330
1F
100
AcDbEntity
  8
0
 62
     3
100
AcDbLine
 10
1313.758174708111
 20
339.5356362996297
 30
0.0
 11
1318.799443739536
 21
339.0054512686424
 31
0.0
  0
LINE
  5
1F1
330
1F
100
AcDbEntity
  8
0
 62
     3
100
AcDbLine
 10
1320.022350089522
 20
338.6493855386775
 30
0.0
 11
1318.799443739536
 21
339.0054512686424
 31
0.0
  0
LINE
  5
1F2
330
1F
100
AcDbEntity
  8
0
 62
     3
100
AcDbLine
 10
1320.980018590188
 20
337.9501724661215
 30
0.0
 11
1320.022350089522
 21
338.6493855386775
 31
0.0
  0
LINE
  5
1F3
330
1F
100
AcDbEntity
  8
0
 62
     3
100
AcDbLine
 10
1321.531038137401
 20
337.1711874366072
 30
0.0
 11
1320.980018590188
 21
337.9501724661215
 31
0.0
  0
LINE
  5
1F4
330
1F
100
AcDbEntity
  8
0
 62
     3
100
AcDbLine
 10
1321.812229742281
 20
335.8616596181202
 30
0.0
 11
1321.531038137401
 21
337.1711874366072
 31
0.0
  0
LINE
  5
1F5
330
1F
100
AcDbEntity
  8
0
 62
     3
100
AcDbLine
 10
1270.459185950137
 20
338.6626997654987
 30
0.0
 11
1271.674723539186
 21
339.0059098566087
 31
0.0
  0
LINE
  5
1F6
330
1F
100
AcDbEntity
  8
0
 62
     3
100
AcDbLine
 10
1269.428760514134
 20
337.9212263033166
 30
0.0
 11
1270.459185950137
 21
338.6626997654987
 31
0.0
  0
LINE
  5
1F7
330
1F
100
AcDbEntity
  8
0
 62
     3
100
AcDbLine
 10
1268.839373523742
 20
337.0479920522887
 30
0.0
 11
1269.428760514134
 21
337.9212263033166
 31
0.0
  0
LINE
  5
1F8
330
1F
100
AcDbEntity
  8
0
 62
     3
100
AcDbLine
 10
1268.583108555049
 20
335.9006563531238
 30
0.0
 11
1268.839373523742
 21
337.0479920522887
 31
0.0
  0
LINE
  5
1F9
330
1F
100
AcDbEntity
  8
0
 62
     3
100
AcDbLine
 10
1323.980862249163
 20
277.17909687513
 30
0.0
 11
1325.336858341692
 21
276.9376882266183
 31
0.0
  0
LINE
  5
1FA
330
1F
100
AcDbEntity
  8
0
 62
     3
100
AcDbLine
 10
1322.803108491378
 20
277.8988677619718
 30
0.0
 11
1323.980862249163
 21
277.17909687513
 31
0.0
  0
LINE
  5
1FB
330
1F
100
AcDbEntity
  8
0
 62
     3
100
AcDbLine
 10
1322.15414479358
 20
278.7367421187937
 30
0.0
 11
1322.803108491378
 21
277.8988677619718
 31
0.0
  0
LINE
  5
1FC
330
1F
100
AcDbEntity
  8
0
 62
     3
100
AcDbLine
 10
1321.80848173948
 20
280.1086982643871
 30
0.0
 11
1322.15414479358
 21
278.7367421187937
 31
0.0
  0
LINE
  5
1FD
330
1F
100
AcDbEntity
  8
0
 62
     3
100
AcDbLine
 10
1304.330738375939
 20
340.1398635319669
 30
0.0
 11
1313.758174708111
 21
339.5356362996297
 31
0.0
  0
LINE
  5
1FE
330
1F
100
AcDbEntity
  8
0
 62
     3
100
AcDbLine
 10
1295.136220651962
 20
340.3306991602799
 30
0.0
 11
1304.330738375939
 21
340.1398635319669
 31
0.0
  0
LINE
  5
1FF
330
1F
100
AcDbEntity
  8
0
 62
     3
100
AcDbLine
 10
1285.695144802496
 20
340.1185697738392
 30
0.0
 11
1295.136220651962
 21
340.3306991602799
 31
0.0
  0
LINE
  5
200
330
1F
100
AcDbEntity
  8
0
 62
     3
100
AcDbLine
 10
1277.173008947476
 20
339.570814196104
 30
0.0
 11
1285.695144802496
 21
340.1185697738392
 31
0.0
  0
LINE
  5
201
330
1F
100
AcDbEntity
  8
0
 62
     3
100
AcDbLine
 10
1227.478678039875
 20
247.1541837395761
 30
0.0
 11
1227.478678039875
 21
253.6938925152771
 31
0.0
  0
LINE
  5
202
330
1F
100
AcDbEntity
  8
0
 62
     3
100
AcDbLine
 10
1227.478678039875
 20
253.6938925152771
 30
0.0
 11
1260.117872263698
 21
253.6910011950558
 31
0.0
  0
LINE
  5
203
330
1F
100
AcDbEntity
  8
0
 62
     3
100
AcDbLine
 10
1260.117872263698
 20
253.6910011950558
 30
0.0
 11
1260.126914322714
 21
247.1291415990513
 31
0.0
  0
LINE
  5
204
330
1F
100
AcDbEntity
  8
0
 62
     3
100
AcDbLine
 10
1260.126914322714
 20
247.1291415990513
 30
0.0
 11
1227.478678039875
 21
247.1541837395761
 31
0.0
  0
LINE
  5
205
330
1F
100
AcDbEntity
  8
0
 62
     3
100
AcDbLine
 10
1265.34610634797
 20
223.7387168615432
 30
0.0
 11
1209.554145218969
 21
223.7387168615432
 31
0.0
  0
LINE
  5
206
330
1F
100
AcDbEntity
  8
0
 62
     3
100
AcDbLine
 10
1206.448891715485
 20
226.8303318456807
 30
0.0
 11
1205.883987375989
 21
232.3286172539701
 31
0.0
  0
LINE
  5
207
330
1F
100
AcDbEntity
  8
0
 62
     3
100
AcDbLine
 10
1209.593141953973
 20
276.9678380487748
 30
0.0
 11
1265.34610634797
 21
276.9678380487748
 31
0.0
  0
LINE
  5
208
330
1F
100
AcDbEntity
  8
0
 62
     3
100
AcDbLine
 10
1205.919165272463
 20
268.9137830146051
 30
0.0
 11
1206.449350303451
 21
273.9550520460302
 31
0.0
  0
LINE
  5
209
330
1F
100
AcDbEntity
  8
0
 62
     3
100
AcDbLine
 10
1206.805416033416
 20
275.177958396016
 30
0.0
 11
1206.449350303451
 21
273.9550520460302
 31
0.0
  0
LINE
  5
20A
330
1F
100
AcDbEntity
  8
0
 62
     3
100
AcDbLine
 10
1207.504629105972
 20
276.1356268966819
 30
0.0
 11
1206.805416033416
 21
275.177958396016
 31
0.0
  0
LINE
  5
20B
330
1F
100
AcDbEntity
  8
0
 62
     3
100
AcDbLine
 10
1208.283614135486
 20
276.6866464438953
 30
0.0
 11
1207.504629105972
 21
276.1356268966819
 31
0.0
  0
LINE
  5
20C
330
1F
100
AcDbEntity
  8
0
 62
     3
100
AcDbLine
 10
1209.593141953973
 20
276.9678380487748
 30
0.0
 11
1208.283614135486
 21
276.6866464438953
 31
0.0
  0
LINE
  5
20D
330
1F
100
AcDbEntity
  8
0
 62
     3
100
AcDbLine
 10
1206.792101806595
 20
225.6147942566312
 30
0.0
 11
1206.448891715485
 21
226.8303318456805
 31
0.0
  0
LINE
  5
20E
330
1F
100
AcDbEntity
  8
0
 62
     3
100
AcDbLine
 10
1207.533575268777
 20
224.5843688206284
 30
0.0
 11
1206.792101806595
 21
225.6147942566312
 31
0.0
  0
LINE
  5
20F
330
1F
100
AcDbEntity
  8
0
 62
     3
100
AcDbLine
 10
1208.406809519805
 20
223.9949818302359
 30
0.0
 11
1207.533575268777
 21
224.5843688206284
 31
0.0
  0
LINE
  5
210
330
1F
100
AcDbEntity
  8
0
 62
     3
100
AcDbLine
 10
1209.554145218969
 20
223.7387168615432
 30
0.0
 11
1208.406809519805
 21
223.9949818302359
 31
0.0
  0
LINE
  5
211
330
1F
100
AcDbEntity
  8
0
 62
     3
100
AcDbLine
 10
1268.275704696963
 20
279.1364705556572
 30
0.0
 11
1268.517113345475
 21
280.4924666481865
 31
0.0
  0
LINE
  5
212
330
1F
100
AcDbEntity
  8
0
 62
     3
100
AcDbLine
 10
1267.555933810122
 20
277.9587167978722
 30
0.0
 11
1268.275704696963
 21
279.1364705556572
 31
0.0
  0
LINE
  5
213
330
1F
100
AcDbEntity
  8
0
 62
     3
100
AcDbLine
 10
1266.7180594533
 20
277.3097531000744
 30
0.0
 11
1267.555933810122
 21
277.9587167978722
 31
0.0
  0
LINE
  5
214
330
1F
100
AcDbEntity
  8
0
 62
     3
100
AcDbLine
 10
1265.346103307706
 20
276.9640900459742
 30
0.0
 11
1266.7180594533
 21
277.3097531000744
 31
0.0
  0
LINE
  5
215
330
1F
100
AcDbEntity
  8
0
 62
     3
100
AcDbLine
 10
1205.314938040126
 20
259.4863466824326
 30
0.0
 11
1205.919165272463
 21
268.9137830146051
 31
0.0
  0
LINE
  5
216
330
1F
100
AcDbEntity
  8
0
 62
     3
100
AcDbLine
 10
1205.124102411814
 20
250.291828958456
 30
0.0
 11
1205.314938040126
 21
259.4863466824326
 31
0.0
  0
LINE
  5
217
330
1F
100
AcDbEntity
  8
0
 62
     3
100
AcDbLine
 10
1205.336231798254
 20
240.8507531089903
 30
0.0
 11
1205.124102411814
 21
250.291828958456
 31
0.0
  0
LINE
  5
218
330
1F
100
AcDbEntity
  8
0
 62
     3
100
AcDbLine
 10
1205.883987375989
 20
232.3286172539701
 30
0.0
 11
1205.336231798254
 21
240.8507531089903
 31
0.0
  0
ENDSEC
  0
SECTION
  2
OBJECTS
  0
DICTIONARY
  5
C
330
0
100
AcDbDictionary
281
     1
  3
ACAD_GROUP
350
D
  3
ACAD_LAYOUT
350
1A
  3
ACAD_MLINESTYLE
350
17
  3
ACAD_PLOTSETTINGS
350
19
  3
ACAD_PLOTSTYLENAME
350
E
  3
AcDbVariableDictionary
350
5E
  3
AVE_ACITABLE
350
16E
  0
DICTIONARY
  5
D
102
{ACAD_REACTORS
330
C
102
}
330
C
100
AcDbDictionary
281
     1
  0
DICTIONARY
  5
1A
102
{ACAD_REACTORS
330
C
102
}
330
C
100
AcDbDictionary
281
     1
  3
Layout1
350
51
  3
Layout2
350
56
  3
Model
350
22
  0
DICTIONARY
  5
17
102
{ACAD_REACTORS
330
C
102
}
330
C
100
AcDbDictionary
281
     1
  3
Standard
350
18
  0
DICTIONARY
  5
19
102
{ACAD_REACTORS
330
C
102
}
330
C
100
AcDbDictionary
281
     1
  0
ACDBDICTIONARYWDFLT
  5
E
102
{ACAD_REACTORS
330
C
102
}
330
C
100
AcDbDictionary
281
     1
  3
Normal
350
F
100
AcDbDictionaryWithDefault
340
F
  0
DICTIONARY
  5
5E
102
{ACAD_REACTORS
330
C
102
}
330
C
100
AcDbDictionary
281
     1
  3
DIMASSOC
350
5F
  3
HIDETEXT
350
63
  0
DICTIONARY
  5
16E
102
{ACAD_REACTORS
330
C
102
}
330
C
100
AcDbDictionary
281
     1
  0
LAYOUT
  5
51
102
{ACAD_REACTORS
330
1A
102
}
330
1A
100
AcDbPlotSettings
  1

  2
None
  4

  6

 40
0.0
 41
0.0
 42
0.0
 43
0.0
 44
0.0
 45
0.0
 46
0.0
 47
0.0
 48
0.0
 49
0.0
140
0.0
141
0.0
142
1.0
143
1.0
 70
   688
 72
     0
 73
     0
 74
     5
  7

 75
    16
147
1.0
148
0.0
149
0.0
100
AcDbLayout
  1
Layout1
 70
     1
 71
     1
 10
0.0
 20
0.0
 11
12.0
 21
9.0
 12
0.0
 22
0.0
 32
0.0
 14
0.0
 24
0.0
 34
0.0
 15
0.0
 25
0.0
 35
0.0
146
0.0
 13
0.0
 23
0.0
 33
0.0
 16
1.0
 26
0.0
 36
0.0
 17
0.0
 27
1.0
 37
0.0
 76
     0
330
50
  0
LAYOUT
  5
56
102
{ACAD_REACTORS
330
1A
102
}
330
1A
100
AcDbPlotSettings
  1

  2
None
  4

  6

 40
0.0
 41
0.0
 42
0.0
 43
0.0
 44
0.0
 45
0.0
 46
0.0
 47
0.0
 48
0.0
 49
0.0
140
0.0
141
0.0
142
1.0
143
1.0
 70
   688
 72
     0
 73
     0
 74
     5
  7

 75
    16
147
1.0
148
0.0
149
0.0
100
AcDbLayout
  1
Layout2
 70
     1
 71
     2
 10
0.0
 20
0.0
 11
12.0
 21
9.0
 12
0.0
 22
0.0
 32
0.0
 14
0.0
 24
0.0
 34
0.0
 15
0.0
 25
0.0
 35
0.0
146
0.0
 13
0.0
 23
0.0
 33
0.0
 16
1.0
 26
0.0
 36
0.0
 17
0.0
 27
1.0
 37
0.0
 76
     0
330
55
  0
LAYOUT
  5
22
102
{ACAD_REACTORS
330
1A
102
}
330
1A
100
AcDbPlotSettings
  1

  2
none_device
  4
ANSI_A_(8.50_x_11.00_Inches)
  6

 40
6.349999904632568
 41
19.04999923706054
 42
6.350006103515625
 43
19.04998779296875
 44
215.8999938964843
 45
279.3999938964843
 46
0.0
 47
0.0
 48
0.0
 49
0.0
140
0.0
141
0.0
142
1.0
143
78.436453180766
 70
 11952
 72
     0
 73
     1
 74
     0
  7

 75
     0
147
0.0127491741332998
148
0.0
149
0.0
100
AcDbLayout
  1
Model
 70
     1
 71
     0
 10
0.0
 20
0.0
 11
12.0
 21
9.0
 12
0.0
 22
0.0
 32
0.0
 14
0.0
 24
0.0
 34
0.0
 15
0.0
 25
0.0
 35
0.0
146
0.0
 13
0.0
 23
0.0
 33
0.0
 16
1.0
 26
0.0
 36
0.0
 17
0.0
 27
1.0
 37
0.0
 76
     0
330
1F
  0
MLINESTYLE
  5
18
102
{ACAD_REACTORS
330
17
102
}
330
17
100
AcDbMlineStyle
  2
STANDARD
 70
     0
  3

 62
   256
 51
90.0
 52
90.0
 71
     2
 49
0.5
 62
   256
  6
BYLAYER
 49
-0.5
 62
   256
  6
BYLAYER
  0
ACDBPLACEHOLDER
  5
F
102
{ACAD_REACTORS
330
E
102
}
330
E
  0
DICTIONARYVAR
  5
5F
102
{ACAD_REACTORS
330
5E
102
}
330
5E
100
DictionaryVariables
280
     0
  1
2
  0
DICTIONARYVAR
  5
63
102
{ACAD_REACTORS
330
5E
102
}
330
5E
100
DictionaryVariables
280
     0
  1
1
  0
ENDSEC
  0
EOF
