  0
SECTION
  2
HEADER
  9
$ACADVER
  1
AC1014
  9
$ACADMAINTVER
 70
     9
  9
$DWGCODEPAGE
  3
ANSI_1252
  9
$INSBASE
 10
0.0
 20
0.0
 30
0.0
  9
$EXTMIN
 10
-100.8338656960744
 20
-99.39621156204069
 30
0.0
  9
$EXTMAX
 10
1182.923277656169
 20
100.6037884379593
 30
0.0
  9
$LIMMIN
 10
0.0
 20
0.0
  9
$LIMMAX
 10
420.0
 20
297.0
  9
$ORTHOMODE
 70
     0
  9
$REGENMODE
 70
     1
  9
$FILLMODE
 70
     1
  9
$QTEXTMODE
 70
     0
  9
$MIRRTEXT
 70
     1
  9
$DRAGMODE
 70
     2
  9
$LTSCALE
 40
1.0
  9
$OSMODE
 70
   551
  9
$ATTMODE
 70
     1
  9
$TEXTSIZE
 40
2.5
  9
$TRACEWID
 40
1.0
  9
$TEXTSTYLE
  7
STANDARD
  9
$CLAYER
  8
0
  9
$CELTYPE
  6
BYLAYER
  9
$CECOLOR
 62
   256
  9
$CELTSCALE
 40
1.0
  9
$DELOBJ
 70
     1
  9
$DISPSILH
 70
     0
  9
$DIMSCALE
 40
1.0
  9
$DIMASZ
 40
2.5
  9
$DIMEXO
 40
0.625
  9
$DIMDLI
 40
3.75
  9
$DIMRND
 40
0.0
  9
$DIMDLE
 40
0.0
  9
$DIMEXE
 40
1.25
  9
$DIMTP
 40
0.0
  9
$DIMTM
 40
0.0
  9
$DIMTXT
 40
2.5
  9
$DIMCEN
 40
2.5
  9
$DIMTSZ
 40
0.0
  9
$DIMTOL
 70
     0
  9
$DIMLIM
 70
     0
  9
$DIMTIH
 70
     0
  9
$DIMTOH
 70
     0
  9
$DIMSE1
 70
     0
  9
$DIMSE2
 70
     0
  9
$DIMTAD
 70
     1
  9
$DIMZIN
 70
     8
  9
$DIMBLK
  1

  9
$DIMASO
 70
     1
  9
$DIMSHO
 70
     1
  9
$DIMPOST
  1

  9
$DIMAPOST
  1

  9
$DIMALT
 70
     0
  9
$DIMALTD
 70
     3
  9
$DIMALTF
 40
0.03937007874016
  9
$DIMLFAC
 40
1.0
  9
$DIMTOFL
 70
     1
  9
$DIMTVP
 40
0.0
  9
$DIMTIX
 70
     0
  9
$DIMSOXD
 70
     0
  9
$DIMSAH
 70
     0
  9
$DIMBLK1
  1

  9
$DIMBLK2
  1

  9
$DIMSTYLE
  2
ISO-25
  9
$DIMCLRD
 70
     0
  9
$DIMCLRE
 70
     0
  9
$DIMCLRT
 70
     0
  9
$DIMTFAC
 40
1.0
  9
$DIMGAP
 40
0.625
  9
$DIMJUST
 70
     0
  9
$DIMSD1
 70
     0
  9
$DIMSD2
 70
     0
  9
$DIMTOLJ
 70
     0
  9
$DIMTZIN
 70
     8
  9
$DIMALTZ
 70
     0
  9
$DIMALTTZ
 70
     0
  9
$DIMFIT
 70
     3
  9
$DIMUPT
 70
     0
  9
$DIMUNIT
 70
     2
  9
$DIMDEC
 70
     2
  9
$DIMTDEC
 70
     2
  9
$DIMALTU
 70
     2
  9
$DIMALTTD
 70
     3
  9
$DIMTXSTY
  7
STANDARD
  9
$DIMAUNIT
 70
     0
  9
$LUNITS
 70
     2
  9
$LUPREC
 70
     4
  9
$SKETCHINC
 40
1.0
  9
$FILLETRAD
 40
10.0
  9
$AUNITS
 70
     0
  9
$AUPREC
 70
     0
  9
$MENU
  1
.
  9
$ELEVATION
 40
0.0
  9
$PELEVATION
 40
0.0
  9
$THICKNESS
 40
0.0
  9
$LIMCHECK
 70
     0
  9
$BLIPMODE
 70
     0
  9
$CHAMFERA
 40
10.0
  9
$CHAMFERB
 40
10.0
  9
$CHAMFERC
 40
20.0
  9
$CHAMFERD
 40
0.0
  9
$SKPOLY
 70
     0
  9
$TDCREATE
 40
2454278.504956539
  9
$TDUPDATE
 40
2454278.505983749
  9
$TDINDWG
 40
0.0010275694
  9
$TDUSRTIMER
 40
0.0010275694
  9
$USRTIMER
 70
     1
  9
$ANGBASE
 50
0.0
  9
$ANGDIR
 70
     0
  9
$PDMODE
 70
     0
  9
$PDSIZE
 40
0.0
  9
$PLINEWID
 40
0.0
  9
$COORDS
 70
     1
  9
$SPLFRAME
 70
     0
  9
$SPLINETYPE
 70
     6
  9
$SPLINESEGS
 70
     8
  9
$ATTDIA
 70
     0
  9
$ATTREQ
 70
     1
  9
$HANDLING
 70
 22529
  9
$HANDSEED
  5
450
  9
$SURFTAB1
 70
     6
  9
$SURFTAB2
 70
     6
  9
$SURFTYPE
 70
     6
  9
$SURFU
 70
     6
  9
$SURFV
 70
     6
  9
$UCSNAME
  2

  9
$UCSORG
 10
0.0
 20
0.0
 30
0.0
  9
$UCSXDIR
 10
1.0
 20
0.0
 30
0.0
  9
$UCSYDIR
 10
0.0
 20
1.0
 30
0.0
  9
$PUCSNAME
  2

  9
$PUCSORG
 10
0.0
 20
0.0
 30
0.0
  9
$PUCSXDIR
 10
1.0
 20
0.0
 30
0.0
  9
$PUCSYDIR
 10
0.0
 20
1.0
 30
0.0
  9
$USERI1
 70
     0
  9
$USERI2
 70
     0
  9
$USERI3
 70
     0
  9
$USERI4
 70
     0
  9
$USERI5
 70
     0
  9
$USERR1
 40
0.0
  9
$USERR2
 40
0.0
  9
$USERR3
 40
0.0
  9
$USERR4
 40
0.0
  9
$USERR5
 40
0.0
  9
$WORLDVIEW
 70
     1
  9
$SHADEDGE
 70
     3
  9
$SHADEDIF
 70
    70
  9
$TILEMODE
 70
     1
  9
$MAXACTVP
 70
    64
  9
$PINSBASE
 10
0.0
 20
0.0
 30
0.0
  9
$PLIMCHECK
 70
     0
  9
$PEXTMIN
 10
0.0
 20
0.0
 30
0.0
  9
$PEXTMAX
 10
0.0
 20
0.0
 30
0.0
  9
$PLIMMIN
 10
0.0
 20
0.0
  9
$PLIMMAX
 10
12.0
 20
9.0
  9
$UNITMODE
 70
     0
  9
$VISRETAIN
 70
     1
  9
$PLINEGEN
 70
     0
  9
$PSLTSCALE
 70
     1
  9
$TREEDEPTH
 70
  3020
  9
$PICKSTYLE
 70
     1
  9
$CMLSTYLE
  2
STANDARD
  9
$CMLJUST
 70
     0
  9
$CMLSCALE
 40
20.0
  9
$PROXYGRAPHICS
 70
     1
  9
$MEASUREMENT
 70
     1
  0
ENDSEC
  0
SECTION
  2
CLASSES
  0
CLASS
  1
ACDBDICTIONARYWDFLT
  2
AcDbDictionaryWithDefault
  3
AutoCAD 2000
 90
        0
280
     0
281
     0
  0
CLASS
  1
ACDBPLACEHOLDER
  2
AcDbPlaceHolder
  3
AutoCAD 2000
 90
        0
280
     0
281
     0
  0
CLASS
  1
LAYOUT
  2
AcDbLayout
  3
AutoCAD 2000
 90
        0
280
     0
281
     0
  0
CLASS
  1
DICTIONARYVAR
  2
AcDbDictionaryVar
  3
AutoCAD 2000
 90
        0
280
     0
281
     0
  0
CLASS
  1
LONG_TRANSACTION
  2
AcDbLongTransaction
  3
AutoCAD 2000
 90
        0
280
     0
281
     0
  0
CLASS
  1
LWPOLYLINE
  2
AcDbPolyline
  3
AutoCAD 2000
 90
        0
280
     0
281
     1
  0
CLASS
  1
HATCH
  2
AcDbHatch
  3
AutoCAD 2000
 90
        0
280
     0
281
     1
  0
CLASS
  1
XRECORD
  2
AcDbXrecord
  3
AutoCAD 2000
 90
        0
280
     0
281
     0
  0
ENDSEC
  0
SECTION
  2
TABLES
  0
TABLE
  2
VPORT
  5
8
330
0
100
AcDbSymbolTable
 70
     2
  0
VPORT
  5
428
330
8
100
AcDbSymbolTableRecord
100
AcDbViewportTableRecord
  2
*ACTIVE
 70
     0
 10
0.0
 20
0.0
 11
1.0
 21
1.0
 12
370.0043340258484
 22
39.17898161248865
 13
0.0
 23
0.0
 14
10.0
 24
10.0
 15
10.0
 25
10.0
 16
0.0
 26
0.0
 36
1.0
 17
0.0
 27
0.0
 37
0.0
 40
1232.091453417376
 41
1.243935309973045
 42
50.0
 43
0.0
 44
0.0
 50
0.0
 51
0.0
 71
     0
 72
   100
 73
     1
 74
     3
 75
     0
 76
     0
 77
     0
 78
     0
  0
ENDTAB
  0
TABLE
  2
LTYPE
  5
5
330
0
100
AcDbSymbolTable
 70
     1
  0
LTYPE
  5
14
330
5
100
AcDbSymbolTableRecord
100
AcDbLinetypeTableRecord
  2
BYBLOCK
 70
     0
  3

 72
    65
 73
     0
 40
0.0
  0
LTYPE
  5
15
330
5
100
AcDbSymbolTableRecord
100
AcDbLinetypeTableRecord
  2
BYLAYER
 70
     0
  3

 72
    65
 73
     0
 40
0.0
  0
LTYPE
  5
16
330
5
100
AcDbSymbolTableRecord
100
AcDbLinetypeTableRecord
  2
CONTINUOUS
 70
     0
  3
Solid line
 72
    65
 73
     0
 40
0.0
  0
ENDTAB
  0
TABLE
  2
LAYER
  5
2
330
0
100
AcDbSymbolTable
 70
     1
  0
LAYER
  5
10
330
2
100
AcDbSymbolTableRecord
100
AcDbLayerTableRecord
  2
0
 70
     0
 62
     7
  6
CONTINUOUS
  0
ENDTAB
  0
TABLE
  2
STYLE
  5
3
330
0
100
AcDbSymbolTable
 70
     1
  0
STYLE
  5
11
330
3
100
AcDbSymbolTableRecord
100
AcDbTextStyleTableRecord
  2
STANDARD
 70
     0
 40
0.0
 41
1.0
 50
0.0
 71
     0
 42
2.5
  3
txt
  4

  0
ENDTAB
  0
TABLE
  2
VIEW
  5
6
330
0
100
AcDbSymbolTable
 70
     0
  0
ENDTAB
  0
TABLE
  2
UCS
  5
7
330
0
100
AcDbSymbolTable
 70
     0
  0
ENDTAB
  0
TABLE
  2
APPID
  5
9
330
0
100
AcDbSymbolTable
 70
     1
  0
APPID
  5
12
330
9
100
AcDbSymbolTableRecord
100
AcDbRegAppTableRecord
  2
ACAD
 70
     0
  0
ENDTAB
  0
TABLE
  2
DIMSTYLE
  5
A
330
0
100
AcDbSymbolTable
 70
     1
  0
DIMSTYLE
105
27
330
A
100
AcDbSymbolTableRecord
100
AcDbDimStyleTableRecord
  2
ISO-25
 70
     0
  3

  4

  5

  6

  7

 40
1.0
 41
2.5
 42
0.625
 43
3.75
 44
1.25
 45
0.0
 46
0.0
 47
0.0
 48
0.0
140
2.5
141
2.5
142
0.0
143
0.03937007874016
144
1.0
145
0.0
146
1.0
147
0.625
 71
     0
 72
     0
 73
     0
 74
     0
 75
     0
 76
     0
 77
     1
 78
     8
170
     0
171
     3
172
     1
173
     0
174
     0
175
     0
176
     0
177
     0
178
     0
270
     2
271
     2
272
     2
273
     2
274
     3
340
11
275
     0
280
     0
281
     0
282
     0
283
     0
284
     8
285
     0
286
     0
287
     3
288
     0
  0
ENDTAB
  0
TABLE
  2
BLOCK_RECORD
  5
1
330
0
100
AcDbSymbolTable
 70
     2
  0
BLOCK_RECORD
  5
1F
102
{ACAD_XDICTIONARY
360
44A
102
}
330
1
100
AcDbSymbolTableRecord
100
AcDbBlockTableRecord
  2
*MODEL_SPACE
  0
BLOCK_RECORD
  5
50
102
{ACAD_XDICTIONARY
360
44C
102
}
330
1
100
AcDbSymbolTableRecord
100
AcDbBlockTableRecord
  2
*PAPER_SPACE
  0
ENDTAB
  0
ENDSEC
  0
SECTION
  2
BLOCKS
  0
BLOCK
  5
20
330
1F
100
AcDbEntity
  8
0
100
AcDbBlockBegin
  2
*MODEL_SPACE
 70
     0
 10
0.0
 20
0.0
 30
0.0
  3
*MODEL_SPACE
  1

  0
ENDBLK
  5
21
330
1F
100
AcDbEntity
  8
0
100
AcDbBlockEnd
  0
BLOCK
  5
52
330
50
100
AcDbEntity
 67
     1
  8
0
100
AcDbBlockBegin
  2
*PAPER_SPACE
 70
     0
 10
0.0
 20
0.0
 30
0.0
  3
*PAPER_SPACE
  1

  0
ENDBLK
  5
53
330
50
100
AcDbEntity
 67
     1
  8
0
100
AcDbBlockEnd
  0
ENDSEC
  0
SECTION
  2
ENTITIES
  0
LINE
  5
24C
330
1F
100
AcDbEntity
  8
0
 62
     3
100
AcDbLine
 10
380.6179472602317
 20
56.42392732665882
 30
0.0
 11
385.0859386290395
 21
61.87289878582538
 31
0.0
  0
LINE
  5
24D
330
1F
100
AcDbEntity
  8
0
 62
     3
100
AcDbLine
 10
385.1096598156142
 20
-60.41549168628993
 30
0.0
 11
380.6396978363266
 21
-54.96813666405429
 31
0.0
  0
LINE
  5
24E
330
1F
100
AcDbEntity
  8
0
 62
     3
100
AcDbLine
 10
372.264263672464
 20
92.99174168908804
 30
0.0
 11
391.0235747073601
 21
98.68231647828237
 31
0.0
  0
LINE
  5
24F
330
1F
100
AcDbEntity
  8
0
 62
     3
100
AcDbLine
 10
391.0235747073603
 20
-97.47473960236384
 30
0.0
 11
372.2642636724641
 21
-91.78416481316949
 31
0.0
  0
LINE
  5
250
330
1F
100
AcDbEntity
  8
0
 62
     3
100
AcDbLine
 10
381.8313494815912
 20
69.89475337630586
 30
0.0
 11
395.9008327577634
 21
74.16268446820158
 31
0.0
  0
LINE
  5
251
330
1F
100
AcDbEntity
  8
0
 62
     3
100
AcDbLine
 10
395.9008327577635
 20
-72.95510759228304
 30
0.0
 11
381.8313494815913
 21
-68.68717650038729
 31
0.0
  0
LINE
  5
252
330
1F
100
AcDbEntity
  8
0
 62
     3
100
AcDbLine
 10
97.24466234424859
 20
20.11282063957207
 30
0.0
 11
99.16613430392557
 21
0.6037884379593095
 31
0.0
  0
LINE
  5
253
330
1F
100
AcDbEntity
  8
0
 62
     3
100
AcDbLine
 10
-100.8338656960744
 20
0.6037884379591958
 30
0.0
 11
-98.9123937363975
 21
20.11282063957207
 31
0.0
  0
LINE
  5
254
330
1F
100
AcDbEntity
  8
0
 62
     3
100
AcDbLine
 10
58.01325112811941
 20
12.30920775892696
 30
0.0
 11
59.16613430392562
 21
0.6037884379593095
 31
0.0
  0
LINE
  5
255
330
1F
100
AcDbEntity
  8
0
 62
     3
100
AcDbLine
 10
-60.83386569607438
 20
0.6037884379592527
 30
0.0
 11
-59.68098252026823
 21
12.30920775892696
 31
0.0
  0
LINE
  5
256
330
1F
100
AcDbEntity
  8
0
 62
     3
100
AcDbLine
 10
52.52085355786133
 20
11.21670195563666
 30
0.0
 11
53.5661343039256
 21
0.6037884379593095
 31
0.0
  0
LINE
  5
257
330
1F
100
AcDbEntity
  8
0
 62
     3
100
AcDbLine
 10
-55.23386569607442
 20
0.6037884379592527
 30
0.0
 11
-54.18858495001012
 21
11.21670195563666
 31
0.0
  0
LINE
  5
258
330
1F
100
AcDbEntity
  8
0
 62
     3
100
AcDbLine
 10
86.04546171498373
 20
0.6037884379593095
 30
0.0
 11
71.65623918406641
 21
14.98567421669389
 31
0.0
  0
LINE
  5
259
330
1F
100
AcDbEntity
  8
0
 62
     3
100
AcDbLine
 10
-87.0480138498795
 20
0.6037884379593095
 30
0.0
 11
-72.53771122609444
 21
15.12147826998261
 31
0.0
  0
LINE
  5
25A
330
1F
100
AcDbEntity
  8
0
 62
     3
100
AcDbLine
 10
18.67516650553864
 20
-97.47473960236371
 30
0.0
 11
-0.8338656960742127
 21
-99.39621156204069
 31
0.0
  0
LINE
  5
25B
330
1F
100
AcDbEntity
  8
0
 62
     3
100
AcDbLine
 10
10.87155362489343
 20
-58.24332838623451
 30
0.0
 11
-0.8338656960742412
 21
-59.39621156204069
 31
0.0
  0
LINE
  5
25C
330
1F
100
AcDbEntity
  8
0
 62
     3
100
AcDbLine
 10
9.779047821603114
 20
-52.7509308159764
 30
0.0
 11
-0.8338656960742696
 21
-53.7962115620407
 31
0.0
  0
LINE
  5
25D
330
1F
100
AcDbEntity
  8
0
 62
     3
100
AcDbLine
 10
-0.8338656960743264
 20
-87.1819781238867
 30
0.0
 11
13.54802008266017
 21
-72.79275559296937
 31
0.0
  0
LINE
  5
25E
330
1F
100
AcDbEntity
  8
0
 62
     3
100
AcDbLine
 10
-83.9808269263289
 20
-54.95323486400107
 30
0.0
 11
-93.22181894720309
 21
-37.6645547985498
 31
0.0
  0
LINE
  5
25F
330
1F
100
AcDbEntity
  8
0
 62
     3
100
AcDbLine
 10
-23.79487163797966
 20
-54.82898351271797
 30
0.0
 11
-34.16807967725043
 21
-49.28438830019349
 31
0.0
  0
LINE
  5
260
330
1F
100
AcDbEntity
  8
0
 62
     3
100
AcDbLine
 10
-0.8338656960742696
 20
-53.7962115620407
 30
0.0
 11
-11.44677921375165
 21
-52.75093081597649
 31
0.0
  0
LINE
  5
261
330
1F
100
AcDbEntity
  8
0
 62
     3
100
AcDbLine
 10
-39.10220893258326
 20
-91.78416481316949
 30
0.0
 11
-56.39088899803454
 21
-82.54317279229534
 31
0.0
  0
LINE
  5
262
330
1F
100
AcDbEntity
  8
0
 62
     3
100
AcDbLine
 10
-56.39088899803454
 20
-82.54317279229534
 30
0.0
 11
-71.54454381472908
 21
-70.10688968069556
 31
0.0
  0
LINE
  5
263
330
1F
100
AcDbEntity
  8
0
 62
     3
100
AcDbLine
 10
-71.54454381472908
 20
-70.10688968069556
 30
0.0
 11
-83.9808269263289
 21
-54.95323486400107
 31
0.0
  0
LINE
  5
264
330
1F
100
AcDbEntity
  8
0
 62
     3
100
AcDbLine
 10
-0.8338656960743264
 20
-87.1819781238867
 30
0.0
 11
-15.3515555280976
 21
-72.67167550010168
 31
0.0
  0
LINE
  5
265
330
1F
100
AcDbEntity
  8
0
 62
     3
100
AcDbLine
 10
-20.34289789768706
 20
-97.47473960236384
 30
0.0
 11
-39.10220893258326
 21
-91.78416481316949
 31
0.0
  0
LINE
  5
266
330
1F
100
AcDbEntity
  8
0
 62
     3
100
AcDbLine
 10
-0.8338656960742127
 20
-99.39621156204069
 30
0.0
 11
-20.34289789768706
 21
-97.47473960236384
 31
0.0
  0
LINE
  5
267
330
1F
100
AcDbEntity
  8
0
 62
     3
100
AcDbLine
 10
-12.53928501704194
 20
-58.24332838623456
 30
0.0
 11
-23.79487163797966
 21
-54.82898351271797
 31
0.0
  0
LINE
  5
268
330
1F
100
AcDbEntity
  8
0
 62
     3
100
AcDbLine
 10
-0.8338656960742412
 20
-59.39621156204069
 30
0.0
 11
-12.53928501704194
 21
-58.24332838623456
 31
0.0
  0
LINE
  5
269
330
1F
100
AcDbEntity
  8
0
 62
     3
100
AcDbLine
 10
-50.72204243422707
 20
-32.73042554321691
 30
0.0
 11
-56.26663764675157
 21
-22.35721750394614
 31
0.0
  0
LINE
  5
26A
330
1F
100
AcDbEntity
  8
0
 62
     3
100
AcDbLine
 10
-54.18858495001012
 20
-10.00912507971815
 30
0.0
 11
-55.23386569607442
 21
0.6037884379592527
 31
0.0
  0
LINE
  5
26B
330
1F
100
AcDbEntity
  8
0
 62
     3
100
AcDbLine
 10
-93.22181894720309
 20
-37.6645547985498
 30
0.0
 11
-98.91239373639749
 21
-18.90524376365365
 31
0.0
  0
LINE
  5
26C
330
1F
100
AcDbEntity
  8
0
 62
     3
100
AcDbLine
 10
-87.0480138498795
 20
0.6037884379593095
 30
0.0
 11
-72.65879131896213
 21
-13.77809734077527
 31
0.0
  0
LINE
  5
26D
330
1F
100
AcDbEntity
  8
0
 62
     3
100
AcDbLine
 10
-98.91239373639749
 20
-18.90524376365365
 30
0.0
 11
-100.8338656960744
 21
0.6037884379591958
 31
0.0
  0
LINE
  5
26E
330
1F
100
AcDbEntity
  8
0
 62
     3
100
AcDbLine
 10
-59.68098252026823
 20
-11.10163088300848
 30
0.0
 11
-60.83386569607438
 21
0.6037884379592527
 31
0.0
  0
LINE
  5
26F
330
1F
100
AcDbEntity
  8
0
 62
     3
100
AcDbLine
 10
-56.26663764675157
 20
-22.35721750394614
 30
0.0
 11
-59.68098252026823
 21
-11.10163088300848
 31
0.0
  0
LINE
  5
270
330
1F
100
AcDbEntity
  8
0
 62
     3
100
AcDbLine
 10
-46.06581260533281
 20
-29.61923223830714
 30
0.0
 11
-51.09291226468838
 21
-20.21419028270165
 31
0.0
  0
LINE
  5
271
330
1F
100
AcDbEntity
  8
0
 62
     3
100
AcDbLine
 10
-21.65184441673517
 20
-49.65525813065477
 30
0.0
 11
-31.05688637234067
 21
-44.62815847129923
 31
0.0
  0
LINE
  5
272
330
1F
100
AcDbEntity
  8
0
 62
     3
100
AcDbLine
 10
-43.26027256726717
 20
-41.8226184332336
 30
0.0
 11
-50.72204243422707
 21
-32.73042554321691
 31
0.0
  0
LINE
  5
273
330
1F
100
AcDbEntity
  8
0
 62
     3
100
AcDbLine
 10
-31.05688637234067
 20
-44.62815847129923
 30
0.0
 11
-39.30047459262252
 21
-37.86282045858894
 31
0.0
  0
LINE
  5
274
330
1F
100
AcDbEntity
  8
0
 62
     3
100
AcDbLine
 10
-34.16807967725043
 20
-49.28438830019349
 30
0.0
 11
-43.26027256726717
 21
-41.8226184332336
 31
0.0
  0
LINE
  5
275
330
1F
100
AcDbEntity
  8
0
 62
     3
100
AcDbLine
 10
-39.30047459262252
 20
-37.86282045858894
 30
0.0
 11
-46.06581260533281
 21
-29.61923223830714
 31
0.0
  0
LINE
  5
276
330
1F
100
AcDbEntity
  8
0
 62
     3
100
AcDbLine
 10
-11.44677921375165
 20
-52.75093081597649
 30
0.0
 11
-21.65184441673517
 21
-49.65525813065477
 31
0.0
  0
LINE
  5
277
330
1F
100
AcDbEntity
  8
0
 62
     3
100
AcDbLine
 10
-51.09291226468838
 20
-20.21419028270165
 30
0.0
 11
-54.18858495001012
 21
-10.00912507971815
 31
0.0
  0
LINE
  5
278
330
1F
100
AcDbEntity
  8
0
 62
     3
100
AcDbLine
 10
91.55408755505437
 20
-37.66455479854935
 30
0.0
 11
82.31309553418027
 21
-54.95323486400062
 31
0.0
  0
LINE
  5
279
330
1F
100
AcDbEntity
  8
0
 62
     3
100
AcDbLine
 10
32.50034828510189
 20
-49.28438830019331
 30
0.0
 11
22.12714024583115
 21
-54.82898351271782
 31
0.0
  0
LINE
  5
27A
330
1F
100
AcDbEntity
  8
0
 62
     3
100
AcDbLine
 10
82.31309553418027
 20
-54.95323486400062
 30
0.0
 11
69.87681242258054
 21
-70.10688968069522
 31
0.0
  0
LINE
  5
27B
330
1F
100
AcDbEntity
  8
0
 62
     3
100
AcDbLine
 10
69.87681242258054
 20
-70.10688968069522
 30
0.0
 11
54.72315760588606
 21
-82.54317279229505
 31
0.0
  0
LINE
  5
27C
330
1F
100
AcDbEntity
  8
0
 62
     3
100
AcDbLine
 10
54.72315760588606
 20
-82.54317279229505
 30
0.0
 11
37.43447754043478
 21
-91.78416481316927
 31
0.0
  0
LINE
  5
27D
330
1F
100
AcDbEntity
  8
0
 62
     3
100
AcDbLine
 10
37.43447754043478
 20
-91.78416481316927
 30
0.0
 11
18.67516650553864
 21
-97.47473960236371
 31
0.0
  0
LINE
  5
27E
330
1F
100
AcDbEntity
  8
0
 62
     3
100
AcDbLine
 10
22.12714024583115
 20
-54.82898351271782
 30
0.0
 11
10.87155362489343
 21
-58.24332838623451
 31
0.0
  0
LINE
  5
27F
330
1F
100
AcDbEntity
  8
0
 62
     3
100
AcDbLine
 10
54.59890625460286
 20
-22.35721750394588
 30
0.0
 11
49.05431104207841
 21
-32.73042554321665
 31
0.0
  0
LINE
  5
280
330
1F
100
AcDbEntity
  8
0
 62
     3
100
AcDbLine
 10
49.42518087253967
 20
-20.21419028270139
 30
0.0
 11
44.39808121318415
 21
-29.61923223830689
 31
0.0
  0
LINE
  5
281
330
1F
100
AcDbEntity
  8
0
 62
     3
100
AcDbLine
 10
41.59254117511858
 20
-41.8226184332334
 30
0.0
 11
32.50034828510189
 21
-49.28438830019331
 31
0.0
  0
LINE
  5
282
330
1F
100
AcDbEntity
  8
0
 62
     3
100
AcDbLine
 10
44.39808121318415
 20
-29.61923223830689
 30
0.0
 11
37.63274320047392
 21
-37.86282045858877
 31
0.0
  0
LINE
  5
283
330
1F
100
AcDbEntity
  8
0
 62
     3
100
AcDbLine
 10
37.63274320047392
 20
-37.86282045858877
 30
0.0
 11
29.38915498019213
 21
-44.62815847129905
 31
0.0
  0
LINE
  5
284
330
1F
100
AcDbEntity
  8
0
 62
     3
100
AcDbLine
 10
29.38915498019213
 20
-44.62815847129905
 30
0.0
 11
19.98411302458663
 21
-49.65525813065466
 31
0.0
  0
LINE
  5
285
330
1F
100
AcDbEntity
  8
0
 62
     3
100
AcDbLine
 10
19.98411302458663
 20
-49.65525813065466
 30
0.0
 11
9.779047821603114
 21
-52.7509308159764
 31
0.0
  0
LINE
  5
286
330
1F
100
AcDbEntity
  8
0
 62
     3
100
AcDbLine
 10
49.05431104207841
 20
-32.73042554321665
 30
0.0
 11
41.59254117511858
 21
-41.8226184332334
 31
0.0
  0
LINE
  5
287
330
1F
100
AcDbEntity
  8
0
 62
     3
100
AcDbLine
 10
59.16613430392562
 20
0.6037884379593095
 30
0.0
 11
58.01325112811946
 21
-11.10163088300817
 31
0.0
  0
LINE
  5
288
330
1F
100
AcDbEntity
  8
0
 62
     3
100
AcDbLine
 10
53.5661343039256
 20
0.6037884379593095
 30
0.0
 11
52.52085355786139
 21
-10.00912507971787
 31
0.0
  0
LINE
  5
289
330
1F
100
AcDbEntity
  8
0
 62
     3
100
AcDbLine
 10
58.01325112811946
 20
-11.10163088300817
 30
0.0
 11
54.59890625460286
 21
-22.35721750394588
 31
0.0
  0
LINE
  5
28A
330
1F
100
AcDbEntity
  8
0
 62
     3
100
AcDbLine
 10
52.52085355786139
 20
-10.00912507971787
 30
0.0
 11
49.42518087253967
 21
-20.21419028270139
 31
0.0
  0
LINE
  5
28B
330
1F
100
AcDbEntity
  8
0
 62
     3
100
AcDbLine
 10
97.2446623442487
 20
-18.90524376365314
 30
0.0
 11
91.55408755505437
 21
-37.66455479854935
 31
0.0
  0
LINE
  5
28C
330
1F
100
AcDbEntity
  8
0
 62
     3
100
AcDbLine
 10
99.16613430392557
 20
0.6037884379593095
 30
0.0
 11
97.2446623442487
 21
-18.90524376365314
 31
0.0
  0
LINE
  5
28D
330
1F
100
AcDbEntity
  8
0
 62
     3
100
AcDbLine
 10
86.04546171498373
 20
0.6037884379593095
 30
0.0
 11
71.53515909119864
 21
-13.91390139406396
 31
0.0
  0
LINE
  5
28E
330
1F
100
AcDbEntity
  8
0
 62
     3
100
AcDbLine
 10
-0.8338656960744401
 20
100.6037884379593
 30
0.0
 11
18.67516650553835
 21
98.68231647828237
 31
0.0
  0
LINE
  5
28F
330
1F
100
AcDbEntity
  8
0
 62
     3
100
AcDbLine
 10
-0.8338656960744117
 20
60.60378843795934
 30
0.0
 11
10.87155362489329
 21
59.45090526215313
 31
0.0
  0
LINE
  5
290
330
1F
100
AcDbEntity
  8
0
 62
     3
100
AcDbLine
 10
-0.8338656960743833
 20
55.00378843795932
 30
0.0
 11
9.779047821602972
 21
53.95850769189502
 31
0.0
  0
LINE
  5
291
330
1F
100
AcDbEntity
  8
0
 62
     3
100
AcDbLine
 10
-0.8338656960743264
 20
88.00092444509948
 30
0.0
 11
13.68382413594886
 21
73.49062182131451
 31
0.0
  0
LINE
  5
292
330
1F
100
AcDbEntity
  8
0
 62
     3
100
AcDbLine
 10
-83.98082692632899
 20
56.1608117399195
 30
0.0
 11
-71.5445438147292
 21
71.3144665566141
 31
0.0
  0
LINE
  5
293
330
1F
100
AcDbEntity
  8
0
 62
     3
100
AcDbLine
 10
-56.26663764675163
 20
23.56479437986468
 30
0.0
 11
-50.72204243422712
 21
33.93800241913538
 31
0.0
  0
LINE
  5
294
330
1F
100
AcDbEntity
  8
0
 62
     3
100
AcDbLine
 10
-98.9123937363975
 20
20.11282063957207
 30
0.0
 11
-93.22181894720314
 21
38.87213167446827
 31
0.0
  0
LINE
  5
295
330
1F
100
AcDbEntity
  8
0
 62
     3
100
AcDbLine
 10
-59.68098252026823
 20
12.30920775892696
 30
0.0
 11
-56.26663764675163
 21
23.56479437986468
 31
0.0
  0
LINE
  5
296
330
1F
100
AcDbEntity
  8
0
 62
     3
100
AcDbLine
 10
-93.22181894720314
 20
38.87213167446827
 30
0.0
 11
-83.98082692632899
 21
56.1608117399195
 31
0.0
  0
LINE
  5
297
330
1F
100
AcDbEntity
  8
0
 62
     3
100
AcDbLine
 10
-46.06581260533286
 20
30.82680911422562
 30
0.0
 11
-39.30047459262258
 21
39.0703973345075
 31
0.0
  0
LINE
  5
298
330
1F
100
AcDbEntity
  8
0
 62
     3
100
AcDbLine
 10
-54.18858495001012
 20
11.21670195563666
 30
0.0
 11
-51.0929122646884
 21
21.42176715862018
 31
0.0
  0
LINE
  5
299
330
1F
100
AcDbEntity
  8
0
 62
     3
100
AcDbLine
 10
-51.0929122646884
 20
21.42176715862018
 30
0.0
 11
-46.06581260533286
 21
30.82680911422562
 31
0.0
  0
LINE
  5
29A
330
1F
100
AcDbEntity
  8
0
 62
     3
100
AcDbLine
 10
-23.79487163797978
 20
56.03656038863653
 30
0.0
 11
-12.53928501704208
 21
59.45090526215313
 31
0.0
  0
LINE
  5
29B
330
1F
100
AcDbEntity
  8
0
 62
     3
100
AcDbLine
 10
-31.05688637234075
 20
45.83573534721779
 30
0.0
 11
-21.65184441673528
 21
50.86283500657334
 31
0.0
  0
LINE
  5
29C
330
1F
100
AcDbEntity
  8
0
 62
     3
100
AcDbLine
 10
-43.26027256726726
 20
43.03019530915219
 30
0.0
 11
-34.16807967725054
 21
50.49196517611204
 31
0.0
  0
LINE
  5
29D
330
1F
100
AcDbEntity
  8
0
 62
     3
100
AcDbLine
 10
-39.30047459262258
 20
39.0703973345075
 30
0.0
 11
-31.05688637234075
 21
45.83573534721779
 31
0.0
  0
LINE
  5
29E
330
1F
100
AcDbEntity
  8
0
 62
     3
100
AcDbLine
 10
-50.72204243422712
 20
33.93800241913538
 30
0.0
 11
-43.26027256726726
 21
43.03019530915219
 31
0.0
  0
LINE
  5
29F
330
1F
100
AcDbEntity
  8
0
 62
     3
100
AcDbLine
 10
-34.16807967725054
 20
50.49196517611204
 30
0.0
 11
-23.79487163797978
 21
56.03656038863653
 31
0.0
  0
LINE
  5
2A0
330
1F
100
AcDbEntity
  8
0
 62
     3
100
AcDbLine
 10
-12.53928501704208
 20
59.45090526215313
 30
0.0
 11
-0.8338656960744117
 21
60.60378843795934
 31
0.0
  0
LINE
  5
2A1
330
1F
100
AcDbEntity
  8
0
 62
     3
100
AcDbLine
 10
-11.44677921375176
 20
53.95850769189502
 30
0.0
 11
-0.8338656960743833
 21
55.00378843795932
 31
0.0
  0
LINE
  5
2A2
330
1F
100
AcDbEntity
  8
0
 62
     3
100
AcDbLine
 10
-21.65184441673528
 20
50.86283500657334
 30
0.0
 11
-11.44677921375176
 21
53.95850769189502
 31
0.0
  0
LINE
  5
2A3
330
1F
100
AcDbEntity
  8
0
 62
     3
100
AcDbLine
 10
-56.39088899803465
 20
83.75074966821387
 30
0.0
 11
-39.10220893258344
 21
92.99174168908804
 31
0.0
  0
LINE
  5
2A4
330
1F
100
AcDbEntity
  8
0
 62
     3
100
AcDbLine
 10
-71.5445438147292
 20
71.3144665566141
 30
0.0
 11
-56.39088899803465
 21
83.75074966821387
 31
0.0
  0
LINE
  5
2A5
330
1F
100
AcDbEntity
  8
0
 62
     3
100
AcDbLine
 10
-0.8338656960743264
 20
88.00092444509948
 30
0.0
 11
-15.21575147480894
 21
73.61170191418222
 31
0.0
  0
LINE
  5
2A6
330
1F
100
AcDbEntity
  8
0
 62
     3
100
AcDbLine
 10
-39.10220893258344
 20
92.99174168908804
 30
0.0
 11
-20.34289789768729
 21
98.68231647828237
 31
0.0
  0
LINE
  5
2A7
330
1F
100
AcDbEntity
  8
0
 62
     3
100
AcDbLine
 10
-20.34289789768729
 20
98.68231647828237
 30
0.0
 11
-0.8338656960744401
 21
100.6037884379593
 31
0.0
  0
LINE
  5
2A8
330
1F
100
AcDbEntity
  8
0
 62
     3
100
AcDbLine
 10
69.87681242258031
 20
71.3144665566141
 30
0.0
 11
82.31309553418009
 21
56.1608117399195
 31
0.0
  0
LINE
  5
2A9
330
1F
100
AcDbEntity
  8
0
 62
     3
100
AcDbLine
 10
49.05431104207832
 20
33.93800241913544
 30
0.0
 11
54.59890625460281
 21
23.56479437986468
 31
0.0
  0
LINE
  5
2AA
330
1F
100
AcDbEntity
  8
0
 62
     3
100
AcDbLine
 10
37.63274320047378
 20
39.0703973345075
 30
0.0
 11
44.39808121318407
 21
30.82680911422568
 31
0.0
  0
LINE
  5
2AB
330
1F
100
AcDbEntity
  8
0
 62
     3
100
AcDbLine
 10
54.59890625460281
 20
23.56479437986468
 30
0.0
 11
58.01325112811941
 21
12.30920775892696
 31
0.0
  0
LINE
  5
2AC
330
1F
100
AcDbEntity
  8
0
 62
     3
100
AcDbLine
 10
49.42518087253962
 20
21.42176715862018
 30
0.0
 11
52.52085355786133
 21
11.21670195563666
 31
0.0
  0
LINE
  5
2AD
330
1F
100
AcDbEntity
  8
0
 62
     3
100
AcDbLine
 10
44.39808121318407
 20
30.82680911422568
 30
0.0
 11
49.42518087253962
 21
21.42176715862018
 31
0.0
  0
LINE
  5
2AE
330
1F
100
AcDbEntity
  8
0
 62
     3
100
AcDbLine
 10
32.50034828510172
 20
50.49196517611199
 30
0.0
 11
41.59254117511844
 21
43.03019530915219
 31
0.0
  0
LINE
  5
2AF
330
1F
100
AcDbEntity
  8
0
 62
     3
100
AcDbLine
 10
19.98411302458649
 20
50.86283500657334
 30
0.0
 11
29.38915498019196
 21
45.83573534721773
 31
0.0
  0
LINE
  5
2B0
330
1F
100
AcDbEntity
  8
0
 62
     3
100
AcDbLine
 10
29.38915498019196
 20
45.83573534721773
 30
0.0
 11
37.63274320047378
 21
39.0703973345075
 31
0.0
  0
LINE
  5
2B1
330
1F
100
AcDbEntity
  8
0
 62
     3
100
AcDbLine
 10
22.12714024583098
 20
56.03656038863653
 30
0.0
 11
32.50034828510172
 21
50.49196517611199
 31
0.0
  0
LINE
  5
2B2
330
1F
100
AcDbEntity
  8
0
 62
     3
100
AcDbLine
 10
10.87155362489329
 20
59.45090526215313
 30
0.0
 11
22.12714024583098
 21
56.03656038863653
 31
0.0
  0
LINE
  5
2B3
330
1F
100
AcDbEntity
  8
0
 62
     3
100
AcDbLine
 10
9.779047821602972
 20
53.95850769189502
 30
0.0
 11
19.98411302458649
 21
50.86283500657334
 31
0.0
  0
LINE
  5
2B4
330
1F
100
AcDbEntity
  8
0
 62
     3
100
AcDbLine
 10
41.59254117511844
 20
43.03019530915219
 30
0.0
 11
49.05431104207832
 21
33.93800241913544
 31
0.0
  0
LINE
  5
2B5
330
1F
100
AcDbEntity
  8
0
 62
     3
100
AcDbLine
 10
91.55408755505424
 20
38.87213167446827
 30
0.0
 11
97.24466234424859
 21
20.11282063957207
 31
0.0
  0
LINE
  5
2B6
330
1F
100
AcDbEntity
  8
0
 62
     3
100
AcDbLine
 10
82.31309553418009
 20
56.1608117399195
 30
0.0
 11
91.55408755505424
 21
38.87213167446827
 31
0.0
  0
LINE
  5
2B7
330
1F
100
AcDbEntity
  8
0
 62
     3
100
AcDbLine
 10
37.43447754043455
 20
92.99174168908804
 30
0.0
 11
54.72315760588577
 21
83.75074966821376
 31
0.0
  0
LINE
  5
2B8
330
1F
100
AcDbEntity
  8
0
 62
     3
100
AcDbLine
 10
54.72315760588577
 20
83.75074966821376
 30
0.0
 11
69.87681242258031
 21
71.3144665566141
 31
0.0
  0
LINE
  5
2B9
330
1F
100
AcDbEntity
  8
0
 62
     3
100
AcDbLine
 10
18.67516650553835
 20
98.68231647828237
 30
0.0
 11
37.43447754043455
 21
92.99174168908804
 31
0.0
  0
LINE
  5
2BA
330
1F
100
AcDbEntity
  8
0
 62
     3
100
AcDbLine
 10
338.6267227002431
 20
0.5972866118783884
 30
0.0
 11
339.3163290619518
 21
7.610037848051319
 31
0.0
  0
LINE
  5
2BB
330
1F
100
AcDbEntity
  8
0
 62
     3
100
AcDbLine
 10
310.5326069089729
 20
0.6037884379591958
 30
0.0
 11
312.4540788686499
 21
20.11282063957207
 31
0.0
  0
LINE
  5
2BC
330
1F
100
AcDbEntity
  8
0
 62
     3
100
AcDbLine
 10
335.5326069089729
 20
0.6037884379592243
 30
0.0
 11
336.9737108787306
 21
15.23556258916886
 31
0.0
  0
LINE
  5
2BD
330
1F
100
AcDbEntity
  8
0
 62
     3
100
AcDbLine
 10
359.6949329536104
 20
-8.844305343160101
 30
0.0
 11
359.7074257246981
 21
10.0397609121278
 31
0.0
  0
LINE
  5
2BE
330
1F
100
AcDbEntity
  8
0
 62
     3
100
AcDbLine
 10
345.7655722075139
 20
0.6037884379593095
 30
0.0
 11
359.7074257246981
 21
10.0397609121278
 31
0.0
  0
LINE
  5
2BF
330
1F
100
AcDbEntity
  8
0
 62
     3
100
AcDbLine
 10
380.6396978363266
 20
-54.96813666405429
 30
0.0
 11
377.3186868018116
 21
-48.7532253579146
 31
0.0
  0
LINE
  5
2C0
330
1F
100
AcDbEntity
  8
0
 62
     3
100
AcDbLine
 10
327.3856456787185
 20
-54.95323486400107
 30
0.0
 11
318.1446536578442
 21
-37.6645547985498
 31
0.0
  0
LINE
  5
2C1
330
1F
100
AcDbEntity
  8
0
 62
     3
100
AcDbLine
 10
368.864839432503
 20
-61.75643248473168
 30
0.0
 11
357.499598319982
 21
-52.42922015103184
 31
0.0
  0
LINE
  5
2C2
330
1F
100
AcDbEntity
  8
0
 62
     3
100
AcDbLine
 10
354.9755836070129
 20
-82.54317279229534
 30
0.0
 11
339.8219287903183
 21
-70.10688968069556
 31
0.0
  0
LINE
  5
2C3
330
1F
100
AcDbEntity
  8
0
 62
     3
100
AcDbLine
 10
372.2642636724641
 20
-91.78416481316949
 30
0.0
 11
354.9755836070129
 21
-82.54317279229534
 31
0.0
  0
LINE
  5
2C4
330
1F
100
AcDbEntity
  8
0
 62
     3
100
AcDbLine
 10
339.8219287903183
 20
-70.10688968069556
 30
0.0
 11
327.3856456787185
 21
-54.95323486400107
 31
0.0
  0
LINE
  5
2C5
330
1F
100
AcDbEntity
  8
0
 62
     3
100
AcDbLine
 10
381.8313494815913
 20
-68.68717650038729
 30
0.0
 11
368.864839432503
 21
-61.75643248473168
 31
0.0
  0
LINE
  5
2C6
330
1F
100
AcDbEntity
  8
0
 62
     3
100
AcDbLine
 10
318.1446536578442
 20
-37.6645547985498
 30
0.0
 11
312.4540788686499
 21
-18.90524376365365
 31
0.0
  0
LINE
  5
2C7
330
1F
100
AcDbEntity
  8
0
 62
     3
100
AcDbLine
 10
312.4540788686499
 20
-18.90524376365365
 30
0.0
 11
310.5326069089729
 21
0.6037884379591958
 31
0.0
  0
LINE
  5
2C8
330
1F
100
AcDbEntity
  8
0
 62
     3
100
AcDbLine
 10
349.1621552179982
 20
-24.81673111773264
 30
0.0
 11
344.689840167615
 21
-19.37130781695353
 31
0.0
  0
LINE
  5
2C9
330
1F
100
AcDbEntity
  8
0
 62
     3
100
AcDbLine
 10
341.2416419706264
 20
-28.0974689894225
 30
0.0
 11
336.9737108787306
 21
-14.02798571325041
 31
0.0
  0
LINE
  5
2CA
330
1F
100
AcDbEntity
  8
0
 62
     3
100
AcDbLine
 10
354.6111266771647
 20
-29.28472248654045
 30
0.0
 11
349.1621552179982
 21
-24.81673111773264
 31
0.0
  0
LINE
  5
2CB
330
1F
100
AcDbEntity
  8
0
 62
     3
100
AcDbLine
 10
357.499598319982
 20
-52.42922015103184
 30
0.0
 11
348.1723859862821
 21
-41.06397903851098
 31
0.0
  0
LINE
  5
2CC
330
1F
100
AcDbEntity
  8
0
 62
     3
100
AcDbLine
 10
348.1723859862821
 20
-41.06397903851098
 30
0.0
 11
341.2416419706264
 21
-28.0974689894225
 31
0.0
  0
LINE
  5
2CD
330
1F
100
AcDbEntity
  8
0
 62
     3
100
AcDbLine
 10
375.2743212929375
 20
-42.00972430129136
 30
0.0
 11
374.5852082140727
 21
-34.99692457514132
 31
0.0
  0
LINE
  5
2CE
330
1F
100
AcDbEntity
  8
0
 62
     3
100
AcDbLine
 10
377.3186868018116
 20
-48.7532253579146
 30
0.0
 11
375.2743212929375
 21
-42.00972430129136
 31
0.0
  0
LINE
  5
2CF
330
1F
100
AcDbEntity
  8
0
 62
     3
100
AcDbLine
 10
367.5714788585834
 20
-34.6454115979657
 30
0.0
 11
360.827238792409
 21
-32.60348535924859
 31
0.0
  0
LINE
  5
2D0
330
1F
100
AcDbEntity
  8
0
 62
     3
100
AcDbLine
 10
360.827238792409
 20
-32.60348535924859
 30
0.0
 11
354.6111266771647
 21
-29.28472248654045
 31
0.0
  0
LINE
  5
2D1
330
1F
100
AcDbEntity
  8
0
 62
     3
100
AcDbLine
 10
374.584527379434
 20
-35.33198808951434
 30
0.0
 11
367.5714788585834
 21
-34.6454115979657
 31
0.0
  0
LINE
  5
2D2
330
1F
100
AcDbEntity
  8
0
 62
     3
100
AcDbLine
 10
345.7655722075139
 20
0.6037884379593095
 30
0.0
 11
359.6949329536104
 21
-8.844305343160101
 31
0.0
  0
LINE
  5
2D3
330
1F
100
AcDbEntity
  8
0
 62
     3
100
AcDbLine
 10
341.3661443379219
 20
-13.15783190839525
 30
0.0
 11
339.3188655415412
 21
-6.415214733703834
 31
0.0
  0
LINE
  5
2D4
330
1F
100
AcDbEntity
  8
0
 62
     3
100
AcDbLine
 10
336.9737108787306
 20
-14.02798571325041
 30
0.0
 11
335.5326069089729
 21
0.6037884379592243
 31
0.0
  0
LINE
  5
2D5
330
1F
100
AcDbEntity
  8
0
 62
     3
100
AcDbLine
 10
344.689840167615
 20
-19.37130781695353
 30
0.0
 11
341.3661443379219
 21
-13.15783190839525
 31
0.0
  0
LINE
  5
2D6
330
1F
100
AcDbEntity
  8
0
 62
     3
100
AcDbLine
 10
339.3188655415412
 20
-6.415214733703834
 30
0.0
 11
338.6267227002431
 21
0.5972866118783884
 31
0.0
  0
LINE
  5
2D7
330
1F
100
AcDbEntity
  8
0
 62
     3
100
AcDbLine
 10
327.3856456787184
 20
56.1608117399195
 30
0.0
 11
339.8219287903182
 21
71.3144665566141
 31
0.0
  0
LINE
  5
2D8
330
1F
100
AcDbEntity
  8
0
 62
     3
100
AcDbLine
 10
357.4995983199819
 20
53.63679702695037
 30
0.0
 11
368.8648394325027
 21
62.96400936065021
 31
0.0
  0
LINE
  5
2D9
330
1F
100
AcDbEntity
  8
0
 62
     3
100
AcDbLine
 10
318.1446536578442
 20
38.87213167446827
 30
0.0
 11
327.3856456787184
 21
56.1608117399195
 31
0.0
  0
LINE
  5
2DA
330
1F
100
AcDbEntity
  8
0
 62
     3
100
AcDbLine
 10
312.4540788686499
 20
20.11282063957207
 30
0.0
 11
318.1446536578442
 21
38.87213167446827
 31
0.0
  0
LINE
  5
2DB
330
1F
100
AcDbEntity
  8
0
 62
     3
100
AcDbLine
 10
354.6003172552751
 20
30.48507534317911
 30
0.0
 11
360.8152285614148
 21
33.8060863776941
 31
0.0
  0
LINE
  5
2DC
330
1F
100
AcDbEntity
  8
0
 62
     3
100
AcDbLine
 10
341.2416419706264
 20
29.30504586534101
 30
0.0
 11
348.172385986282
 21
42.27155591442943
 31
0.0
  0
LINE
  5
2DD
330
1F
100
AcDbEntity
  8
0
 62
     3
100
AcDbLine
 10
349.1529622330395
 20
26.01511336389148
 30
0.0
 11
354.6003172552751
 21
30.48507534317911
 31
0.0
  0
LINE
  5
2DE
330
1F
100
AcDbEntity
  8
0
 62
     3
100
AcDbLine
 10
341.3611689076865
 20
14.35339508609286
 30
0.0
 11
344.682617094583
 21
20.56807277494488
 31
0.0
  0
LINE
  5
2DF
330
1F
100
AcDbEntity
  8
0
 62
     3
100
AcDbLine
 10
336.9737108787306
 20
15.23556258916886
 30
0.0
 11
341.2416419706264
 21
29.30504586534101
 31
0.0
  0
LINE
  5
2E0
330
1F
100
AcDbEntity
  8
0
 62
     3
100
AcDbLine
 10
339.3163290619518
 20
7.610037848051319
 30
0.0
 11
341.3611689076865
 21
14.35339508609286
 31
0.0
  0
LINE
  5
2E1
330
1F
100
AcDbEntity
  8
0
 62
     3
100
AcDbLine
 10
344.682617094583
 20
20.56807277494488
 30
0.0
 11
349.1529622330395
 21
26.01511336389148
 31
0.0
  0
LINE
  5
2E2
330
1F
100
AcDbEntity
  8
0
 62
     3
100
AcDbLine
 10
348.172385986282
 20
42.27155591442943
 30
0.0
 11
357.4995983199819
 21
53.63679702695037
 31
0.0
  0
LINE
  5
2E3
330
1F
100
AcDbEntity
  8
0
 62
     3
100
AcDbLine
 10
375.2572581488065
 20
43.46357514524015
 30
0.0
 11
377.2991843875236
 21
50.20781521141453
 31
0.0
  0
LINE
  5
2E4
330
1F
100
AcDbEntity
  8
0
 62
     3
100
AcDbLine
 10
360.8152285614148
 20
33.8060863776941
 30
0.0
 11
367.5587296180381
 21
35.85045188656818
 31
0.0
  0
LINE
  5
2E5
330
1F
100
AcDbEntity
  8
0
 62
     3
100
AcDbLine
 10
367.5587296180381
 20
35.85045188656818
 30
0.0
 11
374.5715293441882
 21
36.53956496543298
 31
0.0
  0
LINE
  5
2E6
330
1F
100
AcDbEntity
  8
0
 62
     3
100
AcDbLine
 10
374.5706816572578
 20
36.45052662438962
 30
0.0
 11
375.2572581488065
 21
43.46357514524015
 31
0.0
  0
LINE
  5
2E7
330
1F
100
AcDbEntity
  8
0
 62
     3
100
AcDbLine
 10
377.2991843875236
 20
50.20781521141453
 30
0.0
 11
380.6179472602317
 21
56.42392732665882
 31
0.0
  0
LINE
  5
2E8
330
1F
100
AcDbEntity
  8
0
 62
     3
100
AcDbLine
 10
354.9755836070127
 20
83.75074966821387
 30
0.0
 11
372.264263672464
 21
92.99174168908804
 31
0.0
  0
LINE
  5
2E9
330
1F
100
AcDbEntity
  8
0
 62
     3
100
AcDbLine
 10
339.8219287903182
 20
71.3144665566141
 30
0.0
 11
354.9755836070127
 21
83.75074966821387
 31
0.0
  0
LINE
  5
2EA
330
1F
100
AcDbEntity
  8
0
 62
     3
100
AcDbLine
 10
368.8648394325027
 20
62.96400936065021
 30
0.0
 11
381.8313494815912
 21
69.89475337630586
 31
0.0
  0
LINE
  5
2EB
330
1F
100
AcDbEntity
  8
0
 62
     3
100
AcDbLine
 10
481.7233314877109
 20
7.622791609622368
 30
0.0
 11
482.415474329009
 21
0.6102902640401169
 31
0.0
  0
LINE
  5
2EC
330
1F
100
AcDbEntity
  8
0
 62
     3
100
AcDbLine
 10
508.6111349492959
 20
20.11282063957207
 30
0.0
 11
510.532606908973
 21
0.6037884379593095
 31
0.0
  0
LINE
  5
2ED
330
1F
100
AcDbEntity
  8
0
 62
     3
100
AcDbLine
 10
484.0915029392152
 20
15.23556258916892
 30
0.0
 11
485.532606908973
 21
0.6037884379593095
 31
0.0
  0
LINE
  5
2EE
330
1F
100
AcDbEntity
  8
0
 62
     3
100
AcDbLine
 10
461.9344147868273
 20
10.05188221907872
 30
0.0
 11
461.9219220157397
 21
-8.832184036209184
 31
0.0
  0
LINE
  5
2EF
330
1F
100
AcDbEntity
  8
0
 62
     3
100
AcDbLine
 10
475.8637755329238
 20
0.6037884379593095
 30
0.0
 11
461.9344147868273
 21
10.05188221907872
 31
0.0
  0
LINE
  5
2F0
330
1F
100
AcDbEntity
  8
0
 62
     3
100
AcDbLine
 10
508.6111349492961
 20
-18.90524376365314
 30
0.0
 11
502.9205601601018
 21
-37.66455479854935
 31
0.0
  0
LINE
  5
2F1
330
1F
100
AcDbEntity
  8
0
 62
     3
100
AcDbLine
 10
443.7282585387542
 20
-48.74121512692036
 30
0.0
 11
440.4094956660461
 21
-54.95732724216466
 31
0.0
  0
LINE
  5
2F2
330
1F
100
AcDbEntity
  8
0
 62
     3
100
AcDbLine
 10
502.9205601601018
 20
-37.66455479854935
 30
0.0
 11
493.6795681392275
 21
-54.95323486400062
 31
0.0
  0
LINE
  5
2F3
330
1F
100
AcDbEntity
  8
0
 62
     3
100
AcDbLine
 10
463.5656154979642
 20
-52.42922015103158
 30
0.0
 11
452.2003743854433
 21
-61.75643248473147
 31
0.0
  0
LINE
  5
2F4
330
1F
100
AcDbEntity
  8
0
 62
     3
100
AcDbLine
 10
410.6312174463542
 20
-63.47169251726118
 30
0.0
 11
420.0793112274737
 21
-49.54233177116478
 31
0.0
  0
LINE
  5
2F5
330
1F
100
AcDbEntity
  8
0
 62
     3
100
AcDbLine
 10
410.6312174463542
 20
-63.47169251726118
 30
0.0
 11
401.1952449721858
 21
-49.52983900007694
 31
0.0
  0
LINE
  5
2F6
330
1F
100
AcDbEntity
  8
0
 62
     3
100
AcDbLine
 10
448.8009501454822
 20
-91.78416481316927
 30
0.0
 11
430.041639110586
 21
-97.47473960236371
 31
0.0
  0
LINE
  5
2F7
330
1F
100
AcDbEntity
  8
0
 62
     3
100
AcDbLine
 10
452.2003743854433
 20
-61.75643248473147
 30
0.0
 11
439.2338643363549
 21
-68.68717650038712
 31
0.0
  0
LINE
  5
2F8
330
1F
100
AcDbEntity
  8
0
 62
     3
100
AcDbLine
 10
430.041639110586
 20
-97.47473960236371
 30
0.0
 11
410.5326069089731
 21
-99.39621156204069
 31
0.0
  0
LINE
  5
2F9
330
1F
100
AcDbEntity
  8
0
 62
     3
100
AcDbLine
 10
410.5326069089731
 20
-99.39621156204069
 30
0.0
 11
391.0235747073603
 21
-97.47473960236384
 31
0.0
  0
LINE
  5
2FA
330
1F
100
AcDbEntity
  8
0
 62
     3
100
AcDbLine
 10
417.5399879132095
 20
-70.24958837778817
 30
0.0
 11
410.5274865676273
 21
-70.94173121908633
 31
0.0
  0
LINE
  5
2FB
330
1F
100
AcDbEntity
  8
0
 62
     3
100
AcDbLine
 10
425.1643810601827
 20
-72.95510759228296
 30
0.0
 11
410.5326069089731
 21
-74.39621156204069
 31
0.0
  0
LINE
  5
2FC
330
1F
100
AcDbEntity
  8
0
 62
     3
100
AcDbLine
 10
396.7713780934128
 20
-68.20728501164288
 30
0.0
 11
390.5567004045608
 21
-64.8858368247464
 31
0.0
  0
LINE
  5
2FD
330
1F
100
AcDbEntity
  8
0
 62
     3
100
AcDbLine
 10
403.5147353314544
 20
-70.25212485737771
 30
0.0
 11
396.7713780934128
 21
-68.20728501164288
 31
0.0
  0
LINE
  5
2FE
330
1F
100
AcDbEntity
  8
0
 62
     3
100
AcDbLine
 10
410.5326069089731
 20
-74.39621156204069
 30
0.0
 11
395.9008327577635
 21
-72.95510759228304
 31
0.0
  0
LINE
  5
2FF
330
1F
100
AcDbEntity
  8
0
 62
     3
100
AcDbLine
 10
410.5274865676273
 20
-70.94173121908633
 30
0.0
 11
403.5147353314544
 21
-70.25212485737771
 31
0.0
  0
LINE
  5
300
330
1F
100
AcDbEntity
  8
0
 62
     3
100
AcDbLine
 10
390.5567004045608
 20
-64.8858368247464
 30
0.0
 11
385.1096598156142
 21
-60.41549168628993
 31
0.0
  0
LINE
  5
301
330
1F
100
AcDbEntity
  8
0
 62
     3
100
AcDbLine
 10
430.4960809964592
 20
-64.87861375171442
 30
0.0
 11
424.2826050879009
 21
-68.20230958140749
 31
0.0
  0
LINE
  5
302
330
1F
100
AcDbEntity
  8
0
 62
     3
100
AcDbLine
 10
439.2338643363549
 20
-68.68717650038712
 30
0.0
 11
425.1643810601827
 21
-72.95510759228296
 31
0.0
  0
LINE
  5
303
330
1F
100
AcDbEntity
  8
0
 62
     3
100
AcDbLine
 10
424.2826050879009
 20
-68.20230958140749
 30
0.0
 11
417.5399879132095
 21
-70.24958837778817
 31
0.0
  0
LINE
  5
304
330
1F
100
AcDbEntity
  8
0
 62
     3
100
AcDbLine
 10
435.9415042972383
 20
-60.40629870133122
 30
0.0
 11
430.4960809964592
 21
-64.87861375171442
 31
0.0
  0
LINE
  5
305
330
1F
100
AcDbEntity
  8
0
 62
     3
100
AcDbLine
 10
440.4094956660461
 20
-54.95732724216466
 30
0.0
 11
435.9415042972383
 21
-60.40629870133122
 31
0.0
  0
LINE
  5
306
330
1F
100
AcDbEntity
  8
0
 62
     3
100
AcDbLine
 10
481.2432850276279
 20
-70.10688968069522
 30
0.0
 11
466.0896302109335
 21
-82.54317279229505
 31
0.0
  0
LINE
  5
307
330
1F
100
AcDbEntity
  8
0
 62
     3
100
AcDbLine
 10
466.0896302109335
 20
-82.54317279229505
 30
0.0
 11
448.8009501454822
 21
-91.78416481316927
 31
0.0
  0
LINE
  5
308
330
1F
100
AcDbEntity
  8
0
 62
     3
100
AcDbLine
 10
493.6795681392275
 20
-54.95323486400062
 30
0.0
 11
481.2432850276279
 21
-70.10688968069522
 31
0.0
  0
LINE
  5
309
330
1F
100
AcDbEntity
  8
0
 62
     3
100
AcDbLine
 10
445.7701847774713
 20
-41.99697506074599
 30
0.0
 11
443.7282585387542
 21
-48.74121512692036
 31
0.0
  0
LINE
  5
30A
330
1F
100
AcDbEntity
  8
0
 62
     3
100
AcDbLine
 10
420.0793112274737
 20
-49.54233177116478
 30
0.0
 11
401.1952449721858
 21
-49.52983900007694
 31
0.0
  0
LINE
  5
30B
330
1F
100
AcDbEntity
  8
0
 62
     3
100
AcDbLine
 10
476.3595799346691
 20
-19.36049589902634
 30
0.0
 11
471.8892347962126
 21
-24.80753648797295
 31
0.0
  0
LINE
  5
30C
330
1F
100
AcDbEntity
  8
0
 62
     3
100
AcDbLine
 10
484.0915029392154
 20
-14.02798571325002
 30
0.0
 11
479.8235718473196
 21
-28.09746898942217
 31
0.0
  0
LINE
  5
30D
330
1F
100
AcDbEntity
  8
0
 62
     3
100
AcDbLine
 10
479.8235718473196
 20
-28.09746898942217
 30
0.0
 11
472.892827831664
 21
-41.06397903851063
 31
0.0
  0
LINE
  5
30E
330
1F
100
AcDbEntity
  8
0
 62
     3
100
AcDbLine
 10
446.45676126902
 20
-34.98392653989546
 30
0.0
 11
445.7701847774713
 21
-41.99697506074599
 31
0.0
  0
LINE
  5
30F
330
1F
100
AcDbEntity
  8
0
 62
     3
100
AcDbLine
 10
472.892827831664
 20
-41.06397903851063
 30
0.0
 11
463.5656154979642
 21
-52.42922015103158
 31
0.0
  0
LINE
  5
310
330
1F
100
AcDbEntity
  8
0
 62
     3
100
AcDbLine
 10
466.4418797739769
 20
-29.27749846726058
 30
0.0
 11
460.2269684678373
 21
-32.59850950177556
 31
0.0
  0
LINE
  5
311
330
1F
100
AcDbEntity
  8
0
 62
     3
100
AcDbLine
 10
453.483467411214
 20
-34.64287501064964
 30
0.0
 11
446.470667685064
 21
-35.33198808951445
 31
0.0
  0
LINE
  5
312
330
1F
100
AcDbEntity
  8
0
 62
     3
100
AcDbLine
 10
460.2269684678373
 20
-32.59850950177556
 30
0.0
 11
453.483467411214
 21
-34.64287501064964
 31
0.0
  0
LINE
  5
313
330
1F
100
AcDbEntity
  8
0
 62
     3
100
AcDbLine
 10
471.8892347962126
 20
-24.80753648797295
 30
0.0
 11
466.4418797739769
 21
-29.27749846726058
 31
0.0
  0
LINE
  5
314
330
1F
100
AcDbEntity
  8
0
 62
     3
100
AcDbLine
 10
479.6810281215655
 20
-13.14581821017432
 30
0.0
 11
476.3595799346691
 21
-19.36049589902634
 31
0.0
  0
LINE
  5
315
330
1F
100
AcDbEntity
  8
0
 62
     3
100
AcDbLine
 10
475.8637755329238
 20
0.6037884379593095
 30
0.0
 11
461.9219220157397
 21
-8.832184036209184
 31
0.0
  0
LINE
  5
316
330
1F
100
AcDbEntity
  8
0
 62
     3
100
AcDbLine
 10
481.7258679673004
 20
-6.402460972132786
 30
0.0
 11
479.6810281215655
 21
-13.14581821017432
 31
0.0
  0
LINE
  5
317
330
1F
100
AcDbEntity
  8
0
 62
     3
100
AcDbLine
 10
485.532606908973
 20
0.6037884379593095
 30
0.0
 11
484.0915029392154
 21
-14.02798571325002
 31
0.0
  0
LINE
  5
318
330
1F
100
AcDbEntity
  8
0
 62
     3
100
AcDbLine
 10
482.415474329009
 20
0.6102902640401169
 30
0.0
 11
481.7258679673004
 21
-6.402460972132786
 31
0.0
  0
LINE
  5
319
330
1F
100
AcDbEntity
  8
0
 62
     3
100
AcDbLine
 10
510.532606908973
 20
0.6037884379593095
 30
0.0
 11
508.6111349492961
 21
-18.90524376365314
 31
0.0
  0
LINE
  5
31A
330
1F
100
AcDbEntity
  8
0
 62
     3
100
AcDbLine
 10
502.9205601601017
 20
38.87213167446827
 30
0.0
 11
508.6111349492959
 21
20.11282063957207
 31
0.0
  0
LINE
  5
31B
330
1F
100
AcDbEntity
  8
0
 62
     3
100
AcDbLine
 10
385.0859386290395
 20
61.87289878582538
 30
0.0
 11
390.5313619298187
 21
66.34521383620858
 31
0.0
  0
LINE
  5
31C
330
1F
100
AcDbEntity
  8
0
 62
     3
100
AcDbLine
 10
430.470742521717
 20
66.35243690924056
 30
0.0
 11
435.9177831106636
 21
61.88209177078409
 31
0.0
  0
LINE
  5
31D
330
1F
100
AcDbEntity
  8
0
 62
     3
100
AcDbLine
 10
481.2432850276277
 20
71.3144665566141
 30
0.0
 11
493.6795681392275
 21
56.1608117399195
 31
0.0
  0
LINE
  5
31E
330
1F
100
AcDbEntity
  8
0
 62
     3
100
AcDbLine
 10
452.2003743854432
 20
62.96400936065015
 30
0.0
 11
463.565615497964
 21
53.63679702695037
 31
0.0
  0
LINE
  5
31F
330
1F
100
AcDbEntity
  8
0
 62
     3
100
AcDbLine
 10
410.4366765356354
 20
65.92045488859799
 30
0.0
 11
400.988582754516
 21
51.99109414250154
 31
0.0
  0
LINE
  5
320
330
1F
100
AcDbEntity
  8
0
 62
     3
100
AcDbLine
 10
410.4366765356354
 20
65.92045488859799
 30
0.0
 11
419.872649009804
 21
51.97860137141384
 31
0.0
  0
LINE
  5
321
330
1F
100
AcDbEntity
  8
0
 62
     3
100
AcDbLine
 10
443.7087561244663
 20
50.21982544240876
 30
0.0
 11
445.7531216333403
 21
43.47632438578552
 31
0.0
  0
LINE
  5
322
330
1F
100
AcDbEntity
  8
0
 62
     3
100
AcDbLine
 10
400.988582754516
 20
51.99109414250154
 30
0.0
 11
419.872649009804
 21
51.97860137141384
 31
0.0
  0
LINE
  5
323
330
1F
100
AcDbEntity
  8
0
 62
     3
100
AcDbLine
 10
440.3877450899512
 20
56.43473674854845
 30
0.0
 11
443.7087561244663
 21
50.21982544240876
 31
0.0
  0
LINE
  5
324
330
1F
100
AcDbEntity
  8
0
 62
     3
100
AcDbLine
 10
435.9177831106636
 20
61.88209177078409
 30
0.0
 11
440.3877450899512
 21
56.43473674854845
 31
0.0
  0
LINE
  5
325
330
1F
100
AcDbEntity
  8
0
 62
     3
100
AcDbLine
 10
460.2149582368431
 20
33.81106223516713
 30
0.0
 11
466.4310703520873
 21
30.49229936245899
 31
0.0
  0
LINE
  5
326
330
1F
100
AcDbEntity
  8
0
 62
     3
100
AcDbLine
 10
472.8928278316638
 20
42.27155591442948
 30
0.0
 11
479.8235718473194
 21
29.30504586534101
 31
0.0
  0
LINE
  5
327
330
1F
100
AcDbEntity
  8
0
 62
     3
100
AcDbLine
 10
476.3523568616371
 20
20.57888469287206
 30
0.0
 11
479.6760526913301
 21
14.36540878431378
 31
0.0
  0
LINE
  5
328
330
1F
100
AcDbEntity
  8
0
 62
     3
100
AcDbLine
 10
471.8800418112539
 20
26.02430799365118
 30
0.0
 11
476.3523568616371
 21
20.57888469287206
 31
0.0
  0
LINE
  5
329
330
1F
100
AcDbEntity
  8
0
 62
     3
100
AcDbLine
 10
466.4310703520873
 20
30.49229936245899
 30
0.0
 11
471.8800418112539
 21
26.02430799365118
 31
0.0
  0
LINE
  5
32A
330
1F
100
AcDbEntity
  8
0
 62
     3
100
AcDbLine
 10
479.8235718473194
 20
29.30504586534101
 30
0.0
 11
484.0915029392152
 21
15.23556258916892
 31
0.0
  0
LINE
  5
32B
330
1F
100
AcDbEntity
  8
0
 62
     3
100
AcDbLine
 10
479.6760526913301
 20
14.36540878431378
 30
0.0
 11
481.7233314877109
 21
7.622791609622368
 31
0.0
  0
LINE
  5
32C
330
1F
100
AcDbEntity
  8
0
 62
     3
100
AcDbLine
 10
463.565615497964
 20
53.63679702695037
 30
0.0
 11
472.8928278316638
 21
42.27155591442948
 31
0.0
  0
LINE
  5
32D
330
1F
100
AcDbEntity
  8
0
 62
     3
100
AcDbLine
 10
446.4576696498181
 20
36.53956496543287
 30
0.0
 11
453.4707181706687
 21
35.85298847388424
 31
0.0
  0
LINE
  5
32E
330
1F
100
AcDbEntity
  8
0
 62
     3
100
AcDbLine
 10
453.4707181706687
 20
35.85298847388424
 30
0.0
 11
460.2149582368431
 21
33.81106223516713
 31
0.0
  0
LINE
  5
32F
330
1F
100
AcDbEntity
  8
0
 62
     3
100
AcDbLine
 10
445.7531216333403
 20
43.47632438578552
 30
0.0
 11
446.4422347122051
 21
36.46352465963548
 31
0.0
  0
LINE
  5
330
330
1F
100
AcDbEntity
  8
0
 62
     3
100
AcDbLine
 10
493.6795681392275
 20
56.1608117399195
 30
0.0
 11
502.9205601601017
 21
38.87213167446827
 31
0.0
  0
LINE
  5
331
330
1F
100
AcDbEntity
  8
0
 62
     3
100
AcDbLine
 10
430.0416391105858
 20
98.68231647828237
 30
0.0
 11
448.8009501454818
 21
92.99174168908804
 31
0.0
  0
LINE
  5
332
330
1F
100
AcDbEntity
  8
0
 62
     3
100
AcDbLine
 10
439.2338643363546
 20
69.89475337630586
 30
0.0
 11
452.2003743854432
 21
62.96400936065015
 31
0.0
  0
LINE
  5
333
330
1F
100
AcDbEntity
  8
0
 62
     3
100
AcDbLine
 10
410.4999563586505
 20
72.40833130358049
 30
0.0
 11
417.5127075948235
 21
71.71872494187187
 31
0.0
  0
LINE
  5
334
330
1F
100
AcDbEntity
  8
0
 62
     3
100
AcDbLine
 10
410.532606908973
 20
75.60378843795934
 30
0.0
 11
425.1643810601825
 21
74.16268446820158
 31
0.0
  0
LINE
  5
335
330
1F
100
AcDbEntity
  8
0
 62
     3
100
AcDbLine
 10
396.7448378383769
 20
69.66890966590165
 30
0.0
 11
403.4874550130683
 21
71.71618846228233
 31
0.0
  0
LINE
  5
336
330
1F
100
AcDbEntity
  8
0
 62
     3
100
AcDbLine
 10
395.9008327577634
 20
74.16268446820158
 30
0.0
 11
410.532606908973
 21
75.60378843795934
 31
0.0
  0
LINE
  5
337
330
1F
100
AcDbEntity
  8
0
 62
     3
100
AcDbLine
 10
390.5313619298187
 20
66.34521383620858
 30
0.0
 11
396.7448378383769
 21
69.66890966590165
 31
0.0
  0
LINE
  5
338
330
1F
100
AcDbEntity
  8
0
 62
     3
100
AcDbLine
 10
403.4874550130683
 20
71.71618846228233
 30
0.0
 11
410.4999563586505
 21
72.40833130358049
 31
0.0
  0
LINE
  5
339
330
1F
100
AcDbEntity
  8
0
 62
     3
100
AcDbLine
 10
424.256064832865
 20
69.67388509613704
 30
0.0
 11
430.470742521717
 21
66.35243690924056
 31
0.0
  0
LINE
  5
33A
330
1F
100
AcDbEntity
  8
0
 62
     3
100
AcDbLine
 10
425.1643810601825
 20
74.16268446820158
 30
0.0
 11
439.2338643363546
 21
69.89475337630586
 31
0.0
  0
LINE
  5
33B
330
1F
100
AcDbEntity
  8
0
 62
     3
100
AcDbLine
 10
417.5127075948235
 20
71.71872494187187
 30
0.0
 11
424.256064832865
 21
69.67388509613704
 31
0.0
  0
LINE
  5
33C
330
1F
100
AcDbEntity
  8
0
 62
     3
100
AcDbLine
 10
410.532606908973
 20
100.6037884379593
 30
0.0
 11
430.0416391105858
 21
98.68231647828237
 31
0.0
  0
LINE
  5
33D
330
1F
100
AcDbEntity
  8
0
 62
     3
100
AcDbLine
 10
391.0235747073601
 20
98.68231647828237
 30
0.0
 11
410.532606908973
 21
100.6037884379593
 31
0.0
  0
LINE
  5
33E
330
1F
100
AcDbEntity
  8
0
 62
     3
100
AcDbLine
 10
448.8009501454818
 20
92.99174168908804
 30
0.0
 11
466.0896302109331
 21
83.75074966821376
 31
0.0
  0
LINE
  5
33F
330
1F
100
AcDbEntity
  8
0
 62
     3
100
AcDbLine
 10
466.0896302109331
 20
83.75074966821376
 30
0.0
 11
481.2432850276277
 21
71.3144665566141
 31
0.0
  0
LINE
  5
340
330
1F
100
AcDbEntity
  8
0
 62
     3
100
AcDbLine
 10
665.3396945487762
 20
0.4111302833282196
 30
0.0
 11
665.5844812774862
 21
9.744456043625177
 31
0.0
  0
LINE
  5
341
330
1F
100
AcDbEntity
  8
0
 62
     3
100
AcDbLine
 10
853.1012651042424
 20
10.13019211912217
 30
0.0
 11
853.3294859103129
 21
0.7964465925904279
 31
0.0
  0
LINE
  5
342
330
1F
100
AcDbEntity
  8
0
 62
     3
100
AcDbLine
 10
857.4645560685407
 20
20.11282063957207
 30
0.0
 11
859.3860280282179
 21
0.6037884379593095
 31
0.0
  0
LINE
  5
343
330
1F
100
AcDbEntity
  8
0
 62
     3
100
AcDbLine
 10
659.3860280282179
 20
0.6037884379591958
 30
0.0
 11
661.3074999878948
 21
20.11282063957207
 31
0.0
  0
LINE
  5
344
330
1F
100
AcDbEntity
  8
0
 62
     3
100
AcDbLine
 10
835.3689256192895
 20
0.4100936582746329
 30
0.0
 11
823.1024022207225
 21
12.67036262286393
 31
0.0
  0
LINE
  5
345
330
1F
100
AcDbEntity
  8
0
 62
     3
100
AcDbLine
 10
823.1024022207225
 20
12.67036262286393
 30
0.0
 11
823.0861616183085
 21
-11.87892350901049
 31
0.0
  0
LINE
  5
346
330
1F
100
AcDbEntity
  8
0
 62
     3
100
AcDbLine
 10
774.9198512524948
 20
2.923421061627095
 30
0.0
 11
801.9452929542085
 21
30.01806508781033
 31
0.0
  0
LINE
  5
347
330
1F
100
AcDbEntity
  8
0
 62
     3
100
AcDbLine
 10
743.7056916747263
 20
2.969169755451616
 30
0.0
 11
717.6381905420909
 21
29.08855095791119
 31
0.0
  0
LINE
  5
348
330
1F
100
AcDbEntity
  8
0
 62
     3
100
AcDbLine
 10
695.5667782383662
 20
-11.4627857469454
 30
0.0
 11
695.5830188407804
 21
13.08650038492902
 31
0.0
  0
LINE
  5
349
330
1F
100
AcDbEntity
  8
0
 62
     3
100
AcDbLine
 10
683.3002548397987
 20
0.797483217644043
 30
0.0
 11
695.5830188407804
 21
13.08650038492902
 31
0.0
  0
LINE
  5
34A
330
1F
100
AcDbEntity
  8
0
 62
     3
100
AcDbLine
 10
759.5897530234815
 20
-93.2477319809926
 30
0.0
 11
750.2564272631846
 21
-93.00294525228261
 31
0.0
  0
LINE
  5
34B
330
1F
100
AcDbEntity
  8
0
 62
     3
100
AcDbLine
 10
759.386028028218
 20
-99.39621156204069
 30
0.0
 11
739.8769958266052
 21
-97.47473960236384
 31
0.0
  0
LINE
  5
34C
330
1F
100
AcDbEntity
  8
0
 62
     3
100
AcDbLine
 10
761.7167274925182
 20
-14.83809732317419
 30
0.0
 11
757.0317135513579
 21
-14.88173485504228
 31
0.0
  0
LINE
  5
34D
330
1F
100
AcDbEntity
  8
0
 62
     3
100
AcDbLine
 10
771.4636690537548
 20
-63.02064829140218
 30
0.0
 11
746.9143829218803
 21
-63.00440768898809
 31
0.0
  0
LINE
  5
34E
330
1F
100
AcDbEntity
  8
0
 62
     3
100
AcDbLine
 10
759.2034000891654
 20
-75.28717168996988
 30
0.0
 11
746.9143829218803
 21
-63.00440768898809
 31
0.0
  0
LINE
  5
34F
330
1F
100
AcDbEntity
  8
0
 62
     3
100
AcDbLine
 10
676.2390667979635
 20
-54.95323486400107
 30
0.0
 11
666.9980747770892
 21
-37.6645547985498
 31
0.0
  0
LINE
  5
350
330
1F
100
AcDbEntity
  8
0
 62
     3
100
AcDbLine
 10
729.1816569119356
 20
-45.84577934973978
 30
0.0
 11
729.2824776182595
 21
-88.50097897555968
 31
0.0
  0
LINE
  5
351
330
1F
100
AcDbEntity
  8
0
 62
     3
100
AcDbLine
 10
703.8290047262578
 20
-82.54317279229534
 30
0.0
 11
688.6753499095632
 21
-70.10688968069556
 31
0.0
  0
LINE
  5
352
330
1F
100
AcDbEntity
  8
0
 62
     3
100
AcDbLine
 10
688.6753499095632
 20
-70.10688968069556
 30
0.0
 11
676.2390667979635
 21
-54.95323486400107
 31
0.0
  0
LINE
  5
353
330
1F
100
AcDbEntity
  8
0
 62
     3
100
AcDbLine
 10
739.8769958266052
 20
-97.47473960236384
 30
0.0
 11
721.117684791709
 21
-91.78416481316949
 31
0.0
  0
LINE
  5
354
330
1F
100
AcDbEntity
  8
0
 62
     3
100
AcDbLine
 10
721.117684791709
 20
-91.78416481316949
 30
0.0
 11
703.8290047262578
 21
-82.54317279229534
 31
0.0
  0
LINE
  5
355
330
1F
100
AcDbEntity
  8
0
 62
     3
100
AcDbLine
 10
750.2564272631846
 20
-93.00294525228261
 30
0.0
 11
740.9474765574556
 21
-92.28577926823048
 31
0.0
  0
LINE
  5
356
330
1F
100
AcDbEntity
  8
0
 62
     3
100
AcDbLine
 10
740.9474765574556
 20
-92.28577926823048
 30
0.0
 11
731.6867936326346
 21
-91.09807473582211
 31
0.0
  0
LINE
  5
357
330
1F
100
AcDbEntity
  8
0
 62
     3
100
AcDbLine
 10
729.2824776182595
 20
-88.50097897555968
 30
0.0
 11
731.6867936326323
 21
-91.0980747358241
 31
0.0
  0
LINE
  5
358
330
1F
100
AcDbEntity
  8
0
 62
     3
100
AcDbLine
 10
683.3002548397987
 20
0.797483217644043
 30
0.0
 11
695.5667782383662
 21
-11.4627857469454
 31
0.0
  0
LINE
  5
359
330
1F
100
AcDbEntity
  8
0
 62
     3
100
AcDbLine
 10
712.6035651120051
 20
-30.37829508655178
 30
0.0
 11
670.0865327209164
 21
-30.36813068536187
 31
0.0
  0
LINE
  5
35A
330
1F
100
AcDbEntity
  8
0
 62
     3
100
AcDbLine
 10
667.4398239919447
 20
-27.49560054206418
 30
0.0
 11
666.2685579350212
 21
-18.23282417024805
 31
0.0
  0
LINE
  5
35B
330
1F
100
AcDbEntity
  8
0
 62
     3
100
AcDbLine
 10
666.9980747770892
 20
-37.6645547985498
 30
0.0
 11
661.3074999878948
 21
-18.90524376365365
 31
0.0
  0
LINE
  5
35C
330
1F
100
AcDbEntity
  8
0
 62
     3
100
AcDbLine
 10
670.0865327209164
 20
-30.36813068536187
 30
0.0
 11
667.4398239919447
 21
-27.49560054206418
 31
0.0
  0
LINE
  5
35D
330
1F
100
AcDbEntity
  8
0
 62
     3
100
AcDbLine
 10
661.3074999878948
 20
-18.90524376365365
 30
0.0
 11
659.3860280282179
 21
0.6037884379591958
 31
0.0
  0
LINE
  5
35E
330
1F
100
AcDbEntity
  8
0
 62
     3
100
AcDbLine
 10
666.2685579350212
 20
-18.23282417024805
 30
0.0
 11
665.5679153548468
 21
-8.922615243203523
 31
0.0
  0
LINE
  5
35F
330
1F
100
AcDbEntity
  8
0
 62
     3
100
AcDbLine
 10
665.5679153548468
 20
-8.922615243203523
 30
0.0
 11
665.3396945487762
 21
0.4111302833282196
 31
0.0
  0
LINE
  5
360
330
1F
100
AcDbEntity
  8
0
 62
     3
100
AcDbLine
 10
743.7493292065943
 20
-1.71584418570859
 30
0.0
 11
716.7238875048799
 21
-28.81048821189168
 31
0.0
  0
LINE
  5
361
330
1F
100
AcDbEntity
  8
0
 62
     3
100
AcDbLine
 10
757.0317135513579
 20
-14.88173485504228
 30
0.0
 11
730.9123323488982
 21
-40.9492359876777
 31
0.0
  0
LINE
  5
362
330
1F
100
AcDbEntity
  8
0
 62
     3
100
AcDbLine
 10
716.7238875048799
 20
-28.81048821189168
 30
0.0
 11
712.6035651120051
 21
-30.37829508655178
 31
0.0
  0
LINE
  5
363
330
1F
100
AcDbEntity
  8
0
 62
     3
100
AcDbLine
 10
730.9123323488982
 20
-40.9492359876777
 30
0.0
 11
729.1816569119356
 21
-45.84577934973978
 31
0.0
  0
LINE
  5
364
330
1F
100
AcDbEntity
  8
0
 62
     3
100
AcDbLine
 10
743.7493292065943
 20
-1.71584418570859
 30
0.0
 11
743.7056916747263
 21
2.969169755451616
 31
0.0
  0
LINE
  5
365
330
1F
100
AcDbEntity
  8
0
 62
     3
100
AcDbLine
 10
851.7739812793465
 20
-37.66455479854935
 30
0.0
 11
842.5329892584725
 21
-54.95323486400062
 31
0.0
  0
LINE
  5
366
330
1F
100
AcDbEntity
  8
0
 62
     3
100
AcDbLine
 10
790.3791783933614
 20
-45.98386141776339
 30
0.0
 11
790.3690139921715
 21
-88.5008938088522
 31
0.0
  0
LINE
  5
367
330
1F
100
AcDbEntity
  8
0
 62
     3
100
AcDbLine
 10
830.0967061468726
 20
-70.10688968069522
 30
0.0
 11
814.9430513301783
 21
-82.54317279229505
 31
0.0
  0
LINE
  5
368
330
1F
100
AcDbEntity
  8
0
 62
     3
100
AcDbLine
 10
797.6543712647271
 20
-91.78416481316927
 30
0.0
 11
778.8950602298309
 21
-97.47473960236371
 31
0.0
  0
LINE
  5
369
330
1F
100
AcDbEntity
  8
0
 62
     3
100
AcDbLine
 10
790.3690139921715
 20
-88.5008938088522
 30
0.0
 11
787.4964838488739
 21
-91.1476025378241
 31
0.0
  0
LINE
  5
36A
330
1F
100
AcDbEntity
  8
0
 62
     3
100
AcDbLine
 10
778.8950602298309
 20
-97.47473960236371
 30
0.0
 11
759.386028028218
 21
-99.39621156204069
 31
0.0
  0
LINE
  5
36B
330
1F
100
AcDbEntity
  8
0
 62
     3
100
AcDbLine
 10
778.2337074770578
 20
-92.3188685947476
 30
0.0
 11
768.9234985500132
 21
-93.01951117492203
 31
0.0
  0
LINE
  5
36C
330
1F
100
AcDbEntity
  8
0
 62
     3
100
AcDbLine
 10
768.9234985500132
 20
-93.01951117492203
 30
0.0
 11
759.5897530234815
 21
-93.2477319809926
 31
0.0
  0
LINE
  5
36D
330
1F
100
AcDbEntity
  8
0
 62
     3
100
AcDbLine
 10
787.4964838488739
 20
-91.1476025378241
 30
0.0
 11
778.2337074770578
 21
-92.3188685947476
 31
0.0
  0
LINE
  5
36E
330
1F
100
AcDbEntity
  8
0
 62
     3
100
AcDbLine
 10
814.9430513301783
 20
-82.54317279229505
 30
0.0
 11
797.6543712647271
 21
-91.78416481316927
 31
0.0
  0
LINE
  5
36F
330
1F
100
AcDbEntity
  8
0
 62
     3
100
AcDbLine
 10
759.2034000891654
 20
-75.28717168996988
 30
0.0
 11
771.4636690537548
 21
-63.02064829140218
 31
0.0
  0
LINE
  5
370
330
1F
100
AcDbEntity
  8
0
 62
     3
100
AcDbLine
 10
842.5329892584725
 20
-54.95323486400062
 30
0.0
 11
830.0967061468726
 21
-70.10688968069522
 31
0.0
  0
LINE
  5
371
330
1F
100
AcDbEntity
  8
0
 62
     3
100
AcDbLine
 10
805.9275332790596
 20
-29.61164951895529
 30
0.0
 11
848.5827329048795
 21
-29.51082881263138
 31
0.0
  0
LINE
  5
372
330
1F
100
AcDbEntity
  8
0
 62
     3
100
AcDbLine
 10
774.9634887843629
 20
-1.761592879532969
 30
0.0
 11
801.0309899169975
 21
-27.88097408199257
 31
0.0
  0
LINE
  5
373
330
1F
100
AcDbEntity
  8
0
 62
     3
100
AcDbLine
 10
761.7167274925182
 20
-14.83809732317419
 30
0.0
 11
788.8113715187012
 21
-41.86353902488838
 31
0.0
  0
LINE
  5
374
330
1F
100
AcDbEntity
  8
0
 62
     3
100
AcDbLine
 10
788.8113715187012
 20
-41.86353902488838
 30
0.0
 11
790.3791783933614
 21
-45.98386141776339
 31
0.0
  0
LINE
  5
375
330
1F
100
AcDbEntity
  8
0
 62
     3
100
AcDbLine
 10
801.0309899169975
 20
-27.88097408199257
 30
0.0
 11
805.9275332790596
 21
-29.61164951895529
 31
0.0
  0
LINE
  5
376
330
1F
100
AcDbEntity
  8
0
 62
     3
100
AcDbLine
 10
774.9198512524948
 20
2.923421061627095
 30
0.0
 11
774.9634887843629
 21
-1.761592879532969
 31
0.0
  0
LINE
  5
377
330
1F
100
AcDbEntity
  8
0
 62
     3
100
AcDbLine
 10
852.3675331975507
 20
-17.84582987343549
 30
0.0
 11
851.1798286651423
 21
-27.10651279825651
 31
0.0
  0
LINE
  5
378
330
1F
100
AcDbEntity
  8
0
 62
     3
100
AcDbLine
 10
857.4645560685409
 20
-18.90524376365314
 30
0.0
 11
851.7739812793465
 21
-37.66455479854935
 31
0.0
  0
LINE
  5
379
330
1F
100
AcDbEntity
  8
0
 62
     3
100
AcDbLine
 10
848.5827329048795
 20
-29.51082881263138
 30
0.0
 11
851.1798286651444
 21
-27.10651279825859
 31
0.0
  0
LINE
  5
37A
330
1F
100
AcDbEntity
  8
0
 62
     3
100
AcDbLine
 10
835.3689256192895
 20
0.4100936582746329
 30
0.0
 11
823.0861616183085
 21
-11.87892350901049
 31
0.0
  0
LINE
  5
37B
330
1F
100
AcDbEntity
  8
0
 62
     3
100
AcDbLine
 10
853.0846991816028
 20
-8.536879167706501
 30
0.0
 11
852.3675331975507
 21
-17.84582987343549
 31
0.0
  0
LINE
  5
37C
330
1F
100
AcDbEntity
  8
0
 62
     3
100
AcDbLine
 10
859.3860280282179
 20
0.6037884379593095
 30
0.0
 11
857.4645560685409
 21
-18.90524376365314
 31
0.0
  0
LINE
  5
37D
330
1F
100
AcDbEntity
  8
0
 62
     3
100
AcDbLine
 10
853.3294859103129
 20
0.7964465925904279
 30
0.0
 11
853.0846991816028
 21
-8.536879167706501
 31
0.0
  0
LINE
  5
37E
330
1F
100
AcDbEntity
  8
0
 62
     3
100
AcDbLine
 10
749.8485670441948
 20
94.21376109903553
 30
0.0
 11
759.1823125707265
 21
94.4419819051061
 31
0.0
  0
LINE
  5
37F
330
1F
100
AcDbEntity
  8
0
 62
     3
100
AcDbLine
 10
739.876995826605
 20
98.68231647828237
 30
0.0
 11
759.3860280282179
 21
100.6037884379593
 31
0.0
  0
LINE
  5
380
330
1F
100
AcDbEntity
  8
0
 62
     3
100
AcDbLine
 10
759.5686655050423
 20
76.48142161408333
 30
0.0
 11
747.3083965404533
 21
64.21489821551574
 31
0.0
  0
LINE
  5
381
330
1F
100
AcDbEntity
  8
0
 62
     3
100
AcDbLine
 10
747.3083965404533
 20
64.21489821551574
 30
0.0
 11
771.8576826723273
 21
64.1986576131016
 31
0.0
  0
LINE
  5
382
330
1F
100
AcDbEntity
  8
0
 62
     3
100
AcDbLine
 10
757.0553381016899
 20
16.0323472472877
 30
0.0
 11
761.7403520428499
 21
16.07598477915581
 31
0.0
  0
LINE
  5
383
330
1F
100
AcDbEntity
  8
0
 62
     3
100
AcDbLine
 10
676.2390667979633
 20
56.1608117399195
 30
0.0
 11
688.6753499095631
 21
71.3144665566141
 31
0.0
  0
LINE
  5
384
330
1F
100
AcDbEntity
  8
0
 62
     3
100
AcDbLine
 10
728.3928872008467
 20
47.1781113418769
 30
0.0
 11
728.4030516020362
 21
89.69514373296574
 31
0.0
  0
LINE
  5
385
330
1F
100
AcDbEntity
  8
0
 62
     3
100
AcDbLine
 10
712.7416471800288
 20
30.81922639487391
 30
0.0
 11
670.0864475542089
 21
30.71840568854992
 31
0.0
  0
LINE
  5
386
330
1F
100
AcDbEntity
  8
0
 62
     3
100
AcDbLine
 10
661.3074999878948
 20
20.11282063957207
 30
0.0
 11
666.9980747770892
 21
38.87213167446827
 31
0.0
  0
LINE
  5
387
330
1F
100
AcDbEntity
  8
0
 62
     3
100
AcDbLine
 10
666.3016472615383
 20
19.05340674935416
 30
0.0
 11
667.4893517939467
 21
28.31408967417519
 31
0.0
  0
LINE
  5
388
330
1F
100
AcDbEntity
  8
0
 62
     3
100
AcDbLine
 10
665.5844812774862
 20
9.744456043625177
 30
0.0
 11
666.3016472615383
 21
19.05340674935416
 31
0.0
  0
LINE
  5
389
330
1F
100
AcDbEntity
  8
0
 62
     3
100
AcDbLine
 10
670.0864475542089
 20
30.71840568854992
 30
0.0
 11
667.4893517939445
 21
28.31408967417724
 31
0.0
  0
LINE
  5
38A
330
1F
100
AcDbEntity
  8
0
 62
     3
100
AcDbLine
 10
666.9980747770892
 20
38.87213167446827
 30
0.0
 11
676.2390667979633
 21
56.1608117399195
 31
0.0
  0
LINE
  5
38B
330
1F
100
AcDbEntity
  8
0
 62
     3
100
AcDbLine
 10
757.0553381016899
 20
16.0323472472877
 30
0.0
 11
729.9606940755065
 21
43.05778894900192
 31
0.0
  0
LINE
  5
38C
330
1F
100
AcDbEntity
  8
0
 62
     3
100
AcDbLine
 10
717.6381905420909
 20
29.08855095791119
 30
0.0
 11
712.7416471800288
 21
30.81922639487391
 31
0.0
  0
LINE
  5
38D
330
1F
100
AcDbEntity
  8
0
 62
     3
100
AcDbLine
 10
729.9606940755065
 20
43.05778894900192
 30
0.0
 11
728.3928872008467
 21
47.1781113418769
 31
0.0
  0
LINE
  5
38E
330
1F
100
AcDbEntity
  8
0
 62
     3
100
AcDbLine
 10
688.6753499095631
 20
71.3144665566141
 30
0.0
 11
703.8290047262576
 21
83.75074966821387
 31
0.0
  0
LINE
  5
38F
330
1F
100
AcDbEntity
  8
0
 62
     3
100
AcDbLine
 10
703.8290047262576
 20
83.75074966821387
 30
0.0
 11
721.1176847917089
 21
92.99174168908804
 31
0.0
  0
LINE
  5
390
330
1F
100
AcDbEntity
  8
0
 62
     3
100
AcDbLine
 10
728.4030516020362
 20
89.69514373296574
 30
0.0
 11
731.2755817453342
 21
92.3418524619376
 31
0.0
  0
LINE
  5
391
330
1F
100
AcDbEntity
  8
0
 62
     3
100
AcDbLine
 10
721.1176847917089
 20
92.99174168908804
 30
0.0
 11
739.876995826605
 21
98.68231647828237
 31
0.0
  0
LINE
  5
392
330
1F
100
AcDbEntity
  8
0
 62
     3
100
AcDbLine
 10
740.5383581171503
 20
93.51311851886112
 30
0.0
 11
749.8485670441948
 21
94.21376109903553
 31
0.0
  0
LINE
  5
393
330
1F
100
AcDbEntity
  8
0
 62
     3
100
AcDbLine
 10
731.2755817453342
 20
92.3418524619376
 30
0.0
 11
740.5383581171503
 21
93.51311851886112
 31
0.0
  0
LINE
  5
394
330
1F
100
AcDbEntity
  8
0
 62
     3
100
AcDbLine
 10
830.0967061468725
 20
71.3144665566141
 30
0.0
 11
842.5329892584723
 21
56.1608117399195
 31
0.0
  0
LINE
  5
395
330
1F
100
AcDbEntity
  8
0
 62
     3
100
AcDbLine
 10
789.5904086822723
 20
47.04002927385334
 30
0.0
 11
789.4895879759483
 21
89.69522889967322
 31
0.0
  0
LINE
  5
396
330
1F
100
AcDbEntity
  8
0
 62
     3
100
AcDbLine
 10
806.0656153470835
 20
31.58587196247032
 30
0.0
 11
848.5826477381726
 21
31.57570756128052
 31
0.0
  0
LINE
  5
397
330
1F
100
AcDbEntity
  8
0
 62
     3
100
AcDbLine
 10
761.7403520428499
 20
16.07598477915581
 30
0.0
 11
787.8597332453096
 21
42.14348591179123
 31
0.0
  0
LINE
  5
398
330
1F
100
AcDbEntity
  8
0
 62
     3
100
AcDbLine
 10
801.9452929542085
 20
30.01806508781033
 30
0.0
 11
806.0656153470835
 21
31.58587196247032
 31
0.0
  0
LINE
  5
399
330
1F
100
AcDbEntity
  8
0
 62
     3
100
AcDbLine
 10
787.8597332453096
 20
42.14348591179123
 30
0.0
 11
789.5904086822723
 21
47.04002927385334
 31
0.0
  0
LINE
  5
39A
330
1F
100
AcDbEntity
  8
0
 62
     3
100
AcDbLine
 10
851.7739812793465
 20
38.87213167446827
 30
0.0
 11
857.4645560685407
 21
20.11282063957207
 31
0.0
  0
LINE
  5
39B
330
1F
100
AcDbEntity
  8
0
 62
     3
100
AcDbLine
 10
851.2293564671445
 20
28.70317741798283
 30
0.0
 11
852.4006225240679
 21
19.4404010461667
 31
0.0
  0
LINE
  5
39C
330
1F
100
AcDbEntity
  8
0
 62
     3
100
AcDbLine
 10
848.5826477381726
 20
31.57570756128052
 30
0.0
 11
851.2293564671445
 21
28.70317741798283
 31
0.0
  0
LINE
  5
39D
330
1F
100
AcDbEntity
  8
0
 62
     3
100
AcDbLine
 10
852.4006225240679
 20
19.4404010461667
 30
0.0
 11
853.1012651042424
 21
10.13019211912217
 31
0.0
  0
LINE
  5
39E
330
1F
100
AcDbEntity
  8
0
 62
     3
100
AcDbLine
 10
842.5329892584723
 20
56.1608117399195
 30
0.0
 11
851.7739812793465
 21
38.87213167446827
 31
0.0
  0
LINE
  5
39F
330
1F
100
AcDbEntity
  8
0
 62
     3
100
AcDbLine
 10
814.943051330178
 20
83.75074966821376
 30
0.0
 11
830.0967061468725
 21
71.3144665566141
 31
0.0
  0
LINE
  5
3A0
330
1F
100
AcDbEntity
  8
0
 62
     3
100
AcDbLine
 10
797.6543712647268
 20
92.99174168908804
 30
0.0
 11
814.943051330178
 21
83.75074966821376
 31
0.0
  0
LINE
  5
3A1
330
1F
100
AcDbEntity
  8
0
 62
     3
100
AcDbLine
 10
789.4895879759483
 20
89.69522889967322
 30
0.0
 11
787.0852719615754
 21
92.2923246599376
 31
0.0
  0
LINE
  5
3A2
330
1F
100
AcDbEntity
  8
0
 62
     3
100
AcDbLine
 10
759.5686655050423
 20
76.48142161408333
 30
0.0
 11
771.8576826723273
 21
64.1986576131016
 31
0.0
  0
LINE
  5
3A3
330
1F
100
AcDbEntity
  8
0
 62
     3
100
AcDbLine
 10
778.8950602298307
 20
98.68231647828237
 30
0.0
 11
797.6543712647268
 21
92.99174168908804
 31
0.0
  0
LINE
  5
3A4
330
1F
100
AcDbEntity
  8
0
 62
     3
100
AcDbLine
 10
768.5156383310235
 20
94.19719517639611
 30
0.0
 11
777.8245890367525
 21
93.48002919234398
 31
0.0
  0
LINE
  5
3A5
330
1F
100
AcDbEntity
  8
0
 62
     3
100
AcDbLine
 10
759.3860280282179
 20
100.6037884379593
 30
0.0
 11
778.8950602298307
 21
98.68231647828237
 31
0.0
  0
LINE
  5
3A6
330
1F
100
AcDbEntity
  8
0
 62
     3
100
AcDbLine
 10
759.1823125707265
 20
94.4419819051061
 30
0.0
 11
768.5156383310235
 21
94.19719517639611
 31
0.0
  0
LINE
  5
3A7
330
1F
100
AcDbEntity
  8
0
 62
     3
100
AcDbLine
 10
777.8245890367525
 20
93.48002919234398
 30
0.0
 11
787.0852719615735
 21
92.29232465993561
 31
0.0
  0
LINE
  5
3A8
330
1F
100
AcDbEntity
  8
0
 62
     3
100
AcDbLine
 10
1178.454238114009
 20
-26.04460233357946
 30
0.0
 11
1122.701273720013
 21
-26.04460233357946
 31
0.0
  0
LINE
  5
3A9
330
1F
100
AcDbEntity
  8
0
 62
     3
100
AcDbLine
 10
1122.701273720013
 20
27.18451885365221
 30
0.0
 11
1178.493234849013
 21
27.18451885365221
 31
0.0
  0
LINE
  5
3AA
330
1F
100
AcDbEntity
  8
0
 62
     3
100
AcDbLine
 10
1127.920465745268
 20
3.794094116144123
 30
0.0
 11
1160.568702028108
 21
3.76905197561922
 31
0.0
  0
LINE
  5
3AB
330
1F
100
AcDbEntity
  8
0
 62
     3
100
AcDbLine
 10
1160.568702028108
 20
-2.770656800081809
 30
0.0
 11
1127.929507804284
 21
-2.767765479860401
 31
0.0
  0
LINE
  5
3AC
330
1F
100
AcDbEntity
  8
0
 62
     3
100
AcDbLine
 10
1118.938599378044
 20
5.793191003588304
 30
0.0
 11
1119.449710919318
 21
0.6037884379593095
 31
0.0
  0
LINE
  5
3AD
330
1F
100
AcDbEntity
  8
0
 62
     3
100
AcDbLine
 10
1066.249710919318
 20
0.6037884379592811
 30
0.0
 11
1066.760822460592
 21
5.793191003588304
 31
0.0
  0
LINE
  5
3AE
330
1F
100
AcDbEntity
  8
0
 62
     3
100
AcDbLine
 10
1002.776144182467
 20
0.5761701191792099
 30
0.0
 11
1002.966979810779
 21
9.770687843155826
 31
0.0
  0
LINE
  5
3AF
330
1F
100
AcDbEntity
  8
0
 62
     3
100
AcDbLine
 10
1062.998148118623
 20
-25.97694197773359
 30
0.0
 11
1007.206186989622
 21
-25.97694197773359
 31
0.0
  0
LINE
  5
3B0
330
1F
100
AcDbEntity
  8
0
 62
     3
100
AcDbLine
 10
1005.18561703943
 20
-25.1312900186484
 30
0.0
 11
1004.444143577248
 21
-24.10086458264558
 31
0.0
  0
LINE
  5
3B1
330
1F
100
AcDbEntity
  8
0
 62
     3
100
AcDbLine
 10
1007.206186989622
 20
-25.97694197773359
 30
0.0
 11
1006.058851290458
 21
-25.72067700904088
 31
0.0
  0
LINE
  5
3B2
330
1F
100
AcDbEntity
  8
0
 62
     3
100
AcDbLine
 10
1006.058851290458
 20
-25.72067700904088
 30
0.0
 11
1005.18561703943
 21
-25.1312900186484
 31
0.0
  0
LINE
  5
3B3
330
1F
100
AcDbEntity
  8
0
 62
     3
100
AcDbLine
 10
1003.536029146642
 20
-17.38704158530669
 30
0.0
 11
1002.988273568907
 21
-8.864905730286466
 31
0.0
  0
LINE
  5
3B4
330
1F
100
AcDbEntity
  8
0
 62
     3
100
AcDbLine
 10
1004.444143577248
 20
-24.10086458264558
 30
0.0
 11
1004.100933486138
 21
-22.88532699359629
 31
0.0
  0
LINE
  5
3B5
330
1F
100
AcDbEntity
  8
0
 62
     3
100
AcDbLine
 10
1004.100933486138
 20
-22.88532699359609
 30
0.0
 11
1003.536029146642
 21
-17.38704158530669
 31
0.0
  0
LINE
  5
3B6
330
1F
100
AcDbEntity
  8
0
 62
     3
100
AcDbLine
 10
1002.988273568907
 20
-8.864905730286466
 30
0.0
 11
1002.776144182467
 21
0.5761701191792099
 31
0.0
  0
LINE
  5
3B7
330
1F
100
AcDbEntity
  8
0
 62
     3
100
AcDbLine
 10
1066.218169379771
 20
-85.00073342324879
 30
0.0
 11
1066.218169379771
 21
-29.24776902925236
 31
0.0
  0
LINE
  5
3B8
330
1F
100
AcDbEntity
  8
0
 62
     3
100
AcDbLine
 10
1119.447290567003
 20
-29.24776902925248
 30
0.0
 11
1119.447290567003
 21
-85.03973015825247
 31
0.0
  0
LINE
  5
3B9
330
1F
100
AcDbEntity
  8
0
 62
     3
100
AcDbLine
 10
1096.056865829495
 20
-34.46696105450746
 30
0.0
 11
1096.03182368897
 21
-67.11519733734689
 31
0.0
  0
LINE
  5
3BA
330
1F
100
AcDbEntity
  8
0
 62
     3
100
AcDbLine
 10
1089.492114913269
 20
-67.11519733734689
 30
0.0
 11
1089.49500623349
 21
-34.47600311352369
 31
0.0
  0
LINE
  5
3BB
330
1F
100
AcDbEntity
  8
0
 62
     3
100
AcDbLine
 10
1074.272224413941
 20
-88.67471010475837
 30
0.0
 11
1069.230955382516
 21
-88.1445250737711
 31
0.0
  0
LINE
  5
3BC
330
1F
100
AcDbEntity
  8
0
 62
     3
100
AcDbLine
 10
1066.218169379771
 20
-85.00073342324879
 30
0.0
 11
1066.499360984651
 21
-86.31026124173578
 31
0.0
  0
LINE
  5
3BD
330
1F
100
AcDbEntity
  8
0
 62
     3
100
AcDbLine
 10
1066.499360984651
 20
-86.31026124173578
 30
0.0
 11
1067.050380531864
 21
-87.08924627125009
 31
0.0
  0
LINE
  5
3BE
330
1F
100
AcDbEntity
  8
0
 62
     3
100
AcDbLine
 10
1067.050380531864
 20
-87.08924627125009
 30
0.0
 11
1068.00804903253
 21
-87.7884593438061
 31
0.0
  0
LINE
  5
3BF
330
1F
100
AcDbEntity
  8
0
 62
     3
100
AcDbLine
 10
1068.00804903253
 20
-87.7884593438061
 30
0.0
 11
1069.230955382516
 21
-88.1445250737711
 31
0.0
  0
LINE
  5
3C0
330
1F
100
AcDbEntity
  8
0
 62
     3
100
AcDbLine
 10
1102.335254319556
 20
-89.25764357896786
 30
0.0
 11
1092.89417847009
 21
-89.46977296540849
 31
0.0
  0
LINE
  5
3C1
330
1F
100
AcDbEntity
  8
0
 62
     3
100
AcDbLine
 10
1092.89417847009
 20
-89.46977296540849
 30
0.0
 11
1083.699660746114
 21
-89.27893733709558
 31
0.0
  0
LINE
  5
3C2
330
1F
100
AcDbEntity
  8
0
 62
     3
100
AcDbLine
 10
1083.699660746114
 20
-89.27893733709558
 30
0.0
 11
1074.272224413941
 21
-88.67471010475837
 31
0.0
  0
LINE
  5
3C3
330
1F
100
AcDbEntity
  8
0
 62
     3
100
AcDbLine
 10
1117.571213171915
 20
-87.80177357062717
 30
0.0
 11
1116.355675582866
 21
-88.14498366173728
 31
0.0
  0
LINE
  5
3C4
330
1F
100
AcDbEntity
  8
0
 62
     3
100
AcDbLine
 10
1110.857390174576
 20
-88.7098880012326
 30
0.0
 11
1102.335254319556
 21
-89.25764357896786
 31
0.0
  0
LINE
  5
3C5
330
1F
100
AcDbEntity
  8
0
 62
     3
100
AcDbLine
 10
1116.355675582865
 20
-88.14498366173728
 30
0.0
 11
1110.857390174576
 21
-88.7098880012326
 31
0.0
  0
LINE
  5
3C6
330
1F
100
AcDbEntity
  8
0
 62
     3
100
AcDbLine
 10
1119.447290567003
 20
-85.03973015825247
 30
0.0
 11
1119.19102559831
 21
-86.18706585741728
 31
0.0
  0
LINE
  5
3C7
330
1F
100
AcDbEntity
  8
0
 62
     3
100
AcDbLine
 10
1119.19102559831
 20
-86.18706585741728
 30
0.0
 11
1118.601638607918
 21
-87.0603001084452
 31
0.0
  0
LINE
  5
3C8
330
1F
100
AcDbEntity
  8
0
 62
     3
100
AcDbLine
 10
1118.601638607918
 20
-87.0603001084452
 30
0.0
 11
1117.571213171915
 21
-87.80177357062717
 31
0.0
  0
LINE
  5
3C9
330
1F
100
AcDbEntity
  8
0
 62
     3
100
AcDbLine
 10
1096.03182368897
 20
-67.11519733734689
 30
0.0
 11
1089.492114913269
 21
-67.11519733734689
 31
0.0
  0
LINE
  5
3CA
330
1F
100
AcDbEntity
  8
0
 62
     3
100
AcDbLine
 10
1070.73261923207
 20
-14.17437976036214
 30
0.0
 11
1068.274515354518
 21
-9.575590862952111
 31
0.0
  0
LINE
  5
3CB
330
1F
100
AcDbEntity
  8
0
 62
     3
100
AcDbLine
 10
1066.221917382572
 20
-29.24777206951557
 30
0.0
 11
1065.876254328472
 21
-27.87581592392209
 31
0.0
  0
LINE
  5
3CC
330
1F
100
AcDbEntity
  8
0
 62
     3
100
AcDbLine
 10
1065.876254328472
 20
-27.87581592392209
 30
0.0
 11
1065.227290630674
 21
-27.03794156710026
 31
0.0
  0
LINE
  5
3CD
330
1F
100
AcDbEntity
  8
0
 62
     3
100
AcDbLine
 10
1065.227290630674
 20
-27.03794156710026
 30
0.0
 11
1064.049536872889
 21
-26.31817068025844
 31
0.0
  0
LINE
  5
3CE
330
1F
100
AcDbEntity
  8
0
 62
     3
100
AcDbLine
 10
1064.049536872889
 20
-26.31817068025844
 30
0.0
 11
1062.69354078036
 21
-26.07676203174679
 31
0.0
  0
LINE
  5
3CF
330
1F
100
AcDbEntity
  8
0
 62
     3
100
AcDbLine
 10
1057.778956093367
 20
-2.586517240225475
 30
0.0
 11
1025.130719810528
 21
-2.561475099700686
 31
0.0
  0
LINE
  5
3D0
330
1F
100
AcDbEntity
  8
0
 62
     3
100
AcDbLine
 10
1025.130719810528
 20
3.978233676000314
 30
0.0
 11
1057.769914034351
 21
3.975342355779019
 31
0.0
  0
LINE
  5
3D1
330
1F
100
AcDbEntity
  8
0
 62
     3
100
AcDbLine
 10
1025.130719810528
 20
-2.561475099700686
 30
0.0
 11
1025.130719810528
 21
3.978233676000314
 31
0.0
  0
LINE
  5
3D2
330
1F
100
AcDbEntity
  8
0
 62
     3
100
AcDbLine
 10
1066.760822460592
 20
-4.585614127669742
 30
0.0
 11
1066.249710919318
 21
0.6037884379592811
 31
0.0
  0
LINE
  5
3D3
330
1F
100
AcDbEntity
  8
0
 62
     3
100
AcDbLine
 10
1068.274515354518
 20
-9.575590862952111
 30
0.0
 11
1066.760822460592
 21
-4.585614127669742
 31
0.0
  0
LINE
  5
3D4
330
1F
100
AcDbEntity
  8
0
 62
     3
100
AcDbLine
 10
1057.769914034351
 20
3.975342355779019
 30
0.0
 11
1057.778956093367
 21
-2.586517240225475
 31
0.0
  0
LINE
  5
3D5
330
1F
100
AcDbEntity
  8
0
 62
     3
100
AcDbLine
 10
1103.02909022023
 20
-23.97140712684088
 30
0.0
 11
1098.039113484947
 21
-25.48510002076662
 31
0.0
  0
LINE
  5
3D6
330
1F
100
AcDbEntity
  8
0
 62
     3
100
AcDbLine
 10
1087.660308353689
 20
-25.48510002076665
 30
0.0
 11
1082.670331618407
 21
-23.97140712684094
 31
0.0
  0
LINE
  5
3D7
330
1F
100
AcDbEntity
  8
0
 62
     3
100
AcDbLine
 10
1098.039113484947
 20
-25.48510002076662
 30
0.0
 11
1092.849710919318
 21
-25.99621156204068
 31
0.0
  0
LINE
  5
3D8
330
1F
100
AcDbEntity
  8
0
 62
     3
100
AcDbLine
 10
1092.849710919318
 20
-25.99621156204068
 30
0.0
 11
1087.660308353689
 21
-25.48510002076665
 31
0.0
  0
LINE
  5
3D9
330
1F
100
AcDbEntity
  8
0
 62
     3
100
AcDbLine
 10
1089.49500623349
 20
-34.47600311352369
 30
0.0
 11
1096.056865829495
 21
-34.46696105450746
 31
0.0
  0
LINE
  5
3DA
330
1F
100
AcDbEntity
  8
0
 62
     3
100
AcDbLine
 10
1122.701276760276
 20
-26.04085433077878
 30
0.0
 11
1121.329320614683
 21
-26.38651738487897
 31
0.0
  0
LINE
  5
3DB
330
1F
100
AcDbEntity
  8
0
 62
     3
100
AcDbLine
 10
1121.329320614683
 20
-26.38651738487897
 30
0.0
 11
1120.491446257861
 21
-27.03548108267685
 31
0.0
  0
LINE
  5
3DC
330
1F
100
AcDbEntity
  8
0
 62
     3
100
AcDbLine
 10
1120.491446257861
 20
-27.03548108267685
 30
0.0
 11
1119.771675371019
 21
-28.21323484046189
 31
0.0
  0
LINE
  5
3DD
330
1F
100
AcDbEntity
  8
0
 62
     3
100
AcDbLine
 10
1119.771675371019
 20
-28.21323484046189
 30
0.0
 11
1119.530266722508
 21
-29.56923093299119
 31
0.0
  0
LINE
  5
3DE
330
1F
100
AcDbEntity
  8
0
 62
     3
100
AcDbLine
 10
1074.040670539756
 20
-18.20525194160288
 30
0.0
 11
1070.73261923207
 21
-14.17437976036214
 31
0.0
  0
LINE
  5
3DF
330
1F
100
AcDbEntity
  8
0
 62
     3
100
AcDbLine
 10
1082.670331618407
 20
-23.97140712684094
 30
0.0
 11
1078.071542720997
 21
-21.51330324928841
 31
0.0
  0
LINE
  5
3E0
330
1F
100
AcDbEntity
  8
0
 62
     3
100
AcDbLine
 10
1078.071542720997
 20
-21.51330324928841
 30
0.0
 11
1074.040670539756
 21
-18.20525194160288
 31
0.0
  0
LINE
  5
3E1
330
1F
100
AcDbEntity
  8
0
 62
     3
100
AcDbLine
 10
1117.424906484118
 20
-9.575590862951997
 30
0.0
 11
1114.966802606566
 21
-14.17437976036203
 31
0.0
  0
LINE
  5
3E2
330
1F
100
AcDbEntity
  8
0
 62
     3
100
AcDbLine
 10
1114.966802606566
 20
-14.17437976036203
 30
0.0
 11
1111.65875129888
 21
-18.20525194160279
 31
0.0
  0
LINE
  5
3E3
330
1F
100
AcDbEntity
  8
0
 62
     3
100
AcDbLine
 10
1107.62787911764
 20
-21.51330324928835
 30
0.0
 11
1103.02909022023
 21
-23.97140712684088
 31
0.0
  0
LINE
  5
3E4
330
1F
100
AcDbEntity
  8
0
 62
     3
100
AcDbLine
 10
1111.65875129888
 20
-18.20525194160279
 30
0.0
 11
1107.62787911764
 21
-21.51330324928835
 31
0.0
  0
LINE
  5
3E5
330
1F
100
AcDbEntity
  8
0
 62
     3
100
AcDbLine
 10
1119.449710919318
 20
0.6037884379593095
 30
0.0
 11
1118.938599378044
 21
-4.5856141276696
 31
0.0
  0
LINE
  5
3E6
330
1F
100
AcDbEntity
  8
0
 62
     3
100
AcDbLine
 10
1118.938599378044
 20
-4.5856141276696
 30
0.0
 11
1117.424906484118
 21
-9.575590862951997
 31
0.0
  0
LINE
  5
3E7
330
1F
100
AcDbEntity
  8
0
 62
     3
100
AcDbLine
 10
1127.929507804284
 20
-2.767765479860401
 30
0.0
 11
1127.920465745268
 21
3.794094116144123
 31
0.0
  0
LINE
  5
3E8
330
1F
100
AcDbEntity
  8
0
 62
     3
100
AcDbLine
 10
1007.245183724626
 20
27.25217920949802
 30
0.0
 11
1062.998148118623
 21
27.25217920949802
 31
0.0
  0
LINE
  5
3E9
330
1F
100
AcDbEntity
  8
0
 62
     3
100
AcDbLine
 10
1002.966979810779
 20
9.770687843155826
 30
0.0
 11
1003.571207043116
 21
19.1981241753283
 31
0.0
  0
LINE
  5
3EA
330
1F
100
AcDbEntity
  8
0
 62
     3
100
AcDbLine
 10
1007.245183724626
 20
27.25217920949802
 30
0.0
 11
1005.935655906139
 21
26.97098760461853
 31
0.0
  0
LINE
  5
3EB
330
1F
100
AcDbEntity
  8
0
 62
     3
100
AcDbLine
 10
1005.935655906139
 20
26.97098760461853
 30
0.0
 11
1005.156670876625
 21
26.41996805740513
 31
0.0
  0
LINE
  5
3EC
330
1F
100
AcDbEntity
  8
0
 62
     3
100
AcDbLine
 10
1005.156670876625
 20
26.41996805740513
 30
0.0
 11
1004.457457804069
 21
25.46229955673919
 31
0.0
  0
LINE
  5
3ED
330
1F
100
AcDbEntity
  8
0
 62
     3
100
AcDbLine
 10
1004.457457804069
 20
25.46229955673919
 30
0.0
 11
1004.101392074104
 21
24.23939320675339
 31
0.0
  0
LINE
  5
3EE
330
1F
100
AcDbEntity
  8
0
 62
     3
100
AcDbLine
 10
1003.571207043116
 20
19.1981241753283
 30
0.0
 11
1004.101392074104
 21
24.23939320675339
 31
0.0
  0
LINE
  5
3EF
330
1F
100
AcDbEntity
  8
0
 62
     3
100
AcDbLine
 10
1119.464271512934
 20
86.14600077884341
 30
0.0
 11
1119.464271512934
 21
30.39303638484722
 31
0.0
  0
LINE
  5
3F0
330
1F
100
AcDbEntity
  8
0
 62
     3
100
AcDbLine
 10
1066.235150325702
 20
30.39303638484722
 30
0.0
 11
1066.235150325702
 21
86.18499751384701
 31
0.0
  0
LINE
  5
3F1
330
1F
100
AcDbEntity
  8
0
 62
     3
100
AcDbLine
 10
1089.62557506321
 20
35.6122284101022
 30
0.0
 11
1089.650617203735
 21
68.26046469294152
 31
0.0
  0
LINE
  5
3F2
330
1F
100
AcDbEntity
  8
0
 62
     3
100
AcDbLine
 10
1096.190325979436
 20
68.26046469294152
 30
0.0
 11
1096.187434659215
 21
35.62127046911843
 31
0.0
  0
LINE
  5
3F3
330
1F
100
AcDbEntity
  8
0
 62
     3
100
AcDbLine
 10
1068.274515354518
 20
10.7831677388707
 30
0.0
 11
1070.73261923207
 21
15.38195663628073
 31
0.0
  0
LINE
  5
3F4
330
1F
100
AcDbEntity
  8
0
 62
     3
100
AcDbLine
 10
1066.760822460592
 20
5.793191003588304
 30
0.0
 11
1068.274515354518
 21
10.7831677388707
 31
0.0
  0
LINE
  5
3F5
330
1F
100
AcDbEntity
  8
0
 62
     3
100
AcDbLine
 10
1062.998145078359
 20
27.24843120669743
 30
0.0
 11
1064.370101223953
 21
27.59409426079765
 31
0.0
  0
LINE
  5
3F6
330
1F
100
AcDbEntity
  8
0
 62
     3
100
AcDbLine
 10
1064.370101223953
 20
27.59409426079765
 30
0.0
 11
1065.207975580775
 21
28.24305795859544
 31
0.0
  0
LINE
  5
3F7
330
1F
100
AcDbEntity
  8
0
 62
     3
100
AcDbLine
 10
1065.207975580775
 20
28.24305795859544
 30
0.0
 11
1065.927746467616
 21
29.4208117163804
 31
0.0
  0
LINE
  5
3F8
330
1F
100
AcDbEntity
  8
0
 62
     3
100
AcDbLine
 10
1065.927746467616
 20
29.4208117163804
 30
0.0
 11
1066.169155116128
 21
30.77680780890972
 31
0.0
  0
LINE
  5
3F9
330
1F
100
AcDbEntity
  8
0
 62
     3
100
AcDbLine
 10
1098.039113484947
 20
26.69267689668521
 30
0.0
 11
1103.029090220229
 21
25.17898400275953
 31
0.0
  0
LINE
  5
3FA
330
1F
100
AcDbEntity
  8
0
 62
     3
100
AcDbLine
 10
1070.73261923207
 20
15.38195663628073
 30
0.0
 11
1074.040670539756
 21
19.41282881752147
 31
0.0
  0
LINE
  5
3FB
330
1F
100
AcDbEntity
  8
0
 62
     3
100
AcDbLine
 10
1082.670331618407
 20
25.17898400275953
 30
0.0
 11
1087.660308353689
 21
26.69267689668521
 31
0.0
  0
LINE
  5
3FC
330
1F
100
AcDbEntity
  8
0
 62
     3
100
AcDbLine
 10
1074.040670539756
 20
19.41282881752147
 30
0.0
 11
1078.071542720997
 21
22.72088012520703
 31
0.0
  0
LINE
  5
3FD
330
1F
100
AcDbEntity
  8
0
 62
     3
100
AcDbLine
 10
1078.071542720997
 20
22.72088012520703
 30
0.0
 11
1082.670331618407
 21
25.17898400275953
 31
0.0
  0
LINE
  5
3FE
330
1F
100
AcDbEntity
  8
0
 62
     3
100
AcDbLine
 10
1092.849710919318
 20
27.2037884379593
 30
0.0
 11
1098.039113484947
 21
26.69267689668521
 31
0.0
  0
LINE
  5
3FF
330
1F
100
AcDbEntity
  8
0
 62
     3
100
AcDbLine
 10
1087.660308353689
 20
26.69267689668521
 30
0.0
 11
1092.849710919318
 21
27.2037884379593
 31
0.0
  0
LINE
  5
400
330
1F
100
AcDbEntity
  8
0
 62
     3
100
AcDbLine
 10
1111.65875129888
 20
19.41282881752147
 30
0.0
 11
1114.966802606566
 21
15.38195663628073
 31
0.0
  0
LINE
  5
401
330
1F
100
AcDbEntity
  8
0
 62
     3
100
AcDbLine
 10
1114.966802606566
 20
15.38195663628073
 30
0.0
 11
1117.424906484118
 21
10.7831677388707
 31
0.0
  0
LINE
  5
402
330
1F
100
AcDbEntity
  8
0
 62
     3
100
AcDbLine
 10
1117.424906484118
 20
10.7831677388707
 30
0.0
 11
1118.938599378044
 21
5.793191003588304
 31
0.0
  0
LINE
  5
403
330
1F
100
AcDbEntity
  8
0
 62
     3
100
AcDbLine
 10
1107.627879117639
 20
22.72088012520697
 30
0.0
 11
1111.65875129888
 21
19.41282881752147
 31
0.0
  0
LINE
  5
404
330
1F
100
AcDbEntity
  8
0
 62
     3
100
AcDbLine
 10
1103.029090220229
 20
25.17898400275953
 30
0.0
 11
1107.627879117639
 21
22.72088012520697
 31
0.0
  0
LINE
  5
405
330
1F
100
AcDbEntity
  8
0
 62
     3
100
AcDbLine
 10
1119.460523510133
 20
30.39303942511031
 30
0.0
 11
1119.806186564233
 21
29.02108327951691
 31
0.0
  0
LINE
  5
406
330
1F
100
AcDbEntity
  8
0
 62
     3
100
AcDbLine
 10
1119.806186564233
 20
29.02108327951691
 30
0.0
 11
1120.455150262031
 21
28.18320892269503
 31
0.0
  0
LINE
  5
407
330
1F
100
AcDbEntity
  8
0
 62
     3
100
AcDbLine
 10
1120.455150262031
 20
28.18320892269503
 30
0.0
 11
1121.632904019816
 21
27.46343803585318
 31
0.0
  0
LINE
  5
408
330
1F
100
AcDbEntity
  8
0
 62
     3
100
AcDbLine
 10
1121.632904019816
 20
27.46343803585318
 30
0.0
 11
1122.988900112345
 21
27.22202938734153
 31
0.0
  0
LINE
  5
409
330
1F
100
AcDbEntity
  8
0
 62
     3
100
AcDbLine
 10
1096.187434659215
 20
35.62127046911843
 30
0.0
 11
1089.62557506321
 21
35.6122284101022
 31
0.0
  0
LINE
  5
40A
330
1F
100
AcDbEntity
  8
0
 62
     3
100
AcDbLine
 10
1069.326765309839
 20
89.29025101733191
 30
0.0
 11
1074.825050718129
 21
89.85515535682726
 31
0.0
  0
LINE
  5
40B
330
1F
100
AcDbEntity
  8
0
 62
     3
100
AcDbLine
 10
1066.235150325702
 20
86.18499751384701
 30
0.0
 11
1066.491415294395
 21
87.3323332130119
 31
0.0
  0
LINE
  5
40C
330
1F
100
AcDbEntity
  8
0
 62
     3
100
AcDbLine
 10
1066.491415294395
 20
87.3323332130119
 30
0.0
 11
1067.080802284787
 21
88.2055674640398
 31
0.0
  0
LINE
  5
40D
330
1F
100
AcDbEntity
  8
0
 62
     3
100
AcDbLine
 10
1067.080802284787
 20
88.2055674640398
 30
0.0
 11
1068.11122772079
 21
88.94704092622191
 31
0.0
  0
LINE
  5
40E
330
1F
100
AcDbEntity
  8
0
 62
     3
100
AcDbLine
 10
1068.11122772079
 20
88.94704092622191
 30
0.0
 11
1069.326765309839
 21
89.29025101733191
 31
0.0
  0
LINE
  5
40F
330
1F
100
AcDbEntity
  8
0
 62
     3
100
AcDbLine
 10
1092.788262422615
 20
90.61504032100311
 30
0.0
 11
1101.982780146592
 21
90.42420469269007
 31
0.0
  0
LINE
  5
410
330
1F
100
AcDbEntity
  8
0
 62
     3
100
AcDbLine
 10
1089.650617203735
 20
68.26046469294152
 30
0.0
 11
1096.190325979436
 21
68.26046469294152
 31
0.0
  0
LINE
  5
411
330
1F
100
AcDbEntity
  8
0
 62
     3
100
AcDbLine
 10
1083.347186573149
 20
90.40291093456238
 30
0.0
 11
1092.788262422615
 21
90.61504032100311
 31
0.0
  0
LINE
  5
412
330
1F
100
AcDbEntity
  8
0
 62
     3
100
AcDbLine
 10
1074.825050718129
 20
89.85515535682726
 30
0.0
 11
1083.347186573149
 21
90.40291093456238
 31
0.0
  0
LINE
  5
413
330
1F
100
AcDbEntity
  8
0
 62
     3
100
AcDbLine
 10
1117.674391860175
 20
88.93372669940072
 30
0.0
 11
1116.451485510189
 21
89.28979242936561
 31
0.0
  0
LINE
  5
414
330
1F
100
AcDbEntity
  8
0
 62
     3
100
AcDbLine
 10
1111.410216478764
 20
89.8199774603529
 30
0.0
 11
1116.451485510189
 21
89.28979242936561
 31
0.0
  0
LINE
  5
415
330
1F
100
AcDbEntity
  8
0
 62
     3
100
AcDbLine
 10
1101.982780146592
 20
90.42420469269007
 30
0.0
 11
1111.410216478764
 21
89.8199774603529
 31
0.0
  0
LINE
  5
416
330
1F
100
AcDbEntity
  8
0
 62
     3
100
AcDbLine
 10
1119.464271512934
 20
86.14600077884341
 30
0.0
 11
1119.183079908054
 21
87.45552859733038
 31
0.0
  0
LINE
  5
417
330
1F
100
AcDbEntity
  8
0
 62
     3
100
AcDbLine
 10
1119.183079908054
 20
87.45552859733038
 30
0.0
 11
1118.632060360841
 21
88.23451362684471
 31
0.0
  0
LINE
  5
418
330
1F
100
AcDbEntity
  8
0
 62
     3
100
AcDbLine
 10
1118.632060360841
 20
88.23451362684471
 30
0.0
 11
1117.674391860175
 21
88.93372669940072
 31
0.0
  0
LINE
  5
419
330
1F
100
AcDbEntity
  8
0
 62
     3
100
AcDbLine
 10
1182.711148269729
 20
10.07248260620502
 30
0.0
 11
1182.923277656169
 21
0.6314067567392954
 31
0.0
  0
LINE
  5
41A
330
1F
100
AcDbEntity
  8
0
 62
     3
100
AcDbLine
 10
1181.241964034567
 20
-24.2547226808206
 30
0.0
 11
1181.598029764532
 21
-23.03181633083477
 31
0.0
  0
LINE
  5
41B
330
1F
100
AcDbEntity
  8
0
 62
     3
100
AcDbLine
 10
1179.763765932496
 20
-25.76341072869988
 30
0.0
 11
1180.542750962011
 21
-25.21239118148659
 31
0.0
  0
LINE
  5
41C
330
1F
100
AcDbEntity
  8
0
 62
     3
100
AcDbLine
 10
1178.454238114009
 20
-26.04460233357946
 30
0.0
 11
1179.763765932496
 21
-25.76341072869988
 31
0.0
  0
LINE
  5
41D
330
1F
100
AcDbEntity
  8
0
 62
     3
100
AcDbLine
 10
1180.542750962011
 20
-25.21239118148659
 30
0.0
 11
1181.241964034567
 21
-24.2547226808206
 31
0.0
  0
LINE
  5
41E
330
1F
100
AcDbEntity
  8
0
 62
     3
100
AcDbLine
 10
1160.568702028108
 20
3.76905197561922
 30
0.0
 11
1160.568702028108
 21
-2.770656800081809
 31
0.0
  0
LINE
  5
41F
330
1F
100
AcDbEntity
  8
0
 62
     3
100
AcDbLine
 10
1182.732442027856
 20
-8.563110967237292
 30
0.0
 11
1182.128214795519
 21
-17.99054729940968
 31
0.0
  0
LINE
  5
420
330
1F
100
AcDbEntity
  8
0
 62
     3
100
AcDbLine
 10
1182.128214795519
 20
-17.99054729940968
 30
0.0
 11
1181.598029764532
 21
-23.03181633083477
 31
0.0
  0
LINE
  5
421
330
1F
100
AcDbEntity
  8
0
 62
     3
100
AcDbLine
 10
1182.923277656169
 20
0.6314067567392954
 30
0.0
 11
1182.732442027856
 21
-8.563110967237292
 31
0.0
  0
LINE
  5
422
330
1F
100
AcDbEntity
  8
0
 62
     3
100
AcDbLine
 10
1181.598488352498
 20
24.0929038695146
 30
0.0
 11
1182.163392691993
 21
18.5946184612253
 31
0.0
  0
LINE
  5
423
330
1F
100
AcDbEntity
  8
0
 62
     3
100
AcDbLine
 10
1182.163392691993
 20
18.5946184612253
 30
0.0
 11
1182.711148269729
 21
10.07248260620502
 31
0.0
  0
LINE
  5
424
330
1F
100
AcDbEntity
  8
0
 62
     3
100
AcDbLine
 10
1179.640570548178
 20
26.92825388495953
 30
0.0
 11
1180.513804799206
 21
26.33886689456687
 31
0.0
  0
LINE
  5
425
330
1F
100
AcDbEntity
  8
0
 62
     3
100
AcDbLine
 10
1178.493234849013
 20
27.18451885365221
 30
0.0
 11
1179.640570548178
 21
26.92825388495953
 31
0.0
  0
LINE
  5
426
330
1F
100
AcDbEntity
  8
0
 62
     3
100
AcDbLine
 10
1180.513804799206
 20
26.33886689456687
 30
0.0
 11
1181.255278261388
 21
25.30844145856411
 31
0.0
  0
LINE
  5
427
330
1F
100
AcDbEntity
  8
0
 62
     3
100
AcDbLine
 10
1181.255278261388
 20
25.30844145856411
 30
0.0
 11
1181.598488352498
 21
24.09290386951477
 31
0.0
  0
ENDSEC
  0
SECTION
  2
OBJECTS
  0
DICTIONARY
  5
C
330
0
100
AcDbDictionary
  3
ACAD_GROUP
350
D
  3
ACAD_LAYOUT
350
1A
  3
ACAD_MLINESTYLE
350
17
  3
ACAD_PLOTSETTINGS
350
19
  3
ACAD_PLOTSTYLENAME
350
E
  3
ACDBHEADERROUNDTRIPXREC
350
429
  3
ACDBVARIABLEDICTIONARY
350
5E
  0
DICTIONARY
  5
44A
330
1F
100
AcDbDictionary
280
     1
  3
ACAD_LAYOUTSELFREF
360
44B
  0
DICTIONARY
  5
44C
330
50
100
AcDbDictionary
280
     1
  3
ACAD_LAYOUTSELFREF
360
44D
  0
DICTIONARY
  5
D
102
{ACAD_REACTORS
330
C
102
}
330
C
100
AcDbDictionary
  0
DICTIONARY
  5
1A
102
{ACAD_REACTORS
330
C
102
}
330
C
100
AcDbDictionary
  0
DICTIONARY
  5
17
102
{ACAD_REACTORS
330
C
102
}
330
C
100
AcDbDictionary
  3
STANDARD
350
18
  0
DICTIONARY
  5
19
102
{ACAD_REACTORS
330
C
102
}
330
C
100
AcDbDictionary
  0
ACDBDICTIONARYWDFLT
  5
E
102
{ACAD_REACTORS
330
C
102
}
330
C
100
AcDbDictionary
281
     1
  3
Normal
350
F
100
AcDbDictionaryWithDefault
340
F
  0
DICTIONARY
  5
429
102
{ACAD_REACTORS
330
C
102
}
330
C
100
AcDbDictionary
  3
CEPSNTYPE
350
433
  3
DIMSTYLEDATA
350
437
  3
FINGERPRINTGUID
350
434
  3
HYPERLINKBASE
350
42C
  3
INSUNITS
350
432
  3
LAYOUTDICT
350
42E
  3
LWETCUNION
350
431
  3
PLOTSETDICT
350
42F
  3
PLOTSTYLNAMDICT
350
430
  3
PSVPSCALE
350
436
  3
PUCSBASE
350
43A
  3
PUCSORGBACK
350
440
  3
PUCSORGBOTTOM
350
43C
  3
PUCSORGFRONT
350
43F
  3
PUCSORGLEFT
350
43D
  3
PUCSORGRIGHT
350
43E
  3
PUCSORGTOP
350
43B
  3
PUCSORTHOREF
350
438
  3
PUCSORTHOVIEW
350
439
  3
STYLESHEET
350
42D
  3
TSTACKALIGN
350
42A
  3
TSTACKSIZE
350
42B
  3
UCSBASE
350
443
  3
UCSORGBACK
350
449
  3
UCSORGBOTTOM
350
445
  3
UCSORGFRONT
350
448
  3
UCSORGLEFT
350
446
  3
UCSORGRIGHT
350
447
  3
UCSORGTOP
350
444
  3
UCSORTHOREF
350
441
  3
UCSORTHOVIEW
350
442
  3
VERSIONGUID
350
435
  0
DICTIONARY
  5
5E
102
{ACAD_REACTORS
330
C
102
}
330
C
100
AcDbDictionary
  3
DIMASSOC
350
5F
  3
HIDETEXT
350
63
  0
XRECORD
  5
44B
102
{ACAD_REACTORS
330
44A
102
}
330
44A
100
AcDbXrecord
340
1F
  0
XRECORD
  5
44D
102
{ACAD_REACTORS
330
44C
102
}
330
44C
100
AcDbXrecord
340
50
  0
MLINESTYLE
  5
18
102
{ACAD_REACTORS
330
17
102
}
330
17
100
AcDbMlineStyle
  2
STANDARD
 70
     0
  3

 62
   256
 51
90.0
 52
90.0
 71
     2
 49
0.5
 62
   256
  6
BYLAYER
 49
-0.5
 62
   256
  6
BYLAYER
  0
ACDBPLACEHOLDER
  5
F
102
{ACAD_REACTORS
330
E
102
}
330
E
100
AcDbPlaceHolder
280
     0
  0
XRECORD
  5
433
102
{ACAD_REACTORS
330
429
102
}
330
429
100
AcDbXrecord
 90
        0
  0
XRECORD
  5
437
102
{ACAD_REACTORS
330
429
102
}
330
429
100
AcDbXrecord
1000
DSTYLE
1002
{
1070
   278
 70
    44
1002
}
  0
XRECORD
  5
434
102
{ACAD_REACTORS
330
429
102
}
330
429
100
AcDbXrecord
  1
{FDEAD578-A652-11D2-9A35-0060089B3A3F}
  0
XRECORD
  5
42C
102
{ACAD_REACTORS
330
429
102
}
330
429
100
AcDbXrecord
  1

  0
XRECORD
  5
432
102
{ACAD_REACTORS
330
429
102
}
330
429
100
AcDbXrecord
 90
        4
  0
XRECORD
  5
42E
102
{ACAD_REACTORS
330
429
102
}
330
429
100
AcDbXrecord
340
1A
  0
XRECORD
  5
431
102
{ACAD_REACTORS
330
429
102
}
330
429
100
AcDbXrecord
 90
    10781
  0
XRECORD
  5
42F
102
{ACAD_REACTORS
330
429
102
}
330
429
100
AcDbXrecord
340
19
  0
XRECORD
  5
430
102
{ACAD_REACTORS
330
429
102
}
330
429
100
AcDbXrecord
340
E
  0
XRECORD
  5
436
102
{ACAD_REACTORS
330
429
102
}
330
429
100
AcDbXrecord
 40
0.0
  0
XRECORD
  5
43A
102
{ACAD_REACTORS
330
429
102
}
330
429
100
AcDbXrecord
340
0
  0
XRECORD
  5
440
102
{ACAD_REACTORS
330
429
102
}
330
429
100
AcDbXrecord
 10
0.0
 20
0.0
 30
0.0
  0
XRECORD
  5
43C
102
{ACAD_REACTORS
330
429
102
}
330
429
100
AcDbXrecord
 10
0.0
 20
0.0
 30
0.0
  0
XRECORD
  5
43F
102
{ACAD_REACTORS
330
429
102
}
330
429
100
AcDbXrecord
 10
0.0
 20
0.0
 30
0.0
  0
XRECORD
  5
43D
102
{ACAD_REACTORS
330
429
102
}
330
429
100
AcDbXrecord
 10
0.0
 20
0.0
 30
0.0
  0
XRECORD
  5
43E
102
{ACAD_REACTORS
330
429
102
}
330
429
100
AcDbXrecord
 10
0.0
 20
0.0
 30
0.0
  0
XRECORD
  5
43B
102
{ACAD_REACTORS
330
429
102
}
330
429
100
AcDbXrecord
 10
0.0
 20
0.0
 30
0.0
  0
XRECORD
  5
438
102
{ACAD_REACTORS
330
429
102
}
330
429
100
AcDbXrecord
340
0
  0
XRECORD
  5
439
102
{ACAD_REACTORS
330
429
102
}
330
429
100
AcDbXrecord
 70
     0
  0
XRECORD
  5
42D
102
{ACAD_REACTORS
330
429
102
}
330
429
100
AcDbXrecord
  1

  0
XRECORD
  5
42A
102
{ACAD_REACTORS
330
429
102
}
330
429
100
AcDbXrecord
 90
        1
  0
XRECORD
  5
42B
102
{ACAD_REACTORS
330
429
102
}
330
429
100
AcDbXrecord
 90
       70
  0
XRECORD
  5
443
102
{ACAD_REACTORS
330
429
102
}
330
429
100
AcDbXrecord
340
0
  0
XRECORD
  5
449
102
{ACAD_REACTORS
330
429
102
}
330
429
100
AcDbXrecord
 10
0.0
 20
0.0
 30
0.0
  0
XRECORD
  5
445
102
{ACAD_REACTORS
330
429
102
}
330
429
100
AcDbXrecord
 10
0.0
 20
0.0
 30
0.0
  0
XRECORD
  5
448
102
{ACAD_REACTORS
330
429
102
}
330
429
100
AcDbXrecord
 10
0.0
 20
0.0
 30
0.0
  0
XRECORD
  5
446
102
{ACAD_REACTORS
330
429
102
}
330
429
100
AcDbXrecord
 10
0.0
 20
0.0
 30
0.0
  0
XRECORD
  5
447
102
{ACAD_REACTORS
330
429
102
}
330
429
100
AcDbXrecord
 10
0.0
 20
0.0
 30
0.0
  0
XRECORD
  5
444
102
{ACAD_REACTORS
330
429
102
}
330
429
100
AcDbXrecord
 10
0.0
 20
0.0
 30
0.0
  0
XRECORD
  5
441
102
{ACAD_REACTORS
330
429
102
}
330
429
100
AcDbXrecord
340
0
  0
XRECORD
  5
442
102
{ACAD_REACTORS
330
429
102
}
330
429
100
AcDbXrecord
 70
     0
  0
XRECORD
  5
435
102
{ACAD_REACTORS
330
429
102
}
330
429
100
AcDbXrecord
  1
{8951423E-FA79-4B42-B720-037FC68A8935}
  0
DICTIONARYVAR
  5
5F
102
{ACAD_REACTORS
330
5E
102
}
330
5E
100
DictionaryVariables
280
     0
  1
2
  0
DICTIONARYVAR
  5
63
102
{ACAD_REACTORS
330
5E
102
}
330
5E
100
DictionaryVariables
280
     0
  1
1
  0
ENDSEC
  0
EOF
