  0
SECTION
  2
HEADER
  9
$ACADVER
  1
AC1015
  9
$ACADMAINTVER
 70
    13
  9
$DWGCODEPAGE
  3
ANSI_1252
  9
$INSBASE
 10
0.0
 20
0.0
 30
0.0
  9
$EXTMIN
 10
-100.5122811395835
 20
-98.64701870466664
 30
0.0
  9
$EXTMAX
 10
99.48771886041653
 20
101.3529812953333
 30
0.0
  9
$LIMMIN
 10
0.0
 20
0.0
  9
$LIMMAX
 10
420.0
 20
297.0
  9
$ORTHOMODE
 70
     0
  9
$REGENMODE
 70
     1
  9
$FILLMODE
 70
     1
  9
$QTEXTMODE
 70
     0
  9
$MIRRTEXT
 70
     1
  9
$LTSCALE
 40
1.0
  9
$ATTMODE
 70
     1
  9
$TEXTSIZE
 40
2.5
  9
$TRACEWID
 40
1.0
  9
$TEXTSTYLE
  7
Standard
  9
$CLAYER
  8
0
  9
$CELTYPE
  6
ByLayer
  9
$CECOLOR
 62
   256
  9
$CELTSCALE
 40
1.0
  9
$DISPSILH
 70
     0
  9
$DIMSCALE
 40
1.0
  9
$DIMASZ
 40
2.5
  9
$DIMEXO
 40
0.625
  9
$DIMDLI
 40
3.75
  9
$DIMRND
 40
0.0
  9
$DIMDLE
 40
0.0
  9
$DIMEXE
 40
1.25
  9
$DIMTP
 40
0.0
  9
$DIMTM
 40
0.0
  9
$DIMTXT
 40
2.5
  9
$DIMCEN
 40
2.5
  9
$DIMTSZ
 40
0.0
  9
$DIMTOL
 70
     0
  9
$DIMLIM
 70
     0
  9
$DIMTIH
 70
     0
  9
$DIMTOH
 70
     0
  9
$DIMSE1
 70
     0
  9
$DIMSE2
 70
     0
  9
$DIMTAD
 70
     1
  9
$DIMZIN
 70
     8
  9
$DIMBLK
  1

  9
$DIMASO
 70
     1
  9
$DIMSHO
 70
     1
  9
$DIMPOST
  1

  9
$DIMAPOST
  1

  9
$DIMALT
 70
     0
  9
$DIMALTD
 70
     3
  9
$DIMALTF
 40
0.03937007874016
  9
$DIMLFAC
 40
1.0
  9
$DIMTOFL
 70
     1
  9
$DIMTVP
 40
0.0
  9
$DIMTIX
 70
     0
  9
$DIMSOXD
 70
     0
  9
$DIMSAH
 70
     0
  9
$DIMBLK1
  1

  9
$DIMBLK2
  1

  9
$DIMSTYLE
  2
ISO-25
  9
$DIMCLRD
 70
     0
  9
$DIMCLRE
 70
     0
  9
$DIMCLRT
 70
     0
  9
$DIMTFAC
 40
1.0
  9
$DIMGAP
 40
0.625
  9
$DIMJUST
 70
     0
  9
$DIMSD1
 70
     0
  9
$DIMSD2
 70
     0
  9
$DIMTOLJ
 70
     0
  9
$DIMTZIN
 70
     8
  9
$DIMALTZ
 70
     0
  9
$DIMALTTZ
 70
     0
  9
$DIMUPT
 70
     0
  9
$DIMDEC
 70
     2
  9
$DIMTDEC
 70
     2
  9
$DIMALTU
 70
     2
  9
$DIMALTTD
 70
     3
  9
$DIMTXSTY
  7
Standard
  9
$DIMAUNIT
 70
     0
  9
$DIMADEC
 70
     0
  9
$DIMALTRND
 40
0.0
  9
$DIMAZIN
 70
     0
  9
$DIMDSEP
 70
    44
  9
$DIMATFIT
 70
     3
  9
$DIMFRAC
 70
     0
  9
$DIMLDRBLK
  1

  9
$DIMLUNIT
 70
     2
  9
$DIMLWD
 70
    -2
  9
$DIMLWE
 70
    -2
  9
$DIMTMOVE
 70
     0
  9
$LUNITS
 70
     2
  9
$LUPREC
 70
     4
  9
$SKETCHINC
 40
1.0
  9
$FILLETRAD
 40
10.0
  9
$AUNITS
 70
     0
  9
$AUPREC
 70
     0
  9
$MENU
  1
.
  9
$ELEVATION
 40
0.0
  9
$PELEVATION
 40
0.0
  9
$THICKNESS
 40
0.0
  9
$LIMCHECK
 70
     0
  9
$CHAMFERA
 40
10.0
  9
$CHAMFERB
 40
10.0
  9
$CHAMFERC
 40
20.0
  9
$CHAMFERD
 40
0.0
  9
$SKPOLY
 70
     0
  9
$TDCREATE
 40
2454278.508059167
  9
$TDUCREATE
 40
2454278.424725833
  9
$TDUPDATE
 40
2454278.508678819
  9
$TDUUPDATE
 40
2454278.425345485
  9
$TDINDWG
 40
0.0006200231
  9
$TDUSRTIMER
 40
0.0006200231
  9
$USRTIMER
 70
     1
  9
$ANGBASE
 50
0.0
  9
$ANGDIR
 70
     0
  9
$PDMODE
 70
     0
  9
$PDSIZE
 40
0.0
  9
$PLINEWID
 40
0.0
  9
$SPLFRAME
 70
     0
  9
$SPLINETYPE
 70
     6
  9
$SPLINESEGS
 70
     8
  9
$HANDSEED
  5
141
  9
$SURFTAB1
 70
     6
  9
$SURFTAB2
 70
     6
  9
$SURFTYPE
 70
     6
  9
$SURFU
 70
     6
  9
$SURFV
 70
     6
  9
$UCSBASE
  2

  9
$UCSNAME
  2

  9
$UCSORG
 10
0.0
 20
0.0
 30
0.0
  9
$UCSXDIR
 10
1.0
 20
0.0
 30
0.0
  9
$UCSYDIR
 10
0.0
 20
1.0
 30
0.0
  9
$UCSORTHOREF
  2

  9
$UCSORTHOVIEW
 70
     0
  9
$UCSORGTOP
 10
0.0
 20
0.0
 30
0.0
  9
$UCSORGBOTTOM
 10
0.0
 20
0.0
 30
0.0
  9
$UCSORGLEFT
 10
0.0
 20
0.0
 30
0.0
  9
$UCSORGRIGHT
 10
0.0
 20
0.0
 30
0.0
  9
$UCSORGFRONT
 10
0.0
 20
0.0
 30
0.0
  9
$UCSORGBACK
 10
0.0
 20
0.0
 30
0.0
  9
$PUCSBASE
  2

  9
$PUCSNAME
  2

  9
$PUCSORG
 10
0.0
 20
0.0
 30
0.0
  9
$PUCSXDIR
 10
1.0
 20
0.0
 30
0.0
  9
$PUCSYDIR
 10
0.0
 20
1.0
 30
0.0
  9
$PUCSORTHOREF
  2

  9
$PUCSORTHOVIEW
 70
     0
  9
$PUCSORGTOP
 10
0.0
 20
0.0
 30
0.0
  9
$PUCSORGBOTTOM
 10
0.0
 20
0.0
 30
0.0
  9
$PUCSORGLEFT
 10
0.0
 20
0.0
 30
0.0
  9
$PUCSORGRIGHT
 10
0.0
 20
0.0
 30
0.0
  9
$PUCSORGFRONT
 10
0.0
 20
0.0
 30
0.0
  9
$PUCSORGBACK
 10
0.0
 20
0.0
 30
0.0
  9
$USERI1
 70
     0
  9
$USERI2
 70
     0
  9
$USERI3
 70
     0
  9
$USERI4
 70
     0
  9
$USERI5
 70
     0
  9
$USERR1
 40
0.0
  9
$USERR2
 40
0.0
  9
$USERR3
 40
0.0
  9
$USERR4
 40
0.0
  9
$USERR5
 40
0.0
  9
$WORLDVIEW
 70
     1
  9
$SHADEDGE
 70
     3
  9
$SHADEDIF
 70
    70
  9
$TILEMODE
 70
     1
  9
$MAXACTVP
 70
    64
  9
$PINSBASE
 10
0.0
 20
0.0
 30
0.0
  9
$PLIMCHECK
 70
     0
  9
$PEXTMIN
 10
0.0
 20
0.0
 30
0.0
  9
$PEXTMAX
 10
0.0
 20
0.0
 30
0.0
  9
$PLIMMIN
 10
0.0
 20
0.0
  9
$PLIMMAX
 10
12.0
 20
9.0
  9
$UNITMODE
 70
     0
  9
$VISRETAIN
 70
     1
  9
$PLINEGEN
 70
     0
  9
$PSLTSCALE
 70
     1
  9
$TREEDEPTH
 70
  3020
  9
$CMLSTYLE
  2
Standard
  9
$CMLJUST
 70
     0
  9
$CMLSCALE
 40
20.0
  9
$PROXYGRAPHICS
 70
     1
  9
$MEASUREMENT
 70
     1
  9
$CELWEIGHT
370
    -1
  9
$ENDCAPS
280
     0
  9
$JOINSTYLE
280
     0
  9
$LWDISPLAY
290
     0
  9
$INSUNITS
 70
     4
  9
$HYPERLINKBASE
  1

  9
$STYLESHEET
  1

  9
$XEDIT
290
     1
  9
$CEPSNTYPE
380
     0
  9
$PSTYLEMODE
290
     1
  9
$FINGERPRINTGUID
  2
{FDEAD578-A652-11D2-9A35-0060089B3A3F}
  9
$VERSIONGUID
  2
{CDD989D7-D701-4877-956F-05C2948B11B7}
  9
$EXTNAMES
290
     1
  9
$PSVPSCALE
 40
0.0
  9
$OLESTARTUP
290
     0
  0
ENDSEC
  0
SECTION
  2
CLASSES
  0
CLASS
  1
ACDBDICTIONARYWDFLT
  2
AcDbDictionaryWithDefault
  3
AutoCAD 2000
 90
        0
280
     0
281
     0
  0
CLASS
  1
ACDBPLACEHOLDER
  2
AcDbPlaceHolder
  3
AutoCAD 2000
 90
        0
280
     0
281
     0
  0
CLASS
  1
LAYOUT
  2
AcDbLayout
  3
AutoCAD 2000
 90
        0
280
     0
281
     0
  0
CLASS
  1
DICTIONARYVAR
  2
AcDbDictionaryVar
  3
AutoCAD 2000
 90
        0
280
     0
281
     0
  0
ENDSEC
  0
SECTION
  2
TABLES
  0
TABLE
  2
VPORT
  5
8
330
0
100
AcDbSymbolTable
 70
     2
  0
VPORT
  5
140
330
8
100
AcDbSymbolTableRecord
100
AcDbViewportTableRecord
  2
*Active
 70
     0
 10
0.0
 20
0.0
 11
1.0
 21
1.0
 12
293.6170450170403
 22
121.0062583895327
 13
0.0
 23
0.0
 14
10.0
 24
10.0
 15
10.0
 25
10.0
 16
0.0
 26
0.0
 36
1.0
 17
0.0
 27
0.0
 37
0.0
 40
1248.498985567487
 41
1.243935309973045
 42
50.0
 43
0.0
 44
0.0
 50
0.0
 51
0.0
 71
     0
 72
   100
 73
     1
 74
     3
 75
     0
 76
     0
 77
     0
 78
     0
281
     0
 65
     1
110
0.0
120
0.0
130
0.0
111
1.0
121
0.0
131
0.0
112
0.0
122
1.0
132
0.0
 79
     0
146
0.0
  0
ENDTAB
  0
TABLE
  2
LTYPE
  5
5
330
0
100
AcDbSymbolTable
 70
     1
  0
LTYPE
  5
14
330
5
100
AcDbSymbolTableRecord
100
AcDbLinetypeTableRecord
  2
ByBlock
 70
     0
  3

 72
    65
 73
     0
 40
0.0
  0
LTYPE
  5
15
330
5
100
AcDbSymbolTableRecord
100
AcDbLinetypeTableRecord
  2
ByLayer
 70
     0
  3

 72
    65
 73
     0
 40
0.0
  0
LTYPE
  5
16
330
5
100
AcDbSymbolTableRecord
100
AcDbLinetypeTableRecord
  2
Continuous
 70
     0
  3
Solid line
 72
    65
 73
     0
 40
0.0
  0
ENDTAB
  0
TABLE
  2
LAYER
  5
2
330
0
100
AcDbSymbolTable
 70
     1
  0
LAYER
  5
10
330
2
100
AcDbSymbolTableRecord
100
AcDbLayerTableRecord
  2
0
 70
     0
 62
     7
  6
Continuous
370
    -3
390
F
  0
ENDTAB
  0
TABLE
  2
STYLE
  5
3
330
0
100
AcDbSymbolTable
 70
     1
  0
STYLE
  5
11
330
3
100
AcDbSymbolTableRecord
100
AcDbTextStyleTableRecord
  2
Standard
 70
     0
 40
0.0
 41
1.0
 50
0.0
 71
     0
 42
2.5
  3
txt
  4

  0
ENDTAB
  0
TABLE
  2
VIEW
  5
6
330
0
100
AcDbSymbolTable
 70
     0
  0
ENDTAB
  0
TABLE
  2
UCS
  5
7
330
0
100
AcDbSymbolTable
 70
     0
  0
ENDTAB
  0
TABLE
  2
APPID
  5
9
330
0
100
AcDbSymbolTable
 70
     1
  0
APPID
  5
12
330
9
100
AcDbSymbolTableRecord
100
AcDbRegAppTableRecord
  2
ACAD
 70
     0
  0
ENDTAB
  0
TABLE
  2
DIMSTYLE
  5
A
330
0
100
AcDbSymbolTable
 70
     1
100
AcDbDimStyleTable
 71
     0
  0
DIMSTYLE
105
27
330
A
100
AcDbSymbolTableRecord
100
AcDbDimStyleTableRecord
  2
ISO-25
 70
     0
 41
2.5
 42
0.625
 43
3.75
 44
1.25
 73
     0
 74
     0
 77
     1
 78
     8
140
2.5
141
2.5
143
0.03937007874016
147
0.625
171
     3
172
     1
271
     2
272
     2
274
     3
278
    44
283
     0
284
     8
340
11
  0
ENDTAB
  0
TABLE
  2
BLOCK_RECORD
  5
1
330
0
100
AcDbSymbolTable
 70
     2
  0
BLOCK_RECORD
  5
1F
330
1
100
AcDbSymbolTableRecord
100
AcDbBlockTableRecord
  2
*Model_Space
340
22
  0
BLOCK_RECORD
  5
50
330
1
100
AcDbSymbolTableRecord
100
AcDbBlockTableRecord
  2
*Paper_Space
340
51
  0
BLOCK_RECORD
  5
55
330
1
100
AcDbSymbolTableRecord
100
AcDbBlockTableRecord
  2
*Paper_Space0
340
56
  0
ENDTAB
  0
ENDSEC
  0
SECTION
  2
BLOCKS
  0
BLOCK
  5
20
330
1F
100
AcDbEntity
  8
0
100
AcDbBlockBegin
  2
*Model_Space
 70
     0
 10
0.0
 20
0.0
 30
0.0
  3
*Model_Space
  1

  0
ENDBLK
  5
21
330
1F
100
AcDbEntity
  8
0
100
AcDbBlockEnd
  0
BLOCK
  5
52
330
50
100
AcDbEntity
 67
     1
  8
0
100
AcDbBlockBegin
  2
*Paper_Space
 70
     0
 10
0.0
 20
0.0
 30
0.0
  3
*Paper_Space
  1

  0
ENDBLK
  5
53
330
50
100
AcDbEntity
 67
     1
  8
0
100
AcDbBlockEnd
  0
BLOCK
  5
57
330
55
100
AcDbEntity
  8
0
100
AcDbBlockBegin
  2
*Paper_Space0
 70
     0
 10
0.0
 20
0.0
 30
0.0
  3
*Paper_Space0
  1

  0
ENDBLK
  5
58
330
55
100
AcDbEntity
  8
0
100
AcDbBlockEnd
  0
ENDSEC
  0
SECTION
  2
ENTITIES
  0
LINE
  5
D8
330
1F
100
AcDbEntity
  8
0
 62
     3
100
AcDbLine
 10
-50.77132770819742
 20
-19.46499742532759
 30
0.0
 11
-53.86700039351916
 21
-9.259932222344104
 31
0.0
  0
LINE
  5
D9
330
1F
100
AcDbEntity
  8
0
 62
     3
100
AcDbLine
 10
-50.4004578777361
 20
-31.98123268584285
 30
0.0
 11
-55.94505309026061
 21
-21.60802464657209
 31
0.0
  0
LINE
  5
DA
330
1F
100
AcDbEntity
  8
0
 62
     3
100
AcDbLine
 10
-38.7806243760923
 20
-91.03497195579544
 30
0.0
 11
-56.06930444154357
 21
-81.79397993492129
 31
0.0
  0
LINE
  5
DB
330
1F
100
AcDbEntity
  8
0
 62
     3
100
AcDbLine
 10
-56.06930444154369
 20
84.49994252558793
 30
0.0
 11
-38.78062437609247
 21
93.74093454646208
 31
0.0
  0
LINE
  5
DC
330
1F
100
AcDbEntity
  8
0
 62
     3
100
AcDbLine
 10
-53.86700039351916
 20
11.96589481301072
 30
0.0
 11
-50.77132770819744
 21
22.17096001599423
 31
0.0
  0
LINE
  5
DD
330
1F
100
AcDbEntity
  8
0
 62
     3
100
AcDbLine
 10
-55.94505309026067
 20
24.31398723723873
 30
0.0
 11
-50.40045787773616
 21
34.68719527650944
 31
0.0
  0
LINE
  5
DE
330
1F
100
AcDbEntity
  8
0
 62
     3
100
AcDbLine
 10
-92.90023439071212
 20
-36.91536194117574
 30
0.0
 11
-98.59080917990652
 21
-18.1560509062796
 31
0.0
  0
LINE
  5
DF
330
1F
100
AcDbEntity
  8
0
 62
     3
100
AcDbLine
 10
-83.65924236983794
 20
-54.20404200662702
 30
0.0
 11
-92.90023439071212
 21
-36.91536194117574
 31
0.0
  0
LINE
  5
E0
330
1F
100
AcDbEntity
  8
0
 62
     3
100
AcDbLine
 10
-71.22295925823812
 20
-69.3576968233215
 30
0.0
 11
-83.65924236983794
 21
-54.20404200662702
 31
0.0
  0
LINE
  5
E1
330
1F
100
AcDbEntity
  8
0
 62
     3
100
AcDbLine
 10
-56.06930444154357
 20
-81.79397993492129
 30
0.0
 11
-71.22295925823812
 21
-69.3576968233215
 31
0.0
  0
LINE
  5
E2
330
1F
100
AcDbEntity
  8
0
 62
     3
100
AcDbLine
 10
-92.90023439071218
 20
39.62132453184233
 30
0.0
 11
-83.65924236983802
 21
56.91000459729355
 31
0.0
  0
LINE
  5
E3
330
1F
100
AcDbEntity
  8
0
 62
     3
100
AcDbLine
 10
-86.72642929338854
 20
1.352981295333364
 30
0.0
 11
-72.21612666960348
 21
15.87067112735667
 31
0.0
  0
LINE
  5
E4
330
1F
100
AcDbEntity
  8
0
 62
     3
100
AcDbLine
 10
-54.91228113958346
 20
1.352981295333307
 30
0.0
 11
-53.86700039351916
 21
11.96589481301072
 31
0.0
  0
LINE
  5
E5
330
1F
100
AcDbEntity
  8
0
 62
     3
100
AcDbLine
 10
-60.51228113958342
 20
1.352981295333307
 30
0.0
 11
-59.35939796377727
 21
13.05840061630101
 31
0.0
  0
LINE
  5
E6
330
1F
100
AcDbEntity
  8
0
 62
     3
100
AcDbLine
 10
-100.5122811395835
 20
1.35298129533325
 30
0.0
 11
-98.59080917990654
 21
20.86201349694613
 31
0.0
  0
LINE
  5
E7
330
1F
100
AcDbEntity
  8
0
 62
     3
100
AcDbLine
 10
-86.72642929338854
 20
1.352981295333364
 30
0.0
 11
-72.33720676247116
 21
-13.02890448340122
 31
0.0
  0
LINE
  5
E8
330
1F
100
AcDbEntity
  8
0
 62
     3
100
AcDbLine
 10
-98.59080917990652
 20
-18.1560509062796
 30
0.0
 11
-100.5122811395835
 21
1.35298129533325
 31
0.0
  0
LINE
  5
E9
330
1F
100
AcDbEntity
  8
0
 62
     3
100
AcDbLine
 10
-55.94505309026061
 20
-21.60802464657209
 30
0.0
 11
-59.35939796377727
 21
-10.35243802563442
 31
0.0
  0
LINE
  5
EA
330
1F
100
AcDbEntity
  8
0
 62
     3
100
AcDbLine
 10
-59.35939796377727
 20
-10.35243802563442
 30
0.0
 11
-60.51228113958342
 21
1.352981295333307
 31
0.0
  0
LINE
  5
EB
330
1F
100
AcDbEntity
  8
0
 62
     3
100
AcDbLine
 10
-53.86700039351916
 20
-9.259932222344104
 30
0.0
 11
-54.91228113958346
 21
1.352981295333307
 31
0.0
  0
LINE
  5
EC
330
1F
100
AcDbEntity
  8
0
 62
     3
100
AcDbLine
 10
-98.59080917990654
 20
20.86201349694613
 30
0.0
 11
-92.90023439071218
 21
39.62132453184233
 31
0.0
  0
LINE
  5
ED
330
1F
100
AcDbEntity
  8
0
 62
     3
100
AcDbLine
 10
-59.35939796377727
 20
13.05840061630101
 30
0.0
 11
-55.94505309026067
 21
24.31398723723873
 31
0.0
  0
LINE
  5
EE
330
1F
100
AcDbEntity
  8
0
 62
     3
100
AcDbLine
 10
-71.22295925823824
 20
72.06365941398814
 30
0.0
 11
-56.06930444154369
 21
84.49994252558793
 31
0.0
  0
LINE
  5
EF
330
1F
100
AcDbEntity
  8
0
 62
     3
100
AcDbLine
 10
-83.65924236983802
 20
56.91000459729355
 30
0.0
 11
-71.22295925823824
 21
72.06365941398814
 31
0.0
  0
LINE
  5
F0
330
1F
100
AcDbEntity
  8
0
 62
     3
100
AcDbLine
 10
-38.97889003613156
 20
-37.11362760121488
 30
0.0
 11
-45.74422804884185
 21
-28.87003938093309
 31
0.0
  0
LINE
  5
F1
330
1F
100
AcDbEntity
  8
0
 62
     3
100
AcDbLine
 10
-42.93868801077621
 20
-41.07342557585954
 30
0.0
 11
-50.4004578777361
 21
-31.98123268584285
 31
0.0
  0
LINE
  5
F2
330
1F
100
AcDbEntity
  8
0
 62
     3
100
AcDbLine
 10
97.56624690073966
 20
-18.15605090627909
 30
0.0
 11
91.87567211154533
 21
-36.91536194117529
 31
0.0
  0
LINE
  5
F3
330
1F
100
AcDbEntity
  8
0
 62
     3
100
AcDbLine
 10
49.37589559856937
 20
-31.98123268584259
 30
0.0
 11
41.91412573160954
 21
-41.07342557585934
 31
0.0
  0
LINE
  5
F4
330
1F
100
AcDbEntity
  8
0
 62
     3
100
AcDbLine
 10
44.71966576967512
 20
-28.87003938093283
 30
0.0
 11
37.95432775696488
 21
-37.11362760121471
 31
0.0
  0
LINE
  5
F5
330
1F
100
AcDbEntity
  8
0
 62
     3
100
AcDbLine
 10
82.63468009067123
 20
-54.20404200662656
 30
0.0
 11
70.1983969790715
 21
-69.35769682332116
 31
0.0
  0
LINE
  5
F6
330
1F
100
AcDbEntity
  8
0
 62
     3
100
AcDbLine
 10
22.44872480232211
 20
-54.07979065534377
 30
0.0
 11
11.19313818138439
 21
-57.49413552886045
 31
0.0
  0
LINE
  5
F7
330
1F
100
AcDbEntity
  8
0
 62
     3
100
AcDbLine
 10
-0.5122811395833651
 20
-86.43278526651263
 30
0.0
 11
13.86960463915113
 21
-72.04356273559532
 31
0.0
  0
LINE
  5
F8
330
1F
100
AcDbEntity
  8
0
 62
     3
100
AcDbLine
 10
18.9967510620296
 20
-96.72554674498966
 30
0.0
 11
-0.5122811395832514
 21
-98.64701870466664
 31
0.0
  0
LINE
  5
F9
330
1F
100
AcDbEntity
  8
0
 62
     3
100
AcDbLine
 10
20.30569758107759
 20
-48.9060652732806
 30
0.0
 11
10.10063237809407
 21
-52.00173795860234
 31
0.0
  0
LINE
  5
FA
330
1F
100
AcDbEntity
  8
0
 62
     3
100
AcDbLine
 10
-0.5122811395833651
 20
-86.43278526651263
 30
0.0
 11
-15.02997097160664
 21
-71.92248264272762
 31
0.0
  0
LINE
  5
FB
330
1F
100
AcDbEntity
  8
0
 62
     3
100
AcDbLine
 10
-0.5122811395832514
 20
-98.64701870466664
 30
0.0
 11
-20.0213133411961
 21
-96.72554674498977
 31
0.0
  0
LINE
  5
FC
330
1F
100
AcDbEntity
  8
0
 62
     3
100
AcDbLine
 10
-20.0213133411961
 20
-96.72554674498977
 30
0.0
 11
-38.7806243760923
 21
-91.03497195579544
 31
0.0
  0
LINE
  5
FD
330
1F
100
AcDbEntity
  8
0
 62
     3
100
AcDbLine
 10
-11.12519465726069
 20
-52.00173795860243
 30
0.0
 11
-21.33025986024421
 21
-48.90606527328071
 31
0.0
  0
LINE
  5
FE
330
1F
100
AcDbEntity
  8
0
 62
     3
100
AcDbLine
 10
-12.21770046055098
 20
-57.49413552886051
 30
0.0
 11
-23.4732870814887
 21
-54.07979065534391
 31
0.0
  0
LINE
  5
FF
330
1F
100
AcDbEntity
  8
0
 62
     3
100
AcDbLine
 10
-33.84649512075947
 20
-48.53519544281943
 30
0.0
 11
-42.93868801077621
 21
-41.07342557585954
 31
0.0
  0
LINE
  5
100
330
1F
100
AcDbEntity
  8
0
 62
     3
100
AcDbLine
 10
-30.7353018158497
 20
-43.87896561392517
 30
0.0
 11
-38.97889003613156
 21
-37.11362760121488
 31
0.0
  0
LINE
  5
101
330
1F
100
AcDbEntity
  8
0
 62
     3
100
AcDbLine
 10
-21.33025986024421
 20
-48.90606527328071
 30
0.0
 11
-30.7353018158497
 21
-43.87896561392517
 31
0.0
  0
LINE
  5
102
330
1F
100
AcDbEntity
  8
0
 62
     3
100
AcDbLine
 10
-23.4732870814887
 20
-54.07979065534391
 30
0.0
 11
-33.84649512075947
 21
-48.53519544281943
 31
0.0
  0
LINE
  5
103
330
1F
100
AcDbEntity
  8
0
 62
     3
100
AcDbLine
 10
-0.5122811395832798
 20
-58.64701870466664
 30
0.0
 11
-12.21770046055098
 21
-57.49413552886051
 31
0.0
  0
LINE
  5
104
330
1F
100
AcDbEntity
  8
0
 62
     3
100
AcDbLine
 10
-0.5122811395833083
 20
-53.04701870466664
 30
0.0
 11
-11.12519465726069
 21
-52.00173795860243
 31
0.0
  0
LINE
  5
105
330
1F
100
AcDbEntity
  8
0
 62
     3
100
AcDbLine
 10
10.10063237809407
 20
-52.00173795860234
 30
0.0
 11
-0.5122811395833083
 21
-53.04701870466664
 31
0.0
  0
LINE
  5
106
330
1F
100
AcDbEntity
  8
0
 62
     3
100
AcDbLine
 10
11.19313818138439
 20
-57.49413552886045
 30
0.0
 11
-0.5122811395832798
 21
-58.64701870466664
 31
0.0
  0
LINE
  5
107
330
1F
100
AcDbEntity
  8
0
 62
     3
100
AcDbLine
 10
55.04474216237702
 20
-81.793979934921
 30
0.0
 11
37.75606209692574
 21
-91.03497195579521
 31
0.0
  0
LINE
  5
108
330
1F
100
AcDbEntity
  8
0
 62
     3
100
AcDbLine
 10
37.75606209692574
 20
-91.03497195579521
 30
0.0
 11
18.9967510620296
 21
-96.72554674498966
 31
0.0
  0
LINE
  5
109
330
1F
100
AcDbEntity
  8
0
 62
     3
100
AcDbLine
 10
32.82193284159285
 20
-48.53519544281926
 30
0.0
 11
22.44872480232211
 21
-54.07979065534377
 31
0.0
  0
LINE
  5
10A
330
1F
100
AcDbEntity
  8
0
 62
     3
100
AcDbLine
 10
37.95432775696488
 20
-37.11362760121471
 30
0.0
 11
29.71073953668309
 21
-43.878965613925
 31
0.0
  0
LINE
  5
10B
330
1F
100
AcDbEntity
  8
0
 62
     3
100
AcDbLine
 10
29.71073953668309
 20
-43.878965613925
 30
0.0
 11
20.30569758107759
 21
-48.9060652732806
 31
0.0
  0
LINE
  5
10C
330
1F
100
AcDbEntity
  8
0
 62
     3
100
AcDbLine
 10
41.91412573160954
 20
-41.07342557585934
 30
0.0
 11
32.82193284159285
 21
-48.53519544281926
 31
0.0
  0
LINE
  5
10D
330
1F
100
AcDbEntity
  8
0
 62
     3
100
AcDbLine
 10
70.1983969790715
 20
-69.35769682332116
 30
0.0
 11
55.04474216237702
 21
-81.793979934921
 31
0.0
  0
LINE
  5
10E
330
1F
100
AcDbEntity
  8
0
 62
     3
100
AcDbLine
 10
91.87567211154533
 20
-36.91536194117529
 30
0.0
 11
82.63468009067123
 21
-54.20404200662656
 31
0.0
  0
LINE
  5
10F
330
1F
100
AcDbEntity
  8
0
 62
     3
100
AcDbLine
 10
86.36704627147469
 20
1.352981295333364
 30
0.0
 11
71.97782374055737
 21
15.73486707406795
 31
0.0
  0
LINE
  5
110
330
1F
100
AcDbEntity
  8
0
 62
     3
100
AcDbLine
 10
70.19839697907127
 20
72.06365941398814
 30
0.0
 11
82.63468009067105
 21
56.91000459729355
 31
0.0
  0
LINE
  5
111
330
1F
100
AcDbEntity
  8
0
 62
     3
100
AcDbLine
 10
86.36704627147469
 20
1.352981295333364
 30
0.0
 11
71.8567436476896
 21
-13.16470853668991
 31
0.0
  0
LINE
  5
112
330
1F
100
AcDbEntity
  8
0
 62
     3
100
AcDbLine
 10
22.44872480232194
 20
56.78575324601059
 30
0.0
 11
32.82193284159268
 21
51.24115803348605
 31
0.0
  0
LINE
  5
113
330
1F
100
AcDbEntity
  8
0
 62
     3
100
AcDbLine
 10
-33.84649512075958
 20
51.2411580334861
 30
0.0
 11
-23.47328708148882
 21
56.78575324601059
 31
0.0
  0
LINE
  5
114
330
1F
100
AcDbEntity
  8
0
 62
     3
100
AcDbLine
 10
10.10063237809393
 20
54.70770054926908
 30
0.0
 11
20.30569758107745
 21
51.61202786394738
 31
0.0
  0
LINE
  5
115
330
1F
100
AcDbEntity
  8
0
 62
     3
100
AcDbLine
 10
-45.74422804884185
 20
-28.87003938093309
 30
0.0
 11
-50.77132770819742
 21
-19.46499742532759
 31
0.0
  0
LINE
  5
116
330
1F
100
AcDbEntity
  8
0
 62
     3
100
AcDbLine
 10
-21.33025986024432
 20
51.61202786394738
 30
0.0
 11
-11.1251946572608
 21
54.70770054926908
 31
0.0
  0
LINE
  5
117
330
1F
100
AcDbEntity
  8
0
 62
     3
100
AcDbLine
 10
-45.7442280488419
 20
31.57600197159968
 30
0.0
 11
-38.97889003613162
 21
39.81959019188156
 31
0.0
  0
LINE
  5
118
330
1F
100
AcDbEntity
  8
0
 62
     3
100
AcDbLine
 10
-50.77132770819744
 20
22.17096001599423
 30
0.0
 11
-45.7442280488419
 21
31.57600197159968
 31
0.0
  0
LINE
  5
119
330
1F
100
AcDbEntity
  8
0
 62
     3
100
AcDbLine
 10
-38.97889003613162
 20
39.81959019188156
 30
0.0
 11
-30.73530181584979
 21
46.58492820459184
 31
0.0
  0
LINE
  5
11A
330
1F
100
AcDbEntity
  8
0
 62
     3
100
AcDbLine
 10
-42.9386880107763
 20
43.77938816652624
 30
0.0
 11
-33.84649512075958
 21
51.2411580334861
 31
0.0
  0
LINE
  5
11B
330
1F
100
AcDbEntity
  8
0
 62
     3
100
AcDbLine
 10
-50.40045787773616
 20
34.68719527650944
 30
0.0
 11
-42.9386880107763
 21
43.77938816652624
 31
0.0
  0
LINE
  5
11C
330
1F
100
AcDbEntity
  8
0
 62
     3
100
AcDbLine
 10
-30.73530181584979
 20
46.58492820459184
 30
0.0
 11
-21.33025986024432
 21
51.61202786394738
 31
0.0
  0
LINE
  5
11D
330
1F
100
AcDbEntity
  8
0
 62
     3
100
AcDbLine
 10
-11.1251946572608
 20
54.70770054926908
 30
0.0
 11
-0.512281139583422
 21
55.75298129533337
 31
0.0
  0
LINE
  5
11E
330
1F
100
AcDbEntity
  8
0
 62
     3
100
AcDbLine
 10
-0.512281139583422
 20
55.75298129533337
 30
0.0
 11
10.10063237809393
 21
54.70770054926908
 31
0.0
  0
LINE
  5
11F
330
1F
100
AcDbEntity
  8
0
 62
     3
100
AcDbLine
 10
52.84243811435229
 20
11.96589481301072
 30
0.0
 11
53.88771886041656
 21
1.352981295333364
 31
0.0
  0
LINE
  5
120
330
1F
100
AcDbEntity
  8
0
 62
     3
100
AcDbLine
 10
58.33483568461037
 20
13.05840061630101
 30
0.0
 11
59.48771886041658
 21
1.352981295333364
 31
0.0
  0
LINE
  5
121
330
1F
100
AcDbEntity
  8
0
 62
     3
100
AcDbLine
 10
49.74676542903063
 20
-19.46499742532734
 30
0.0
 11
44.71966576967512
 21
-28.87003938093283
 31
0.0
  0
LINE
  5
122
330
1F
100
AcDbEntity
  8
0
 62
     3
100
AcDbLine
 10
52.84243811435235
 20
-9.25993222234382
 30
0.0
 11
49.74676542903063
 21
-19.46499742532734
 31
0.0
  0
LINE
  5
123
330
1F
100
AcDbEntity
  8
0
 62
     3
100
AcDbLine
 10
58.33483568461042
 20
-10.35243802563411
 30
0.0
 11
54.92049081109382
 21
-21.60802464657183
 31
0.0
  0
LINE
  5
124
330
1F
100
AcDbEntity
  8
0
 62
     3
100
AcDbLine
 10
54.92049081109382
 20
-21.60802464657183
 30
0.0
 11
49.37589559856937
 21
-31.98123268584259
 31
0.0
  0
LINE
  5
125
330
1F
100
AcDbEntity
  8
0
 62
     3
100
AcDbLine
 10
53.88771886041656
 20
1.352981295333364
 30
0.0
 11
52.84243811435235
 21
-9.25993222234382
 31
0.0
  0
LINE
  5
126
330
1F
100
AcDbEntity
  8
0
 62
     3
100
AcDbLine
 10
59.48771886041658
 20
1.352981295333364
 30
0.0
 11
58.33483568461042
 21
-10.35243802563411
 31
0.0
  0
LINE
  5
127
330
1F
100
AcDbEntity
  8
0
 62
     3
100
AcDbLine
 10
41.9141257316094
 20
43.77938816652624
 30
0.0
 11
49.37589559856928
 21
34.6871952765095
 31
0.0
  0
LINE
  5
128
330
1F
100
AcDbEntity
  8
0
 62
     3
100
AcDbLine
 10
44.71966576967503
 20
31.57600197159974
 30
0.0
 11
49.74676542903058
 21
22.17096001599423
 31
0.0
  0
LINE
  5
129
330
1F
100
AcDbEntity
  8
0
 62
     3
100
AcDbLine
 10
37.95432775696474
 20
39.81959019188156
 30
0.0
 11
44.71966576967503
 21
31.57600197159974
 31
0.0
  0
LINE
  5
12A
330
1F
100
AcDbEntity
  8
0
 62
     3
100
AcDbLine
 10
29.71073953668292
 20
46.58492820459179
 30
0.0
 11
37.95432775696474
 21
39.81959019188156
 31
0.0
  0
LINE
  5
12B
330
1F
100
AcDbEntity
  8
0
 62
     3
100
AcDbLine
 10
20.30569758107745
 20
51.61202786394738
 30
0.0
 11
29.71073953668292
 21
46.58492820459179
 31
0.0
  0
LINE
  5
12C
330
1F
100
AcDbEntity
  8
0
 62
     3
100
AcDbLine
 10
32.82193284159268
 20
51.24115803348605
 30
0.0
 11
41.9141257316094
 21
43.77938816652624
 31
0.0
  0
LINE
  5
12D
330
1F
100
AcDbEntity
  8
0
 62
     3
100
AcDbLine
 10
49.37589559856928
 20
34.6871952765095
 30
0.0
 11
54.92049081109377
 21
24.31398723723873
 31
0.0
  0
LINE
  5
12E
330
1F
100
AcDbEntity
  8
0
 62
     3
100
AcDbLine
 10
49.74676542903058
 20
22.17096001599423
 30
0.0
 11
52.84243811435229
 21
11.96589481301072
 31
0.0
  0
LINE
  5
12F
330
1F
100
AcDbEntity
  8
0
 62
     3
100
AcDbLine
 10
54.92049081109377
 20
24.31398723723873
 30
0.0
 11
58.33483568461037
 21
13.05840061630101
 31
0.0
  0
LINE
  5
130
330
1F
100
AcDbEntity
  8
0
 62
     3
100
AcDbLine
 10
11.19313818138425
 20
60.20009811952718
 30
0.0
 11
22.44872480232194
 21
56.78575324601059
 31
0.0
  0
LINE
  5
131
330
1F
100
AcDbEntity
  8
0
 62
     3
100
AcDbLine
 10
-0.5122811395833651
 20
88.75011730247354
 30
0.0
 11
14.00540869243982
 21
74.23981467868856
 31
0.0
  0
LINE
  5
132
330
1F
100
AcDbEntity
  8
0
 62
     3
100
AcDbLine
 10
-0.5122811395834788
 20
101.3529812953333
 30
0.0
 11
18.99675106202932
 21
99.43150933565641
 31
0.0
  0
LINE
  5
133
330
1F
100
AcDbEntity
  8
0
 62
     3
100
AcDbLine
 10
-20.02131334119633
 20
99.43150933565641
 30
0.0
 11
-0.5122811395834788
 21
101.3529812953333
 31
0.0
  0
LINE
  5
134
330
1F
100
AcDbEntity
  8
0
 62
     3
100
AcDbLine
 10
-23.47328708148882
 20
56.78575324601059
 30
0.0
 11
-12.21770046055112
 21
60.20009811952718
 31
0.0
  0
LINE
  5
135
330
1F
100
AcDbEntity
  8
0
 62
     3
100
AcDbLine
 10
-38.78062437609247
 20
93.74093454646208
 30
0.0
 11
-20.02131334119633
 21
99.43150933565641
 31
0.0
  0
LINE
  5
136
330
1F
100
AcDbEntity
  8
0
 62
     3
100
AcDbLine
 10
-0.5122811395833651
 20
88.75011730247354
 30
0.0
 11
-14.89416691831797
 21
74.36089477155627
 31
0.0
  0
LINE
  5
137
330
1F
100
AcDbEntity
  8
0
 62
     3
100
AcDbLine
 10
-12.21770046055112
 20
60.20009811952718
 30
0.0
 11
-0.5122811395834504
 21
61.35298129533339
 31
0.0
  0
LINE
  5
138
330
1F
100
AcDbEntity
  8
0
 62
     3
100
AcDbLine
 10
-0.5122811395834504
 20
61.35298129533339
 30
0.0
 11
11.19313818138425
 21
60.20009811952718
 31
0.0
  0
LINE
  5
139
330
1F
100
AcDbEntity
  8
0
 62
     3
100
AcDbLine
 10
37.75606209692552
 20
93.74093454646208
 30
0.0
 11
55.04474216237674
 21
84.49994252558781
 31
0.0
  0
LINE
  5
13A
330
1F
100
AcDbEntity
  8
0
 62
     3
100
AcDbLine
 10
18.99675106202932
 20
99.43150933565641
 30
0.0
 11
37.75606209692552
 21
93.74093454646208
 31
0.0
  0
LINE
  5
13B
330
1F
100
AcDbEntity
  8
0
 62
     3
100
AcDbLine
 10
55.04474216237674
 20
84.49994252558781
 30
0.0
 11
70.19839697907127
 21
72.06365941398814
 31
0.0
  0
LINE
  5
13C
330
1F
100
AcDbEntity
  8
0
 62
     3
100
AcDbLine
 10
82.63468009067105
 20
56.91000459729355
 30
0.0
 11
91.87567211154521
 21
39.62132453184233
 31
0.0
  0
LINE
  5
13D
330
1F
100
AcDbEntity
  8
0
 62
     3
100
AcDbLine
 10
97.56624690073955
 20
20.86201349694613
 30
0.0
 11
99.48771886041653
 21
1.352981295333364
 31
0.0
  0
LINE
  5
13E
330
1F
100
AcDbEntity
  8
0
 62
     3
100
AcDbLine
 10
99.48771886041653
 20
1.352981295333364
 30
0.0
 11
97.56624690073966
 21
-18.15605090627909
 31
0.0
  0
LINE
  5
13F
330
1F
100
AcDbEntity
  8
0
 62
     3
100
AcDbLine
 10
91.87567211154521
 20
39.62132453184233
 30
0.0
 11
97.56624690073955
 21
20.86201349694613
 31
0.0
  0
ENDSEC
  0
SECTION
  2
OBJECTS
  0
DICTIONARY
  5
C
330
0
100
AcDbDictionary
281
     1
  3
ACAD_GROUP
350
D
  3
ACAD_LAYOUT
350
1A
  3
ACAD_MLINESTYLE
350
17
  3
ACAD_PLOTSETTINGS
350
19
  3
ACAD_PLOTSTYLENAME
350
E
  3
AcDbVariableDictionary
350
5E
  0
DICTIONARY
  5
D
102
{ACAD_REACTORS
330
C
102
}
330
C
100
AcDbDictionary
281
     1
  0
DICTIONARY
  5
1A
102
{ACAD_REACTORS
330
C
102
}
330
C
100
AcDbDictionary
281
     1
  3
Layout1
350
51
  3
Layout2
350
56
  3
Model
350
22
  0
DICTIONARY
  5
17
102
{ACAD_REACTORS
330
C
102
}
330
C
100
AcDbDictionary
281
     1
  3
Standard
350
18
  0
DICTIONARY
  5
19
102
{ACAD_REACTORS
330
C
102
}
330
C
100
AcDbDictionary
281
     1
  0
ACDBDICTIONARYWDFLT
  5
E
102
{ACAD_REACTORS
330
C
102
}
330
C
100
AcDbDictionary
281
     1
  3
Normal
350
F
100
AcDbDictionaryWithDefault
340
F
  0
DICTIONARY
  5
5E
102
{ACAD_REACTORS
330
C
102
}
330
C
100
AcDbDictionary
281
     1
  3
DIMASSOC
350
5F
  3
HIDETEXT
350
63
  0
LAYOUT
  5
51
102
{ACAD_REACTORS
330
1A
102
}
330
1A
100
AcDbPlotSettings
  1

  2
None
  4

  6

 40
0.0
 41
0.0
 42
0.0
 43
0.0
 44
0.0
 45
0.0
 46
0.0
 47
0.0
 48
0.0
 49
0.0
140
0.0
141
0.0
142
1.0
143
1.0
 70
   688
 72
     0
 73
     0
 74
     5
  7

 75
    16
147
1.0
148
0.0
149
0.0
100
AcDbLayout
  1
Layout1
 70
     1
 71
     1
 10
0.0
 20
0.0
 11
12.0
 21
9.0
 12
0.0
 22
0.0
 32
0.0
 14
0.0
 24
0.0
 34
0.0
 15
0.0
 25
0.0
 35
0.0
146
0.0
 13
0.0
 23
0.0
 33
0.0
 16
1.0
 26
0.0
 36
0.0
 17
0.0
 27
1.0
 37
0.0
 76
     0
330
50
  0
LAYOUT
  5
56
102
{ACAD_REACTORS
330
1A
102
}
330
1A
100
AcDbPlotSettings
  1

  2
None
  4

  6

 40
0.0
 41
0.0
 42
0.0
 43
0.0
 44
0.0
 45
0.0
 46
0.0
 47
0.0
 48
0.0
 49
0.0
140
0.0
141
0.0
142
1.0
143
1.0
 70
   688
 72
     0
 73
     0
 74
     5
  7

 75
    16
147
1.0
148
0.0
149
0.0
100
AcDbLayout
  1
Layout2
 70
     1
 71
     2
 10
0.0
 20
0.0
 11
12.0
 21
9.0
 12
0.0
 22
0.0
 32
0.0
 14
0.0
 24
0.0
 34
0.0
 15
0.0
 25
0.0
 35
0.0
146
0.0
 13
0.0
 23
0.0
 33
0.0
 16
1.0
 26
0.0
 36
0.0
 17
0.0
 27
1.0
 37
0.0
 76
     0
330
55
  0
LAYOUT
  5
22
102
{ACAD_REACTORS
330
1A
102
}
330
1A
100
AcDbPlotSettings
  1

  2
none_device
  4
ANSI_A_(8.50_x_11.00_Inches)
  6

 40
6.349999904632568
 41
19.04999923706054
 42
6.350006103515625
 43
19.04998779296875
 44
215.8999938964843
 45
279.3999938964843
 46
0.0
 47
0.0
 48
0.0
 49
0.0
140
0.0
141
0.0
142
1.0
143
78.436453180766
 70
 11952
 72
     0
 73
     1
 74
     0
  7

 75
     0
147
0.0127491741332998
148
0.0
149
0.0
100
AcDbLayout
  1
Model
 70
     1
 71
     0
 10
0.0
 20
0.0
 11
12.0
 21
9.0
 12
0.0
 22
0.0
 32
0.0
 14
0.0
 24
0.0
 34
0.0
 15
0.0
 25
0.0
 35
0.0
146
0.0
 13
0.0
 23
0.0
 33
0.0
 16
1.0
 26
0.0
 36
0.0
 17
0.0
 27
1.0
 37
0.0
 76
     0
330
1F
  0
MLINESTYLE
  5
18
102
{ACAD_REACTORS
330
17
102
}
330
17
100
AcDbMlineStyle
  2
STANDARD
 70
     0
  3

 62
   256
 51
90.0
 52
90.0
 71
     2
 49
0.5
 62
   256
  6
BYLAYER
 49
-0.5
 62
   256
  6
BYLAYER
  0
ACDBPLACEHOLDER
  5
F
102
{ACAD_REACTORS
330
E
102
}
330
E
  0
DICTIONARYVAR
  5
5F
102
{ACAD_REACTORS
330
5E
102
}
330
5E
100
DictionaryVariables
280
     0
  1
2
  0
DICTIONARYVAR
  5
63
102
{ACAD_REACTORS
330
5E
102
}
330
5E
100
DictionaryVariables
280
     0
  1
1
  0
ENDSEC
  0
EOF
