  0
SECTION
  2
HEADER
  9
$ACADVER
  1
AC1015
  9
$ACADMAINTVER
 70
    13
  9
$DWGCODEPAGE
  3
ANSI_1252
  9
$INSBASE
 10
0.0
 20
0.0
 30
0.0
  9
$EXTMIN
 10
-100.5122811395835
 20
-99.93667571317772
 30
0.0
  9
$EXTMAX
 10
100.0228109676455
 20
101.3529812953333
 30
0.0
  9
$LIMMIN
 10
0.0
 20
0.0
  9
$LIMMAX
 10
420.0
 20
297.0
  9
$ORTHOMODE
 70
     0
  9
$REGENMODE
 70
     1
  9
$FILLMODE
 70
     1
  9
$QTEXTMODE
 70
     0
  9
$MIRRTEXT
 70
     1
  9
$LTSCALE
 40
1.0
  9
$ATTMODE
 70
     1
  9
$TEXTSIZE
 40
2.5
  9
$TRACEWID
 40
1.0
  9
$TEXTSTYLE
  7
Standard
  9
$CLAYER
  8
0
  9
$CELTYPE
  6
ByLayer
  9
$CECOLOR
 62
   256
  9
$CELTSCALE
 40
1.0
  9
$DISPSILH
 70
     0
  9
$DIMSCALE
 40
1.0
  9
$DIMASZ
 40
2.5
  9
$DIMEXO
 40
0.625
  9
$DIMDLI
 40
3.75
  9
$DIMRND
 40
0.0
  9
$DIMDLE
 40
0.0
  9
$DIMEXE
 40
1.25
  9
$DIMTP
 40
0.0
  9
$DIMTM
 40
0.0
  9
$DIMTXT
 40
2.5
  9
$DIMCEN
 40
2.5
  9
$DIMTSZ
 40
0.0
  9
$DIMTOL
 70
     0
  9
$DIMLIM
 70
     0
  9
$DIMTIH
 70
     0
  9
$DIMTOH
 70
     0
  9
$DIMSE1
 70
     0
  9
$DIMSE2
 70
     0
  9
$DIMTAD
 70
     1
  9
$DIMZIN
 70
     8
  9
$DIMBLK
  1

  9
$DIMASO
 70
     1
  9
$DIMSHO
 70
     1
  9
$DIMPOST
  1

  9
$DIMAPOST
  1

  9
$DIMALT
 70
     0
  9
$DIMALTD
 70
     3
  9
$DIMALTF
 40
0.03937007874016
  9
$DIMLFAC
 40
1.0
  9
$DIMTOFL
 70
     1
  9
$DIMTVP
 40
0.0
  9
$DIMTIX
 70
     0
  9
$DIMSOXD
 70
     0
  9
$DIMSAH
 70
     0
  9
$DIMBLK1
  1

  9
$DIMBLK2
  1

  9
$DIMSTYLE
  2
ISO-25
  9
$DIMCLRD
 70
     0
  9
$DIMCLRE
 70
     0
  9
$DIMCLRT
 70
     0
  9
$DIMTFAC
 40
1.0
  9
$DIMGAP
 40
0.625
  9
$DIMJUST
 70
     0
  9
$DIMSD1
 70
     0
  9
$DIMSD2
 70
     0
  9
$DIMTOLJ
 70
     0
  9
$DIMTZIN
 70
     8
  9
$DIMALTZ
 70
     0
  9
$DIMALTTZ
 70
     0
  9
$DIMUPT
 70
     0
  9
$DIMDEC
 70
     2
  9
$DIMTDEC
 70
     2
  9
$DIMALTU
 70
     2
  9
$DIMALTTD
 70
     3
  9
$DIMTXSTY
  7
Standard
  9
$DIMAUNIT
 70
     0
  9
$DIMADEC
 70
     0
  9
$DIMALTRND
 40
0.0
  9
$DIMAZIN
 70
     0
  9
$DIMDSEP
 70
    44
  9
$DIMATFIT
 70
     3
  9
$DIMFRAC
 70
     0
  9
$DIMLDRBLK
  1

  9
$DIMLUNIT
 70
     2
  9
$DIMLWD
 70
    -2
  9
$DIMLWE
 70
    -2
  9
$DIMTMOVE
 70
     0
  9
$LUNITS
 70
     2
  9
$LUPREC
 70
     4
  9
$SKETCHINC
 40
1.0
  9
$FILLETRAD
 40
10.0
  9
$AUNITS
 70
     0
  9
$AUPREC
 70
     0
  9
$MENU
  1
.
  9
$ELEVATION
 40
0.0
  9
$PELEVATION
 40
0.0
  9
$THICKNESS
 40
0.0
  9
$LIMCHECK
 70
     0
  9
$CHAMFERA
 40
10.0
  9
$CHAMFERB
 40
10.0
  9
$CHAMFERC
 40
20.0
  9
$CHAMFERD
 40
0.0
  9
$SKPOLY
 70
     0
  9
$TDCREATE
 40
2454278.508059167
  9
$TDUCREATE
 40
2454278.424725833
  9
$TDUPDATE
 40
2454278.509079490
  9
$TDUUPDATE
 40
2454278.425746157
  9
$TDINDWG
 40
0.0010205093
  9
$TDUSRTIMER
 40
0.0010205093
  9
$USRTIMER
 70
     1
  9
$ANGBASE
 50
0.0
  9
$ANGDIR
 70
     0
  9
$PDMODE
 70
     0
  9
$PDSIZE
 40
0.0
  9
$PLINEWID
 40
0.0
  9
$SPLFRAME
 70
     0
  9
$SPLINETYPE
 70
     6
  9
$SPLINESEGS
 70
     8
  9
$HANDSEED
  5
25E
  9
$SURFTAB1
 70
     6
  9
$SURFTAB2
 70
     6
  9
$SURFTYPE
 70
     6
  9
$SURFU
 70
     6
  9
$SURFV
 70
     6
  9
$UCSBASE
  2

  9
$UCSNAME
  2

  9
$UCSORG
 10
0.0
 20
0.0
 30
0.0
  9
$UCSXDIR
 10
1.0
 20
0.0
 30
0.0
  9
$UCSYDIR
 10
0.0
 20
1.0
 30
0.0
  9
$UCSORTHOREF
  2

  9
$UCSORTHOVIEW
 70
     0
  9
$UCSORGTOP
 10
0.0
 20
0.0
 30
0.0
  9
$UCSORGBOTTOM
 10
0.0
 20
0.0
 30
0.0
  9
$UCSORGLEFT
 10
0.0
 20
0.0
 30
0.0
  9
$UCSORGRIGHT
 10
0.0
 20
0.0
 30
0.0
  9
$UCSORGFRONT
 10
0.0
 20
0.0
 30
0.0
  9
$UCSORGBACK
 10
0.0
 20
0.0
 30
0.0
  9
$PUCSBASE
  2

  9
$PUCSNAME
  2

  9
$PUCSORG
 10
0.0
 20
0.0
 30
0.0
  9
$PUCSXDIR
 10
1.0
 20
0.0
 30
0.0
  9
$PUCSYDIR
 10
0.0
 20
1.0
 30
0.0
  9
$PUCSORTHOREF
  2

  9
$PUCSORTHOVIEW
 70
     0
  9
$PUCSORGTOP
 10
0.0
 20
0.0
 30
0.0
  9
$PUCSORGBOTTOM
 10
0.0
 20
0.0
 30
0.0
  9
$PUCSORGLEFT
 10
0.0
 20
0.0
 30
0.0
  9
$PUCSORGRIGHT
 10
0.0
 20
0.0
 30
0.0
  9
$PUCSORGFRONT
 10
0.0
 20
0.0
 30
0.0
  9
$PUCSORGBACK
 10
0.0
 20
0.0
 30
0.0
  9
$USERI1
 70
     0
  9
$USERI2
 70
     0
  9
$USERI3
 70
     0
  9
$USERI4
 70
     0
  9
$USERI5
 70
     0
  9
$USERR1
 40
0.0
  9
$USERR2
 40
0.0
  9
$USERR3
 40
0.0
  9
$USERR4
 40
0.0
  9
$USERR5
 40
0.0
  9
$WORLDVIEW
 70
     1
  9
$SHADEDGE
 70
     3
  9
$SHADEDIF
 70
    70
  9
$TILEMODE
 70
     1
  9
$MAXACTVP
 70
    64
  9
$PINSBASE
 10
0.0
 20
0.0
 30
0.0
  9
$PLIMCHECK
 70
     0
  9
$PEXTMIN
 10
0.0
 20
0.0
 30
0.0
  9
$PEXTMAX
 10
0.0
 20
0.0
 30
0.0
  9
$PLIMMIN
 10
0.0
 20
0.0
  9
$PLIMMAX
 10
12.0
 20
9.0
  9
$UNITMODE
 70
     0
  9
$VISRETAIN
 70
     1
  9
$PLINEGEN
 70
     0
  9
$PSLTSCALE
 70
     1
  9
$TREEDEPTH
 70
  3020
  9
$CMLSTYLE
  2
Standard
  9
$CMLJUST
 70
     0
  9
$CMLSCALE
 40
20.0
  9
$PROXYGRAPHICS
 70
     1
  9
$MEASUREMENT
 70
     1
  9
$CELWEIGHT
370
    -1
  9
$ENDCAPS
280
     0
  9
$JOINSTYLE
280
     0
  9
$LWDISPLAY
290
     0
  9
$INSUNITS
 70
     4
  9
$HYPERLINKBASE
  1

  9
$STYLESHEET
  1

  9
$XEDIT
290
     1
  9
$CEPSNTYPE
380
     0
  9
$PSTYLEMODE
290
     1
  9
$FINGERPRINTGUID
  2
{FDEAD578-A652-11D2-9A35-0060089B3A3F}
  9
$VERSIONGUID
  2
{FFA87429-A1F7-4216-A077-1F62FEDB66F0}
  9
$EXTNAMES
290
     1
  9
$PSVPSCALE
 40
0.0
  9
$OLESTARTUP
290
     0
  0
ENDSEC
  0
SECTION
  2
CLASSES
  0
CLASS
  1
ACDBDICTIONARYWDFLT
  2
AcDbDictionaryWithDefault
  3
AutoCAD 2000
 90
        0
280
     0
281
     0
  0
CLASS
  1
ACDBPLACEHOLDER
  2
AcDbPlaceHolder
  3
AutoCAD 2000
 90
        0
280
     0
281
     0
  0
CLASS
  1
LAYOUT
  2
AcDbLayout
  3
AutoCAD 2000
 90
        0
280
     0
281
     0
  0
CLASS
  1
DICTIONARYVAR
  2
AcDbDictionaryVar
  3
AutoCAD 2000
 90
        0
280
     0
281
     0
  0
ENDSEC
  0
SECTION
  2
TABLES
  0
TABLE
  2
VPORT
  5
8
330
0
100
AcDbSymbolTable
 70
     3
  0
VPORT
  5
25D
330
8
100
AcDbSymbolTableRecord
100
AcDbViewportTableRecord
  2
*Active
 70
     0
 10
0.0
 20
0.0
 11
1.0
 21
1.0
 12
2.522239361686757
 22
-45.49130866780041
 13
0.0
 23
0.0
 14
10.0
 24
10.0
 15
10.0
 25
10.0
 16
0.0
 26
0.0
 36
1.0
 17
0.0
 27
0.0
 37
0.0
 40
328.8854166424499
 41
1.243935309973045
 42
50.0
 43
0.0
 44
0.0
 50
0.0
 51
0.0
 71
     0
 72
   100
 73
     1
 74
     3
 75
     0
 76
     0
 77
     0
 78
     0
281
     0
 65
     1
110
0.0
120
0.0
130
0.0
111
1.0
121
0.0
131
0.0
112
0.0
122
1.0
132
0.0
 79
     0
146
0.0
  0
ENDTAB
  0
TABLE
  2
LTYPE
  5
5
330
0
100
AcDbSymbolTable
 70
     1
  0
LTYPE
  5
14
330
5
100
AcDbSymbolTableRecord
100
AcDbLinetypeTableRecord
  2
ByBlock
 70
     0
  3

 72
    65
 73
     0
 40
0.0
  0
LTYPE
  5
15
330
5
100
AcDbSymbolTableRecord
100
AcDbLinetypeTableRecord
  2
ByLayer
 70
     0
  3

 72
    65
 73
     0
 40
0.0
  0
LTYPE
  5
16
330
5
100
AcDbSymbolTableRecord
100
AcDbLinetypeTableRecord
  2
Continuous
 70
     0
  3
Solid line
 72
    65
 73
     0
 40
0.0
  0
ENDTAB
  0
TABLE
  2
LAYER
  5
2
330
0
100
AcDbSymbolTable
 70
     1
  0
LAYER
  5
10
330
2
100
AcDbSymbolTableRecord
100
AcDbLayerTableRecord
  2
0
 70
     0
 62
     7
  6
Continuous
370
    -3
390
F
  0
ENDTAB
  0
TABLE
  2
STYLE
  5
3
330
0
100
AcDbSymbolTable
 70
     1
  0
STYLE
  5
11
330
3
100
AcDbSymbolTableRecord
100
AcDbTextStyleTableRecord
  2
Standard
 70
     0
 40
0.0
 41
1.0
 50
0.0
 71
     0
 42
2.5
  3
txt
  4

  0
ENDTAB
  0
TABLE
  2
VIEW
  5
6
330
0
100
AcDbSymbolTable
 70
     0
  0
ENDTAB
  0
TABLE
  2
UCS
  5
7
330
0
100
AcDbSymbolTable
 70
     0
  0
ENDTAB
  0
TABLE
  2
APPID
  5
9
330
0
100
AcDbSymbolTable
 70
     1
  0
APPID
  5
12
330
9
100
AcDbSymbolTableRecord
100
AcDbRegAppTableRecord
  2
ACAD
 70
     0
  0
ENDTAB
  0
TABLE
  2
DIMSTYLE
  5
A
330
0
100
AcDbSymbolTable
 70
     1
100
AcDbDimStyleTable
 71
     0
  0
DIMSTYLE
105
27
330
A
100
AcDbSymbolTableRecord
100
AcDbDimStyleTableRecord
  2
ISO-25
 70
     0
 41
2.5
 42
0.625
 43
3.75
 44
1.25
 73
     0
 74
     0
 77
     1
 78
     8
140
2.5
141
2.5
143
0.03937007874016
147
0.625
171
     3
172
     1
271
     2
272
     2
274
     3
278
    44
283
     0
284
     8
340
11
  0
ENDTAB
  0
TABLE
  2
BLOCK_RECORD
  5
1
330
0
100
AcDbSymbolTable
 70
     3
  0
BLOCK_RECORD
  5
1F
330
1
100
AcDbSymbolTableRecord
100
AcDbBlockTableRecord
  2
*Model_Space
340
22
  0
BLOCK_RECORD
  5
50
330
1
100
AcDbSymbolTableRecord
100
AcDbBlockTableRecord
  2
*Paper_Space
340
51
  0
BLOCK_RECORD
  5
55
330
1
100
AcDbSymbolTableRecord
100
AcDbBlockTableRecord
  2
*Paper_Space0
340
56
  0
ENDTAB
  0
ENDSEC
  0
SECTION
  2
BLOCKS
  0
BLOCK
  5
20
330
1F
100
AcDbEntity
  8
0
100
AcDbBlockBegin
  2
*Model_Space
 70
     0
 10
0.0
 20
0.0
 30
0.0
  3
*Model_Space
  1

  0
ENDBLK
  5
21
330
1F
100
AcDbEntity
  8
0
100
AcDbBlockEnd
  0
BLOCK
  5
52
330
50
100
AcDbEntity
 67
     1
  8
0
100
AcDbBlockBegin
  2
*Paper_Space
 70
     0
 10
0.0
 20
0.0
 30
0.0
  3
*Paper_Space
  1

  0
ENDBLK
  5
53
330
50
100
AcDbEntity
 67
     1
  8
0
100
AcDbBlockEnd
  0
BLOCK
  5
57
330
55
100
AcDbEntity
  8
0
100
AcDbBlockBegin
  2
*Paper_Space0
 70
     0
 10
0.0
 20
0.0
 30
0.0
  3
*Paper_Space0
  1

  0
ENDBLK
  5
58
330
55
100
AcDbEntity
  8
0
100
AcDbBlockEnd
  0
ENDSEC
  0
SECTION
  2
ENTITIES
  0
LINE
  5
1D1
330
1F
100
AcDbEntity
  8
0
 62
     3
100
AcDbLine
 10
55.57983426960572
 20
83.21028551707673
 30
0.0
 11
70.73348908630032
 21
70.77400240547706
 31
0.0
  0
LINE
  5
1D2
330
1F
100
AcDbEntity
  8
0
 62
     3
100
AcDbLine
 10
53.05581955663661
 20
53.09633287581334
 30
0.0
 11
62.3830318903365
 21
41.73109176329245
 31
0.0
  0
LINE
  5
1D3
330
1F
100
AcDbEntity
  8
0
 62
     3
100
AcDbLine
 10
61.37024586992652
 20
25.48384384251415
 30
0.0
 11
65.84256092030978
 21
20.03842054173503
 31
0.0
  0
LINE
  5
1D4
330
1F
100
AcDbEntity
  8
0
 62
     3
100
AcDbLine
 10
65.35397959159638
 20
0.0633242868222794
 30
0.0
 11
51.4121260744123
 21
-9.372648187346214
 31
0.0
  0
LINE
  5
1D5
330
1F
100
AcDbEntity
  8
0
 62
     3
100
AcDbLine
 10
62.38303189033661
 20
-41.60444318964766
 30
0.0
 11
53.05581955663683
 21
-52.96968430216861
 31
0.0
  0
LINE
  5
1D6
330
1F
100
AcDbEntity
  8
0
 62
     3
100
AcDbLine
 10
65.8497839933417
 20
-19.90096005016337
 30
0.0
 11
61.37943885488517
 21
-25.34800063910998
 31
0.0
  0
LINE
  5
1D7
330
1F
100
AcDbEntity
  8
0
 62
     3
100
AcDbLine
 10
70.73348908630055
 20
-70.64735383183225
 30
0.0
 11
55.57983426960607
 21
-83.08363694343208
 31
0.0
  0
LINE
  5
1D8
330
1F
100
AcDbEntity
  8
0
 62
     3
100
AcDbLine
 10
65.35397959159638
 20
0.0633242868222794
 30
0.0
 11
51.42461884549994
 21
9.51141806794169
 31
0.0
  0
LINE
  5
1D9
330
1F
100
AcDbEntity
  8
0
 62
     3
100
AcDbLine
 10
35.94696532769262
 20
-35.52439069103249
 30
0.0
 11
35.26038883614399
 21
-42.53743921188302
 31
0.0
  0
LINE
  5
1DA
330
1F
100
AcDbEntity
  8
0
 62
     3
100
AcDbLine
 10
-35.23547464838987
 20
-42.55018845242839
 30
0.0
 11
-35.92458772725467
 21
-35.53738872627835
 31
0.0
  0
LINE
  5
1DB
330
1F
100
AcDbEntity
  8
0
 62
     3
100
AcDbLine
 10
-62.33740995504525
 20
-41.60444318964801
 30
0.0
 11
-69.26815397070095
 21
-28.63793314055953
 31
0.0
  0
LINE
  5
1DC
330
1F
100
AcDbEntity
  8
0
 62
     3
100
AcDbLine
 10
-92.36514228348312
 20
-38.20501894968683
 30
0.0
 11
-98.05571707267745
 21
-19.44570791479068
 31
0.0
  0
LINE
  5
1DD
330
1F
100
AcDbEntity
  8
0
 62
     3
100
AcDbLine
 10
-55.53421233431447
 20
-83.08363694343237
 30
0.0
 11
-70.68786715100907
 21
-70.64735383183259
 31
0.0
  0
LINE
  5
1DE
330
1F
100
AcDbEntity
  8
0
 62
     3
100
AcDbLine
 10
-70.68786715100907
 20
-70.64735383183259
 30
0.0
 11
-83.12415026260884
 21
-55.4936990151381
 31
0.0
  0
LINE
  5
1DF
330
1F
100
AcDbEntity
  8
0
 62
     3
100
AcDbLine
 10
-83.12415026260884
 20
-55.4936990151381
 30
0.0
 11
-92.36514228348312
 21
-38.20501894968683
 31
0.0
  0
LINE
  5
1E0
330
1F
100
AcDbEntity
  8
0
 62
     3
100
AcDbLine
 10
9.56951528614627
 20
-50.08279592230181
 30
0.0
 11
-9.314550969141578
 21
-50.07030315121397
 31
0.0
  0
LINE
  5
1E1
330
1F
100
AcDbEntity
  8
0
 62
     3
100
AcDbLine
 10
0.0176906262998955
 20
-71.48219537022336
 30
0.0
 11
-6.995060609873007
 21
-70.79258900851474
 31
0.0
  0
LINE
  5
1E2
330
1F
100
AcDbEntity
  8
0
 62
     3
100
AcDbLine
 10
0.0228109676457962
 20
-74.93667571317772
 30
0.0
 11
-14.6089631835639
 21
-73.49557174342007
 31
0.0
  0
LINE
  5
1E3
330
1F
100
AcDbEntity
  8
0
 62
     3
100
AcDbLine
 10
0.0228109676457962
 20
-99.93667571317772
 30
0.0
 11
-19.48622123396705
 21
-98.01520375350087
 31
0.0
  0
LINE
  5
1E4
330
1F
100
AcDbEntity
  8
0
 62
     3
100
AcDbLine
 10
0.121421505026774
 20
-64.01215666839821
 30
0.0
 11
-9.314550969141578
 21
-50.07030315121397
 31
0.0
  0
LINE
  5
1E5
330
1F
100
AcDbEntity
  8
0
 62
     3
100
AcDbLine
 10
-38.24553226886326
 20
-92.32462896430652
 30
0.0
 11
-55.53421233431447
 21
-83.08363694343237
 31
0.0
  0
LINE
  5
1E6
330
1F
100
AcDbEntity
  8
0
 62
     3
100
AcDbLine
 10
-19.48622123396705
 20
-98.01520375350087
 30
0.0
 11
-38.24553226886326
 21
-92.32462896430652
 31
0.0
  0
LINE
  5
1E7
330
1F
100
AcDbEntity
  8
0
 62
     3
100
AcDbLine
 10
-28.67844645973605
 20
-69.22764065152432
 30
0.0
 11
-41.6449565088244
 21
-62.29689663586871
 31
0.0
  0
LINE
  5
1E8
330
1F
100
AcDbEntity
  8
0
 62
     3
100
AcDbLine
 10
-41.6449565088244
 20
-62.29689663586871
 30
0.0
 11
-53.01019762134536
 21
-52.96968430216887
 31
0.0
  0
LINE
  5
1E9
330
1F
100
AcDbEntity
  8
0
 62
     3
100
AcDbLine
 10
-53.01019762134536
 20
-52.96968430216887
 30
0.0
 11
-62.33740995504525
 21
-41.60444318964801
 31
0.0
  0
LINE
  5
1EA
330
1F
100
AcDbEntity
  8
0
 62
     3
100
AcDbLine
 10
-25.40013612571317
 20
-60.95595583742696
 30
0.0
 11
-29.8700981050008
 21
-55.50860081519132
 31
0.0
  0
LINE
  5
1EB
330
1F
100
AcDbEntity
  8
0
 62
     3
100
AcDbLine
 10
-14.6089631835639
 20
-73.49557174342007
 30
0.0
 11
-28.67844645973605
 21
-69.22764065152432
 31
0.0
  0
LINE
  5
1EC
330
1F
100
AcDbEntity
  8
0
 62
     3
100
AcDbLine
 10
-19.95309553676657
 20
-65.42630097588343
 30
0.0
 11
-25.40013612571317
 21
-60.95595583742696
 31
0.0
  0
LINE
  5
1ED
330
1F
100
AcDbEntity
  8
0
 62
     3
100
AcDbLine
 10
-6.995060609873007
 20
-70.79258900851474
 30
0.0
 11
-13.73841784791454
 21
-68.74774916277991
 31
0.0
  0
LINE
  5
1EE
330
1F
100
AcDbEntity
  8
0
 62
     3
100
AcDbLine
 10
-13.73841784791454
 20
-68.74774916277991
 30
0.0
 11
-19.95309553676657
 21
-65.42630097588343
 31
0.0
  0
LINE
  5
1EF
330
1F
100
AcDbEntity
  8
0
 62
     3
100
AcDbLine
 10
-33.19110913951579
 20
-49.29368950905163
 30
0.0
 11
-35.23547464838987
 21
-42.55018845242839
 31
0.0
  0
LINE
  5
1F0
330
1F
100
AcDbEntity
  8
0
 62
     3
100
AcDbLine
 10
-29.8700981050008
 20
-55.50860081519132
 30
0.0
 11
-33.19110913951579
 21
-49.29368950905163
 31
0.0
  0
LINE
  5
1F1
330
1F
100
AcDbEntity
  8
0
 62
     3
100
AcDbLine
 10
55.57983426960607
 20
-83.08363694343208
 30
0.0
 11
38.29115420415485
 21
-92.32462896430631
 31
0.0
  0
LINE
  5
1F2
330
1F
100
AcDbEntity
  8
0
 62
     3
100
AcDbLine
 10
38.29115420415485
 20
-92.32462896430631
 30
0.0
 11
19.53184316925865
 21
-98.01520375350074
 31
0.0
  0
LINE
  5
1F3
330
1F
100
AcDbEntity
  8
0
 62
     3
100
AcDbLine
 10
19.53184316925865
 20
-98.01520375350074
 30
0.0
 11
0.0228109676457962
 21
-99.93667571317772
 31
0.0
  0
LINE
  5
1F4
330
1F
100
AcDbEntity
  8
0
 62
     3
100
AcDbLine
 10
29.89969972471874
 20
-55.49779139330169
 30
0.0
 11
25.43170835591093
 21
-60.94676285246825
 31
0.0
  0
LINE
  5
1F5
330
1F
100
AcDbEntity
  8
0
 62
     3
100
AcDbLine
 10
41.69057844411599
 20
-62.2968966358685
 30
0.0
 11
28.72406839502753
 21
-69.22764065152415
 31
0.0
  0
LINE
  5
1F6
330
1F
100
AcDbEntity
  8
0
 62
     3
100
AcDbLine
 10
0.121421505026774
 20
-64.01215666839821
 30
0.0
 11
9.56951528614627
 21
-50.08279592230181
 31
0.0
  0
LINE
  5
1F7
330
1F
100
AcDbEntity
  8
0
 62
     3
100
AcDbLine
 10
13.77280914657353
 20
-68.74277373254452
 30
0.0
 11
7.030191971882118
 21
-70.7900525289252
 31
0.0
  0
LINE
  5
1F8
330
1F
100
AcDbEntity
  8
0
 62
     3
100
AcDbLine
 10
14.65458511885538
 20
-73.49557174341999
 30
0.0
 11
0.0228109676457962
 21
-74.93667571317772
 31
0.0
  0
LINE
  5
1F9
330
1F
100
AcDbEntity
  8
0
 62
     3
100
AcDbLine
 10
7.030191971882118
 20
-70.7900525289252
 30
0.0
 11
0.0176906262998955
 21
-71.48219537022336
 31
0.0
  0
LINE
  5
1FA
330
1F
100
AcDbEntity
  8
0
 62
     3
100
AcDbLine
 10
28.72406839502753
 20
-69.22764065152415
 30
0.0
 11
14.65458511885538
 21
-73.49557174341999
 31
0.0
  0
LINE
  5
1FB
330
1F
100
AcDbEntity
  8
0
 62
     3
100
AcDbLine
 10
25.43170835591093
 20
-60.94676285246825
 30
0.0
 11
19.98628505513181
 21
-65.41907790285145
 31
0.0
  0
LINE
  5
1FC
330
1F
100
AcDbEntity
  8
0
 62
     3
100
AcDbLine
 10
19.98628505513181
 20
-65.41907790285145
 30
0.0
 11
13.77280914657353
 21
-68.74277373254452
 31
0.0
  0
LINE
  5
1FD
330
1F
100
AcDbEntity
  8
0
 62
     3
100
AcDbLine
 10
53.05581955663683
 20
-52.96968430216861
 30
0.0
 11
41.69057844411599
 21
-62.2968966358685
 31
0.0
  0
LINE
  5
1FE
330
1F
100
AcDbEntity
  8
0
 62
     3
100
AcDbLine
 10
35.26038883614399
 20
-42.53743921188302
 30
0.0
 11
33.21846259742688
 21
-49.28167927805739
 31
0.0
  0
LINE
  5
1FF
330
1F
100
AcDbEntity
  8
0
 62
     3
100
AcDbLine
 10
33.21846259742688
 20
-49.28167927805739
 30
0.0
 11
29.89969972471874
 21
-55.49779139330169
 31
0.0
  0
LINE
  5
200
330
1F
100
AcDbEntity
  8
0
 62
     3
100
AcDbLine
 10
-70.68786715100919
 20
70.77400240547706
 30
0.0
 11
-55.5342123343147
 21
83.21028551707684
 31
0.0
  0
LINE
  5
201
330
1F
100
AcDbEntity
  8
0
 62
     3
100
AcDbLine
 10
-71.19346687937559
 20
7.069573696914289
 30
0.0
 11
-69.14862703364088
 21
13.81293093495583
 31
0.0
  0
LINE
  5
202
330
1F
100
AcDbEntity
  8
0
 62
     3
100
AcDbLine
 10
-69.26815397070095
 20
28.76458171420398
 30
0.0
 11
-62.33740995504536
 21
41.7310917632924
 31
0.0
  0
LINE
  5
203
330
1F
100
AcDbEntity
  8
0
 62
     3
100
AcDbLine
 10
-69.14365160340548
 20
-13.69829605953228
 30
0.0
 11
-71.19093039978611
 21
-6.955678884840864
 31
0.0
  0
LINE
  5
204
330
1F
100
AcDbEntity
  8
0
 62
     3
100
AcDbLine
 10
-92.36514228348312
 20
38.33166752333124
 30
0.0
 11
-83.12415026260897
 21
55.62034758878247
 31
0.0
  0
LINE
  5
205
330
1F
100
AcDbEntity
  8
0
 62
     3
100
AcDbLine
 10
-74.97718903235443
 20
0.0633242868221942
 30
0.0
 11
-73.53608506259672
 21
14.69509843803183
 31
0.0
  0
LINE
  5
206
330
1F
100
AcDbEntity
  8
0
 62
     3
100
AcDbLine
 10
-99.97718903235444
 20
0.0633242868221657
 30
0.0
 11
-98.05571707267745
 21
19.57235648843504
 31
0.0
  0
LINE
  5
207
330
1F
100
AcDbEntity
  8
0
 62
     3
100
AcDbLine
 10
-73.53608506259672
 20
-14.56844986438744
 30
0.0
 11
-74.97718903235443
 21
0.0633242868221942
 31
0.0
  0
LINE
  5
208
330
1F
100
AcDbEntity
  8
0
 62
     3
100
AcDbLine
 10
-98.05571707267745
 20
-19.44570791479068
 30
0.0
 11
-99.97718903235444
 21
0.0633242868221657
 31
0.0
  0
LINE
  5
209
330
1F
100
AcDbEntity
  8
0
 62
     3
100
AcDbLine
 10
-69.26815397070095
 20
-28.63793314055953
 30
0.0
 11
-73.53608506259672
 21
-14.56844986438744
 31
0.0
  0
LINE
  5
20A
330
1F
100
AcDbEntity
  8
0
 62
     3
100
AcDbLine
 10
-71.19093039978611
 20
-6.955678884840864
 30
0.0
 11
-71.88307324108428
 21
0.0568224607413583
 31
0.0
  0
LINE
  5
20B
330
1F
100
AcDbEntity
  8
0
 62
     3
100
AcDbLine
 10
-71.88307324108428
 20
0.0568224607413583
 30
0.0
 11
-71.19346687937559
 21
7.069573696914289
 31
0.0
  0
LINE
  5
20C
330
1F
100
AcDbEntity
  8
0
 62
     3
100
AcDbLine
 10
-98.05571707267745
 20
19.57235648843504
 30
0.0
 11
-92.36514228348312
 21
38.33166752333124
 31
0.0
  0
LINE
  5
20D
330
1F
100
AcDbEntity
  8
0
 62
     3
100
AcDbLine
 10
-73.53608506259672
 20
14.69509843803183
 30
0.0
 11
-69.26815397070095
 21
28.76458171420398
 31
0.0
  0
LINE
  5
20E
330
1F
100
AcDbEntity
  8
0
 62
     3
100
AcDbLine
 10
-83.12415026260897
 20
55.62034758878247
 30
0.0
 11
-70.68786715100919
 21
70.77400240547706
 31
0.0
  0
LINE
  5
20F
330
1F
100
AcDbEntity
  8
0
 62
     3
100
AcDbLine
 10
29.87794914862388
 20
55.89427259741142
 30
0.0
 11
33.19896018313886
 21
49.67936129127173
 31
0.0
  0
LINE
  5
210
330
1F
100
AcDbEntity
  8
0
 62
     3
100
AcDbLine
 10
-0.0731194056919549
 20
65.37999073746096
 30
0.0
 11
9.362853068476624
 21
51.43813722027681
 31
0.0
  0
LINE
  5
211
330
1F
100
AcDbEntity
  8
0
 62
     3
100
AcDbLine
 10
-0.0731194056919549
 20
65.37999073746096
 30
0.0
 11
-9.521213186811337
 21
51.45062999136451
 31
0.0
  0
LINE
  5
212
330
1F
100
AcDbEntity
  8
0
 62
     3
100
AcDbLine
 10
41.69057844411577
 20
62.42354520951312
 30
0.0
 11
53.05581955663661
 21
53.09633287581334
 31
0.0
  0
LINE
  5
213
330
1F
100
AcDbEntity
  8
0
 62
     3
100
AcDbLine
 10
-33.2106115538038
 20
49.6673510602775
 30
0.0
 11
-29.89184868109566
 21
55.88346317552179
 31
0.0
  0
LINE
  5
214
330
1F
100
AcDbEntity
  8
0
 62
     3
100
AcDbLine
 10
-53.01019762134547
 20
53.09633287581334
 30
0.0
 11
-41.64495650882463
 21
62.42354520951318
 31
0.0
  0
LINE
  5
215
330
1F
100
AcDbEntity
  8
0
 62
     3
100
AcDbLine
 10
-9.521213186811337
 20
51.45062999136451
 30
0.0
 11
9.362853068476624
 21
51.43813722027681
 31
0.0
  0
LINE
  5
216
330
1F
100
AcDbEntity
  8
0
 62
     3
100
AcDbLine
 10
-64.74422373381344
 20
0.0633242868222794
 30
0.0
 11
-50.80237021662924
 21
9.499296760990773
 31
0.0
  0
LINE
  5
217
330
1F
100
AcDbEntity
  8
0
 62
     3
100
AcDbLine
 10
-50.81486298771699
 20
-9.384769494297131
 30
0.0
 11
-50.80237021662924
 21
9.499296760990773
 31
0.0
  0
LINE
  5
218
330
1F
100
AcDbEntity
  8
0
 62
     3
100
AcDbLine
 10
-35.9252685618934
 20
-35.87245224065137
 30
0.0
 11
-42.93831708274399
 21
-35.18587574910273
 31
0.0
  0
LINE
  5
219
330
1F
100
AcDbEntity
  8
0
 62
     3
100
AcDbLine
 10
-65.81995577371242
 20
-19.91177196809056
 30
0.0
 11
-69.14365160340548
 21
-13.69829605953228
 31
0.0
  0
LINE
  5
21A
330
1F
100
AcDbEntity
  8
0
 62
     3
100
AcDbLine
 10
-49.68255714891836
 20
-33.14394951038562
 30
0.0
 11
-55.89866926416267
 21
-29.82518663767748
 31
0.0
  0
LINE
  5
21B
330
1F
100
AcDbEntity
  8
0
 62
     3
100
AcDbLine
 10
-55.89866926416267
 20
-29.82518663767748
 30
0.0
 11
-61.34764072332917
 21
-25.35719526886967
 31
0.0
  0
LINE
  5
21C
330
1F
100
AcDbEntity
  8
0
 62
     3
100
AcDbLine
 10
-61.34764072332917
 20
-25.35719526886967
 30
0.0
 11
-65.81995577371242
 21
-19.91177196809056
 31
0.0
  0
LINE
  5
21D
330
1F
100
AcDbEntity
  8
0
 62
     3
100
AcDbLine
 10
-42.93831708274399
 20
-35.18587574910273
 30
0.0
 11
-49.68255714891836
 21
-33.14394951038562
 31
0.0
  0
LINE
  5
21E
330
1F
100
AcDbEntity
  8
0
 62
     3
100
AcDbLine
 10
-64.74422373381344
 20
0.0633242868222794
 30
0.0
 11
-50.81486298771699
 21
-9.384769494297131
 31
0.0
  0
LINE
  5
21F
330
1F
100
AcDbEntity
  8
0
 62
     3
100
AcDbLine
 10
-42.9510663232893
 20
35.30998773543115
 30
0.0
 11
-35.9382665971392
 21
35.99910081429595
 31
0.0
  0
LINE
  5
220
330
1F
100
AcDbEntity
  8
0
 62
     3
100
AcDbLine
 10
-55.90947868605224
 20
29.94461119204208
 30
0.0
 11
-49.69456737991254
 21
33.26562222655707
 31
0.0
  0
LINE
  5
221
330
1F
100
AcDbEntity
  8
0
 62
     3
100
AcDbLine
 10
-65.82717884674434
 20
20.02760862380785
 30
0.0
 11
-61.35683370828781
 21
25.47464921275445
 31
0.0
  0
LINE
  5
222
330
1F
100
AcDbEntity
  8
0
 62
     3
100
AcDbLine
 10
-69.14862703364088
 20
13.81293093495583
 30
0.0
 11
-65.82717884674434
 21
20.02760862380785
 31
0.0
  0
LINE
  5
223
330
1F
100
AcDbEntity
  8
0
 62
     3
100
AcDbLine
 10
-61.35683370828781
 20
25.47464921275445
 30
0.0
 11
-55.90947868605224
 21
29.94461119204208
 31
0.0
  0
LINE
  5
224
330
1F
100
AcDbEntity
  8
0
 62
     3
100
AcDbLine
 10
-62.33740995504536
 20
41.7310917632924
 30
0.0
 11
-53.01019762134547
 21
53.09633287581334
 31
0.0
  0
LINE
  5
225
330
1F
100
AcDbEntity
  8
0
 62
     3
100
AcDbLine
 10
-49.69456737991254
 20
33.26562222655707
 30
0.0
 11
-42.9510663232893
 21
35.30998773543115
 31
0.0
  0
LINE
  5
226
330
1F
100
AcDbEntity
  8
0
 62
     3
100
AcDbLine
 10
-35.25253779252091
 20
42.92311099410312
 30
0.0
 11
-33.2106115538038
 21
49.6673510602775
 31
0.0
  0
LINE
  5
227
330
1F
100
AcDbEntity
  8
0
 62
     3
100
AcDbLine
 10
-35.93911428406954
 20
35.91006247325259
 30
0.0
 11
-35.25253779252091
 21
42.92311099410312
 31
0.0
  0
LINE
  5
228
330
1F
100
AcDbEntity
  8
0
 62
     3
100
AcDbLine
 10
51.42461884549994
 20
9.51141806794169
 30
0.0
 11
51.4121260744123
 21
-9.372648187346214
 31
0.0
  0
LINE
  5
229
330
1F
100
AcDbEntity
  8
0
 62
     3
100
AcDbLine
 10
49.71717252650989
 20
-33.13897365291259
 30
0.0
 11
42.97367146988665
 21
-35.18333916178667
 31
0.0
  0
LINE
  5
22A
330
1F
100
AcDbEntity
  8
0
 62
     3
100
AcDbLine
 10
42.97367146988665
 20
-35.18333916178667
 30
0.0
 11
35.96087174373656
 21
-35.87245224065148
 31
0.0
  0
LINE
  5
22B
330
1F
100
AcDbEntity
  8
0
 62
     3
100
AcDbLine
 10
61.37943885488517
 20
-25.34800063910998
 30
0.0
 11
55.93208383264959
 21
-29.81796261839761
 31
0.0
  0
LINE
  5
22C
330
1F
100
AcDbEntity
  8
0
 62
     3
100
AcDbLine
 10
55.93208383264959
 20
-29.81796261839761
 30
0.0
 11
49.71717252650989
 21
-33.13897365291259
 31
0.0
  0
LINE
  5
22D
330
1F
100
AcDbEntity
  8
0
 62
     3
100
AcDbLine
 10
49.70516229551572
 20
33.2705980840301
 30
0.0
 11
55.92127441075991
 21
29.95183521132196
 31
0.0
  0
LINE
  5
22E
330
1F
100
AcDbEntity
  8
0
 62
     3
100
AcDbLine
 10
55.92127441075991
 20
29.95183521132196
 30
0.0
 11
61.37024586992652
 21
25.48384384251415
 31
0.0
  0
LINE
  5
22F
330
1F
100
AcDbEntity
  8
0
 62
     3
100
AcDbLine
 10
42.96092222934134
 20
35.31252432274721
 30
0.0
 11
49.70516229551572
 21
33.2705980840301
 31
0.0
  0
LINE
  5
230
330
1F
100
AcDbEntity
  8
0
 62
     3
100
AcDbLine
 10
33.19896018313886
 20
49.67936129127173
 30
0.0
 11
35.24332569201294
 21
42.93586023464849
 31
0.0
  0
LINE
  5
231
330
1F
100
AcDbEntity
  8
0
 62
     3
100
AcDbLine
 10
35.94787370849076
 20
35.99910081429584
 30
0.0
 11
42.96092222934134
 21
35.31252432274721
 31
0.0
  0
LINE
  5
232
330
1F
100
AcDbEntity
  8
0
 62
     3
100
AcDbLine
 10
35.24332569201294
 20
42.93586023464849
 30
0.0
 11
35.93243877087775
 21
35.92306050849845
 31
0.0
  0
LINE
  5
233
330
1F
100
AcDbEntity
  8
0
 62
     3
100
AcDbLine
 10
-19.48622123396728
 20
98.14185232714534
 30
0.0
 11
0.0228109676455688
 21
100.0633242868223
 31
0.0
  0
LINE
  5
234
330
1F
100
AcDbEntity
  8
0
 62
     3
100
AcDbLine
 10
-7.02234092825904
 20
71.1757243111453
 30
0.0
 11
-0.0098395826768183
 21
71.86786715244346
 31
0.0
  0
LINE
  5
235
330
1F
100
AcDbEntity
  8
0
 62
     3
100
AcDbLine
 10
-14.60896318356401
 20
73.62222031706455
 30
0.0
 11
0.0228109676455688
 21
75.06332428682231
 31
0.0
  0
LINE
  5
236
330
1F
100
AcDbEntity
  8
0
 62
     3
100
AcDbLine
 10
-38.24553226886337
 20
92.45127753795101
 30
0.0
 11
-19.48622123396728
 21
98.14185232714534
 31
0.0
  0
LINE
  5
237
330
1F
100
AcDbEntity
  8
0
 62
     3
100
AcDbLine
 10
-41.64495650882463
 20
62.42354520951318
 30
0.0
 11
-28.67844645973616
 21
69.35428922516883
 31
0.0
  0
LINE
  5
238
330
1F
100
AcDbEntity
  8
0
 62
     3
100
AcDbLine
 10
-55.5342123343147
 20
83.21028551707684
 30
0.0
 11
-38.24553226886337
 21
92.45127753795101
 31
0.0
  0
LINE
  5
239
330
1F
100
AcDbEntity
  8
0
 62
     3
100
AcDbLine
 10
-28.67844645973616
 20
69.35428922516883
 30
0.0
 11
-14.60896318356401
 21
73.62222031706455
 31
0.0
  0
LINE
  5
23A
330
1F
100
AcDbEntity
  8
0
 62
     3
100
AcDbLine
 10
-25.42385731228785
 20
61.33243463468835
 30
0.0
 11
-19.97843401150873
 21
65.80474968507155
 31
0.0
  0
LINE
  5
23B
330
1F
100
AcDbEntity
  8
0
 62
     3
100
AcDbLine
 10
-29.89184868109566
 20
55.88346317552179
 30
0.0
 11
-25.42385731228785
 21
61.33243463468835
 31
0.0
  0
LINE
  5
23C
330
1F
100
AcDbEntity
  8
0
 62
     3
100
AcDbLine
 10
-19.97843401150873
 20
65.80474968507155
 30
0.0
 11
-13.76495810295045
 21
69.12844551476462
 31
0.0
  0
LINE
  5
23D
330
1F
100
AcDbEntity
  8
0
 62
     3
100
AcDbLine
 10
-13.76495810295045
 20
69.12844551476462
 30
0.0
 11
-7.02234092825904
 21
71.1757243111453
 31
0.0
  0
LINE
  5
23E
330
1F
100
AcDbEntity
  8
0
 62
     3
100
AcDbLine
 10
28.7240683950273
 20
69.35428922516883
 30
0.0
 11
41.69057844411577
 21
62.42354520951312
 31
0.0
  0
LINE
  5
23F
330
1F
100
AcDbEntity
  8
0
 62
     3
100
AcDbLine
 10
19.53184316925842
 20
98.14185232714534
 30
0.0
 11
38.29115420415451
 21
92.45127753795101
 31
0.0
  0
LINE
  5
240
330
1F
100
AcDbEntity
  8
0
 62
     3
100
AcDbLine
 10
25.40798716933625
 20
61.34162761964706
 30
0.0
 11
29.87794914862388
 21
55.89427259741142
 31
0.0
  0
LINE
  5
241
330
1F
100
AcDbEntity
  8
0
 62
     3
100
AcDbLine
 10
7.002911653496084
 20
71.17826079073484
 30
0.0
 11
13.74626889153762
 21
69.13342094500001
 31
0.0
  0
LINE
  5
242
330
1F
100
AcDbEntity
  8
0
 62
     3
100
AcDbLine
 10
0.0228109676455688
 20
75.06332428682231
 30
0.0
 11
14.65458511885515
 21
73.62222031706455
 31
0.0
  0
LINE
  5
243
330
1F
100
AcDbEntity
  8
0
 62
     3
100
AcDbLine
 10
-0.0098395826768183
 20
71.86786715244346
 30
0.0
 11
7.002911653496084
 21
71.17826079073484
 31
0.0
  0
LINE
  5
244
330
1F
100
AcDbEntity
  8
0
 62
     3
100
AcDbLine
 10
13.74626889153762
 20
69.13342094500001
 30
0.0
 11
19.96094658038964
 21
65.81197275810353
 31
0.0
  0
LINE
  5
245
330
1F
100
AcDbEntity
  8
0
 62
     3
100
AcDbLine
 10
19.96094658038964
 20
65.81197275810353
 30
0.0
 11
25.40798716933625
 21
61.34162761964706
 31
0.0
  0
LINE
  5
246
330
1F
100
AcDbEntity
  8
0
 62
     3
100
AcDbLine
 10
14.65458511885515
 20
73.62222031706455
 30
0.0
 11
28.7240683950273
 21
69.35428922516883
 31
0.0
  0
LINE
  5
247
330
1F
100
AcDbEntity
  8
0
 62
     3
100
AcDbLine
 10
0.0228109676455688
 20
100.0633242868223
 30
0.0
 11
19.53184316925842
 21
98.14185232714534
 31
0.0
  0
LINE
  5
248
330
1F
100
AcDbEntity
  8
0
 62
     3
100
AcDbLine
 10
38.29115420415451
 20
92.45127753795101
 30
0.0
 11
55.57983426960572
 21
83.21028551707673
 31
0.0
  0
LINE
  5
249
330
1F
100
AcDbEntity
  8
0
 62
     3
100
AcDbLine
 10
69.3137759059922
 20
-28.6379331405592
 30
0.0
 11
62.38303189033661
 21
-41.60444318964766
 31
0.0
  0
LINE
  5
24A
330
1F
100
AcDbEntity
  8
0
 62
     3
100
AcDbLine
 10
98.1013390079687
 20
-19.44570791479017
 30
0.0
 11
92.41076421877437
 21
-38.20501894968638
 31
0.0
  0
LINE
  5
24B
330
1F
100
AcDbEntity
  8
0
 62
     3
100
AcDbLine
 10
83.16977219790022
 20
-55.49369901513765
 30
0.0
 11
70.73348908630055
 21
-70.64735383183225
 31
0.0
  0
LINE
  5
24C
330
1F
100
AcDbEntity
  8
0
 62
     3
100
AcDbLine
 10
92.41076421877437
 20
-38.20501894968638
 30
0.0
 11
83.16977219790022
 21
-55.49369901513765
 31
0.0
  0
LINE
  5
24D
330
1F
100
AcDbEntity
  8
0
 62
     3
100
AcDbLine
 10
83.16977219790009
 20
55.62034758878247
 30
0.0
 11
92.41076421877426
 21
38.33166752333124
 31
0.0
  0
LINE
  5
24E
330
1F
100
AcDbEntity
  8
0
 62
     3
100
AcDbLine
 10
69.16625675000273
 20
13.82494463317675
 30
0.0
 11
71.21353554638346
 21
7.082327458485337
 31
0.0
  0
LINE
  5
24F
330
1F
100
AcDbEntity
  8
0
 62
     3
100
AcDbLine
 10
73.58170699788786
 20
14.69509843803189
 30
0.0
 11
75.02281096764557
 21
0.0633242868222794
 31
0.0
  0
LINE
  5
250
330
1F
100
AcDbEntity
  8
0
 62
     3
100
AcDbLine
 10
98.10133900796859
 20
19.57235648843504
 30
0.0
 11
100.0228109676455
 21
0.0633242868222794
 31
0.0
  0
LINE
  5
251
330
1F
100
AcDbEntity
  8
0
 62
     3
100
AcDbLine
 10
75.02281096764557
 20
0.0633242868222794
 30
0.0
 11
73.58170699788797
 21
-14.56844986438705
 31
0.0
  0
LINE
  5
252
330
1F
100
AcDbEntity
  8
0
 62
     3
100
AcDbLine
 10
69.17123218023812
 20
-13.68628236131135
 30
0.0
 11
65.8497839933417
 21
-19.90096005016337
 31
0.0
  0
LINE
  5
253
330
1F
100
AcDbEntity
  8
0
 62
     3
100
AcDbLine
 10
73.58170699788797
 20
-14.56844986438705
 30
0.0
 11
69.3137759059922
 21
-28.6379331405592
 31
0.0
  0
LINE
  5
254
330
1F
100
AcDbEntity
  8
0
 62
     3
100
AcDbLine
 10
71.90567838768163
 20
0.0698261129030868
 30
0.0
 11
71.21607202597306
 21
-6.942925123269816
 31
0.0
  0
LINE
  5
255
330
1F
100
AcDbEntity
  8
0
 62
     3
100
AcDbLine
 10
71.21607202597306
 20
-6.942925123269816
 30
0.0
 11
69.17123218023812
 21
-13.68628236131135
 31
0.0
  0
LINE
  5
256
330
1F
100
AcDbEntity
  8
0
 62
     3
100
AcDbLine
 10
71.21353554638346
 20
7.082327458485337
 30
0.0
 11
71.90567838768163
 21
0.0698261129030868
 31
0.0
  0
LINE
  5
257
330
1F
100
AcDbEntity
  8
0
 62
     3
100
AcDbLine
 10
100.0228109676455
 20
0.0633242868222794
 30
0.0
 11
98.1013390079687
 21
-19.44570791479017
 31
0.0
  0
LINE
  5
258
330
1F
100
AcDbEntity
  8
0
 62
     3
100
AcDbLine
 10
92.41076421877426
 20
38.33166752333124
 30
0.0
 11
98.10133900796859
 21
19.57235648843504
 31
0.0
  0
LINE
  5
259
330
1F
100
AcDbEntity
  8
0
 62
     3
100
AcDbLine
 10
62.3830318903365
 20
41.73109176329245
 30
0.0
 11
69.31377590599208
 21
28.76458171420398
 31
0.0
  0
LINE
  5
25A
330
1F
100
AcDbEntity
  8
0
 62
     3
100
AcDbLine
 10
69.31377590599208
 20
28.76458171420398
 30
0.0
 11
73.58170699788786
 21
14.69509843803189
 31
0.0
  0
LINE
  5
25B
330
1F
100
AcDbEntity
  8
0
 62
     3
100
AcDbLine
 10
65.84256092030978
 20
20.03842054173503
 30
0.0
 11
69.16625675000273
 21
13.82494463317675
 31
0.0
  0
LINE
  5
25C
330
1F
100
AcDbEntity
  8
0
 62
     3
100
AcDbLine
 10
70.73348908630032
 20
70.77400240547706
 30
0.0
 11
83.16977219790009
 21
55.62034758878247
 31
0.0
  0
ENDSEC
  0
SECTION
  2
OBJECTS
  0
DICTIONARY
  5
C
330
0
100
AcDbDictionary
281
     1
  3
ACAD_GROUP
350
D
  3
ACAD_LAYOUT
350
1A
  3
ACAD_MLINESTYLE
350
17
  3
ACAD_PLOTSETTINGS
350
19
  3
ACAD_PLOTSTYLENAME
350
E
  3
AcDbVariableDictionary
350
5E
  0
DICTIONARY
  5
D
102
{ACAD_REACTORS
330
C
102
}
330
C
100
AcDbDictionary
281
     1
  0
DICTIONARY
  5
1A
102
{ACAD_REACTORS
330
C
102
}
330
C
100
AcDbDictionary
281
     1
  3
Layout1
350
51
  3
Layout2
350
56
  3
Model
350
22
  0
DICTIONARY
  5
17
102
{ACAD_REACTORS
330
C
102
}
330
C
100
AcDbDictionary
281
     1
  3
Standard
350
18
  0
DICTIONARY
  5
19
102
{ACAD_REACTORS
330
C
102
}
330
C
100
AcDbDictionary
281
     1
  0
ACDBDICTIONARYWDFLT
  5
E
102
{ACAD_REACTORS
330
C
102
}
330
C
100
AcDbDictionary
281
     1
  3
Normal
350
F
100
AcDbDictionaryWithDefault
340
F
  0
DICTIONARY
  5
5E
102
{ACAD_REACTORS
330
C
102
}
330
C
100
AcDbDictionary
281
     1
  3
DIMASSOC
350
5F
  3
HIDETEXT
350
63
  0
LAYOUT
  5
51
102
{ACAD_REACTORS
330
1A
102
}
330
1A
100
AcDbPlotSettings
  1

  2
None
  4

  6

 40
0.0
 41
0.0
 42
0.0
 43
0.0
 44
0.0
 45
0.0
 46
0.0
 47
0.0
 48
0.0
 49
0.0
140
0.0
141
0.0
142
1.0
143
1.0
 70
   688
 72
     0
 73
     0
 74
     5
  7

 75
    16
147
1.0
148
0.0
149
0.0
100
AcDbLayout
  1
Layout1
 70
     1
 71
     1
 10
0.0
 20
0.0
 11
12.0
 21
9.0
 12
0.0
 22
0.0
 32
0.0
 14
0.0
 24
0.0
 34
0.0
 15
0.0
 25
0.0
 35
0.0
146
0.0
 13
0.0
 23
0.0
 33
0.0
 16
1.0
 26
0.0
 36
0.0
 17
0.0
 27
1.0
 37
0.0
 76
     0
330
50
  0
LAYOUT
  5
56
102
{ACAD_REACTORS
330
1A
102
}
330
1A
100
AcDbPlotSettings
  1

  2
None
  4

  6

 40
0.0
 41
0.0
 42
0.0
 43
0.0
 44
0.0
 45
0.0
 46
0.0
 47
0.0
 48
0.0
 49
0.0
140
0.0
141
0.0
142
1.0
143
1.0
 70
   688
 72
     0
 73
     0
 74
     5
  7

 75
    16
147
1.0
148
0.0
149
0.0
100
AcDbLayout
  1
Layout2
 70
     1
 71
     2
 10
0.0
 20
0.0
 11
12.0
 21
9.0
 12
0.0
 22
0.0
 32
0.0
 14
0.0
 24
0.0
 34
0.0
 15
0.0
 25
0.0
 35
0.0
146
0.0
 13
0.0
 23
0.0
 33
0.0
 16
1.0
 26
0.0
 36
0.0
 17
0.0
 27
1.0
 37
0.0
 76
     0
330
55
  0
LAYOUT
  5
22
102
{ACAD_REACTORS
330
1A
102
}
330
1A
100
AcDbPlotSettings
  1

  2
none_device
  4
ANSI_A_(8.50_x_11.00_Inches)
  6

 40
6.349999904632568
 41
19.04999923706054
 42
6.350006103515625
 43
19.04998779296875
 44
215.8999938964843
 45
279.3999938964843
 46
0.0
 47
0.0
 48
0.0
 49
0.0
140
0.0
141
0.0
142
1.0
143
78.436453180766
 70
 11952
 72
     0
 73
     1
 74
     0
  7

 75
     0
147
0.0127491741332998
148
0.0
149
0.0
100
AcDbLayout
  1
Model
 70
     1
 71
     0
 10
0.0
 20
0.0
 11
12.0
 21
9.0
 12
0.0
 22
0.0
 32
0.0
 14
0.0
 24
0.0
 34
0.0
 15
0.0
 25
0.0
 35
0.0
146
0.0
 13
0.0
 23
0.0
 33
0.0
 16
1.0
 26
0.0
 36
0.0
 17
0.0
 27
1.0
 37
0.0
 76
     0
330
1F
  0
MLINESTYLE
  5
18
102
{ACAD_REACTORS
330
17
102
}
330
17
100
AcDbMlineStyle
  2
STANDARD
 70
     0
  3

 62
   256
 51
90.0
 52
90.0
 71
     2
 49
0.5
 62
   256
  6
BYLAYER
 49
-0.5
 62
   256
  6
BYLAYER
  0
ACDBPLACEHOLDER
  5
F
102
{ACAD_REACTORS
330
E
102
}
330
E
  0
DICTIONARYVAR
  5
5F
102
{ACAD_REACTORS
330
5E
102
}
330
5E
100
DictionaryVariables
280
     0
  1
2
  0
DICTIONARYVAR
  5
63
102
{ACAD_REACTORS
330
5E
102
}
330
5E
100
DictionaryVariables
280
     0
  1
1
  0
ENDSEC
  0
EOF
