  0
SECTION
  2
HEADER
  9
$ACADVER
  1
AC1015
  9
$ACADMAINTVER
 70
    13
  9
$DWGCODEPAGE
  3
ANSI_1252
  9
$INSBASE
 10
0.0
 20
0.0
 30
0.0
  9
$EXTMIN
 10
-100.5122811395835
 20
-99.93667571317772
 30
0.0
  9
$EXTMAX
 10
100.0228109676455
 20
101.3529812953333
 30
0.0
  9
$LIMMIN
 10
0.0
 20
0.0
  9
$LIMMAX
 10
420.0
 20
297.0
  9
$ORTHOMODE
 70
     0
  9
$REGENMODE
 70
     1
  9
$FILLMODE
 70
     1
  9
$QTEXTMODE
 70
     0
  9
$MIRRTEXT
 70
     1
  9
$LTSCALE
 40
1.0
  9
$ATTMODE
 70
     1
  9
$TEXTSIZE
 40
2.5
  9
$TRACEWID
 40
1.0
  9
$TEXTSTYLE
  7
Standard
  9
$CLAYER
  8
0
  9
$CELTYPE
  6
ByLayer
  9
$CECOLOR
 62
   256
  9
$CELTSCALE
 40
1.0
  9
$DISPSILH
 70
     0
  9
$DIMSCALE
 40
1.0
  9
$DIMASZ
 40
2.5
  9
$DIMEXO
 40
0.625
  9
$DIMDLI
 40
3.75
  9
$DIMRND
 40
0.0
  9
$DIMDLE
 40
0.0
  9
$DIMEXE
 40
1.25
  9
$DIMTP
 40
0.0
  9
$DIMTM
 40
0.0
  9
$DIMTXT
 40
2.5
  9
$DIMCEN
 40
2.5
  9
$DIMTSZ
 40
0.0
  9
$DIMTOL
 70
     0
  9
$DIMLIM
 70
     0
  9
$DIMTIH
 70
     0
  9
$DIMTOH
 70
     0
  9
$DIMSE1
 70
     0
  9
$DIMSE2
 70
     0
  9
$DIMTAD
 70
     1
  9
$DIMZIN
 70
     8
  9
$DIMBLK
  1

  9
$DIMASO
 70
     1
  9
$DIMSHO
 70
     1
  9
$DIMPOST
  1

  9
$DIMAPOST
  1

  9
$DIMALT
 70
     0
  9
$DIMALTD
 70
     3
  9
$DIMALTF
 40
0.03937007874016
  9
$DIMLFAC
 40
1.0
  9
$DIMTOFL
 70
     1
  9
$DIMTVP
 40
0.0
  9
$DIMTIX
 70
     0
  9
$DIMSOXD
 70
     0
  9
$DIMSAH
 70
     0
  9
$DIMBLK1
  1

  9
$DIMBLK2
  1

  9
$DIMSTYLE
  2
ISO-25
  9
$DIMCLRD
 70
     0
  9
$DIMCLRE
 70
     0
  9
$DIMCLRT
 70
     0
  9
$DIMTFAC
 40
1.0
  9
$DIMGAP
 40
0.625
  9
$DIMJUST
 70
     0
  9
$DIMSD1
 70
     0
  9
$DIMSD2
 70
     0
  9
$DIMTOLJ
 70
     0
  9
$DIMTZIN
 70
     8
  9
$DIMALTZ
 70
     0
  9
$DIMALTTZ
 70
     0
  9
$DIMUPT
 70
     0
  9
$DIMDEC
 70
     2
  9
$DIMTDEC
 70
     2
  9
$DIMALTU
 70
     2
  9
$DIMALTTD
 70
     3
  9
$DIMTXSTY
  7
Standard
  9
$DIMAUNIT
 70
     0
  9
$DIMADEC
 70
     0
  9
$DIMALTRND
 40
0.0
  9
$DIMAZIN
 70
     0
  9
$DIMDSEP
 70
    44
  9
$DIMATFIT
 70
     3
  9
$DIMFRAC
 70
     0
  9
$DIMLDRBLK
  1

  9
$DIMLUNIT
 70
     2
  9
$DIMLWD
 70
    -2
  9
$DIMLWE
 70
    -2
  9
$DIMTMOVE
 70
     0
  9
$LUNITS
 70
     2
  9
$LUPREC
 70
     4
  9
$SKETCHINC
 40
1.0
  9
$FILLETRAD
 40
10.0
  9
$AUNITS
 70
     0
  9
$AUPREC
 70
     0
  9
$MENU
  1
.
  9
$ELEVATION
 40
0.0
  9
$PELEVATION
 40
0.0
  9
$THICKNESS
 40
0.0
  9
$LIMCHECK
 70
     0
  9
$CHAMFERA
 40
10.0
  9
$CHAMFERB
 40
10.0
  9
$CHAMFERC
 40
20.0
  9
$CHAMFERD
 40
0.0
  9
$SKPOLY
 70
     0
  9
$TDCREATE
 40
2454278.508059167
  9
$TDUCREATE
 40
2454278.424725833
  9
$TDUPDATE
 40
2454278.509985879
  9
$TDUUPDATE
 40
2454278.426652546
  9
$TDINDWG
 40
0.0019268981
  9
$TDUSRTIMER
 40
0.0019268981
  9
$USRTIMER
 70
     1
  9
$ANGBASE
 50
0.0
  9
$ANGDIR
 70
     0
  9
$PDMODE
 70
     0
  9
$PDSIZE
 40
0.0
  9
$PLINEWID
 40
0.0
  9
$SPLFRAME
 70
     0
  9
$SPLINETYPE
 70
     6
  9
$SPLINESEGS
 70
     8
  9
$HANDSEED
  5
438
  9
$SURFTAB1
 70
     6
  9
$SURFTAB2
 70
     6
  9
$SURFTYPE
 70
     6
  9
$SURFU
 70
     6
  9
$SURFV
 70
     6
  9
$UCSBASE
  2

  9
$UCSNAME
  2

  9
$UCSORG
 10
0.0
 20
0.0
 30
0.0
  9
$UCSXDIR
 10
1.0
 20
0.0
 30
0.0
  9
$UCSYDIR
 10
0.0
 20
1.0
 30
0.0
  9
$UCSORTHOREF
  2

  9
$UCSORTHOVIEW
 70
     0
  9
$UCSORGTOP
 10
0.0
 20
0.0
 30
0.0
  9
$UCSORGBOTTOM
 10
0.0
 20
0.0
 30
0.0
  9
$UCSORGLEFT
 10
0.0
 20
0.0
 30
0.0
  9
$UCSORGRIGHT
 10
0.0
 20
0.0
 30
0.0
  9
$UCSORGFRONT
 10
0.0
 20
0.0
 30
0.0
  9
$UCSORGBACK
 10
0.0
 20
0.0
 30
0.0
  9
$PUCSBASE
  2

  9
$PUCSNAME
  2

  9
$PUCSORG
 10
0.0
 20
0.0
 30
0.0
  9
$PUCSXDIR
 10
1.0
 20
0.0
 30
0.0
  9
$PUCSYDIR
 10
0.0
 20
1.0
 30
0.0
  9
$PUCSORTHOREF
  2

  9
$PUCSORTHOVIEW
 70
     0
  9
$PUCSORGTOP
 10
0.0
 20
0.0
 30
0.0
  9
$PUCSORGBOTTOM
 10
0.0
 20
0.0
 30
0.0
  9
$PUCSORGLEFT
 10
0.0
 20
0.0
 30
0.0
  9
$PUCSORGRIGHT
 10
0.0
 20
0.0
 30
0.0
  9
$PUCSORGFRONT
 10
0.0
 20
0.0
 30
0.0
  9
$PUCSORGBACK
 10
0.0
 20
0.0
 30
0.0
  9
$USERI1
 70
     0
  9
$USERI2
 70
     0
  9
$USERI3
 70
     0
  9
$USERI4
 70
     0
  9
$USERI5
 70
     0
  9
$USERR1
 40
0.0
  9
$USERR2
 40
0.0
  9
$USERR3
 40
0.0
  9
$USERR4
 40
0.0
  9
$USERR5
 40
0.0
  9
$WORLDVIEW
 70
     1
  9
$SHADEDGE
 70
     3
  9
$SHADEDIF
 70
    70
  9
$TILEMODE
 70
     1
  9
$MAXACTVP
 70
    64
  9
$PINSBASE
 10
0.0
 20
0.0
 30
0.0
  9
$PLIMCHECK
 70
     0
  9
$PEXTMIN
 10
0.0
 20
0.0
 30
0.0
  9
$PEXTMAX
 10
0.0
 20
0.0
 30
0.0
  9
$PLIMMIN
 10
0.0
 20
0.0
  9
$PLIMMAX
 10
12.0
 20
9.0
  9
$UNITMODE
 70
     0
  9
$VISRETAIN
 70
     1
  9
$PLINEGEN
 70
     0
  9
$PSLTSCALE
 70
     1
  9
$TREEDEPTH
 70
  3020
  9
$CMLSTYLE
  2
Standard
  9
$CMLJUST
 70
     0
  9
$CMLSCALE
 40
20.0
  9
$PROXYGRAPHICS
 70
     1
  9
$MEASUREMENT
 70
     1
  9
$CELWEIGHT
370
    -1
  9
$ENDCAPS
280
     0
  9
$JOINSTYLE
280
     0
  9
$LWDISPLAY
290
     0
  9
$INSUNITS
 70
     4
  9
$HYPERLINKBASE
  1

  9
$STYLESHEET
  1

  9
$XEDIT
290
     1
  9
$CEPSNTYPE
380
     0
  9
$PSTYLEMODE
290
     1
  9
$FINGERPRINTGUID
  2
{FDEAD578-A652-11D2-9A35-0060089B3A3F}
  9
$VERSIONGUID
  2
{D5EAB9C5-2197-4621-ACE3-C3DA459DED28}
  9
$EXTNAMES
290
     1
  9
$PSVPSCALE
 40
0.0
  9
$OLESTARTUP
290
     0
  0
ENDSEC
  0
SECTION
  2
CLASSES
  0
CLASS
  1
ACDBDICTIONARYWDFLT
  2
AcDbDictionaryWithDefault
  3
AutoCAD 2000
 90
        0
280
     0
281
     0
  0
CLASS
  1
ACDBPLACEHOLDER
  2
AcDbPlaceHolder
  3
AutoCAD 2000
 90
        0
280
     0
281
     0
  0
CLASS
  1
LAYOUT
  2
AcDbLayout
  3
AutoCAD 2000
 90
        0
280
     0
281
     0
  0
CLASS
  1
DICTIONARYVAR
  2
AcDbDictionaryVar
  3
AutoCAD 2000
 90
        0
280
     0
281
     0
  0
ENDSEC
  0
SECTION
  2
TABLES
  0
TABLE
  2
VPORT
  5
8
330
0
100
AcDbSymbolTable
 70
     5
  0
VPORT
  5
437
330
8
100
AcDbSymbolTableRecord
100
AcDbViewportTableRecord
  2
*Active
 70
     0
 10
0.0
 20
0.0
 11
1.0
 21
1.0
 12
31.03837229318344
 22
-23.73391391448248
 13
0.0
 23
0.0
 14
10.0
 24
10.0
 15
10.0
 25
10.0
 16
0.0
 26
0.0
 36
1.0
 17
0.0
 27
0.0
 37
0.0
 40
416.2432475831868
 41
1.243935309973045
 42
50.0
 43
0.0
 44
0.0
 50
0.0
 51
0.0
 71
     0
 72
   100
 73
     1
 74
     3
 75
     0
 76
     0
 77
     0
 78
     0
281
     0
 65
     1
110
0.0
120
0.0
130
0.0
111
1.0
121
0.0
131
0.0
112
0.0
122
1.0
132
0.0
 79
     0
146
0.0
  0
ENDTAB
  0
TABLE
  2
LTYPE
  5
5
330
0
100
AcDbSymbolTable
 70
     1
  0
LTYPE
  5
14
330
5
100
AcDbSymbolTableRecord
100
AcDbLinetypeTableRecord
  2
ByBlock
 70
     0
  3

 72
    65
 73
     0
 40
0.0
  0
LTYPE
  5
15
330
5
100
AcDbSymbolTableRecord
100
AcDbLinetypeTableRecord
  2
ByLayer
 70
     0
  3

 72
    65
 73
     0
 40
0.0
  0
LTYPE
  5
16
330
5
100
AcDbSymbolTableRecord
100
AcDbLinetypeTableRecord
  2
Continuous
 70
     0
  3
Solid line
 72
    65
 73
     0
 40
0.0
  0
ENDTAB
  0
TABLE
  2
LAYER
  5
2
330
0
100
AcDbSymbolTable
 70
     1
  0
LAYER
  5
10
330
2
100
AcDbSymbolTableRecord
100
AcDbLayerTableRecord
  2
0
 70
     0
 62
     7
  6
Continuous
370
    -3
390
F
  0
ENDTAB
  0
TABLE
  2
STYLE
  5
3
330
0
100
AcDbSymbolTable
 70
     1
  0
STYLE
  5
11
330
3
100
AcDbSymbolTableRecord
100
AcDbTextStyleTableRecord
  2
Standard
 70
     0
 40
0.0
 41
1.0
 50
0.0
 71
     0
 42
2.5
  3
txt
  4

  0
ENDTAB
  0
TABLE
  2
VIEW
  5
6
330
0
100
AcDbSymbolTable
 70
     0
  0
ENDTAB
  0
TABLE
  2
UCS
  5
7
330
0
100
AcDbSymbolTable
 70
     0
  0
ENDTAB
  0
TABLE
  2
APPID
  5
9
330
0
100
AcDbSymbolTable
 70
     1
  0
APPID
  5
12
330
9
100
AcDbSymbolTableRecord
100
AcDbRegAppTableRecord
  2
ACAD
 70
     0
  0
ENDTAB
  0
TABLE
  2
DIMSTYLE
  5
A
330
0
100
AcDbSymbolTable
 70
     1
100
AcDbDimStyleTable
 71
     0
  0
DIMSTYLE
105
27
330
A
100
AcDbSymbolTableRecord
100
AcDbDimStyleTableRecord
  2
ISO-25
 70
     0
 41
2.5
 42
0.625
 43
3.75
 44
1.25
 73
     0
 74
     0
 77
     1
 78
     8
140
2.5
141
2.5
143
0.03937007874016
147
0.625
171
     3
172
     1
271
     2
272
     2
274
     3
278
    44
283
     0
284
     8
340
11
  0
ENDTAB
  0
TABLE
  2
BLOCK_RECORD
  5
1
330
0
100
AcDbSymbolTable
 70
     5
  0
BLOCK_RECORD
  5
1F
330
1
100
AcDbSymbolTableRecord
100
AcDbBlockTableRecord
  2
*Model_Space
340
22
  0
BLOCK_RECORD
  5
50
330
1
100
AcDbSymbolTableRecord
100
AcDbBlockTableRecord
  2
*Paper_Space
340
51
  0
BLOCK_RECORD
  5
55
330
1
100
AcDbSymbolTableRecord
100
AcDbBlockTableRecord
  2
*Paper_Space0
340
56
  0
ENDTAB
  0
ENDSEC
  0
SECTION
  2
BLOCKS
  0
BLOCK
  5
20
330
1F
100
AcDbEntity
  8
0
100
AcDbBlockBegin
  2
*Model_Space
 70
     0
 10
0.0
 20
0.0
 30
0.0
  3
*Model_Space
  1

  0
ENDBLK
  5
21
330
1F
100
AcDbEntity
  8
0
100
AcDbBlockEnd
  0
BLOCK
  5
52
330
50
100
AcDbEntity
 67
     1
  8
0
100
AcDbBlockBegin
  2
*Paper_Space
 70
     0
 10
0.0
 20
0.0
 30
0.0
  3
*Paper_Space
  1

  0
ENDBLK
  5
53
330
50
100
AcDbEntity
 67
     1
  8
0
100
AcDbBlockEnd
  0
BLOCK
  5
57
330
55
100
AcDbEntity
  8
0
100
AcDbBlockBegin
  2
*Paper_Space0
 70
     0
 10
0.0
 20
0.0
 30
0.0
  3
*Paper_Space0
  1

  0
ENDBLK
  5
58
330
55
100
AcDbEntity
  8
0
100
AcDbBlockEnd
  0
ENDSEC
  0
SECTION
  2
ENTITIES
  0
LINE
  5
3B7
330
1F
100
AcDbEntity
  8
0
 62
     3
100
AcDbLine
 10
-4.029458729910402
 20
-67.10271672151248
 30
0.0
 11
-4.026567409689278
 21
-34.46352249768926
 31
0.0
  0
LINE
  5
3B8
330
1F
100
AcDbEntity
  8
0
 62
     3
100
AcDbLine
 10
2.5352921863157
 20
-34.45448043867304
 30
0.0
 11
2.510250045790598
 21
-67.10271672151248
 31
0.0
  0
LINE
  5
3B9
330
1F
100
AcDbEntity
  8
0
 62
     3
100
AcDbLine
 10
25.92571692382375
 20
-29.23528841341806
 30
0.0
 11
25.92571692382375
 21
-85.02724954241804
 31
0.0
  0
LINE
  5
3BA
330
1F
100
AcDbEntity
  8
0
 62
     3
100
AcDbLine
 10
-27.30340426340831
 20
-84.98825280741437
 30
0.0
 11
-27.30340426340831
 21
-29.23528841341795
 31
0.0
  0
LINE
  5
3BB
330
1F
100
AcDbEntity
  8
0
 62
     3
100
AcDbLine
 10
8.813680676376861
 20
-89.24516296313345
 30
0.0
 11
-0.6273951730893259
 21
-89.45729234957406
 31
0.0
  0
LINE
  5
3BC
330
1F
100
AcDbEntity
  8
0
 62
     3
100
AcDbLine
 10
-9.821912897065431
 20
-89.26645672126117
 30
0.0
 11
-19.2493492292383
 21
-88.66222948892394
 31
0.0
  0
LINE
  5
3BD
330
1F
100
AcDbEntity
  8
0
 62
     3
100
AcDbLine
 10
-19.2493492292383
 20
-88.66222948892394
 30
0.0
 11
-24.29061826066345
 21
-88.13204445793667
 31
0.0
  0
LINE
  5
3BE
330
1F
100
AcDbEntity
  8
0
 62
     3
100
AcDbLine
 10
-26.47119311131541
 20
-87.07676565541566
 30
0.0
 11
-25.51352461064925
 21
-87.77597872797167
 31
0.0
  0
LINE
  5
3BF
330
1F
100
AcDbEntity
  8
0
 62
     3
100
AcDbLine
 10
-27.02221265852836
 20
-86.29778062590137
 30
0.0
 11
-26.47119311131541
 21
-87.07676565541566
 31
0.0
  0
LINE
  5
3C0
330
1F
100
AcDbEntity
  8
0
 62
     3
100
AcDbLine
 10
-27.30340426340831
 20
-84.98825280741437
 30
0.0
 11
-27.02221265852836
 21
-86.29778062590137
 31
0.0
  0
LINE
  5
3C1
330
1F
100
AcDbEntity
  8
0
 62
     3
100
AcDbLine
 10
-25.51352461064925
 20
-87.77597872797167
 30
0.0
 11
-24.29061826066345
 21
-88.13204445793667
 31
0.0
  0
LINE
  5
3C2
330
1F
100
AcDbEntity
  8
0
 62
     3
100
AcDbLine
 10
-0.6273951730893259
 20
-89.45729234957406
 30
0.0
 11
-9.821912897065431
 21
-89.26645672126117
 31
0.0
  0
LINE
  5
3C3
330
1F
100
AcDbEntity
  8
0
 62
     3
100
AcDbLine
 10
22.83410193968575
 20
-88.13250304590287
 30
0.0
 11
17.33581653139663
 21
-88.69740738539817
 31
0.0
  0
LINE
  5
3C4
330
1F
100
AcDbEntity
  8
0
 62
     3
100
AcDbLine
 10
17.33581653139663
 20
-88.69740738539817
 30
0.0
 11
8.813680676376861
 21
-89.24516296313345
 31
0.0
  0
LINE
  5
3C5
330
1F
100
AcDbEntity
  8
0
 62
     3
100
AcDbLine
 10
24.04963952873572
 20
-87.78929295479276
 30
0.0
 11
22.83410193968666
 21
-88.13250304590287
 31
0.0
  0
LINE
  5
3C6
330
1F
100
AcDbEntity
  8
0
 62
     3
100
AcDbLine
 10
25.08006496473877
 20
-87.04781949261079
 30
0.0
 11
24.04963952873572
 21
-87.78929295479276
 31
0.0
  0
LINE
  5
3C7
330
1F
100
AcDbEntity
  8
0
 62
     3
100
AcDbLine
 10
25.66945195513062
 20
-86.17458524158285
 30
0.0
 11
25.08006496473877
 21
-87.04781949261079
 31
0.0
  0
LINE
  5
3C8
330
1F
100
AcDbEntity
  8
0
 62
     3
100
AcDbLine
 10
25.92571692382375
 20
-85.02724954241804
 30
0.0
 11
25.66945195513062
 21
-86.17458524158285
 31
0.0
  0
LINE
  5
3C9
330
1F
100
AcDbEntity
  8
0
 62
     3
100
AcDbLine
 10
2.510250045790598
 20
-67.10271672151248
 30
0.0
 11
-4.029458729910402
 21
-67.10271672151248
 31
0.0
  0
LINE
  5
3CA
330
1F
100
AcDbEntity
  8
0
 62
     3
100
AcDbLine
 10
67.04712838492878
 20
-2.758176184247389
 30
0.0
 11
34.40793416110477
 21
-2.755284864025981
 31
0.0
  0
LINE
  5
3CB
330
1F
100
AcDbEntity
  8
0
 62
     3
100
AcDbLine
 10
34.39889210208866
 20
3.806574731978543
 30
0.0
 11
67.04712838492878
 21
3.78153259145364
 31
0.0
  0
LINE
  5
3CC
330
1F
100
AcDbEntity
  8
0
 62
     3
100
AcDbLine
 10
29.17970007683356
 20
27.19699946948662
 30
0.0
 11
84.9716612058337
 21
27.19699946948662
 31
0.0
  0
LINE
  5
3CD
330
1F
100
AcDbEntity
  8
0
 62
     3
100
AcDbLine
 10
84.93266447082964
 20
-26.03212171774504
 30
0.0
 11
29.17970007683356
 21
-26.03212171774504
 31
0.0
  0
LINE
  5
3CE
330
1F
100
AcDbEntity
  8
0
 62
     3
100
AcDbLine
 10
2.668752336256602
 20
68.27294530877594
 30
0.0
 11
2.665861016035705
 21
35.63375108495284
 31
0.0
  0
LINE
  5
3CF
330
1F
100
AcDbEntity
  8
0
 62
     3
100
AcDbLine
 10
-3.895998579969273
 20
35.62470902593662
 30
0.0
 11
-3.870956439444398
 21
68.27294530877594
 31
0.0
  0
LINE
  5
3D0
330
1F
100
AcDbEntity
  8
0
 62
     3
100
AcDbLine
 10
-27.28642331747733
 20
30.40551700068164
 30
0.0
 11
-27.28642331747733
 21
86.19747812968142
 31
0.0
  0
LINE
  5
3D1
330
1F
100
AcDbEntity
  8
0
 62
     3
100
AcDbLine
 10
25.94269786975473
 20
86.15848139467784
 30
0.0
 11
25.94269786975473
 21
30.40551700068164
 31
0.0
  0
LINE
  5
3D2
330
1F
100
AcDbEntity
  8
0
 62
     3
100
AcDbLine
 10
-30.52342856482027
 20
27.26091182253185
 30
0.0
 11
-29.15147241922636
 21
27.60657487663206
 31
0.0
  0
LINE
  5
3D3
330
1F
100
AcDbEntity
  8
0
 62
     3
100
AcDbLine
 10
-29.47203677029028
 20
-26.30569006442402
 30
0.0
 11
-30.82803286281933
 21
-26.06428141591237
 31
0.0
  0
LINE
  5
3D4
330
1F
100
AcDbEntity
  8
0
 62
     3
100
AcDbLine
 10
-90.74542946071233
 20
0.5886507350136299
 30
0.0
 11
-90.55459383240032
 21
9.783168458990246
 31
0.0
  0
LINE
  5
3D5
330
1F
100
AcDbEntity
  8
0
 62
     3
100
AcDbLine
 10
-68.39085383265137
 20
3.990714291834734
 30
0.0
 11
-35.75165960882827
 21
3.987822971613439
 31
0.0
  0
LINE
  5
3D6
330
1F
100
AcDbEntity
  8
0
 62
     3
100
AcDbLine
 10
-35.74261754981239
 20
-2.574036624391055
 30
0.0
 11
-68.39085383265137
 21
-2.548994483866266
 31
0.0
  0
LINE
  5
3D7
330
1F
100
AcDbEntity
  8
0
 62
     3
100
AcDbLine
 10
-30.52342552455638
 20
-25.96446136189916
 30
0.0
 11
-86.31538665355742
 21
-25.96446136189916
 31
0.0
  0
LINE
  5
3D8
330
1F
100
AcDbEntity
  8
0
 62
     3
100
AcDbLine
 10
-89.98554449653715
 20
-17.37456096947227
 30
0.0
 11
-90.53330007427234
 21
-8.852425114452046
 31
0.0
  0
LINE
  5
3D9
330
1F
100
AcDbEntity
  8
0
 62
     3
100
AcDbLine
 10
-87.46272235272135
 20
-25.70819639320646
 30
0.0
 11
-88.3359566037493
 21
-25.11880940281398
 31
0.0
  0
LINE
  5
3DA
330
1F
100
AcDbEntity
  8
0
 62
     3
100
AcDbLine
 10
-86.31538665355742
 20
-25.96446136189916
 30
0.0
 11
-87.46272235272135
 21
-25.70819639320646
 31
0.0
  0
LINE
  5
3DB
330
1F
100
AcDbEntity
  8
0
 62
     3
100
AcDbLine
 10
-89.42064015704136
 20
-22.87284637776167
 30
0.0
 11
-89.98554449653715
 21
-17.37456096947227
 31
0.0
  0
LINE
  5
3DC
330
1F
100
AcDbEntity
  8
0
 62
     3
100
AcDbLine
 10
-89.07743006593136
 20
-24.08838396681116
 30
0.0
 11
-89.42064015704136
 21
-22.87284637776187
 31
0.0
  0
LINE
  5
3DD
330
1F
100
AcDbEntity
  8
0
 62
     3
100
AcDbLine
 10
-88.3359566037493
 20
-25.11880940281398
 30
0.0
 11
-89.07743006593136
 21
-24.08838396681116
 31
0.0
  0
LINE
  5
3DE
330
1F
100
AcDbEntity
  8
0
 62
     3
100
AcDbLine
 10
-90.53330007427234
 20
-8.852425114452046
 30
0.0
 11
-90.74542946071233
 21
0.5886507350136299
 31
0.0
  0
LINE
  5
3DF
330
1F
100
AcDbEntity
  8
0
 62
     3
100
AcDbLine
 10
-68.39085383265137
 20
-2.548994483866266
 30
0.0
 11
-68.39085383265137
 21
3.990714291834734
 31
0.0
  0
LINE
  5
3E0
330
1F
100
AcDbEntity
  8
0
 62
     3
100
AcDbLine
 10
-35.75165960882827
 20
3.987822971613439
 30
0.0
 11
-35.74261754981239
 21
-2.574036624391055
 31
0.0
  0
LINE
  5
3E1
330
1F
100
AcDbEntity
  8
0
 62
     3
100
AcDbLine
 10
-86.27638991855338
 20
27.26465982533244
 30
0.0
 11
-30.52342552455638
 21
27.26465982533244
 31
0.0
  0
LINE
  5
3E2
330
1F
100
AcDbEntity
  8
0
 62
     3
100
AcDbLine
 10
-89.95036660006325
 20
19.21060479116272
 30
0.0
 11
-89.42018156907534
 21
24.25187382258781
 31
0.0
  0
LINE
  5
3E3
330
1F
100
AcDbEntity
  8
0
 62
     3
100
AcDbLine
 10
-90.55459383240032
 20
9.783168458990246
 30
0.0
 11
-89.95036660006325
 21
19.21060479116272
 31
0.0
  0
LINE
  5
3E4
330
1F
100
AcDbEntity
  8
0
 62
     3
100
AcDbLine
 10
-87.58591773704029
 20
26.98346822045294
 30
0.0
 11
-88.36490276655423
 21
26.43244867323955
 31
0.0
  0
LINE
  5
3E5
330
1F
100
AcDbEntity
  8
0
 62
     3
100
AcDbLine
 10
-89.0641158391104
 20
25.47478017257361
 30
0.0
 11
-89.42018156907534
 21
24.25187382258781
 31
0.0
  0
LINE
  5
3E6
330
1F
100
AcDbEntity
  8
0
 62
     3
100
AcDbLine
 10
-88.36490276655423
 20
26.43244867323955
 30
0.0
 11
-89.0641158391104
 21
25.47478017257361
 31
0.0
  0
LINE
  5
3E7
330
1F
100
AcDbEntity
  8
0
 62
     3
100
AcDbLine
 10
-86.27638991855338
 20
27.26465982533244
 30
0.0
 11
-87.58591773704029
 21
26.98346822045294
 31
0.0
  0
LINE
  5
3E8
330
1F
100
AcDbEntity
  8
0
 62
     3
100
AcDbLine
 10
23.9033328409389
 20
10.79564835470512
 30
0.0
 11
25.41702573486464
 21
5.805671619422724
 31
0.0
  0
LINE
  5
3E9
330
1F
100
AcDbEntity
  8
0
 62
     3
100
AcDbLine
 10
-26.76075118258722
 20
5.805671619422724
 30
0.0
 11
-25.24705828866149
 21
10.79564835470512
 31
0.0
  0
LINE
  5
3EA
330
1F
100
AcDbEntity
  8
0
 62
     3
100
AcDbLine
 10
-4.026567409689278
 20
-34.46352249768926
 30
0.0
 11
2.5352921863157
 21
-34.45448043867304
 31
0.0
  0
LINE
  5
3EB
330
1F
100
AcDbEntity
  8
0
 62
     3
100
AcDbLine
 10
4.517539841767757
 20
-25.4726194049322
 30
0.0
 11
-0.6718627238612953
 21
-25.98373094620626
 31
0.0
  0
LINE
  5
3EC
330
1F
100
AcDbEntity
  8
0
 62
     3
100
AcDbLine
 10
-22.78895441110898
 20
-14.16189914452772
 30
0.0
 11
-25.24705828866149
 21
-9.563110247117691
 31
0.0
  0
LINE
  5
3ED
330
1F
100
AcDbEntity
  8
0
 62
     3
100
AcDbLine
 10
-10.85124202477277
 20
-23.95892651100652
 30
0.0
 11
-15.4500309221828
 21
-21.50082263345399
 31
0.0
  0
LINE
  5
3EE
330
1F
100
AcDbEntity
  8
0
 62
     3
100
AcDbLine
 10
-28.29428301250527
 20
-27.02546095126584
 30
0.0
 11
-29.47203677029028
 21
-26.30569006442402
 31
0.0
  0
LINE
  5
3EF
330
1F
100
AcDbEntity
  8
0
 62
     3
100
AcDbLine
 10
-27.64531931470719
 20
-27.86333530808767
 30
0.0
 11
-28.29428301250527
 21
-27.02546095126584
 31
0.0
  0
LINE
  5
3F0
330
1F
100
AcDbEntity
  8
0
 62
     3
100
AcDbLine
 10
-27.29965626060743
 20
-29.23529145368116
 30
0.0
 11
-27.64531931470719
 21
-27.86333530808767
 31
0.0
  0
LINE
  5
3F1
330
1F
100
AcDbEntity
  8
0
 62
     3
100
AcDbLine
 10
-19.48090310342354
 20
-18.19277132576846
 30
0.0
 11
-22.78895441110898
 21
-14.16189914452772
 31
0.0
  0
LINE
  5
3F2
330
1F
100
AcDbEntity
  8
0
 62
     3
100
AcDbLine
 10
-15.4500309221828
 20
-21.50082263345399
 30
0.0
 11
-19.48090310342354
 21
-18.19277132576846
 31
0.0
  0
LINE
  5
3F3
330
1F
100
AcDbEntity
  8
0
 62
     3
100
AcDbLine
 10
-0.6718627238612953
 20
-25.98373094620626
 30
0.0
 11
-5.861265289490347
 21
-25.47261940493223
 31
0.0
  0
LINE
  5
3F4
330
1F
100
AcDbEntity
  8
0
 62
     3
100
AcDbLine
 10
-5.861265289490347
 20
-25.47261940493223
 30
0.0
 11
-10.85124202477277
 21
-23.95892651100652
 31
0.0
  0
LINE
  5
3F5
330
1F
100
AcDbEntity
  8
0
 62
     3
100
AcDbLine
 10
-26.76075118258722
 20
-4.573133511835322
 30
0.0
 11
-27.27186272386143
 21
0.616269053793701
 31
0.0
  0
LINE
  5
3F6
330
1F
100
AcDbEntity
  8
0
 62
     3
100
AcDbLine
 10
-25.24705828866149
 20
-9.563110247117691
 30
0.0
 11
-26.76075118258722
 21
-4.573133511835322
 31
0.0
  0
LINE
  5
3F7
330
1F
100
AcDbEntity
  8
0
 62
     3
100
AcDbLine
 10
-27.27186272386143
 20
0.616269053793701
 30
0.0
 11
-26.76075118258722
 21
5.805671619422724
 31
0.0
  0
LINE
  5
3F8
330
1F
100
AcDbEntity
  8
0
 62
     3
100
AcDbLine
 10
23.9033328409389
 20
-9.563110247117577
 30
0.0
 11
21.4452289633864
 21
-14.1618991445276
 31
0.0
  0
LINE
  5
3F9
330
1F
100
AcDbEntity
  8
0
 62
     3
100
AcDbLine
 10
21.4452289633864
 20
-14.1618991445276
 30
0.0
 11
18.13717765570095
 21
-18.19277132576837
 31
0.0
  0
LINE
  5
3FA
330
1F
100
AcDbEntity
  8
0
 62
     3
100
AcDbLine
 10
14.10630547446021
 20
-21.50082263345393
 30
0.0
 11
9.507516577050182
 21
-23.95892651100646
 31
0.0
  0
LINE
  5
3FB
330
1F
100
AcDbEntity
  8
0
 62
     3
100
AcDbLine
 10
9.507516577050182
 20
-23.95892651100646
 30
0.0
 11
4.517539841767757
 21
-25.4726194049322
 31
0.0
  0
LINE
  5
3FC
330
1F
100
AcDbEntity
  8
0
 62
     3
100
AcDbLine
 10
18.13717765570095
 20
-18.19277132576837
 30
0.0
 11
14.10630547446021
 21
-21.50082263345393
 31
0.0
  0
LINE
  5
3FD
330
1F
100
AcDbEntity
  8
0
 62
     3
100
AcDbLine
 10
27.80774697150377
 20
-26.37403676904455
 30
0.0
 11
26.96987261468166
 21
-27.02300046684243
 31
0.0
  0
LINE
  5
3FE
330
1F
100
AcDbEntity
  8
0
 62
     3
100
AcDbLine
 10
26.25010172783982
 20
-28.20075422462747
 30
0.0
 11
26.00869307932862
 21
-29.55675031715676
 31
0.0
  0
LINE
  5
3FF
330
1F
100
AcDbEntity
  8
0
 62
     3
100
AcDbLine
 10
26.96987261468166
 20
-27.02300046684243
 30
0.0
 11
26.25010172783982
 21
-28.20075422462747
 31
0.0
  0
LINE
  5
400
330
1F
100
AcDbEntity
  8
0
 62
     3
100
AcDbLine
 10
29.17970311709655
 20
-26.02837371494436
 30
0.0
 11
27.80774697150377
 21
-26.37403676904455
 31
0.0
  0
LINE
  5
401
330
1F
100
AcDbEntity
  8
0
 62
     3
100
AcDbLine
 10
34.40793416110477
 20
-2.755284864025981
 30
0.0
 11
34.39889210208866
 21
3.806574731978543
 31
0.0
  0
LINE
  5
402
330
1F
100
AcDbEntity
  8
0
 62
     3
100
AcDbLine
 10
25.92813727613861
 20
0.6162690537937295
 30
0.0
 11
25.41702573486464
 21
-4.57313351183518
 31
0.0
  0
LINE
  5
403
330
1F
100
AcDbEntity
  8
0
 62
     3
100
AcDbLine
 10
25.41702573486464
 20
-4.57313351183518
 30
0.0
 11
23.9033328409389
 21
-9.563110247117577
 31
0.0
  0
LINE
  5
404
330
1F
100
AcDbEntity
  8
0
 62
     3
100
AcDbLine
 10
25.41702573486464
 20
5.805671619422724
 30
0.0
 11
25.92813727613861
 21
0.6162690537937295
 31
0.0
  0
LINE
  5
405
330
1F
100
AcDbEntity
  8
0
 62
     3
100
AcDbLine
 10
2.665861016035705
 20
35.63375108495284
 30
0.0
 11
-3.895998579969273
 21
35.62470902593662
 31
0.0
  0
LINE
  5
406
330
1F
100
AcDbEntity
  8
0
 62
     3
100
AcDbLine
 10
-0.6718627238612953
 20
27.21626905379372
 30
0.0
 11
4.517539841767757
 21
26.70515751251963
 31
0.0
  0
LINE
  5
407
330
1F
100
AcDbEntity
  8
0
 62
     3
100
AcDbLine
 10
-15.4500309221828
 20
22.73336074104145
 30
0.0
 11
-10.85124202477277
 21
25.19146461859395
 31
0.0
  0
LINE
  5
408
330
1F
100
AcDbEntity
  8
0
 62
     3
100
AcDbLine
 10
-19.48090310342354
 20
19.42530943335589
 30
0.0
 11
-15.4500309221828
 21
22.73336074104145
 31
0.0
  0
LINE
  5
409
330
1F
100
AcDbEntity
  8
0
 62
     3
100
AcDbLine
 10
-22.78895441110898
 20
15.39443725211515
 30
0.0
 11
-19.48090310342354
 21
19.42530943335589
 31
0.0
  0
LINE
  5
40A
330
1F
100
AcDbEntity
  8
0
 62
     3
100
AcDbLine
 10
-25.24705828866149
 20
10.79564835470512
 30
0.0
 11
-22.78895441110898
 21
15.39443725211515
 31
0.0
  0
LINE
  5
40B
330
1F
100
AcDbEntity
  8
0
 62
     3
100
AcDbLine
 10
-27.59382717556332
 20
29.43329233221481
 30
0.0
 11
-27.35241852705121
 21
30.78928842474414
 31
0.0
  0
LINE
  5
40C
330
1F
100
AcDbEntity
  8
0
 62
     3
100
AcDbLine
 10
-28.31359806240425
 20
28.25553857442986
 30
0.0
 11
-27.59382717556332
 21
29.43329233221481
 31
0.0
  0
LINE
  5
40D
330
1F
100
AcDbEntity
  8
0
 62
     3
100
AcDbLine
 10
-29.15147241922636
 20
27.60657487663206
 30
0.0
 11
-28.31359806240425
 21
28.25553857442986
 31
0.0
  0
LINE
  5
40E
330
1F
100
AcDbEntity
  8
0
 62
     3
100
AcDbLine
 10
-5.861265289490347
 20
26.70515751251963
 30
0.0
 11
-0.6718627238612953
 21
27.21626905379372
 31
0.0
  0
LINE
  5
40F
330
1F
100
AcDbEntity
  8
0
 62
     3
100
AcDbLine
 10
-10.85124202477277
 20
25.19146461859395
 30
0.0
 11
-5.861265289490347
 21
26.70515751251963
 31
0.0
  0
LINE
  5
410
330
1F
100
AcDbEntity
  8
0
 62
     3
100
AcDbLine
 10
18.13717765570072
 20
19.42530943335589
 30
0.0
 11
21.4452289633864
 21
15.39443725211515
 31
0.0
  0
LINE
  5
411
330
1F
100
AcDbEntity
  8
0
 62
     3
100
AcDbLine
 10
14.10630547445998
 20
22.73336074104139
 30
0.0
 11
18.13717765570072
 21
19.42530943335589
 31
0.0
  0
LINE
  5
412
330
1F
100
AcDbEntity
  8
0
 62
     3
100
AcDbLine
 10
9.507516577049955
 20
25.19146461859395
 30
0.0
 11
14.10630547445998
 21
22.73336074104139
 31
0.0
  0
LINE
  5
413
330
1F
100
AcDbEntity
  8
0
 62
     3
100
AcDbLine
 10
4.517539841767757
 20
26.70515751251963
 30
0.0
 11
9.507516577049955
 21
25.19146461859395
 31
0.0
  0
LINE
  5
414
330
1F
100
AcDbEntity
  8
0
 62
     3
100
AcDbLine
 10
21.4452289633864
 20
15.39443725211515
 30
0.0
 11
23.9033328409389
 21
10.79564835470512
 31
0.0
  0
LINE
  5
415
330
1F
100
AcDbEntity
  8
0
 62
     3
100
AcDbLine
 10
26.9335766188517
 20
28.19568953852945
 30
0.0
 11
28.11133037663671
 21
27.4759186516876
 31
0.0
  0
LINE
  5
416
330
1F
100
AcDbEntity
  8
0
 62
     3
100
AcDbLine
 10
26.28461292105362
 20
29.03356389535133
 30
0.0
 11
26.9335766188517
 21
28.19568953852945
 31
0.0
  0
LINE
  5
417
330
1F
100
AcDbEntity
  8
0
 62
     3
100
AcDbLine
 10
25.93894986695386
 20
30.40552004094474
 30
0.0
 11
26.28461292105362
 21
29.03356389535133
 31
0.0
  0
LINE
  5
418
330
1F
100
AcDbEntity
  8
0
 62
     3
100
AcDbLine
 10
28.11133037663671
 20
27.4759186516876
 30
0.0
 11
29.46732646916575
 21
27.23451000317595
 31
0.0
  0
LINE
  5
419
330
1F
100
AcDbEntity
  8
0
 62
     3
100
AcDbLine
 10
-3.870956439444398
 20
68.27294530877594
 30
0.0
 11
2.668752336256602
 21
68.27294530877594
 31
0.0
  0
LINE
  5
41A
330
1F
100
AcDbEntity
  8
0
 62
     3
100
AcDbLine
 10
-0.7333112205642465
 20
90.62752093683753
 30
0.0
 11
8.461206503412768
 21
90.43668530852448
 31
0.0
  0
LINE
  5
41B
330
1F
100
AcDbEntity
  8
0
 62
     3
100
AcDbLine
 10
-18.6965229250502
 20
89.86763597266167
 30
0.0
 11
-10.1743870700302
 21
90.4153915503968
 31
0.0
  0
LINE
  5
41C
330
1F
100
AcDbEntity
  8
0
 62
     3
100
AcDbLine
 10
-24.19480833334046
 20
89.30273163316632
 30
0.0
 11
-18.6965229250502
 21
89.86763597266167
 31
0.0
  0
LINE
  5
41D
330
1F
100
AcDbEntity
  8
0
 62
     3
100
AcDbLine
 10
-26.44077135839234
 20
88.21804807987422
 30
0.0
 11
-25.41034592238929
 21
88.95952154205634
 31
0.0
  0
LINE
  5
41E
330
1F
100
AcDbEntity
  8
0
 62
     3
100
AcDbLine
 10
-27.03015834878419
 20
87.34481382884633
 30
0.0
 11
-26.44077135839234
 21
88.21804807987422
 31
0.0
  0
LINE
  5
41F
330
1F
100
AcDbEntity
  8
0
 62
     3
100
AcDbLine
 10
-27.28642331747733
 20
86.19747812968142
 30
0.0
 11
-27.03015834878419
 21
87.34481382884633
 31
0.0
  0
LINE
  5
420
330
1F
100
AcDbEntity
  8
0
 62
     3
100
AcDbLine
 10
-25.41034592238929
 20
88.95952154205634
 30
0.0
 11
-24.19480833334046
 21
89.30273163316632
 31
0.0
  0
LINE
  5
421
330
1F
100
AcDbEntity
  8
0
 62
     3
100
AcDbLine
 10
-10.1743870700302
 20
90.4153915503968
 30
0.0
 11
-0.7333112205642465
 21
90.62752093683753
 31
0.0
  0
LINE
  5
422
330
1F
100
AcDbEntity
  8
0
 62
     3
100
AcDbLine
 10
17.88864283558473
 20
89.83245807618732
 30
0.0
 11
22.92991186700965
 21
89.30227304520002
 31
0.0
  0
LINE
  5
423
330
1F
100
AcDbEntity
  8
0
 62
     3
100
AcDbLine
 10
8.461206503412768
 20
90.43668530852448
 30
0.0
 11
17.88864283558473
 21
89.83245807618732
 31
0.0
  0
LINE
  5
424
330
1F
100
AcDbEntity
  8
0
 62
     3
100
AcDbLine
 10
25.11048671766161
 20
88.24699424267913
 30
0.0
 11
24.15281821699568
 21
88.94620731523515
 31
0.0
  0
LINE
  5
425
330
1F
100
AcDbEntity
  8
0
 62
     3
100
AcDbLine
 10
25.66150626487479
 20
87.46800921316481
 30
0.0
 11
25.11048671766161
 21
88.24699424267913
 31
0.0
  0
LINE
  5
426
330
1F
100
AcDbEntity
  8
0
 62
     3
100
AcDbLine
 10
25.94269786975473
 20
86.15848139467784
 30
0.0
 11
25.66150626487479
 21
87.46800921316481
 31
0.0
  0
LINE
  5
427
330
1F
100
AcDbEntity
  8
0
 62
     3
100
AcDbLine
 10
24.15281821699568
 20
88.94620731523515
 30
0.0
 11
22.92991186700965
 21
89.30227304520002
 31
0.0
  0
LINE
  5
428
330
1F
100
AcDbEntity
  8
0
 62
     3
100
AcDbLine
 10
89.18957462654953
 20
10.08496322203944
 30
0.0
 11
89.40170401298974
 21
0.6438873725737153
 31
0.0
  0
LINE
  5
429
330
1F
100
AcDbEntity
  8
0
 62
     3
100
AcDbLine
 10
67.04712838492878
 20
3.78153259145364
 30
0.0
 11
67.04712838492878
 21
-2.758176184247389
 31
0.0
  0
LINE
  5
42A
330
1F
100
AcDbEntity
  8
0
 62
     3
100
AcDbLine
 10
89.21086838467681
 20
-8.550630351402872
 30
0.0
 11
88.60664115233976
 21
-17.97806668357526
 31
0.0
  0
LINE
  5
42B
330
1F
100
AcDbEntity
  8
0
 62
     3
100
AcDbLine
 10
86.24219228931655
 20
-25.75093011286546
 30
0.0
 11
87.02117731883163
 21
-25.19991056565217
 31
0.0
  0
LINE
  5
42C
330
1F
100
AcDbEntity
  8
0
 62
     3
100
AcDbLine
 10
84.93266447082964
 20
-26.03212171774504
 30
0.0
 11
86.24219228931655
 21
-25.75093011286546
 31
0.0
  0
LINE
  5
42D
330
1F
100
AcDbEntity
  8
0
 62
     3
100
AcDbLine
 10
88.60664115233976
 20
-17.97806668357526
 30
0.0
 11
88.07645612135274
 21
-23.01933571500035
 31
0.0
  0
LINE
  5
42E
330
1F
100
AcDbEntity
  8
0
 62
     3
100
AcDbLine
 10
87.02117731883163
 20
-25.19991056565217
 30
0.0
 11
87.72039039138759
 21
-24.24224206498618
 31
0.0
  0
LINE
  5
42F
330
1F
100
AcDbEntity
  8
0
 62
     3
100
AcDbLine
 10
87.72039039138759
 20
-24.24224206498618
 30
0.0
 11
88.07645612135274
 21
-23.01933571500035
 31
0.0
  0
LINE
  5
430
330
1F
100
AcDbEntity
  8
0
 62
     3
100
AcDbLine
 10
89.40170401298974
 20
0.6438873725737153
 30
0.0
 11
89.21086838467681
 21
-8.550630351402872
 31
0.0
  0
LINE
  5
431
330
1F
100
AcDbEntity
  8
0
 62
     3
100
AcDbLine
 10
88.07691470931876
 20
24.10538448534902
 30
0.0
 11
88.64181904881366
 21
18.60709907705972
 31
0.0
  0
LINE
  5
432
330
1F
100
AcDbEntity
  8
0
 62
     3
100
AcDbLine
 10
88.64181904881366
 20
18.60709907705972
 30
0.0
 11
89.18957462654953
 21
10.08496322203944
 31
0.0
  0
LINE
  5
433
330
1F
100
AcDbEntity
  8
0
 62
     3
100
AcDbLine
 10
86.11899690499877
 20
26.94073450079395
 30
0.0
 11
86.99223115602649
 21
26.35134751040129
 31
0.0
  0
LINE
  5
434
330
1F
100
AcDbEntity
  8
0
 62
     3
100
AcDbLine
 10
87.73370461820855
 20
25.32092207439854
 30
0.0
 11
88.07691470931876
 21
24.10538448534919
 31
0.0
  0
LINE
  5
435
330
1F
100
AcDbEntity
  8
0
 62
     3
100
AcDbLine
 10
86.99223115602649
 20
26.35134751040129
 30
0.0
 11
87.73370461820855
 21
25.32092207439854
 31
0.0
  0
LINE
  5
436
330
1F
100
AcDbEntity
  8
0
 62
     3
100
AcDbLine
 10
84.9716612058337
 20
27.19699946948662
 30
0.0
 11
86.11899690499877
 21
26.94073450079395
 31
0.0
  0
ENDSEC
  0
SECTION
  2
OBJECTS
  0
DICTIONARY
  5
C
330
0
100
AcDbDictionary
281
     1
  3
ACAD_GROUP
350
D
  3
ACAD_LAYOUT
350
1A
  3
ACAD_MLINESTYLE
350
17
  3
ACAD_PLOTSETTINGS
350
19
  3
ACAD_PLOTSTYLENAME
350
E
  3
AcDbVariableDictionary
350
5E
  0
DICTIONARY
  5
D
102
{ACAD_REACTORS
330
C
102
}
330
C
100
AcDbDictionary
281
     1
  0
DICTIONARY
  5
1A
102
{ACAD_REACTORS
330
C
102
}
330
C
100
AcDbDictionary
281
     1
  3
Layout1
350
51
  3
Layout2
350
56
  3
Model
350
22
  0
DICTIONARY
  5
17
102
{ACAD_REACTORS
330
C
102
}
330
C
100
AcDbDictionary
281
     1
  3
Standard
350
18
  0
DICTIONARY
  5
19
102
{ACAD_REACTORS
330
C
102
}
330
C
100
AcDbDictionary
281
     1
  0
ACDBDICTIONARYWDFLT
  5
E
102
{ACAD_REACTORS
330
C
102
}
330
C
100
AcDbDictionary
281
     1
  3
Normal
350
F
100
AcDbDictionaryWithDefault
340
F
  0
DICTIONARY
  5
5E
102
{ACAD_REACTORS
330
C
102
}
330
C
100
AcDbDictionary
281
     1
  3
DIMASSOC
350
5F
  3
HIDETEXT
350
63
  0
LAYOUT
  5
51
102
{ACAD_REACTORS
330
1A
102
}
330
1A
100
AcDbPlotSettings
  1

  2
None
  4

  6

 40
0.0
 41
0.0
 42
0.0
 43
0.0
 44
0.0
 45
0.0
 46
0.0
 47
0.0
 48
0.0
 49
0.0
140
0.0
141
0.0
142
1.0
143
1.0
 70
   688
 72
     0
 73
     0
 74
     5
  7

 75
    16
147
1.0
148
0.0
149
0.0
100
AcDbLayout
  1
Layout1
 70
     1
 71
     1
 10
0.0
 20
0.0
 11
12.0
 21
9.0
 12
0.0
 22
0.0
 32
0.0
 14
0.0
 24
0.0
 34
0.0
 15
0.0
 25
0.0
 35
0.0
146
0.0
 13
0.0
 23
0.0
 33
0.0
 16
1.0
 26
0.0
 36
0.0
 17
0.0
 27
1.0
 37
0.0
 76
     0
330
50
  0
LAYOUT
  5
56
102
{ACAD_REACTORS
330
1A
102
}
330
1A
100
AcDbPlotSettings
  1

  2
None
  4

  6

 40
0.0
 41
0.0
 42
0.0
 43
0.0
 44
0.0
 45
0.0
 46
0.0
 47
0.0
 48
0.0
 49
0.0
140
0.0
141
0.0
142
1.0
143
1.0
 70
   688
 72
     0
 73
     0
 74
     5
  7

 75
    16
147
1.0
148
0.0
149
0.0
100
AcDbLayout
  1
Layout2
 70
     1
 71
     2
 10
0.0
 20
0.0
 11
12.0
 21
9.0
 12
0.0
 22
0.0
 32
0.0
 14
0.0
 24
0.0
 34
0.0
 15
0.0
 25
0.0
 35
0.0
146
0.0
 13
0.0
 23
0.0
 33
0.0
 16
1.0
 26
0.0
 36
0.0
 17
0.0
 27
1.0
 37
0.0
 76
     0
330
55
  0
LAYOUT
  5
22
102
{ACAD_REACTORS
330
1A
102
}
330
1A
100
AcDbPlotSettings
  1

  2
none_device
  4
ANSI_A_(8.50_x_11.00_Inches)
  6

 40
6.349999904632568
 41
19.04999923706054
 42
6.350006103515625
 43
19.04998779296875
 44
215.8999938964843
 45
279.3999938964843
 46
0.0
 47
0.0
 48
0.0
 49
0.0
140
0.0
141
0.0
142
1.0
143
78.436453180766
 70
 11952
 72
     0
 73
     1
 74
     0
  7

 75
     0
147
0.0127491741332998
148
0.0
149
0.0
100
AcDbLayout
  1
Model
 70
     1
 71
     0
 10
0.0
 20
0.0
 11
12.0
 21
9.0
 12
0.0
 22
0.0
 32
0.0
 14
0.0
 24
0.0
 34
0.0
 15
0.0
 25
0.0
 35
0.0
146
0.0
 13
0.0
 23
0.0
 33
0.0
 16
1.0
 26
0.0
 36
0.0
 17
0.0
 27
1.0
 37
0.0
 76
     0
330
1F
  0
MLINESTYLE
  5
18
102
{ACAD_REACTORS
330
17
102
}
330
17
100
AcDbMlineStyle
  2
STANDARD
 70
     0
  3

 62
   256
 51
90.0
 52
90.0
 71
     2
 49
0.5
 62
   256
  6
BYLAYER
 49
-0.5
 62
   256
  6
BYLAYER
  0
ACDBPLACEHOLDER
  5
F
102
{ACAD_REACTORS
330
E
102
}
330
E
  0
DICTIONARYVAR
  5
5F
102
{ACAD_REACTORS
330
5E
102
}
330
5E
100
DictionaryVariables
280
     0
  1
2
  0
DICTIONARYVAR
  5
63
102
{ACAD_REACTORS
330
5E
102
}
330
5E
100
DictionaryVariables
280
     0
  1
1
  0
ENDSEC
  0
EOF
