  0
SECTION
  2
HEADER
  9
$ACADVER
  1
AC1015
  9
$ACADMAINTVER
 70
    13
  9
$DWGCODEPAGE
  3
ANSI_1252
  9
$INSBASE
 10
0.0
 20
0.0
 30
0.0
  9
$EXTMIN
 10
-100.5122811395835
 20
-99.93667571317772
 30
0.0
  9
$EXTMAX
 10
100.0228109676455
 20
101.3529812953333
 30
0.0
  9
$LIMMIN
 10
0.0
 20
0.0
  9
$LIMMAX
 10
420.0
 20
297.0
  9
$ORTHOMODE
 70
     0
  9
$REGENMODE
 70
     1
  9
$FILLMODE
 70
     1
  9
$QTEXTMODE
 70
     0
  9
$MIRRTEXT
 70
     1
  9
$LTSCALE
 40
1.0
  9
$ATTMODE
 70
     1
  9
$TEXTSIZE
 40
2.5
  9
$TRACEWID
 40
1.0
  9
$TEXTSTYLE
  7
Standard
  9
$CLAYER
  8
0
  9
$CELTYPE
  6
ByLayer
  9
$CECOLOR
 62
   256
  9
$CELTSCALE
 40
1.0
  9
$DISPSILH
 70
     0
  9
$DIMSCALE
 40
1.0
  9
$DIMASZ
 40
2.5
  9
$DIMEXO
 40
0.625
  9
$DIMDLI
 40
3.75
  9
$DIMRND
 40
0.0
  9
$DIMDLE
 40
0.0
  9
$DIMEXE
 40
1.25
  9
$DIMTP
 40
0.0
  9
$DIMTM
 40
0.0
  9
$DIMTXT
 40
2.5
  9
$DIMCEN
 40
2.5
  9
$DIMTSZ
 40
0.0
  9
$DIMTOL
 70
     0
  9
$DIMLIM
 70
     0
  9
$DIMTIH
 70
     0
  9
$DIMTOH
 70
     0
  9
$DIMSE1
 70
     0
  9
$DIMSE2
 70
     0
  9
$DIMTAD
 70
     1
  9
$DIMZIN
 70
     8
  9
$DIMBLK
  1

  9
$DIMASO
 70
     1
  9
$DIMSHO
 70
     1
  9
$DIMPOST
  1

  9
$DIMAPOST
  1

  9
$DIMALT
 70
     0
  9
$DIMALTD
 70
     3
  9
$DIMALTF
 40
0.03937007874016
  9
$DIMLFAC
 40
1.0
  9
$DIMTOFL
 70
     1
  9
$DIMTVP
 40
0.0
  9
$DIMTIX
 70
     0
  9
$DIMSOXD
 70
     0
  9
$DIMSAH
 70
     0
  9
$DIMBLK1
  1

  9
$DIMBLK2
  1

  9
$DIMSTYLE
  2
ISO-25
  9
$DIMCLRD
 70
     0
  9
$DIMCLRE
 70
     0
  9
$DIMCLRT
 70
     0
  9
$DIMTFAC
 40
1.0
  9
$DIMGAP
 40
0.625
  9
$DIMJUST
 70
     0
  9
$DIMSD1
 70
     0
  9
$DIMSD2
 70
     0
  9
$DIMTOLJ
 70
     0
  9
$DIMTZIN
 70
     8
  9
$DIMALTZ
 70
     0
  9
$DIMALTTZ
 70
     0
  9
$DIMUPT
 70
     0
  9
$DIMDEC
 70
     2
  9
$DIMTDEC
 70
     2
  9
$DIMALTU
 70
     2
  9
$DIMALTTD
 70
     3
  9
$DIMTXSTY
  7
Standard
  9
$DIMAUNIT
 70
     0
  9
$DIMADEC
 70
     0
  9
$DIMALTRND
 40
0.0
  9
$DIMAZIN
 70
     0
  9
$DIMDSEP
 70
    44
  9
$DIMATFIT
 70
     3
  9
$DIMFRAC
 70
     0
  9
$DIMLDRBLK
  1

  9
$DIMLUNIT
 70
     2
  9
$DIMLWD
 70
    -2
  9
$DIMLWE
 70
    -2
  9
$DIMTMOVE
 70
     0
  9
$LUNITS
 70
     2
  9
$LUPREC
 70
     4
  9
$SKETCHINC
 40
1.0
  9
$FILLETRAD
 40
10.0
  9
$AUNITS
 70
     0
  9
$AUPREC
 70
     0
  9
$MENU
  1
.
  9
$ELEVATION
 40
0.0
  9
$PELEVATION
 40
0.0
  9
$THICKNESS
 40
0.0
  9
$LIMCHECK
 70
     0
  9
$CHAMFERA
 40
10.0
  9
$CHAMFERB
 40
10.0
  9
$CHAMFERC
 40
20.0
  9
$CHAMFERD
 40
0.0
  9
$SKPOLY
 70
     0
  9
$TDCREATE
 40
2454278.508059167
  9
$TDUCREATE
 40
2454278.424725833
  9
$TDUPDATE
 40
2454278.509561481
  9
$TDUUPDATE
 40
2454278.426228148
  9
$TDINDWG
 40
0.0015025000
  9
$TDUSRTIMER
 40
0.0015025000
  9
$USRTIMER
 70
     1
  9
$ANGBASE
 50
0.0
  9
$ANGDIR
 70
     0
  9
$PDMODE
 70
     0
  9
$PDSIZE
 40
0.0
  9
$PLINEWID
 40
0.0
  9
$SPLFRAME
 70
     0
  9
$SPLINETYPE
 70
     6
  9
$SPLINESEGS
 70
     8
  9
$HANDSEED
  5
333
  9
$SURFTAB1
 70
     6
  9
$SURFTAB2
 70
     6
  9
$SURFTYPE
 70
     6
  9
$SURFU
 70
     6
  9
$SURFV
 70
     6
  9
$UCSBASE
  2

  9
$UCSNAME
  2

  9
$UCSORG
 10
0.0
 20
0.0
 30
0.0
  9
$UCSXDIR
 10
1.0
 20
0.0
 30
0.0
  9
$UCSYDIR
 10
0.0
 20
1.0
 30
0.0
  9
$UCSORTHOREF
  2

  9
$UCSORTHOVIEW
 70
     0
  9
$UCSORGTOP
 10
0.0
 20
0.0
 30
0.0
  9
$UCSORGBOTTOM
 10
0.0
 20
0.0
 30
0.0
  9
$UCSORGLEFT
 10
0.0
 20
0.0
 30
0.0
  9
$UCSORGRIGHT
 10
0.0
 20
0.0
 30
0.0
  9
$UCSORGFRONT
 10
0.0
 20
0.0
 30
0.0
  9
$UCSORGBACK
 10
0.0
 20
0.0
 30
0.0
  9
$PUCSBASE
  2

  9
$PUCSNAME
  2

  9
$PUCSORG
 10
0.0
 20
0.0
 30
0.0
  9
$PUCSXDIR
 10
1.0
 20
0.0
 30
0.0
  9
$PUCSYDIR
 10
0.0
 20
1.0
 30
0.0
  9
$PUCSORTHOREF
  2

  9
$PUCSORTHOVIEW
 70
     0
  9
$PUCSORGTOP
 10
0.0
 20
0.0
 30
0.0
  9
$PUCSORGBOTTOM
 10
0.0
 20
0.0
 30
0.0
  9
$PUCSORGLEFT
 10
0.0
 20
0.0
 30
0.0
  9
$PUCSORGRIGHT
 10
0.0
 20
0.0
 30
0.0
  9
$PUCSORGFRONT
 10
0.0
 20
0.0
 30
0.0
  9
$PUCSORGBACK
 10
0.0
 20
0.0
 30
0.0
  9
$USERI1
 70
     0
  9
$USERI2
 70
     0
  9
$USERI3
 70
     0
  9
$USERI4
 70
     0
  9
$USERI5
 70
     0
  9
$USERR1
 40
0.0
  9
$USERR2
 40
0.0
  9
$USERR3
 40
0.0
  9
$USERR4
 40
0.0
  9
$USERR5
 40
0.0
  9
$WORLDVIEW
 70
     1
  9
$SHADEDGE
 70
     3
  9
$SHADEDIF
 70
    70
  9
$TILEMODE
 70
     1
  9
$MAXACTVP
 70
    64
  9
$PINSBASE
 10
0.0
 20
0.0
 30
0.0
  9
$PLIMCHECK
 70
     0
  9
$PEXTMIN
 10
0.0
 20
0.0
 30
0.0
  9
$PEXTMAX
 10
0.0
 20
0.0
 30
0.0
  9
$PLIMMIN
 10
0.0
 20
0.0
  9
$PLIMMAX
 10
12.0
 20
9.0
  9
$UNITMODE
 70
     0
  9
$VISRETAIN
 70
     1
  9
$PLINEGEN
 70
     0
  9
$PSLTSCALE
 70
     1
  9
$TREEDEPTH
 70
  3020
  9
$CMLSTYLE
  2
Standard
  9
$CMLJUST
 70
     0
  9
$CMLSCALE
 40
20.0
  9
$PROXYGRAPHICS
 70
     1
  9
$MEASUREMENT
 70
     1
  9
$CELWEIGHT
370
    -1
  9
$ENDCAPS
280
     0
  9
$JOINSTYLE
280
     0
  9
$LWDISPLAY
290
     0
  9
$INSUNITS
 70
     4
  9
$HYPERLINKBASE
  1

  9
$STYLESHEET
  1

  9
$XEDIT
290
     1
  9
$CEPSNTYPE
380
     0
  9
$PSTYLEMODE
290
     1
  9
$FINGERPRINTGUID
  2
{FDEAD578-A652-11D2-9A35-0060089B3A3F}
  9
$VERSIONGUID
  2
{5B5CFC8B-652C-4FE9-9E18-4D363465F6E7}
  9
$EXTNAMES
290
     1
  9
$PSVPSCALE
 40
0.0
  9
$OLESTARTUP
290
     0
  0
ENDSEC
  0
SECTION
  2
CLASSES
  0
CLASS
  1
ACDBDICTIONARYWDFLT
  2
AcDbDictionaryWithDefault
  3
AutoCAD 2000
 90
        0
280
     0
281
     0
  0
CLASS
  1
ACDBPLACEHOLDER
  2
AcDbPlaceHolder
  3
AutoCAD 2000
 90
        0
280
     0
281
     0
  0
CLASS
  1
LAYOUT
  2
AcDbLayout
  3
AutoCAD 2000
 90
        0
280
     0
281
     0
  0
CLASS
  1
DICTIONARYVAR
  2
AcDbDictionaryVar
  3
AutoCAD 2000
 90
        0
280
     0
281
     0
  0
ENDSEC
  0
SECTION
  2
TABLES
  0
TABLE
  2
VPORT
  5
8
330
0
100
AcDbSymbolTable
 70
     4
  0
VPORT
  5
332
330
8
100
AcDbSymbolTableRecord
100
AcDbViewportTableRecord
  2
*Active
 70
     0
 10
0.0
 20
0.0
 11
1.0
 21
1.0
 12
83.22975314363674
 22
0.9830470296049043
 13
0.0
 23
0.0
 14
10.0
 24
10.0
 15
10.0
 25
10.0
 16
0.0
 26
0.0
 36
1.0
 17
0.0
 27
0.0
 37
0.0
 40
577.1788839660461
 41
1.243935309973045
 42
50.0
 43
0.0
 44
0.0
 50
0.0
 51
0.0
 71
     0
 72
   100
 73
     1
 74
     3
 75
     0
 76
     0
 77
     0
 78
     0
281
     0
 65
     1
110
0.0
120
0.0
130
0.0
111
1.0
121
0.0
131
0.0
112
0.0
122
1.0
132
0.0
 79
     0
146
0.0
  0
ENDTAB
  0
TABLE
  2
LTYPE
  5
5
330
0
100
AcDbSymbolTable
 70
     1
  0
LTYPE
  5
14
330
5
100
AcDbSymbolTableRecord
100
AcDbLinetypeTableRecord
  2
ByBlock
 70
     0
  3

 72
    65
 73
     0
 40
0.0
  0
LTYPE
  5
15
330
5
100
AcDbSymbolTableRecord
100
AcDbLinetypeTableRecord
  2
ByLayer
 70
     0
  3

 72
    65
 73
     0
 40
0.0
  0
LTYPE
  5
16
330
5
100
AcDbSymbolTableRecord
100
AcDbLinetypeTableRecord
  2
Continuous
 70
     0
  3
Solid line
 72
    65
 73
     0
 40
0.0
  0
ENDTAB
  0
TABLE
  2
LAYER
  5
2
330
0
100
AcDbSymbolTable
 70
     1
  0
LAYER
  5
10
330
2
100
AcDbSymbolTableRecord
100
AcDbLayerTableRecord
  2
0
 70
     0
 62
     7
  6
Continuous
370
    -3
390
F
  0
ENDTAB
  0
TABLE
  2
STYLE
  5
3
330
0
100
AcDbSymbolTable
 70
     1
  0
STYLE
  5
11
330
3
100
AcDbSymbolTableRecord
100
AcDbTextStyleTableRecord
  2
Standard
 70
     0
 40
0.0
 41
1.0
 50
0.0
 71
     0
 42
2.5
  3
txt
  4

  0
ENDTAB
  0
TABLE
  2
VIEW
  5
6
330
0
100
AcDbSymbolTable
 70
     0
  0
ENDTAB
  0
TABLE
  2
UCS
  5
7
330
0
100
AcDbSymbolTable
 70
     0
  0
ENDTAB
  0
TABLE
  2
APPID
  5
9
330
0
100
AcDbSymbolTable
 70
     1
  0
APPID
  5
12
330
9
100
AcDbSymbolTableRecord
100
AcDbRegAppTableRecord
  2
ACAD
 70
     0
  0
ENDTAB
  0
TABLE
  2
DIMSTYLE
  5
A
330
0
100
AcDbSymbolTable
 70
     1
100
AcDbDimStyleTable
 71
     0
  0
DIMSTYLE
105
27
330
A
100
AcDbSymbolTableRecord
100
AcDbDimStyleTableRecord
  2
ISO-25
 70
     0
 41
2.5
 42
0.625
 43
3.75
 44
1.25
 73
     0
 74
     0
 77
     1
 78
     8
140
2.5
141
2.5
143
0.03937007874016
147
0.625
171
     3
172
     1
271
     2
272
     2
274
     3
278
    44
283
     0
284
     8
340
11
  0
ENDTAB
  0
TABLE
  2
BLOCK_RECORD
  5
1
330
0
100
AcDbSymbolTable
 70
     4
  0
BLOCK_RECORD
  5
1F
330
1
100
AcDbSymbolTableRecord
100
AcDbBlockTableRecord
  2
*Model_Space
340
22
  0
BLOCK_RECORD
  5
50
330
1
100
AcDbSymbolTableRecord
100
AcDbBlockTableRecord
  2
*Paper_Space
340
51
  0
BLOCK_RECORD
  5
55
330
1
100
AcDbSymbolTableRecord
100
AcDbBlockTableRecord
  2
*Paper_Space0
340
56
  0
ENDTAB
  0
ENDSEC
  0
SECTION
  2
BLOCKS
  0
BLOCK
  5
20
330
1F
100
AcDbEntity
  8
0
100
AcDbBlockBegin
  2
*Model_Space
 70
     0
 10
0.0
 20
0.0
 30
0.0
  3
*Model_Space
  1

  0
ENDBLK
  5
21
330
1F
100
AcDbEntity
  8
0
100
AcDbBlockEnd
  0
BLOCK
  5
52
330
50
100
AcDbEntity
 67
     1
  8
0
100
AcDbBlockBegin
  2
*Paper_Space
 70
     0
 10
0.0
 20
0.0
 30
0.0
  3
*Paper_Space
  1

  0
ENDBLK
  5
53
330
50
100
AcDbEntity
 67
     1
  8
0
100
AcDbBlockEnd
  0
BLOCK
  5
57
330
55
100
AcDbEntity
  8
0
100
AcDbBlockBegin
  2
*Paper_Space0
 70
     0
 10
0.0
 20
0.0
 30
0.0
  3
*Paper_Space0
  1

  0
ENDBLK
  5
58
330
55
100
AcDbEntity
  8
0
100
AcDbBlockEnd
  0
ENDSEC
  0
SECTION
  2
ENTITIES
  0
LINE
  5
2CA
330
1F
100
AcDbEntity
  8
0
 62
     3
100
AcDbLine
 10
-28.29199649969814
 20
91.93921590503601
 30
0.0
 11
-19.02922012788201
 21
93.11048196195953
 31
0.0
  0
LINE
  5
2CB
330
1F
100
AcDbEntity
  8
0
 62
     3
100
AcDbLine
 10
-38.4498934533234
 20
92.58910513218642
 30
0.0
 11
-19.69058241842731
 21
98.27967992138077
 31
0.0
  0
LINE
  5
2CC
330
1F
100
AcDbEntity
  8
0
 62
     3
100
AcDbLine
 10
-2.51224014334241
 20
15.6297106903861
 30
0.0
 11
-29.60688416952575
 21
42.65515239210031
 31
0.0
  0
LINE
  5
2CD
330
1F
100
AcDbEntity
  8
0
 62
     3
100
AcDbLine
 10
-2.535864693674398
 20
-15.28437141194388
 30
0.0
 11
-28.65524589613403
 21
-41.35187254457929
 31
0.0
  0
LINE
  5
2CE
330
1F
100
AcDbEntity
  8
0
 62
     3
100
AcDbLine
 10
-15.81824903843801
 20
-2.118480742610188
 30
0.0
 11
-42.8436907401524
 21
-29.21312476879327
 31
0.0
  0
LINE
  5
2CF
330
1F
100
AcDbEntity
  8
0
 62
     3
100
AcDbLine
 10
-18.62010168757672
 20
-92.68841582513207
 30
0.0
 11
-27.88078461239774
 21
-91.50071129272371
 31
0.0
  0
LINE
  5
2D0
330
1F
100
AcDbEntity
  8
0
 62
     3
100
AcDbLine
 10
-19.69058241842708
 20
-97.87737615926543
 30
0.0
 11
-38.44989345332328
 21
-92.1868013700711
 31
0.0
  0
LINE
  5
2D1
330
1F
100
AcDbEntity
  8
0
 62
     3
100
AcDbLine
 10
-15.86188657030606
 20
2.566533198550018
 30
0.0
 11
-41.92938770294142
 21
28.6859144010096
 31
0.0
  0
LINE
  5
2D2
330
1F
100
AcDbEntity
  8
0
 62
     3
100
AcDbLine
 10
-92.56950346794315
 20
-38.0671913554514
 30
0.0
 11
-98.26007825713748
 21
-19.30788032055525
 31
0.0
  0
LINE
  5
2D3
330
1F
100
AcDbEntity
  8
0
 62
     3
100
AcDbLine
 10
-83.32851144706888
 20
-55.35587142090268
 30
0.0
 11
-92.56950346794315
 21
-38.0671913554514
 31
0.0
  0
LINE
  5
2D4
330
1F
100
AcDbEntity
  8
0
 62
     3
100
AcDbLine
 10
-38.44989345332328
 20
-92.1868013700711
 30
0.0
 11
-55.7385735187745
 21
-82.94580934919693
 31
0.0
  0
LINE
  5
2D5
330
1F
100
AcDbEntity
  8
0
 62
     3
100
AcDbLine
 10
-30.38592133309669
 20
-46.24841590664138
 30
0.0
 11
-30.28510062677276
 21
-88.90361553246128
 31
0.0
  0
LINE
  5
2D6
330
1F
100
AcDbEntity
  8
0
 62
     3
100
AcDbLine
 10
-30.28510062677276
 20
-88.90361553246128
 30
0.0
 11
-27.88078461240002
 21
-91.5007112927257
 31
0.0
  0
LINE
  5
2D7
330
1F
100
AcDbEntity
  8
0
 62
     3
100
AcDbLine
 10
-55.7385735187745
 20
-82.94580934919693
 30
0.0
 11
-70.8922283354691
 21
-70.50952623759716
 31
0.0
  0
LINE
  5
2D8
330
1F
100
AcDbEntity
  8
0
 62
     3
100
AcDbLine
 10
-70.8922283354691
 20
-70.50952623759716
 30
0.0
 11
-83.32851144706888
 21
-55.35587142090268
 31
0.0
  0
LINE
  5
2D9
330
1F
100
AcDbEntity
  8
0
 62
     3
100
AcDbLine
 10
-28.65524589613403
 20
-41.35187254457929
 30
0.0
 11
-30.38592133309669
 21
-46.24841590664138
 31
0.0
  0
LINE
  5
2DA
330
1F
100
AcDbEntity
  8
0
 62
     3
100
AcDbLine
 10
-92.56950346794315
 20
38.46949511756668
 30
0.0
 11
-83.32851144706898
 21
55.75817518301789
 31
0.0
  0
LINE
  5
2DB
330
1F
100
AcDbEntity
  8
0
 62
     3
100
AcDbLine
 10
-31.17469104418558
 20
46.7754747849753
 30
0.0
 11
-31.16452664299606
 21
89.29250717606413
 31
0.0
  0
LINE
  5
2DC
330
1F
100
AcDbEntity
  8
0
 62
     3
100
AcDbLine
 10
-89.48113069082342
 20
30.31576913164832
 30
0.0
 11
-92.07822645108775
 21
27.91145311727564
 31
0.0
  0
LINE
  5
2DD
330
1F
100
AcDbEntity
  8
0
 62
     3
100
AcDbLine
 10
-89.48104552411587
 20
-30.77076724226347
 30
0.0
 11
-92.12775425308757
 21
-27.89823709896578
 31
0.0
  0
LINE
  5
2DE
330
1F
100
AcDbEntity
  8
0
 62
     3
100
AcDbLine
 10
-100.1815502168144
 20
0.2011518810575978
 30
0.0
 11
-98.26007825713748
 21
19.71018408267048
 31
0.0
  0
LINE
  5
2DF
330
1F
100
AcDbEntity
  8
0
 62
     3
100
AcDbLine
 10
-94.22788369625607
 20
0.0084937264266216
 30
0.0
 11
-93.98309696754608
 21
9.341819486723579
 31
0.0
  0
LINE
  5
2E0
330
1F
100
AcDbEntity
  8
0
 62
     3
100
AcDbLine
 10
-93.29902031001109
 20
-18.63546072714965
 30
0.0
 11
-93.9996628901855
 21
-9.325251800105121
 31
0.0
  0
LINE
  5
2E1
330
1F
100
AcDbEntity
  8
0
 62
     3
100
AcDbLine
 10
-98.26007825713748
 20
-19.30788032055525
 30
0.0
 11
-100.1815502168144
 21
0.2011518810575978
 31
0.0
  0
LINE
  5
2E2
330
1F
100
AcDbEntity
  8
0
 62
     3
100
AcDbLine
 10
-92.12775425308757
 20
-27.89823709896578
 30
0.0
 11
-93.29902031001109
 21
-18.63546072714965
 31
0.0
  0
LINE
  5
2E3
330
1F
100
AcDbEntity
  8
0
 62
     3
100
AcDbLine
 10
-93.9996628901855
 20
-9.325251800105121
 30
0.0
 11
-94.22788369625607
 21
0.0084937264266216
 31
0.0
  0
LINE
  5
2E4
330
1F
100
AcDbEntity
  8
0
 62
     3
100
AcDbLine
 10
-98.26007825713748
 20
19.71018408267048
 30
0.0
 11
-92.56950346794315
 21
38.46949511756668
 31
0.0
  0
LINE
  5
2E5
330
1F
100
AcDbEntity
  8
0
 62
     3
100
AcDbLine
 10
-93.26593098349395
 20
18.65077019245257
 30
0.0
 11
-92.07822645108558
 21
27.91145311727359
 31
0.0
  0
LINE
  5
2E6
330
1F
100
AcDbEntity
  8
0
 62
     3
100
AcDbLine
 10
-93.98309696754608
 20
9.341819486723579
 30
0.0
 11
-93.26593098349395
 21
18.65077019245257
 31
0.0
  0
LINE
  5
2E7
330
1F
100
AcDbEntity
  8
0
 62
     3
100
AcDbLine
 10
-76.26732340523358
 20
0.394846660742445
 30
0.0
 11
-63.98455940425185
 21
12.68386382802742
 31
0.0
  0
LINE
  5
2E8
330
1F
100
AcDbEntity
  8
0
 62
     3
100
AcDbLine
 10
-64.00080000666605
 20
-11.86542230384699
 30
0.0
 11
-63.98455940425185
 21
12.68386382802742
 31
0.0
  0
LINE
  5
2E9
330
1F
100
AcDbEntity
  8
0
 62
     3
100
AcDbLine
 10
-46.96401313302715
 20
-30.78093164345338
 30
0.0
 11
-89.48104552411587
 21
-30.77076724226347
 31
0.0
  0
LINE
  5
2EA
330
1F
100
AcDbEntity
  8
0
 62
     3
100
AcDbLine
 10
-76.26732340523358
 20
0.394846660742445
 30
0.0
 11
-64.00080000666605
 21
-11.86542230384699
 31
0.0
  0
LINE
  5
2EB
330
1F
100
AcDbEntity
  8
0
 62
     3
100
AcDbLine
 10
-42.8436907401524
 20
-29.21312476879327
 30
0.0
 11
-46.96401313302715
 21
-30.78093164345338
 31
0.0
  0
LINE
  5
2EC
330
1F
100
AcDbEntity
  8
0
 62
     3
100
AcDbLine
 10
-46.82593106500348
 20
30.41658983797231
 30
0.0
 11
-89.48113069082342
 21
30.31576913164832
 31
0.0
  0
LINE
  5
2ED
330
1F
100
AcDbEntity
  8
0
 62
     3
100
AcDbLine
 10
-41.92938770294142
 20
28.6859144010096
 30
0.0
 11
-46.82593106500348
 21
30.41658983797231
 31
0.0
  0
LINE
  5
2EE
330
1F
100
AcDbEntity
  8
0
 62
     3
100
AcDbLine
 10
-29.60688416952575
 20
42.65515239210031
 30
0.0
 11
-31.17469104418558
 21
46.7754747849753
 31
0.0
  0
LINE
  5
2EF
330
1F
100
AcDbEntity
  8
0
 62
     3
100
AcDbLine
 10
-70.89222833546921
 20
70.91182999971249
 30
0.0
 11
-55.73857351877473
 21
83.34811311131227
 31
0.0
  0
LINE
  5
2F0
330
1F
100
AcDbEntity
  8
0
 62
     3
100
AcDbLine
 10
-83.32851144706898
 20
55.75817518301789
 30
0.0
 11
-70.89222833546921
 21
70.91182999971249
 31
0.0
  0
LINE
  5
2F1
330
1F
100
AcDbEntity
  8
0
 62
     3
100
AcDbLine
 10
-55.73857351877473
 20
83.34811311131227
 30
0.0
 11
-38.4498934533234
 21
92.58910513218642
 31
0.0
  0
LINE
  5
2F2
330
1F
100
AcDbEntity
  8
0
 62
     3
100
AcDbLine
 10
-31.16452664299606
 20
89.29250717606413
 30
0.0
 11
-28.29199649969814
 21
91.93921590503601
 31
0.0
  0
LINE
  5
2F3
330
1F
100
AcDbEntity
  8
0
 62
     3
100
AcDbLine
 10
97.89697782350868
 20
-19.30788032055474
 30
0.0
 11
92.20640303431423
 21
-38.06719135545094
 31
0.0
  0
LINE
  5
2F4
330
1F
100
AcDbEntity
  8
0
 62
     3
100
AcDbLine
 10
2.149149247485865
 20
-15.24073388007579
 30
0.0
 11
29.24379327366887
 21
-42.26617558178998
 31
0.0
  0
LINE
  5
2F5
330
1F
100
AcDbEntity
  8
0
 62
     3
100
AcDbLine
 10
55.37547308514604
 20
-82.94580934919665
 30
0.0
 11
38.08679301969482
 21
-92.18680137007087
 31
0.0
  0
LINE
  5
2F6
330
1F
100
AcDbEntity
  8
0
 62
     3
100
AcDbLine
 10
30.81160014832903
 20
-46.38649797466499
 30
0.0
 11
30.80143574713918
 21
-88.9035303657538
 31
0.0
  0
LINE
  5
2F7
330
1F
100
AcDbEntity
  8
0
 62
     3
100
AcDbLine
 10
9.355920304980941
 20
-93.42214773182362
 30
0.0
 11
0.0221747784491981
 21
-93.65036853789419
 31
0.0
  0
LINE
  5
2F8
330
1F
100
AcDbEntity
  8
0
 62
     3
100
AcDbLine
 10
19.32748198479862
 20
-97.87737615926531
 30
0.0
 11
-0.1815502168142302
 21
-99.7988481189423
 31
0.0
  0
LINE
  5
2F9
330
1F
100
AcDbEntity
  8
0
 62
     3
100
AcDbLine
 10
-0.1815502168142302
 20
-99.7988481189423
 30
0.0
 11
-19.69058241842708
 21
-97.87737615926543
 31
0.0
  0
LINE
  5
2FA
330
1F
100
AcDbEntity
  8
0
 62
     3
100
AcDbLine
 10
0.0221747784491981
 20
-93.65036853789419
 30
0.0
 11
-9.311150981847731
 21
-93.40558180918421
 31
0.0
  0
LINE
  5
2FB
330
1F
100
AcDbEntity
  8
0
 62
     3
100
AcDbLine
 10
-9.311150981847731
 20
-93.40558180918421
 30
0.0
 11
-18.62010168757672
 21
-92.68841582513207
 31
0.0
  0
LINE
  5
2FC
330
1F
100
AcDbEntity
  8
0
 62
     3
100
AcDbLine
 10
27.9289056038416
 20
-91.5502390947257
 30
0.0
 11
18.66612923202547
 21
-92.72150515164922
 31
0.0
  0
LINE
  5
2FD
330
1F
100
AcDbEntity
  8
0
 62
     3
100
AcDbLine
 10
38.08679301969482
 20
-92.18680137007087
 30
0.0
 11
19.32748198479862
 21
-97.87737615926531
 31
0.0
  0
LINE
  5
2FE
330
1F
100
AcDbEntity
  8
0
 62
     3
100
AcDbLine
 10
18.66612923202547
 20
-92.72150515164922
 30
0.0
 11
9.355920304980941
 21
-93.42214773182362
 31
0.0
  0
LINE
  5
2FF
330
1F
100
AcDbEntity
  8
0
 62
     3
100
AcDbLine
 10
30.80143574713918
 20
-88.9035303657538
 30
0.0
 11
27.9289056038416
 21
-91.5502390947257
 31
0.0
  0
LINE
  5
300
330
1F
100
AcDbEntity
  8
0
 62
     3
100
AcDbLine
 10
-0.3641781558668526
 20
-75.68980824687148
 30
0.0
 11
11.89609080872253
 21
-63.42328484830378
 31
0.0
  0
LINE
  5
301
330
1F
100
AcDbEntity
  8
0
 62
     3
100
AcDbLine
 10
11.89609080872253
 20
-63.42328484830378
 30
0.0
 11
-12.65319532315197
 21
-63.40704424588969
 31
0.0
  0
LINE
  5
302
330
1F
100
AcDbEntity
  8
0
 62
     3
100
AcDbLine
 10
-0.3641781558668526
 20
-75.68980824687148
 30
0.0
 11
-12.65319532315197
 21
-63.40704424588969
 31
0.0
  0
LINE
  5
303
330
1F
100
AcDbEntity
  8
0
 62
     3
100
AcDbLine
 10
29.24379327366887
 20
-42.26617558178998
 30
0.0
 11
30.81160014832903
 21
-46.38649797466499
 31
0.0
  0
LINE
  5
304
330
1F
100
AcDbEntity
  8
0
 62
     3
100
AcDbLine
 10
82.96541101344018
 20
-55.35587142090221
 30
0.0
 11
70.52912790184041
 21
-70.50952623759681
 31
0.0
  0
LINE
  5
305
330
1F
100
AcDbEntity
  8
0
 62
     3
100
AcDbLine
 10
70.52912790184041
 20
-70.50952623759681
 30
0.0
 11
55.37547308514604
 21
-82.94580934919665
 31
0.0
  0
LINE
  5
306
330
1F
100
AcDbEntity
  8
0
 62
     3
100
AcDbLine
 10
92.20640303431423
 20
-38.06719135545094
 30
0.0
 11
82.96541101344018
 21
-55.35587142090221
 31
0.0
  0
LINE
  5
307
330
1F
100
AcDbEntity
  8
0
 62
     3
100
AcDbLine
 10
82.96541101343995
 20
55.75817518301789
 30
0.0
 11
92.20640303431423
 21
38.46949511756668
 31
0.0
  0
LINE
  5
308
330
1F
100
AcDbEntity
  8
0
 62
     3
100
AcDbLine
 10
30.02283043723991
 20
46.63739271695175
 30
0.0
 11
29.92200973091598
 21
89.29259234277163
 31
0.0
  0
LINE
  5
309
330
1F
100
AcDbEntity
  8
0
 62
     3
100
AcDbLine
 10
15.39591053933054
 20
-2.164229436434567
 30
0.0
 11
41.46341167196522
 21
-28.28361063889417
 31
0.0
  0
LINE
  5
30A
330
1F
100
AcDbEntity
  8
0
 62
     3
100
AcDbLine
 10
15.35227300746248
 20
2.520784504725497
 30
0.0
 11
42.37771470917619
 21
29.61542853090873
 31
0.0
  0
LINE
  5
30B
330
1F
100
AcDbEntity
  8
0
 62
     3
100
AcDbLine
 10
2.149149247485865
 20
-15.24073388007579
 30
0.0
 11
-2.535864693674398
 21
-15.28437141194388
 31
0.0
  0
LINE
  5
30C
330
1F
100
AcDbEntity
  8
0
 62
     3
100
AcDbLine
 10
-15.81824903843801
 20
-2.118480742610188
 30
0.0
 11
-15.86188657030606
 21
2.566533198550018
 31
0.0
  0
LINE
  5
30D
330
1F
100
AcDbEntity
  8
0
 62
     3
100
AcDbLine
 10
15.35227300746248
 20
2.520784504725497
 30
0.0
 11
15.39591053933054
 21
-2.164229436434567
 31
0.0
  0
LINE
  5
30E
330
1F
100
AcDbEntity
  8
0
 62
     3
100
AcDbLine
 10
2.172773797817626
 20
15.67334822225421
 30
0.0
 11
28.29215500027726
 21
41.74084935488963
 31
0.0
  0
LINE
  5
30F
330
1F
100
AcDbEntity
  8
0
 62
     3
100
AcDbLine
 10
-2.51224014334241
 20
15.6297106903861
 30
0.0
 11
2.172773797817626
 21
15.67334822225421
 31
0.0
  0
LINE
  5
310
330
1F
100
AcDbEntity
  8
0
 62
     3
100
AcDbLine
 10
28.29215500027726
 20
41.74084935488963
 30
0.0
 11
30.02283043723991
 21
46.63739271695175
 31
0.0
  0
LINE
  5
311
330
1F
100
AcDbEntity
  8
0
 62
     3
100
AcDbLine
 10
63.53482397569019
 20
12.26772606596233
 30
0.0
 11
63.51858337327621
 21
-12.28156006591208
 31
0.0
  0
LINE
  5
312
330
1F
100
AcDbEntity
  8
0
 62
     3
100
AcDbLine
 10
75.80134737425715
 20
0.0074571013730349
 30
0.0
 11
63.53482397569019
 21
12.26772606596233
 31
0.0
  0
LINE
  5
313
330
1F
100
AcDbEntity
  8
0
 62
     3
100
AcDbLine
 10
97.89697782350845
 20
19.71018408267048
 30
0.0
 11
99.81844978318555
 21
0.2011518810577115
 31
0.0
  0
LINE
  5
314
330
1F
100
AcDbEntity
  8
0
 62
     3
100
AcDbLine
 10
93.5336868592101
 20
9.727555562220572
 30
0.0
 11
93.76190766528067
 21
0.3938100356888299
 31
0.0
  0
LINE
  5
315
330
1F
100
AcDbEntity
  8
0
 62
     3
100
AcDbLine
 10
75.80134737425715
 20
0.0074571013730349
 30
0.0
 11
63.51858337327621
 21
-12.28156006591208
 31
0.0
  0
LINE
  5
316
330
1F
100
AcDbEntity
  8
0
 62
     3
100
AcDbLine
 10
46.35995503402727
 20
-30.01428607585689
 30
0.0
 11
89.0151546598472
 21
-29.91346536953298
 31
0.0
  0
LINE
  5
317
330
1F
100
AcDbEntity
  8
0
 62
     3
100
AcDbLine
 10
41.46341167196522
 20
-28.28361063889417
 30
0.0
 11
46.35995503402727
 21
-30.01428607585689
 31
0.0
  0
LINE
  5
318
330
1F
100
AcDbEntity
  8
0
 62
     3
100
AcDbLine
 10
99.81844978318555
 20
0.2011518810577115
 30
0.0
 11
97.89697782350868
 21
-19.30788032055474
 31
0.0
  0
LINE
  5
319
330
1F
100
AcDbEntity
  8
0
 62
     3
100
AcDbLine
 10
93.51712093657056
 20
-8.939515724608099
 30
0.0
 11
92.79995495251842
 21
-18.24846643033708
 31
0.0
  0
LINE
  5
31A
330
1F
100
AcDbEntity
  8
0
 62
     3
100
AcDbLine
 10
89.0151546598472
 20
-29.91346536953298
 30
0.0
 11
91.6122504201121
 21
-27.50914935516019
 31
0.0
  0
LINE
  5
31B
330
1F
100
AcDbEntity
  8
0
 62
     3
100
AcDbLine
 10
92.79995495251842
 20
-18.24846643033708
 30
0.0
 11
91.61225042011006
 21
-27.50914935515811
 31
0.0
  0
LINE
  5
31C
330
1F
100
AcDbEntity
  8
0
 62
     3
100
AcDbLine
 10
93.76190766528067
 20
0.3938100356888299
 30
0.0
 11
93.51712093657056
 21
-8.939515724608099
 31
0.0
  0
LINE
  5
31D
330
1F
100
AcDbEntity
  8
0
 62
     3
100
AcDbLine
 10
46.49803710205128
 20
31.18323540556872
 30
0.0
 11
89.01506949314034
 21
31.17307100437892
 31
0.0
  0
LINE
  5
31E
330
1F
100
AcDbEntity
  8
0
 62
     3
100
AcDbLine
 10
42.37771470917619
 20
29.61542853090873
 30
0.0
 11
46.49803710205128
 21
31.18323540556872
 31
0.0
  0
LINE
  5
31F
330
1F
100
AcDbEntity
  8
0
 62
     3
100
AcDbLine
 10
92.20640303431423
 20
38.46949511756668
 30
0.0
 11
97.89697782350845
 21
19.71018408267048
 31
0.0
  0
LINE
  5
320
330
1F
100
AcDbEntity
  8
0
 62
     3
100
AcDbLine
 10
89.01506949314034
 20
31.17307100437892
 30
0.0
 11
91.66177822211215
 21
28.30054086108123
 31
0.0
  0
LINE
  5
321
330
1F
100
AcDbEntity
  8
0
 62
     3
100
AcDbLine
 10
91.66177822211215
 20
28.30054086108123
 30
0.0
 11
92.83304427903567
 21
19.0377644892651
 31
0.0
  0
LINE
  5
322
330
1F
100
AcDbEntity
  8
0
 62
     3
100
AcDbLine
 10
92.83304427903567
 20
19.0377644892651
 30
0.0
 11
93.5336868592101
 21
9.727555562220572
 31
0.0
  0
LINE
  5
323
330
1F
100
AcDbEntity
  8
0
 62
     3
100
AcDbLine
 10
38.08679301969448
 20
92.58910513218642
 30
0.0
 11
55.3754730851457
 21
83.34811311131216
 31
0.0
  0
LINE
  5
324
330
1F
100
AcDbEntity
  8
0
 62
     3
100
AcDbLine
 10
-0.3852656743057423
 20
94.0393453482045
 30
0.0
 11
8.948060085991187
 21
93.79455861949452
 31
0.0
  0
LINE
  5
325
330
1F
100
AcDbEntity
  8
0
 62
     3
100
AcDbLine
 10
-0.1815502168144576
 20
100.2011518810577
 30
0.0
 11
19.32748198479839
 21
98.27967992138077
 31
0.0
  0
LINE
  5
326
330
1F
100
AcDbEntity
  8
0
 62
     3
100
AcDbLine
 10
0.0010872600099674
 20
76.07878505718173
 30
0.0
 11
12.29010442729497
 21
63.7960210562
 31
0.0
  0
LINE
  5
327
330
1F
100
AcDbEntity
  8
0
 62
     3
100
AcDbLine
 10
-12.25918170457907
 20
63.81226165861415
 30
0.0
 11
12.29010442729497
 21
63.7960210562
 31
0.0
  0
LINE
  5
328
330
1F
100
AcDbEntity
  8
0
 62
     3
100
AcDbLine
 10
0.0010872600099674
 20
76.07878505718173
 30
0.0
 11
-12.25918170457907
 21
63.81226165861415
 31
0.0
  0
LINE
  5
329
330
1F
100
AcDbEntity
  8
0
 62
     3
100
AcDbLine
 10
-19.69058241842731
 20
98.27967992138077
 30
0.0
 11
-0.1815502168144576
 21
100.2011518810577
 31
0.0
  0
LINE
  5
32A
330
1F
100
AcDbEntity
  8
0
 62
     3
100
AcDbLine
 10
-9.719011200837485
 20
93.81112454213393
 30
0.0
 11
-0.3852656743057423
 21
94.0393453482045
 31
0.0
  0
LINE
  5
32B
330
1F
100
AcDbEntity
  8
0
 62
     3
100
AcDbLine
 10
-19.02922012788201
 20
93.11048196195953
 30
0.0
 11
-9.719011200837485
 21
93.81112454213393
 31
0.0
  0
LINE
  5
32C
330
1F
100
AcDbEntity
  8
0
 62
     3
100
AcDbLine
 10
18.25701079172017
 20
93.07739263544238
 30
0.0
 11
27.5176937165412
 21
91.88968810303402
 31
0.0
  0
LINE
  5
32D
330
1F
100
AcDbEntity
  8
0
 62
     3
100
AcDbLine
 10
19.32748198479839
 20
98.27967992138077
 30
0.0
 11
38.08679301969448
 21
92.58910513218642
 31
0.0
  0
LINE
  5
32E
330
1F
100
AcDbEntity
  8
0
 62
     3
100
AcDbLine
 10
8.948060085991187
 20
93.79455861949452
 30
0.0
 11
18.25701079172017
 21
93.07739263544238
 31
0.0
  0
LINE
  5
32F
330
1F
100
AcDbEntity
  8
0
 62
     3
100
AcDbLine
 10
29.92200973091598
 20
89.29259234277163
 30
0.0
 11
27.51769371654313
 21
91.88968810303601
 31
0.0
  0
LINE
  5
330
330
1F
100
AcDbEntity
  8
0
 62
     3
100
AcDbLine
 10
70.52912790184018
 20
70.91182999971249
 30
0.0
 11
82.96541101343995
 21
55.75817518301789
 31
0.0
  0
LINE
  5
331
330
1F
100
AcDbEntity
  8
0
 62
     3
100
AcDbLine
 10
55.3754730851457
 20
83.34811311131216
 30
0.0
 11
70.52912790184018
 21
70.91182999971249
 31
0.0
  0
ENDSEC
  0
SECTION
  2
OBJECTS
  0
DICTIONARY
  5
C
330
0
100
AcDbDictionary
281
     1
  3
ACAD_GROUP
350
D
  3
ACAD_LAYOUT
350
1A
  3
ACAD_MLINESTYLE
350
17
  3
ACAD_PLOTSETTINGS
350
19
  3
ACAD_PLOTSTYLENAME
350
E
  3
AcDbVariableDictionary
350
5E
  0
DICTIONARY
  5
D
102
{ACAD_REACTORS
330
C
102
}
330
C
100
AcDbDictionary
281
     1
  0
DICTIONARY
  5
1A
102
{ACAD_REACTORS
330
C
102
}
330
C
100
AcDbDictionary
281
     1
  3
Layout1
350
51
  3
Layout2
350
56
  3
Model
350
22
  0
DICTIONARY
  5
17
102
{ACAD_REACTORS
330
C
102
}
330
C
100
AcDbDictionary
281
     1
  3
Standard
350
18
  0
DICTIONARY
  5
19
102
{ACAD_REACTORS
330
C
102
}
330
C
100
AcDbDictionary
281
     1
  0
ACDBDICTIONARYWDFLT
  5
E
102
{ACAD_REACTORS
330
C
102
}
330
C
100
AcDbDictionary
281
     1
  3
Normal
350
F
100
AcDbDictionaryWithDefault
340
F
  0
DICTIONARY
  5
5E
102
{ACAD_REACTORS
330
C
102
}
330
C
100
AcDbDictionary
281
     1
  3
DIMASSOC
350
5F
  3
HIDETEXT
350
63
  0
LAYOUT
  5
51
102
{ACAD_REACTORS
330
1A
102
}
330
1A
100
AcDbPlotSettings
  1

  2
None
  4

  6

 40
0.0
 41
0.0
 42
0.0
 43
0.0
 44
0.0
 45
0.0
 46
0.0
 47
0.0
 48
0.0
 49
0.0
140
0.0
141
0.0
142
1.0
143
1.0
 70
   688
 72
     0
 73
     0
 74
     5
  7

 75
    16
147
1.0
148
0.0
149
0.0
100
AcDbLayout
  1
Layout1
 70
     1
 71
     1
 10
0.0
 20
0.0
 11
12.0
 21
9.0
 12
0.0
 22
0.0
 32
0.0
 14
0.0
 24
0.0
 34
0.0
 15
0.0
 25
0.0
 35
0.0
146
0.0
 13
0.0
 23
0.0
 33
0.0
 16
1.0
 26
0.0
 36
0.0
 17
0.0
 27
1.0
 37
0.0
 76
     0
330
50
  0
LAYOUT
  5
56
102
{ACAD_REACTORS
330
1A
102
}
330
1A
100
AcDbPlotSettings
  1

  2
None
  4

  6

 40
0.0
 41
0.0
 42
0.0
 43
0.0
 44
0.0
 45
0.0
 46
0.0
 47
0.0
 48
0.0
 49
0.0
140
0.0
141
0.0
142
1.0
143
1.0
 70
   688
 72
     0
 73
     0
 74
     5
  7

 75
    16
147
1.0
148
0.0
149
0.0
100
AcDbLayout
  1
Layout2
 70
     1
 71
     2
 10
0.0
 20
0.0
 11
12.0
 21
9.0
 12
0.0
 22
0.0
 32
0.0
 14
0.0
 24
0.0
 34
0.0
 15
0.0
 25
0.0
 35
0.0
146
0.0
 13
0.0
 23
0.0
 33
0.0
 16
1.0
 26
0.0
 36
0.0
 17
0.0
 27
1.0
 37
0.0
 76
     0
330
55
  0
LAYOUT
  5
22
102
{ACAD_REACTORS
330
1A
102
}
330
1A
100
AcDbPlotSettings
  1

  2
none_device
  4
ANSI_A_(8.50_x_11.00_Inches)
  6

 40
6.349999904632568
 41
19.04999923706054
 42
6.350006103515625
 43
19.04998779296875
 44
215.8999938964843
 45
279.3999938964843
 46
0.0
 47
0.0
 48
0.0
 49
0.0
140
0.0
141
0.0
142
1.0
143
78.436453180766
 70
 11952
 72
     0
 73
     1
 74
     0
  7

 75
     0
147
0.0127491741332998
148
0.0
149
0.0
100
AcDbLayout
  1
Model
 70
     1
 71
     0
 10
0.0
 20
0.0
 11
12.0
 21
9.0
 12
0.0
 22
0.0
 32
0.0
 14
0.0
 24
0.0
 34
0.0
 15
0.0
 25
0.0
 35
0.0
146
0.0
 13
0.0
 23
0.0
 33
0.0
 16
1.0
 26
0.0
 36
0.0
 17
0.0
 27
1.0
 37
0.0
 76
     0
330
1F
  0
MLINESTYLE
  5
18
102
{ACAD_REACTORS
330
17
102
}
330
17
100
AcDbMlineStyle
  2
STANDARD
 70
     0
  3

 62
   256
 51
90.0
 52
90.0
 71
     2
 49
0.5
 62
   256
  6
BYLAYER
 49
-0.5
 62
   256
  6
BYLAYER
  0
ACDBPLACEHOLDER
  5
F
102
{ACAD_REACTORS
330
E
102
}
330
E
  0
DICTIONARYVAR
  5
5F
102
{ACAD_REACTORS
330
5E
102
}
330
5E
100
DictionaryVariables
280
     0
  1
2
  0
DICTIONARYVAR
  5
63
102
{ACAD_REACTORS
330
5E
102
}
330
5E
100
DictionaryVariables
280
     0
  1
1
  0
ENDSEC
  0
EOF
