  0
SECTION
  2
HEADER
  9
$ACADVER
  1
AC1015
  9
$ACADMAINTVER
 70
     6
  9
$DWGCODEPAGE
  3
ANSI_1252
  9
$INSBASE
 10
0.0
 20
0.0
 30
0.0
  9
$EXTMIN
 10
1.000000000000000E+20
 20
1.000000000000000E+20
 30
1.000000000000000E+20
  9
$EXTMAX
 10
-1.000000000000000E+20
 20
-1.000000000000000E+20
 30
-1.000000000000000E+20
  9
$LIMMIN
 10
0.0
 20
0.0
  9
$LIMMAX
 10
420.0
 20
297.0
  9
$ORTHOMODE
 70
     0
  9
$REGENMODE
 70
     1
  9
$FILLMODE
 70
     1
  9
$QTEXTMODE
 70
     0
  9
$MIRRTEXT
 70
     1
  9
$LTSCALE
 40
1.0
  9
$ATTMODE
 70
     1
  9
$TEXTSIZE
 40
1.0
  9
$TRACEWID
 40
1.0
  9
$TEXTSTYLE
  7
Standard
  9
$CLAYER
  8
0
  9
$CELTYPE
  6
ByLayer
  9
$CECOLOR
 62
   256
  9
$CELTSCALE
 40
1.0
  9
$DISPSILH
 70
     0
  9
$DIMSCALE
 40
1.0
  9
$DIMASZ
 40
2.5
  9
$DIMEXO
 40
0.625
  9
$DIMDLI
 40
3.75
  9
$DIMRND
 40
0.0
  9
$DIMDLE
 40
0.0
  9
$DIMEXE
 40
1.25
  9
$DIMTP
 40
0.0
  9
$DIMTM
 40
0.0
  9
$DIMTXT
 40
2.5
  9
$DIMCEN
 40
2.5
  9
$DIMTSZ
 40
0.0
  9
$DIMTOL
 70
     0
  9
$DIMLIM
 70
     0
  9
$DIMTIH
 70
     0
  9
$DIMTOH
 70
     0
  9
$DIMSE1
 70
     0
  9
$DIMSE2
 70
     0
  9
$DIMTAD
 70
     1
  9
$DIMZIN
 70
     8
  9
$DIMBLK
  1

  9
$DIMASO
 70
     1
  9
$DIMSHO
 70
     1
  9
$DIMPOST
  1

  9
$DIMAPOST
  1

  9
$DIMALT
 70
     0
  9
$DIMALTD
 70
     3
  9
$DIMALTF
 40
0.03937007874016
  9
$DIMLFAC
 40
1.0
  9
$DIMTOFL
 70
     1
  9
$DIMTVP
 40
0.0
  9
$DIMTIX
 70
     0
  9
$DIMSOXD
 70
     0
  9
$DIMSAH
 70
     0
  9
$DIMBLK1
  1

  9
$DIMBLK2
  1

  9
$DIMSTYLE
  2
ISO-25
  9
$DIMCLRD
 70
     0
  9
$DIMCLRE
 70
     0
  9
$DIMCLRT
 70
     0
  9
$DIMTFAC
 40
1.0
  9
$DIMGAP
 40
0.625
  9
$DIMJUST
 70
     0
  9
$DIMSD1
 70
     0
  9
$DIMSD2
 70
     0
  9
$DIMTOLJ
 70
     0
  9
$DIMTZIN
 70
     8
  9
$DIMALTZ
 70
     0
  9
$DIMALTTZ
 70
     0
  9
$DIMUPT
 70
     0
  9
$DIMDEC
 70
     2
  9
$DIMTDEC
 70
     2
  9
$DIMALTU
 70
     2
  9
$DIMALTTD
 70
     3
  9
$DIMTXSTY
  7
Standard
  9
$DIMAUNIT
 70
     0
  9
$DIMADEC
 70
     0
  9
$DIMALTRND
 40
0.0
  9
$DIMAZIN
 70
     0
  9
$DIMDSEP
 70
    44
  9
$DIMATFIT
 70
     3
  9
$DIMFRAC
 70
     0
  9
$DIMLDRBLK
  1

  9
$DIMLUNIT
 70
     2
  9
$DIMLWD
 70
    -2
  9
$DIMLWE
 70
    -2
  9
$DIMTMOVE
 70
     0
  9
$LUNITS
 70
     2
  9
$LUPREC
 70
     4
  9
$SKETCHINC
 40
1.0
  9
$FILLETRAD
 40
10.0
  9
$AUNITS
 70
     0
  9
$AUPREC
 70
     0
  9
$MENU
  1
.
  9
$ELEVATION
 40
0.0
  9
$PELEVATION
 40
0.0
  9
$THICKNESS
 40
0.0
  9
$LIMCHECK
 70
     0
  9
$CHAMFERA
 40
10.0
  9
$CHAMFERB
 40
10.0
  9
$CHAMFERC
 40
20.0
  9
$CHAMFERD
 40
0.0
  9
$SKPOLY
 70
     0
  9
$TDCREATE
 40
2454279.563755289
  9
$TDUCREATE
 40
2454279.480421956
  9
$TDUPDATE
 40
2454279.563755301
  9
$TDUUPDATE
 40
2454279.480421968
  9
$TDINDWG
 40
0.0000000116
  9
$TDUSRTIMER
 40
0.0000000116
  9
$USRTIMER
 70
     1
  9
$ANGBASE
 50
0.0
  9
$ANGDIR
 70
     0
  9
$PDMODE
 70
     3
  9
$PDSIZE
 40
1.0
  9
$PLINEWID
 40
0.0
  9
$SPLFRAME
 70
     0
  9
$SPLINETYPE
 70
     6
  9
$SPLINESEGS
 70
     8
  9
$HANDSEED
  5
2F4
  9
$SURFTAB1
 70
     6
  9
$SURFTAB2
 70
     6
  9
$SURFTYPE
 70
     6
  9
$SURFU
 70
     6
  9
$SURFV
 70
     6
  9
$UCSBASE
  2

  9
$UCSNAME
  2

  9
$UCSORG
 10
0.0
 20
0.0
 30
0.0
  9
$UCSXDIR
 10
1.0
 20
0.0
 30
0.0
  9
$UCSYDIR
 10
0.0
 20
1.0
 30
0.0
  9
$UCSORTHOREF
  2

  9
$UCSORTHOVIEW
 70
     0
  9
$UCSORGTOP
 10
0.0
 20
0.0
 30
0.0
  9
$UCSORGBOTTOM
 10
0.0
 20
0.0
 30
0.0
  9
$UCSORGLEFT
 10
0.0
 20
0.0
 30
0.0
  9
$UCSORGRIGHT
 10
0.0
 20
0.0
 30
0.0
  9
$UCSORGFRONT
 10
0.0
 20
0.0
 30
0.0
  9
$UCSORGBACK
 10
0.0
 20
0.0
 30
0.0
  9
$PUCSBASE
  2

  9
$PUCSNAME
  2

  9
$PUCSORG
 10
0.0
 20
0.0
 30
0.0
  9
$PUCSXDIR
 10
1.0
 20
0.0
 30
0.0
  9
$PUCSYDIR
 10
0.0
 20
1.0
 30
0.0
  9
$PUCSORTHOREF
  2

  9
$PUCSORTHOVIEW
 70
     0
  9
$PUCSORGTOP
 10
0.0
 20
0.0
 30
0.0
  9
$PUCSORGBOTTOM
 10
0.0
 20
0.0
 30
0.0
  9
$PUCSORGLEFT
 10
0.0
 20
0.0
 30
0.0
  9
$PUCSORGRIGHT
 10
0.0
 20
0.0
 30
0.0
  9
$PUCSORGFRONT
 10
0.0
 20
0.0
 30
0.0
  9
$PUCSORGBACK
 10
0.0
 20
0.0
 30
0.0
  9
$USERI1
 70
     0
  9
$USERI2
 70
     0
  9
$USERI3
 70
     0
  9
$USERI4
 70
     0
  9
$USERI5
 70
     0
  9
$USERR1
 40
0.0
  9
$USERR2
 40
0.0
  9
$USERR3
 40
0.0
  9
$USERR4
 40
0.0
  9
$USERR5
 40
0.0
  9
$WORLDVIEW
 70
     1
  9
$SHADEDGE
 70
     3
  9
$SHADEDIF
 70
    70
  9
$TILEMODE
 70
     1
  9
$MAXACTVP
 70
    64
  9
$PINSBASE
 10
0.0
 20
0.0
 30
0.0
  9
$PLIMCHECK
 70
     0
  9
$PEXTMIN
 10
1.000000000000000E+20
 20
1.000000000000000E+20
 30
1.000000000000000E+20
  9
$PEXTMAX
 10
-1.000000000000000E+20
 20
-1.000000000000000E+20
 30
-1.000000000000000E+20
  9
$PLIMMIN
 10
0.0
 20
0.0
  9
$PLIMMAX
 10
420.0
 20
297.0
  9
$UNITMODE
 70
     0
  9
$VISRETAIN
 70
     1
  9
$PLINEGEN
 70
     0
  9
$PSLTSCALE
 70
     1
  9
$TREEDEPTH
 70
  3020
  9
$CMLSTYLE
  2
Standard
  9
$CMLJUST
 70
     0
  9
$CMLSCALE
 40
20.0
  9
$PROXYGRAPHICS
 70
     1
  9
$MEASUREMENT
 70
     1
  9
$CELWEIGHT
370
    -1
  9
$ENDCAPS
280
     0
  9
$JOINSTYLE
280
     0
  9
$LWDISPLAY
290
     0
  9
$INSUNITS
 70
     4
  9
$HYPERLINKBASE
  1

  9
$STYLESHEET
  1

  9
$XEDIT
290
     1
  9
$CEPSNTYPE
380
     0
  9
$PSTYLEMODE
290
     1
  9
$FINGERPRINTGUID
  2
{72E8EFB9-4B0A-46A7-ABA9-061966A36C2E}
  9
$VERSIONGUID
  2
{FAEB1C32-E019-11D5-929B-00C0DF256EC4}
  9
$EXTNAMES
290
     1
  9
$PSVPSCALE
 40
0.0
  9
$OLESTARTUP
290
     0
  0
ENDSEC
  0
SECTION
  2
CLASSES
  0
CLASS
  1
ACDBDICTIONARYWDFLT
  2
AcDbDictionaryWithDefault
  3
ObjectDBX Classes
 90
        0
280
     0
281
     0
  0
CLASS
  1
VISUALSTYLE
  2
AcDbVisualStyle
  3
ObjectDBX Classes
 90
     4095
280
     0
281
     0
  0
CLASS
  1
DICTIONARYVAR
  2
AcDbDictionaryVar
  3
ObjectDBX Classes
 90
        0
280
     0
281
     0
  0
CLASS
  1
ACDBPLACEHOLDER
  2
AcDbPlaceHolder
  3
ObjectDBX Classes
 90
        0
280
     0
281
     0
  0
CLASS
  1
LAYOUT
  2
AcDbLayout
  3
ObjectDBX Classes
 90
        0
280
     0
281
     0
  0
ENDSEC
  0
SECTION
  2
TABLES
  0
TABLE
  2
VPORT
  5
8
330
0
100
AcDbSymbolTable
 70
     1
  0
VPORT
  5
29
330
8
100
AcDbSymbolTableRecord
100
AcDbViewportTableRecord
  2
*Active
 70
     0
 10
0.0
 20
0.0
 11
1.0
 21
1.0
 12
4.697939492031867
 22
-8.658186005976109
 13
0.0
 23
0.0
 14
10.0
 24
10.0
 15
10.0
 25
10.0
 16
0.0
 26
0.0
 36
1.0
 17
4.697939492031867
 27
-8.658186005976109
 37
0.0
 40
77.9625
 41
1.960159362549801
 42
50.0
 43
0.0
 44
0.0
 50
0.0
 51
0.0
 71
     0
 72
   100
 73
     1
 74
     3
 75
     0
 76
     0
 77
     0
 78
     0
281
     0
 65
     1
110
0.0
120
0.0
130
0.0
111
1.0
121
0.0
131
0.0
112
0.0
122
1.0
132
0.0
 79
     0
146
0.0
  0
ENDTAB
  0
TABLE
  2
LTYPE
  5
5
330
0
100
AcDbSymbolTable
 70
    46
  0
LTYPE
  5
14
330
5
100
AcDbSymbolTableRecord
100
AcDbLinetypeTableRecord
  2
ByBlock
 70
     0
  3

 72
    65
 73
     0
 40
0.0
  0
LTYPE
  5
15
330
5
100
AcDbSymbolTableRecord
100
AcDbLinetypeTableRecord
  2
ByLayer
 70
     0
  3

 72
    65
 73
     0
 40
0.0
  0
LTYPE
  5
16
330
5
100
AcDbSymbolTableRecord
100
AcDbLinetypeTableRecord
  2
Continuous
 70
     0
  3
Solid line
 72
    65
 73
     0
 40
0.0
  0
LTYPE
  5
3B
330
5
100
AcDbSymbolTableRecord
100
AcDbLinetypeTableRecord
  2
BORDER
 70
     0
  3
Border __ __ . __ __ . __ __ . __ __ . __ __ .
 72
    65
 73
     6
 40
44.45
 49
12.7
 74
     0
 49
-6.35
 74
     0
 49
12.7
 74
     0
 49
-6.35
 74
     0
 49
0.0
 74
     0
 49
-6.35
 74
     0
  0
LTYPE
  5
3C
330
5
100
AcDbSymbolTableRecord
100
AcDbLinetypeTableRecord
  2
BORDER2
 70
     0
  3
Border (.5x) __.__.__.__.__.__.__.__.__.__.__.
 72
    65
 73
     6
 40
22.225
 49
6.35
 74
     0
 49
-3.175
 74
     0
 49
6.35
 74
     0
 49
-3.175
 74
     0
 49
0.0
 74
     0
 49
-3.175
 74
     0
  0
LTYPE
  5
3D
330
5
100
AcDbSymbolTableRecord
100
AcDbLinetypeTableRecord
  2
BORDERX2
 70
     0
  3
Border (2x) ____  ____  .  ____  ____  .  ___
 72
    65
 73
     6
 40
88.89999999999999
 49
25.4
 74
     0
 49
-12.7
 74
     0
 49
25.4
 74
     0
 49
-12.7
 74
     0
 49
0.0
 74
     0
 49
-12.7
 74
     0
  0
LTYPE
  5
3E
330
5
100
AcDbSymbolTableRecord
100
AcDbLinetypeTableRecord
  2
CENTER
 70
     0
  3
Center ____ _ ____ _ ____ _ ____ _ ____ _ ____
 72
    65
 73
     4
 40
50.8
 49
31.75
 74
     0
 49
-6.35
 74
     0
 49
6.35
 74
     0
 49
-6.35
 74
     0
  0
LTYPE
  5
3F
330
5
100
AcDbSymbolTableRecord
100
AcDbLinetypeTableRecord
  2
CENTER2
 70
     0
  3
Center (.5x) ___ _ ___ _ ___ _ ___ _ ___ _ ___
 72
    65
 73
     4
 40
28.575
 49
19.05
 74
     0
 49
-3.175
 74
     0
 49
3.175
 74
     0
 49
-3.175
 74
     0
  0
LTYPE
  5
40
330
5
100
AcDbSymbolTableRecord
100
AcDbLinetypeTableRecord
  2
CENTERX2
 70
     0
  3
Center (2x) ________  __  ________  __  _____
 72
    65
 73
     4
 40
101.6
 49
63.5
 74
     0
 49
-12.7
 74
     0
 49
12.7
 74
     0
 49
-12.7
 74
     0
  0
LTYPE
  5
41
330
5
100
AcDbSymbolTableRecord
100
AcDbLinetypeTableRecord
  2
DASHDOT
 70
     0
  3
Dash dot __ . __ . __ . __ . __ . __ . __ . __
 72
    65
 73
     4
 40
25.4
 49
12.7
 74
     0
 49
-6.35
 74
     0
 49
0.0
 74
     0
 49
-6.35
 74
     0
  0
LTYPE
  5
42
330
5
100
AcDbSymbolTableRecord
100
AcDbLinetypeTableRecord
  2
DASHDOT2
 70
     0
  3
Dash dot (.5x) _._._._._._._._._._._._._._._.
 72
    65
 73
     4
 40
12.7
 49
6.35
 74
     0
 49
-3.175
 74
     0
 49
0.0
 74
     0
 49
-3.175
 74
     0
  0
LTYPE
  5
43
330
5
100
AcDbSymbolTableRecord
100
AcDbLinetypeTableRecord
  2
DASHDOTX2
 70
     0
  3
Dash dot (2x) ____  .  ____  .  ____  .  ___
 72
    65
 73
     4
 40
50.8
 49
25.4
 74
     0
 49
-12.7
 74
     0
 49
0.0
 74
     0
 49
-12.7
 74
     0
  0
LTYPE
  5
44
330
5
100
AcDbSymbolTableRecord
100
AcDbLinetypeTableRecord
  2
DASHED
 70
     0
  3
Dashed __ __ __ __ __ __ __ __ __ __ __ __ __ _
 72
    65
 73
     2
 40
19.05
 49
12.7
 74
     0
 49
-6.35
 74
     0
  0
LTYPE
  5
45
330
5
100
AcDbSymbolTableRecord
100
AcDbLinetypeTableRecord
  2
DASHED2
 70
     0
  3
Dashed (.5x) _ _ _ _ _ _ _ _ _ _ _ _ _ _ _ _ _
 72
    65
 73
     2
 40
9.524999999999999
 49
6.35
 74
     0
 49
-3.175
 74
     0
  0
LTYPE
  5
46
330
5
100
AcDbSymbolTableRecord
100
AcDbLinetypeTableRecord
  2
DASHEDX2
 70
     0
  3
Dashed (2x) ____  ____  ____  ____  ____  ___
 72
    65
 73
     2
 40
38.09999999999999
 49
25.4
 74
     0
 49
-12.7
 74
     0
  0
LTYPE
  5
47
330
5
100
AcDbSymbolTableRecord
100
AcDbLinetypeTableRecord
  2
DIVIDE
 70
     0
  3
Divide ____ . . ____ . . ____ . . ____ . . ____
 72
    65
 73
     6
 40
31.75
 49
12.7
 74
     0
 49
-6.35
 74
     0
 49
0.0
 74
     0
 49
-6.35
 74
     0
 49
0.0
 74
     0
 49
-6.35
 74
     0
  0
LTYPE
  5
48
330
5
100
AcDbSymbolTableRecord
100
AcDbLinetypeTableRecord
  2
DIVIDE2
 70
     0
  3
Divide (.5x) __..__..__..__..__..__..__..__.._
 72
    65
 73
     6
 40
15.875
 49
6.35
 74
     0
 49
-3.175
 74
     0
 49
0.0
 74
     0
 49
-3.175
 74
     0
 49
0.0
 74
     0
 49
-3.175
 74
     0
  0
LTYPE
  5
49
330
5
100
AcDbSymbolTableRecord
100
AcDbLinetypeTableRecord
  2
DIVIDEX2
 70
     0
  3
Divide (2x) ________  .  .  ________  .  .  _
 72
    65
 73
     6
 40
63.5
 49
25.4
 74
     0
 49
-12.7
 74
     0
 49
0.0
 74
     0
 49
-12.7
 74
     0
 49
0.0
 74
     0
 49
-12.7
 74
     0
  0
LTYPE
  5
4A
330
5
100
AcDbSymbolTableRecord
100
AcDbLinetypeTableRecord
  2
DOT
 70
     0
  3
Dot . . . . . . . . . . . . . . . . . . . . . . . .
 72
    65
 73
     2
 40
6.35
 49
0.0
 74
     0
 49
-6.35
 74
     0
  0
LTYPE
  5
4B
330
5
100
AcDbSymbolTableRecord
100
AcDbLinetypeTableRecord
  2
DOT2
 70
     0
  3
Dot (.5x) ........................................
 72
    65
 73
     2
 40
3.175
 49
0.0
 74
     0
 49
-3.175
 74
     0
  0
LTYPE
  5
4C
330
5
100
AcDbSymbolTableRecord
100
AcDbLinetypeTableRecord
  2
DOTX2
 70
     0
  3
Dot (2x) .  .  .  .  .  .  .  .  .  .  .  .  .  .
 72
    65
 73
     2
 40
12.7
 49
0.0
 74
     0
 49
-12.7
 74
     0
  0
LTYPE
  5
4D
330
5
100
AcDbSymbolTableRecord
100
AcDbLinetypeTableRecord
  2
HIDDEN
 70
     0
  3
Hidden __ __ __ __ __ __ __ __ __ __ __ __ __ __
 72
    65
 73
     2
 40
9.524999999999999
 49
6.35
 74
     0
 49
-3.175
 74
     0
  0
LTYPE
  5
4E
330
5
100
AcDbSymbolTableRecord
100
AcDbLinetypeTableRecord
  2
HIDDEN2
 70
     0
  3
Hidden (.5x) _ _ _ _ _ _ _ _ _ _ _ _ _ _ _ _ _
 72
    65
 73
     2
 40
4.762499999999999
 49
3.175
 74
     0
 49
-1.5875
 74
     0
  0
LTYPE
  5
4F
330
5
100
AcDbSymbolTableRecord
100
AcDbLinetypeTableRecord
  2
HIDDENX2
 70
     0
  3
Hidden (2x) ____ ____ ____ ____ ____ ____ ____
 72
    65
 73
     2
 40
19.05
 49
12.7
 74
     0
 49
-6.35
 74
     0
  0
LTYPE
  5
50
330
5
100
AcDbSymbolTableRecord
100
AcDbLinetypeTableRecord
  2
PHANTOM
 70
     0
  3
Phantom ______  __  __  ______  __  __  ______
 72
    65
 73
     6
 40
63.50000000000001
 49
31.75
 74
     0
 49
-6.35
 74
     0
 49
6.35
 74
     0
 49
-6.35
 74
     0
 49
6.35
 74
     0
 49
-6.35
 74
     0
  0
LTYPE
  5
51
330
5
100
AcDbSymbolTableRecord
100
AcDbLinetypeTableRecord
  2
PHANTOM2
 70
     0
  3
Phantom (.5x) ___ _ _ ___ _ _ ___ _ _ ___ _ _
 72
    65
 73
     6
 40
31.75
 49
15.875
 74
     0
 49
-3.175
 74
     0
 49
3.175
 74
     0
 49
-3.175
 74
     0
 49
3.175
 74
     0
 49
-3.175
 74
     0
  0
LTYPE
  5
52
330
5
100
AcDbSymbolTableRecord
100
AcDbLinetypeTableRecord
  2
PHANTOMX2
 70
     0
  3
Phantom (2x) ____________    ____    ____   _
 72
    65
 73
     6
 40
127.0
 49
63.5
 74
     0
 49
-12.7
 74
     0
 49
12.7
 74
     0
 49
-12.7
 74
     0
 49
12.7
 74
     0
 49
-12.7
 74
     0
  0
LTYPE
  5
53
330
5
100
AcDbSymbolTableRecord
100
AcDbLinetypeTableRecord
  2
ACAD_ISO02W100
 70
     0
  3
ISO dash __ __ __ __ __ __ __ __ __ __ __ __ __
 72
    65
 73
     2
 40
15.0
 49
12.0
 74
     0
 49
-3.0
 74
     0
  0
LTYPE
  5
54
330
5
100
AcDbSymbolTableRecord
100
AcDbLinetypeTableRecord
  2
ACAD_ISO03W100
 70
     0
  3
ISO dash space __    __    __    __    __    __
 72
    65
 73
     2
 40
30.0
 49
12.0
 74
     0
 49
-18.0
 74
     0
  0
LTYPE
  5
55
330
5
100
AcDbSymbolTableRecord
100
AcDbLinetypeTableRecord
  2
ACAD_ISO04W100
 70
     0
  3
ISO long-dash dot ____ . ____ . ____ . ____ . _
 72
    65
 73
     4
 40
30.0
 49
24.0
 74
     0
 49
-3.0
 74
     0
 49
0.0
 74
     0
 49
-3.0
 74
     0
  0
LTYPE
  5
56
330
5
100
AcDbSymbolTableRecord
100
AcDbLinetypeTableRecord
  2
ACAD_ISO05W100
 70
     0
  3
ISO long-dash double-dot ____ .. ____ .. ____ .
 72
    65
 73
     6
 40
33.0
 49
24.0
 74
     0
 49
-3.0
 74
     0
 49
0.0
 74
     0
 49
-3.0
 74
     0
 49
0.0
 74
     0
 49
-3.0
 74
     0
  0
LTYPE
  5
57
330
5
100
AcDbSymbolTableRecord
100
AcDbLinetypeTableRecord
  2
ACAD_ISO06W100
 70
     0
  3
ISO long-dash triple-dot ____ ... ____ ... ____
 72
    65
 73
     8
 40
36.0
 49
24.0
 74
     0
 49
-3.0
 74
     0
 49
0.0
 74
     0
 49
-3.0
 74
     0
 49
0.0
 74
     0
 49
-3.0
 74
     0
 49
0.0
 74
     0
 49
-3.0
 74
     0
  0
LTYPE
  5
58
330
5
100
AcDbSymbolTableRecord
100
AcDbLinetypeTableRecord
  2
ACAD_ISO07W100
 70
     0
  3
ISO dot . . . . . . . . . . . . . . . . . . . .
 72
    65
 73
     2
 40
3.0
 49
0.0
 74
     0
 49
-3.0
 74
     0
  0
LTYPE
  5
59
330
5
100
AcDbSymbolTableRecord
100
AcDbLinetypeTableRecord
  2
ACAD_ISO08W100
 70
     0
  3
ISO long-dash short-dash ____ __ ____ __ ____ _
 72
    65
 73
     4
 40
36.0
 49
24.0
 74
     0
 49
-3.0
 74
     0
 49
6.0
 74
     0
 49
-3.0
 74
     0
  0
LTYPE
  5
5A
330
5
100
AcDbSymbolTableRecord
100
AcDbLinetypeTableRecord
  2
ACAD_ISO09W100
 70
     0
  3
ISO long-dash double-short-dash ____ __ __ ____
 72
    65
 73
     6
 40
45.0
 49
24.0
 74
     0
 49
-3.0
 74
     0
 49
6.0
 74
     0
 49
-3.0
 74
     0
 49
6.0
 74
     0
 49
-3.0
 74
     0
  0
LTYPE
  5
5B
330
5
100
AcDbSymbolTableRecord
100
AcDbLinetypeTableRecord
  2
ACAD_ISO10W100
 70
     0
  3
ISO dash dot __ . __ . __ . __ . __ . __ . __ .
 72
    65
 73
     4
 40
18.0
 49
12.0
 74
     0
 49
-3.0
 74
     0
 49
0.0
 74
     0
 49
-3.0
 74
     0
  0
LTYPE
  5
5C
330
5
100
AcDbSymbolTableRecord
100
AcDbLinetypeTableRecord
  2
ACAD_ISO11W100
 70
     0
  3
ISO double-dash dot __ __ . __ __ . __ __ . __ _
 72
    65
 73
     6
 40
33.0
 49
12.0
 74
     0
 49
-3.0
 74
     0
 49
12.0
 74
     0
 49
-3.0
 74
     0
 49
0.0
 74
     0
 49
-3.0
 74
     0
  0
LTYPE
  5
5D
330
5
100
AcDbSymbolTableRecord
100
AcDbLinetypeTableRecord
  2
ACAD_ISO12W100
 70
     0
  3
ISO dash double-dot __ . . __ . . __ . . __ . .
 72
    65
 73
     6
 40
21.0
 49
12.0
 74
     0
 49
-3.0
 74
     0
 49
0.0
 74
     0
 49
-3.0
 74
     0
 49
0.0
 74
     0
 49
-3.0
 74
     0
  0
LTYPE
  5
5E
330
5
100
AcDbSymbolTableRecord
100
AcDbLinetypeTableRecord
  2
ACAD_ISO13W100
 70
     0
  3
ISO double-dash double-dot __ __ . . __ __ . . _
 72
    65
 73
     8
 40
36.0
 49
12.0
 74
     0
 49
-3.0
 74
     0
 49
12.0
 74
     0
 49
-3.0
 74
     0
 49
0.0
 74
     0
 49
-3.0
 74
     0
 49
0.0
 74
     0
 49
-3.0
 74
     0
  0
LTYPE
  5
5F
330
5
100
AcDbSymbolTableRecord
100
AcDbLinetypeTableRecord
  2
ACAD_ISO14W100
 70
     0
  3
ISO dash triple-dot __ . . . __ . . . __ . . . _
 72
    65
 73
     8
 40
24.0
 49
12.0
 74
     0
 49
-3.0
 74
     0
 49
0.0
 74
     0
 49
-3.0
 74
     0
 49
0.0
 74
     0
 49
-3.0
 74
     0
 49
0.0
 74
     0
 49
-3.0
 74
     0
  0
LTYPE
  5
60
330
5
100
AcDbSymbolTableRecord
100
AcDbLinetypeTableRecord
  2
ACAD_ISO15W100
 70
     0
  3
ISO double-dash triple-dot __ __ . . . __ __ . .
 72
    65
 73
    10
 40
39.0
 49
12.0
 74
     0
 49
-3.0
 74
     0
 49
12.0
 74
     0
 49
-3.0
 74
     0
 49
0.0
 74
     0
 49
-3.0
 74
     0
 49
0.0
 74
     0
 49
-3.0
 74
     0
 49
0.0
 74
     0
 49
-3.0
 74
     0
  0
LTYPE
  5
61
330
5
100
AcDbSymbolTableRecord
100
AcDbLinetypeTableRecord
  2
FENCELINE1
 70
     0
  3
-O--O--O--O--O--O--O--O--O--O--O--O--O-
 72
    65
 73
     4
 40
36.83
 49
6.35
 74
     0
 49
-2.54
 74
     0
 49
-2.54
 74
     0
 49
25.4
 74
     0
  0
LTYPE
  5
62
330
5
100
AcDbSymbolTableRecord
100
AcDbLinetypeTableRecord
  2
FENCELINE2
 70
     0
  3
-[]--[]--[]--[]--[]--[]--[]--[]--[]--[]-
 72
    65
 73
     4
 40
36.83
 49
6.35
 74
     0
 49
-2.54
 74
     0
 49
-2.54
 74
     0
 49
25.4
 74
     0
  0
LTYPE
  5
63
330
5
100
AcDbSymbolTableRecord
100
AcDbLinetypeTableRecord
  2
TRACKS
 70
     0
  3
-|-|-|-|-|-|-|-|-|-|-|-|-|-|-|-|-|-|-|-|-
 72
    65
 73
     2
 40
7.62
 49
3.81
 74
     0
 49
3.81
 74
     0
  0
LTYPE
  5
64
330
5
100
AcDbSymbolTableRecord
100
AcDbLinetypeTableRecord
  2
HOT_WATER_SUPPLY
 70
     0
  3
-- HW ---- HW ---- HW ---- HW ---- HW --
 72
    65
 73
     3
 40
22.86
 49
12.7
 74
     0
 49
-5.08
 74
     0
 49
-5.08
 74
     0
  0
LTYPE
  5
65
330
5
100
AcDbSymbolTableRecord
100
AcDbLinetypeTableRecord
  2
GAS_LINE
 70
     0
  3
-- GAS --- GAS --- GAS --- GAS --- GAS ---
 72
    65
 73
     3
 40
24.13
 49
12.7
 74
     0
 49
-5.08
 74
     0
 49
-6.35
 74
     0
  0
LTYPE
  5
66
330
5
100
AcDbSymbolTableRecord
100
AcDbLinetypeTableRecord
  2
ZIGZAG
 70
     0
  3
/\/\/\/\/\/\/\/\/\/\/\/\/\/\/\/\/\/\/\/\/
 72
    65
 73
     4
 40
20.32254
 49
0.00254
 74
     0
 49
-5.08
 74
     0
 49
-10.16
 74
     0
 49
-5.08
 74
     0
  0
LTYPE
  5
67
330
5
100
AcDbSymbolTableRecord
100
AcDbLinetypeTableRecord
  2
BATTING
 70
     0
  3
SSSSSSSSSSSSSSSSSSSSSSSSSSSSSSSSSSSS
 72
    65
 73
     4
 40
10.16254
 49
0.00254
 74
     0
 49
-2.54
 74
     0
 49
-5.08
 74
     0
 49
-2.54
 74
     0
  0
ENDTAB
  0
TABLE
  2
LAYER
  5
2
330
0
100
AcDbSymbolTable
 70
     1
  0
LAYER
  5
10
330
2
100
AcDbSymbolTableRecord
100
AcDbLayerTableRecord
  2
0
 70
     0
 62
     7
  6
Continuous
370
     0
390
F
  0
ENDTAB
  0
TABLE
  2
STYLE
  5
3
330
0
100
AcDbSymbolTable
 70
     4
  0
STYLE
  5
11
330
3
100
AcDbSymbolTableRecord
100
AcDbTextStyleTableRecord
  2
Standard
 70
     0
 40
0.0
 41
1.0
 50
0.0
 71
     0
 42
2.5
  3
txt
  4

  0
STYLE
  5
68
330
3
100
AcDbSymbolTableRecord
100
AcDbTextStyleTableRecord
  2
DEFAULT
 70
     0
 40
10.0
 41
1.0
 50
0.0
 71
     0
 42
0.2
  3
Arial
  4

1001
ACAD
1000
Arial
1071
        0
  0
STYLE
  5
69
330
3
100
AcDbSymbolTableRecord
100
AcDbTextStyleTableRecord
  2
ltypeshp.shx
 70
     0
 40
10.0
 41
1.0
 50
0.0
 71
     0
 42
0.2
  3
ltypeshp.shx
  4

1001
ACAD
1000
ltypeshp.shx
1071
        0
  0
STYLE
  5
6A
330
3
100
AcDbSymbolTableRecord
100
AcDbTextStyleTableRecord
  2
WEBFEST
 70
     0
 40
10.0
 41
1.0
 50
0.0
 71
     0
 42
0.2
  3
BankGothic Md BT
  4

1001
ACAD
1000
BankGothic Md BT
1071
        0
  0
ENDTAB
  0
TABLE
  2
VIEW
  5
6
330
0
100
AcDbSymbolTable
 70
     0
  0
ENDTAB
  0
TABLE
  2
UCS
  5
7
330
0
100
AcDbSymbolTable
 70
     0
  0
ENDTAB
  0
TABLE
  2
APPID
  5
9
330
0
100
AcDbSymbolTable
 70
     1
  0
APPID
  5
12
330
9
100
AcDbSymbolTableRecord
100
AcDbRegAppTableRecord
  2
ACAD
 70
     0
  0
ENDTAB
  0
TABLE
  2
DIMSTYLE
  5
A
330
0
100
AcDbSymbolTable
 70
     2
100
AcDbDimStyleTable
  0
DIMSTYLE
105
27
330
A
100
AcDbSymbolTableRecord
100
AcDbDimStyleTableRecord
  2
ISO-25
 70
     0
 41
10.0
 42
2.5
 43
3.75
 44
5.0
 73
     0
 74
     0
 77
     1
 78
     8
140
10000.0
141
2.5
143
0.03937007874016
147
0.625
171
     3
172
     1
179
     2
271
     2
272
     2
274
     3
278
    44
283
     0
284
     8
340
11
  0
DIMSTYLE
105
6B
330
A
100
AcDbSymbolTableRecord
100
AcDbDimStyleTableRecord
  2
STANDARD
 70
     0
 41
10.0
 42
2.5
 43
15.0
 44
5.0
 73
     0
 74
     0
 77
     1
 78
     4
140
10.0
141
3.0
143
0.0394
147
2.5
171
     4
172
     1
173
     1
271
     2
274
     4
277
     6
278
    44
340
68
  0
ENDTAB
  0
TABLE
  2
BLOCK_RECORD
  5
1
330
0
100
AcDbSymbolTable
 70
     1
  0
BLOCK_RECORD
  5
1F
330
1
100
AcDbSymbolTableRecord
100
AcDbBlockTableRecord
  2
*Model_Space
340
22
  0
BLOCK_RECORD
  5
1B
330
1
100
AcDbSymbolTableRecord
100
AcDbBlockTableRecord
  2
*Paper_Space
340
1E
  0
ENDTAB
  0
ENDSEC
  0
SECTION
  2
BLOCKS
  0
BLOCK
  5
20
330
1F
100
AcDbEntity
  8
0
100
AcDbBlockBegin
  2
*Model_Space
 70
     0
 71
     0
 10
0.0
 20
0.0
 30
0.0
  3
*Model_Space
  1

  0
ENDBLK
  5
21
330
1F
100
AcDbEntity
  8
0
100
AcDbBlockEnd
  0
BLOCK
  5
1C
330
1B
100
AcDbEntity
 67
     1
  8
0
100
AcDbBlockBegin
  2
*Paper_Space
 70
     0
 71
     0
 10
0.0
 20
0.0
 30
0.0
  3
*Paper_Space
  1

  0
ENDBLK
  5
1D
330
1B
100
AcDbEntity
 67
     1
  8
0
100
AcDbBlockEnd
  0
ENDSEC
  0
SECTION
  2
ENTITIES
  0
LINE
  5
6C
330
1F
100
AcDbEntity
  8
0
  6
Continuous
 62
     7
370
     0
100
AcDbLine
 10
-6.48865834737956
 20
-3.466375124501949
 30
0.001
 11
-12.12267277045648
 21
-3.466375124501949
 31
0.001
  0
LINE
  5
6D
330
1F
100
AcDbEntity
  8
0
  6
Continuous
 62
     7
370
     0
100
AcDbLine
 10
33.10869742185122
 20
2.302855644728821
 30
0.0
 11
31.14655799877429
 21
-3.466375124501949
 31
0.0
  0
LINE
  5
6E
330
1F
100
AcDbEntity
  8
0
  6
Continuous
 62
     7
370
     0
100
AcDbLine
 10
31.14655799877429
 20
-3.466375124501949
 30
0.0
 11
29.60809646031275
 21
-3.466375124501949
 31
0.0
  0
LINE
  5
6F
330
1F
100
AcDbEntity
  8
0
  6
Continuous
 62
     7
370
     0
100
AcDbLine
 10
29.60809646031275
 20
-3.466375124501949
 30
0.0
 11
31.57023588338967
 21
2.302855644728821
 31
0.0
  0
LINE
  5
70
330
1F
100
AcDbEntity
  8
0
  6
Continuous
 62
     7
370
     0
100
AcDbLine
 10
31.57023588338967
 20
2.302855644728821
 30
0.0
 11
28.4933128064666
 21
2.302855644728821
 31
0.0
  0
LINE
  5
71
330
1F
100
AcDbEntity
  8
0
  6
Continuous
 62
     7
370
     0
100
AcDbLine
 10
28.4933128064666
 20
2.302855644728821
 30
0.0
 11
28.8839378064666
 21
3.456701798574974
 31
0.0
  0
LINE
  5
72
330
1F
100
AcDbEntity
  8
0
  6
Continuous
 62
     7
370
     0
100
AcDbLine
 10
28.8839378064666
 20
3.456701798574974
 30
0.0
 11
36.5762454987743
 21
3.456701798574974
 31
0.0
  0
LINE
  5
73
330
1F
100
AcDbEntity
  8
0
  6
Continuous
 62
     7
370
     0
100
AcDbLine
 10
36.5762454987743
 20
3.456701798574974
 30
0.0
 11
36.1856204987743
 21
2.302855644728821
 31
0.0
  0
LINE
  5
74
330
1F
100
AcDbEntity
  8
0
  6
Continuous
 62
     7
370
     0
100
AcDbLine
 10
36.1856204987743
 20
2.302855644728821
 30
0.0
 11
33.10869742185122
 21
2.302855644728821
 31
0.0
  0
LINE
  5
75
330
1F
100
AcDbEntity
  8
0
  6
Continuous
 62
     7
370
     0
100
AcDbLine
 10
-32.92495642430264
 20
-3.466375124501949
 30
0.0
 11
-33.23144680891802
 21
3.456701798574974
 31
0.0
  0
LINE
  5
76
330
1F
100
AcDbEntity
  8
0
  6
Continuous
 62
     7
370
     0
100
AcDbLine
 10
-33.23144680891802
 20
3.456701798574974
 30
0.0
 11
-31.57279296276418
 21
3.456701798574974
 31
0.0
  0
LINE
  5
77
330
1F
100
AcDbEntity
  8
0
  6
Continuous
 62
     7
370
     0
100
AcDbLine
 10
-31.57279296276418
 20
3.456701798574974
 30
0.0
 11
-31.39851411661033
 21
-1.18572608604041
 31
0.0
  0
LINE
  5
78
330
1F
100
AcDbEntity
  8
0
  6
Continuous
 62
     7
370
     0
100
AcDbLine
 10
-31.39851411661033
 20
-1.18572608604041
 30
0.0
 11
-27.98505257814879
 21
3.456701798574974
 31
0.0
  0
LINE
  5
79
330
1F
100
AcDbEntity
  8
0
  6
Continuous
 62
     7
370
     0
100
AcDbLine
 10
-27.98505257814879
 20
3.456701798574974
 30
0.0
 11
-26.86125450122572
 21
3.456701798574974
 31
0.0
  0
LINE
  5
7A
330
1F
100
AcDbEntity
  8
0
  6
Continuous
 62
     7
370
     0
100
AcDbLine
 10
-26.86125450122572
 20
3.456701798574974
 30
0.0
 11
-26.57279296276418
 21
-1.18572608604041
 31
0.0
  0
LINE
  5
7B
330
1F
100
AcDbEntity
  8
0
  6
Continuous
 62
     7
370
     0
100
AcDbLine
 10
-26.57279296276418
 20
-1.18572608604041
 30
0.0
 11
-23.32159103968725
 21
3.456701798574974
 31
0.0
  0
LINE
  5
7C
330
1F
100
AcDbEntity
  8
0
  6
Continuous
 62
     7
370
     0
100
AcDbLine
 10
-23.32159103968725
 20
3.456701798574974
 30
0.0
 11
-21.88529296276418
 21
3.456701798574974
 31
0.0
  0
LINE
  5
7D
330
1F
100
AcDbEntity
  8
0
  6
Continuous
 62
     7
370
     0
100
AcDbLine
 10
-21.88529296276418
 20
3.456701798574974
 30
0.0
 11
-26.90332180891802
 21
-3.466375124501949
 31
0.0
  0
LINE
  5
7E
330
1F
100
AcDbEntity
  8
0
  6
Continuous
 62
     7
370
     0
100
AcDbLine
 10
-26.90332180891802
 20
-3.466375124501949
 30
0.0
 11
-27.9880573858411
 21
-3.466375124501949
 31
0.0
  0
LINE
  5
7F
330
1F
100
AcDbEntity
  8
0
  6
Continuous
 62
     7
370
     0
100
AcDbLine
 10
-27.9880573858411
 20
-3.466375124501949
 30
0.0
 11
-28.2614948858411
 21
1.320283529344206
 31
0.0
  0
LINE
  5
80
330
1F
100
AcDbEntity
  8
0
  6
Continuous
 62
     7
370
     0
100
AcDbLine
 10
-28.2614948858411
 20
1.320283529344206
 30
0.0
 11
-31.8161823858411
 21
-3.466375124501949
 31
0.0
  0
LINE
  5
81
330
1F
100
AcDbEntity
  8
0
  6
Continuous
 62
     7
370
     0
100
AcDbLine
 10
-31.8161823858411
 20
-3.466375124501949
 30
0.0
 11
-32.92495642430264
 21
-3.466375124501949
 31
0.0
  0
LINE
  5
82
330
1F
100
AcDbEntity
  8
0
  6
Continuous
 62
     7
370
     0
100
AcDbLine
 10
-22.12267277045648
 20
-3.466375124501949
 30
0.0
 11
-19.76990834737956
 21
3.456701798574974
 31
0.0
  0
LINE
  5
83
330
1F
100
AcDbEntity
  8
0
  6
Continuous
 62
     7
370
     0
100
AcDbLine
 10
-19.76990834737956
 20
3.456701798574974
 30
0.0
 11
-12.65452373199494
 21
3.456701798574974
 31
0.0
  0
LINE
  5
84
330
1F
100
AcDbEntity
  8
0
  6
Continuous
 62
     7
370
     0
100
AcDbLine
 10
-12.65452373199494
 20
3.456701798574974
 30
0.0
 11
-13.04514873199494
 21
2.302855644728821
 31
0.0
  0
LINE
  5
85
330
1F
100
AcDbEntity
  8
0
  6
Continuous
 62
     7
370
     0
100
AcDbLine
 10
-13.04514873199494
 20
2.302855644728821
 30
0.0
 11
-18.62207180891802
 21
2.302855644728821
 31
0.0
  0
LINE
  5
86
330
1F
100
AcDbEntity
  8
0
  6
Continuous
 62
     7
370
     0
100
AcDbLine
 10
-18.62207180891802
 20
2.302855644728821
 30
0.0
 11
-19.14490834737956
 21
0.764394106267283
 31
0.0
  0
LINE
  5
87
330
1F
100
AcDbEntity
  8
0
  6
Continuous
 62
     7
370
     0
100
AcDbLine
 10
-19.14490834737956
 20
0.764394106267283
 30
0.0
 11
-16.06798527045648
 21
0.764394106267283
 31
0.0
  0
LINE
  5
88
330
1F
100
AcDbEntity
  8
0
  6
Continuous
 62
     7
370
     0
100
AcDbLine
 10
-16.06798527045648
 20
0.764394106267283
 30
0.0
 11
-16.46161507814879
 21
-0.3894520475788713
 31
0.0
  0
LINE
  5
89
330
1F
100
AcDbEntity
  8
0
  6
Continuous
 62
     7
370
     0
100
AcDbLine
 10
-16.46161507814879
 20
-0.3894520475788713
 30
0.0
 11
-19.53853815507187
 21
-0.3894520475788713
 31
0.0
  0
LINE
  5
8A
330
1F
100
AcDbEntity
  8
0
  6
Continuous
 62
     7
370
     0
100
AcDbLine
 10
-19.53853815507187
 20
-0.3894520475788713
 30
0.0
 11
-20.12748046276418
 21
-2.120221278348102
 31
0.0
  0
LINE
  5
8B
330
1F
100
AcDbEntity
  8
0
  6
Continuous
 62
     7
370
     0
100
AcDbLine
 10
-20.12748046276418
 20
-2.120221278348102
 30
0.0
 11
-14.5505573858411
 21
-2.120221278348102
 31
0.0
  0
LINE
  5
8C
330
1F
100
AcDbEntity
  8
0
  6
Continuous
 62
     7
370
     0
100
AcDbLine
 10
-14.5505573858411
 20
-2.120221278348102
 30
0.0
 11
-15.00728815507187
 21
-3.466375124501949
 31
0.0
  0
LINE
  5
8D
330
1F
100
AcDbEntity
  8
0
  6
Continuous
 62
     7
370
     0
100
AcDbLine
 10
-15.00728815507187
 20
-3.466375124501949
 30
0.0
 11
-22.12267277045648
 21
-3.466375124501949
 31
0.0
  0
LINE
  5
8E
330
1F
100
AcDbEntity
  8
0
  6
Continuous
 62
     7
370
     0
100
AcDbLine
 10
-4.781927578148791
 20
2.302855644728821
 30
0.0
 11
-8.622071808918022
 21
2.302855644728821
 31
0.0
  0
LINE
  5
8F
330
1F
100
AcDbEntity
  8
0
  6
Continuous
 62
     7
370
     0
100
AcDbLine
 10
-8.622071808918022
 20
2.302855644728821
 30
0.0
 11
-9.14490834737956
 21
0.764394106267283
 31
0.0
  0
LINE
  5
90
330
1F
100
AcDbEntity
  8
0
  6
Continuous
 62
     7
370
     0
100
AcDbLine
 10
-9.14490834737956
 20
0.764394106267283
 30
0.0
 11
-5.30476411661033
 21
0.764394106267283
 31
0.0
  0
LINE
  5
91
330
1F
100
AcDbEntity
  8
0
  6
Continuous
 62
     7
370
     0
100
AcDbLine
 10
-5.30476411661033
 20
0.764394106267283
 30
0.0
 11
-5.26148335298423
 21
0.7646532709307444
 31
0.0
  0
LINE
  5
92
330
1F
100
AcDbEntity
  8
0
  6
Continuous
 62
     7
370
     0
100
AcDbLine
 10
-5.26148335298423
 20
0.7646532709307444
 30
0.0
 11
-5.219382030663441
 21
0.7654307649211292
 31
0.0
  0
LINE
  5
93
330
1F
100
AcDbEntity
  8
0
  6
Continuous
 62
     7
370
     0
100
AcDbLine
 10
-5.219382030663441
 20
0.7654307649211292
 30
0.0
 11
-5.178460145246381
 21
0.7667265882384369
 31
0.0
  0
LINE
  5
94
330
1F
100
AcDbEntity
  8
0
  6
Continuous
 62
     7
370
     0
100
AcDbLine
 10
-5.178460145246381
 20
0.7667265882384369
 30
0.0
 11
-5.138717692331485
 21
0.7685407408826677
 31
0.0
  0
LINE
  5
95
330
1F
100
AcDbEntity
  8
0
  6
Continuous
 62
     7
370
     0
100
AcDbLine
 10
-5.138717692331485
 20
0.7685407408826677
 30
0.0
 11
-5.100154667517171
 21
0.7708732228538214
 31
0.0
  0
LINE
  5
96
330
1F
100
AcDbEntity
  8
0
  6
Continuous
 62
     7
370
     0
100
AcDbLine
 10
-5.100154667517171
 20
0.7708732228538214
 30
0.0
 11
-5.062771066401869
 21
0.773724034151898
 31
0.0
  0
LINE
  5
97
330
1F
100
AcDbEntity
  8
0
  6
Continuous
 62
     7
370
     0
100
AcDbLine
 10
-5.062771066401869
 20
0.773724034151898
 30
0.0
 11
-5.02656688458401
 21
0.7770931747768981
 31
0.0
  0
LINE
  5
98
330
1F
100
AcDbEntity
  8
0
  6
Continuous
 62
     7
370
     0
100
AcDbLine
 10
-5.02656688458401
 20
0.7770931747768981
 30
0.0
 11
-4.991542117662014
 21
0.7809806447288214
 31
0.0
  0
LINE
  5
99
330
1F
100
AcDbEntity
  8
0
  6
Continuous
 62
     7
370
     0
100
AcDbLine
 10
-4.991542117662014
 20
0.7809806447288214
 30
0.0
 11
-4.957696761234307
 21
0.7853864440076674
 31
0.0
  0
LINE
  5
9A
330
1F
100
AcDbEntity
  8
0
  6
Continuous
 62
     7
370
     0
100
AcDbLine
 10
-4.957696761234307
 20
0.7853864440076674
 30
0.0
 11
-4.925030810899316
 21
0.7903105726134364
 31
0.0
  0
LINE
  5
9B
330
1F
100
AcDbEntity
  8
0
  6
Continuous
 62
     7
370
     0
100
AcDbLine
 10
-4.925030810899316
 20
0.7903105726134364
 30
0.0
 11
-4.893544262255472
 21
0.7957530305461289
 31
0.0
  0
LINE
  5
9C
330
1F
100
AcDbEntity
  8
0
  6
Continuous
 62
     7
370
     0
100
AcDbLine
 10
-4.893544262255472
 20
0.7957530305461289
 30
0.0
 11
-4.863237110901196
 21
0.8017138178057444
 31
0.0
  0
LINE
  5
9D
330
1F
100
AcDbEntity
  8
0
  6
Continuous
 62
     7
370
     0
100
AcDbLine
 10
-4.863237110901196
 20
0.8017138178057444
 30
0.0
 11
-4.834109352434915
 21
0.8081929343922827
 31
0.0
  0
LINE
  5
9E
330
1F
100
AcDbEntity
  8
0
  6
Continuous
 62
     7
370
     0
100
AcDbLine
 10
-4.834109352434915
 20
0.8081929343922827
 30
0.0
 11
-4.806160982455056
 21
0.8151903803057443
 31
0.0
  0
LINE
  5
9F
330
1F
100
AcDbEntity
  8
0
  6
Continuous
 62
     7
370
     0
100
AcDbLine
 10
-4.806160982455056
 20
0.8151903803057443
 30
0.0
 11
-4.779391996560046
 21
0.8227061555461289
 31
0.0
  0
LINE
  5
A0
330
1F
100
AcDbEntity
  8
0
  6
Continuous
 62
     7
370
     0
100
AcDbLine
 10
-4.779391996560046
 20
0.8227061555461289
 30
0.0
 11
-4.75380239034831
 21
0.8307402601134365
 31
0.0
  0
LINE
  5
A1
330
1F
100
AcDbEntity
  8
0
  6
Continuous
 62
     7
370
     0
100
AcDbLine
 10
-4.75380239034831
 20
0.8307402601134365
 30
0.0
 11
-4.729392159418276
 21
0.8392926940076675
 31
0.0
  0
LINE
  5
A2
330
1F
100
AcDbEntity
  8
0
  6
Continuous
 62
     7
370
     0
100
AcDbLine
 10
-4.729392159418276
 20
0.8392926940076675
 30
0.0
 11
-4.706161299368367
 21
0.8483634572288212
 31
0.0
  0
LINE
  5
A3
330
1F
100
AcDbEntity
  8
0
  6
Continuous
 62
     7
370
     0
100
AcDbLine
 10
-4.706161299368367
 20
0.8483634572288212
 30
0.0
 11
-4.684109805797013
 21
0.8579525497768982
 31
0.0
  0
LINE
  5
A4
330
1F
100
AcDbEntity
  8
0
  6
Continuous
 62
     7
370
     0
100
AcDbLine
 10
-4.684109805797013
 20
0.8579525497768982
 30
0.0
 11
-4.663237674302637
 21
0.8680599716518982
 31
0.0
  0
LINE
  5
A5
330
1F
100
AcDbEntity
  8
0
  6
Continuous
 62
     7
370
     0
100
AcDbLine
 10
-4.663237674302638
 20
0.8680599716518982
 30
0.0
 11
-4.643244428150787
 21
0.8788059290998305
 31
0.0
  0
LINE
  5
A6
330
1F
100
AcDbEntity
  8
0
  6
Continuous
 62
     7
370
     0
100
AcDbLine
 10
-4.643244428150787
 20
0.8788059290998305
 30
0.0
 11
-4.62382959500858
 21
0.8903106254323221
 31
0.0
  0
LINE
  5
A7
330
1F
100
AcDbEntity
  8
0
  6
Continuous
 62
     7
370
     0
100
AcDbLine
 10
-4.62382959500858
 20
0.8903106254323221
 30
0.0
 11
-4.604993177076802
 21
0.9025740562477985
 31
0.0
  0
LINE
  5
A8
330
1F
100
AcDbEntity
  8
0
  6
Continuous
 62
     7
370
     0
100
AcDbLine
 10
-4.604993177076802
 20
0.9025740562477985
 30
0.0
 11
-4.586735176556244
 21
0.9155962171446869
 31
0.0
  0
LINE
  5
A9
330
1F
100
AcDbEntity
  8
0
  6
Continuous
 62
     7
370
     0
100
AcDbLine
 10
-4.586735176556244
 20
0.9155962171446869
 30
0.0
 11
-4.569055595647688
 21
0.9293771037214125
 31
0.0
  0
LINE
  5
AA
330
1F
100
AcDbEntity
  8
0
  6
Continuous
 62
     7
370
     0
100
AcDbLine
 10
-4.569055595647688
 20
0.9293771037214125
 30
0.0
 11
-4.551954436551923
 21
0.9439167115764021
 31
0.0
  0
LINE
  5
AB
330
1F
100
AcDbEntity
  8
0
  6
Continuous
 62
     7
370
     0
100
AcDbLine
 10
-4.551954436551923
 20
0.9439167115764021
 30
0.0
 11
-4.535431701469738
 21
0.9592150363080822
 31
0.0
  0
LINE
  5
AC
330
1F
100
AcDbEntity
  8
0
  6
Continuous
 62
     7
370
     0
100
AcDbLine
 10
-4.535431701469738
 20
0.9592150363080822
 30
0.0
 11
-4.519487392601917
 21
0.9752720735148791
 31
0.0
  0
LINE
  5
AD
330
1F
100
AcDbEntity
  8
0
  6
Continuous
 62
     7
370
     0
100
AcDbLine
 10
-4.519487392601917
 20
0.9752720735148791
 30
0.0
 11
-4.504121512149246
 21
0.9920878187952179
 31
0.0
  0
LINE
  5
AE
330
1F
100
AcDbEntity
  8
0
  6
Continuous
 62
     7
370
     0
100
AcDbLine
 10
-4.504121512149246
 20
0.9920878187952179
 30
0.0
 11
-4.489334062312514
 21
1.009662267747526
 31
0.0
  0
LINE
  5
AF
330
1F
100
AcDbEntity
  8
0
  6
Continuous
 62
     7
370
     0
100
AcDbLine
 10
-4.489334062312514
 20
1.009662267747526
 30
0.0
 11
-4.47512504529251
 21
1.027995415970229
 31
0.0
  0
LINE
  5
B0
330
1F
100
AcDbEntity
  8
0
  6
Continuous
 62
     7
370
     0
100
AcDbLine
 10
-4.47512504529251
 20
1.027995415970229
 30
0.0
 11
-4.461494463290017
 21
1.047087259061754
 31
0.0
  0
LINE
  5
B1
330
1F
100
AcDbEntity
  8
0
  6
Continuous
 62
     7
370
     0
100
AcDbLine
 10
-4.461494463290017
 20
1.047087259061754
 30
0.0
 11
-4.448442318505824
 21
1.066937792620526
 31
0.0
  0
LINE
  5
B2
330
1F
100
AcDbEntity
  8
0
  6
Continuous
 62
     7
370
     0
100
AcDbLine
 10
-4.448442318505824
 20
1.066937792620526
 30
0.0
 11
-4.435968613140715
 21
1.087547012244972
 31
0.0
  0
LINE
  5
B3
330
1F
100
AcDbEntity
  8
0
  6
Continuous
 62
     7
370
     0
100
AcDbLine
 10
-4.435968613140715
 20
1.087547012244972
 30
0.0
 11
-4.424073349395481
 21
1.108914913533518
 31
0.0
  0
LINE
  5
B4
330
1F
100
AcDbEntity
  8
0
  6
Continuous
 62
     7
370
     0
100
AcDbLine
 10
-4.424073349395481
 20
1.108914913533518
 30
0.0
 11
-4.412756529470905
 21
1.13104149208459
 31
0.0
  0
LINE
  5
B5
330
1F
100
AcDbEntity
  8
0
  6
Continuous
 62
     7
370
     0
100
AcDbLine
 10
-4.412756529470905
 20
1.13104149208459
 30
0.0
 11
-4.402018155567779
 21
1.153926743496615
 31
0.0
  0
LINE
  5
B6
330
1F
100
AcDbEntity
  8
0
  6
Continuous
 62
     7
370
     0
100
AcDbLine
 10
-4.402018155567779
 20
1.153926743496615
 30
0.0
 11
-4.391858229886884
 21
1.177570663368018
 31
0.0
  0
LINE
  5
B7
330
1F
100
AcDbEntity
  8
0
  6
Continuous
 62
     7
370
     0
100
AcDbLine
 10
-4.391858229886884
 20
1.177570663368018
 30
0.0
 11
-4.382276754629011
 21
1.201973247297227
 31
0.0
  0
LINE
  5
B8
330
1F
100
AcDbEntity
  8
0
  6
Continuous
 62
     7
370
     0
100
AcDbLine
 10
-4.382276754629011
 20
1.201973247297227
 30
0.0
 11
-4.373273731994945
 21
1.227134490882667
 31
0.0
  0
LINE
  5
B9
330
1F
100
AcDbEntity
  8
0
  6
Continuous
 62
     7
370
     0
100
AcDbLine
 10
-4.373273731994945
 20
1.227134490882667
 30
0.0
 11
-4.165942001225714
 21
1.840115260113436
 31
0.0
  0
LINE
  5
BA
330
1F
100
AcDbEntity
  8
0
  6
Continuous
 62
     7
370
     0
100
AcDbLine
 10
-4.165942001225714
 20
1.840115260113436
 30
0.0
 11
-4.158065516648242
 21
1.864698621812467
 31
0.0
  0
LINE
  5
BB
330
1F
100
AcDbEntity
  8
0
  6
Continuous
 62
     7
370
     0
100
AcDbLine
 10
-4.158065516648242
 20
1.864698621812467
 30
0.0
 11
-4.151263277963808
 21
1.88856831234075
 31
0.0
  0
LINE
  5
BC
330
1F
100
AcDbEntity
  8
0
  6
Continuous
 62
     7
370
     0
100
AcDbLine
 10
-4.151263277963808
 20
1.88856831234075
 30
0.0
 11
-4.145535282971625
 21
1.911724331698285
 31
0.0
  0
LINE
  5
BD
330
1F
100
AcDbEntity
  8
0
  6
Continuous
 62
     7
370
     0
100
AcDbLine
 10
-4.145535282971625
 20
1.911724331698285
 30
0.0
 11
-4.140881529470907
 21
1.934166679885072
 31
0.0
  0
LINE
  5
BE
330
1F
100
AcDbEntity
  8
0
  6
Continuous
 62
     7
370
     0
100
AcDbLine
 10
-4.140881529470907
 20
1.934166679885072
 30
0.0
 11
-4.137302015260865
 21
1.955895356901109
 31
0.0
  0
LINE
  5
BF
330
1F
100
AcDbEntity
  8
0
  6
Continuous
 62
     7
370
     0
100
AcDbLine
 10
-4.137302015260865
 20
1.955895356901109
 30
0.0
 11
-4.134796738140714
 21
1.976910362746399
 31
0.0
  0
LINE
  5
C0
330
1F
100
AcDbEntity
  8
0
  6
Continuous
 62
     7
370
     0
100
AcDbLine
 10
-4.134796738140714
 20
1.976910362746399
 30
0.0
 11
-4.133365695909669
 21
1.997211697420941
 31
0.0
  0
LINE
  5
C1
330
1F
100
AcDbEntity
  8
0
  6
Continuous
 62
     7
370
     0
100
AcDbLine
 10
-4.133365695909669
 20
1.997211697420941
 30
0.0
 11
-4.133008886366941
 21
2.016799360924735
 31
0.0
  0
LINE
  5
C2
330
1F
100
AcDbEntity
  8
0
  6
Continuous
 62
     7
370
     0
100
AcDbLine
 10
-4.133008886366941
 20
2.016799360924735
 30
0.0
 11
-4.133726307311741
 21
2.03567335325778
 31
0.0
  0
LINE
  5
C3
330
1F
100
AcDbEntity
  8
0
  6
Continuous
 62
     7
370
     0
100
AcDbLine
 10
-4.133726307311741
 20
2.03567335325778
 30
0.0
 11
-4.135517956543284
 21
2.053833674420077
 31
0.0
  0
LINE
  5
C4
330
1F
100
AcDbEntity
  8
0
  6
Continuous
 62
     7
370
     0
100
AcDbLine
 10
-4.135517956543284
 20
2.053833674420077
 30
0.0
 11
-4.138383831860784
 21
2.071280324411627
 31
0.0
  0
LINE
  5
C5
330
1F
100
AcDbEntity
  8
0
  6
Continuous
 62
     7
370
     0
100
AcDbLine
 10
-4.138383831860784
 20
2.071280324411627
 30
0.0
 11
-4.142323931063454
 21
2.088013303232427
 31
0.0
  0
LINE
  5
C6
330
1F
100
AcDbEntity
  8
0
  6
Continuous
 62
     7
370
     0
100
AcDbLine
 10
-4.142323931063454
 20
2.088013303232427
 30
0.0
 11
-4.147338251950507
 21
2.10403261088248
 31
0.0
  0
LINE
  5
C7
330
1F
100
AcDbEntity
  8
0
  6
Continuous
 62
     7
370
     0
100
AcDbLine
 10
-4.147338251950507
 20
2.10403261088248
 30
0.0
 11
-4.153426792321154
 21
2.119338247361784
 31
0.0
  0
LINE
  5
C8
330
1F
100
AcDbEntity
  8
0
  6
Continuous
 62
     7
370
     0
100
AcDbLine
 10
-4.153426792321154
 20
2.119338247361784
 30
0.0
 11
-4.160589549974612
 21
2.13393021267034
 31
0.0
  0
LINE
  5
C9
330
1F
100
AcDbEntity
  8
0
  6
Continuous
 62
     7
370
     0
100
AcDbLine
 10
-4.160589549974612
 20
2.13393021267034
 30
0.0
 11
-4.16882652271009
 21
2.147808506808148
 31
0.0
  0
LINE
  5
CA
330
1F
100
AcDbEntity
  8
0
  6
Continuous
 62
     7
370
     0
100
AcDbLine
 10
-4.16882652271009
 20
2.147808506808148
 30
0.0
 11
-4.178137708326804
 21
2.160973129775208
 31
0.0
  0
LINE
  5
CB
330
1F
100
AcDbEntity
  8
0
  6
Continuous
 62
     7
370
     0
100
AcDbLine
 10
-4.178137708326804
 20
2.160973129775208
 30
0.0
 11
-4.188523104623965
 21
2.173424081571519
 31
0.0
  0
LINE
  5
CC
330
1F
100
AcDbEntity
  8
0
  6
Continuous
 62
     7
370
     0
100
AcDbLine
 10
-4.188523104623965
 20
2.173424081571519
 30
0.0
 11
-4.199982709400787
 21
2.185161362197083
 31
0.0
  0
LINE
  5
CD
330
1F
100
AcDbEntity
  8
0
  6
Continuous
 62
     7
370
     0
100
AcDbLine
 10
-4.199982709400787
 20
2.185161362197083
 30
0.0
 11
-4.212516520456484
 21
2.196184971651898
 31
0.0
  0
LINE
  5
CE
330
1F
100
AcDbEntity
  8
0
  6
Continuous
 62
     7
370
     0
100
AcDbLine
 10
-4.212516520456484
 20
2.196184971651898
 30
0.0
 11
-4.226357401950859
 21
2.206585494690909
 31
0.0
  0
LINE
  5
CF
330
1F
100
AcDbEntity
  8
0
  6
Continuous
 62
     7
370
     0
100
AcDbLine
 10
-4.226357401950859
 20
2.206585494690909
 30
0.0
 11
-4.24173822244529
 21
2.216452637221497
 31
0.0
  0
LINE
  5
D0
330
1F
100
AcDbEntity
  8
0
  6
Continuous
 62
     7
370
     0
100
AcDbLine
 10
-4.24173822244529
 20
2.216452637221497
 30
0.0
 11
-4.258658986341352
 21
2.225786401444448
 31
0.0
  0
LINE
  5
D1
330
1F
100
AcDbEntity
  8
0
  6
Continuous
 62
     7
370
     0
100
AcDbLine
 10
-4.258658986341352
 20
2.225786401444448
 30
0.0
 11
-4.277119698040619
 21
2.234586789560553
 31
0.0
  0
LINE
  5
D2
330
1F
100
AcDbEntity
  8
0
  6
Continuous
 62
     7
370
     0
100
AcDbLine
 10
-4.277119698040619
 20
2.234586789560553
 30
0.0
 11
-4.297120361944661
 21
2.242853803770592
 31
0.0
  0
LINE
  5
D3
330
1F
100
AcDbEntity
  8
0
  6
Continuous
 62
     7
370
     0
100
AcDbLine
 10
-4.297120361944661
 20
2.242853803770592
 30
0.0
 11
-4.318660982455055
 21
2.250587446275358
 31
0.0
  0
LINE
  5
D4
330
1F
100
AcDbEntity
  8
0
  6
Continuous
 62
     7
370
     0
100
AcDbLine
 10
-4.318660982455055
 20
2.250587446275358
 30
0.0
 11
-4.341741563973375
 21
2.257787719275635
 31
0.0
  0
LINE
  5
D5
330
1F
100
AcDbEntity
  8
0
  6
Continuous
 62
     7
370
     0
100
AcDbLine
 10
-4.341741563973375
 20
2.257787719275635
 30
0.0
 11
-4.366362110901195
 21
2.264454624972211
 31
0.0
  0
LINE
  5
D6
330
1F
100
AcDbEntity
  8
0
  6
Continuous
 62
     7
370
     0
100
AcDbLine
 10
-4.366362110901195
 20
2.264454624972211
 30
0.0
 11
-4.392522627640085
 21
2.270588165565871
 31
0.0
  0
LINE
  5
D7
330
1F
100
AcDbEntity
  8
0
  6
Continuous
 62
     7
370
     0
100
AcDbLine
 10
-4.392522627640085
 20
2.270588165565871
 30
0.0
 11
-4.420223118591624
 21
2.276188343257404
 31
0.0
  0
LINE
  5
D8
330
1F
100
AcDbEntity
  8
0
  6
Continuous
 62
     7
370
     0
100
AcDbLine
 10
-4.420223118591624
 20
2.276188343257404
 30
0.0
 11
-4.449463588157382
 21
2.281255160247596
 31
0.0
  0
LINE
  5
D9
330
1F
100
AcDbEntity
  8
0
  6
Continuous
 62
     7
370
     0
100
AcDbLine
 10
-4.449463588157382
 20
2.281255160247596
 30
0.0
 11
-4.480244040738935
 21
2.285788618737234
 31
0.0
  0
LINE
  5
DA
330
1F
100
AcDbEntity
  8
0
  6
Continuous
 62
     7
370
     0
100
AcDbLine
 10
-4.480244040738935
 20
2.285788618737234
 30
0.0
 11
-4.512564480737855
 21
2.289788720927106
 31
0.0
  0
LINE
  5
DB
330
1F
100
AcDbEntity
  8
0
  6
Continuous
 62
     7
370
     0
100
AcDbLine
 10
-4.512564480737855
 20
2.289788720927106
 30
0.0
 11
-4.546424912555716
 21
2.293255469017996
 31
0.0
  0
LINE
  5
DC
330
1F
100
AcDbEntity
  8
0
  6
Continuous
 62
     7
370
     0
100
AcDbLine
 10
-4.546424912555716
 20
2.293255469017996
 30
0.0
 11
-4.581825340594095
 21
2.296188865210694
 31
0.0
  0
LINE
  5
DD
330
1F
100
AcDbEntity
  8
0
  6
Continuous
 62
     7
370
     0
100
AcDbLine
 10
-4.581825340594095
 20
2.296188865210694
 30
0.0
 11
-4.618765769254559
 21
2.298588911705984
 31
0.0
  0
LINE
  5
DE
330
1F
100
AcDbEntity
  8
0
  6
Continuous
 62
     7
370
     0
100
AcDbLine
 10
-4.618765769254559
 20
2.298588911705984
 30
0.0
 11
-4.657246202938689
 21
2.300455610704656
 31
0.0
  0
LINE
  5
DF
330
1F
100
AcDbEntity
  8
0
  6
Continuous
 62
     7
370
     0
100
AcDbLine
 10
-4.657246202938689
 20
2.300455610704656
 30
0.0
 11
-4.697266646048054
 21
2.301788964407494
 31
0.0
  0
LINE
  5
E0
330
1F
100
AcDbEntity
  8
0
  6
Continuous
 62
     7
370
     0
100
AcDbLine
 10
-4.697266646048054
 20
2.301788964407494
 30
0.0
 11
-4.738827102984231
 21
2.302588975015287
 31
0.0
  0
LINE
  5
E1
330
1F
100
AcDbEntity
  8
0
  6
Continuous
 62
     7
370
     0
100
AcDbLine
 10
-4.738827102984231
 20
2.302588975015287
 30
0.0
 11
-4.781927578148792
 21
2.302855644728821
 31
0.0
  0
LINE
  5
E2
330
1F
100
AcDbEntity
  8
0
  6
Continuous
 62
     7
370
     0
100
AcDbLine
 10
-5.698393924302637
 20
-0.3894520475788713
 30
0.0
 11
-9.538538155071867
 21
-0.3894520475788713
 31
0.0
  0
LINE
  5
E3
330
1F
100
AcDbEntity
  8
0
  6
Continuous
 62
     7
370
     0
100
AcDbLine
 10
-9.538538155071867
 20
-0.3894520475788713
 30
0.0
 11
-10.19058142430264
 21
-2.312528970655795
 31
0.0
  0
LINE
  5
E4
330
1F
100
AcDbEntity
  8
0
  6
Continuous
 62
     7
370
     0
100
AcDbLine
 10
-10.19058142430264
 20
-2.312528970655795
 30
0.0
 11
-6.350437193533406
 21
-2.312528970655795
 31
0.0
  0
LINE
  5
E5
330
1F
100
AcDbEntity
  8
0
  6
Continuous
 62
     7
370
     0
100
AcDbLine
 10
-6.350437193533406
 20
-2.312528970655795
 30
0.0
 11
-6.305383586399686
 21
-2.312153362725097
 31
0.0
  0
LINE
  5
E6
330
1F
100
AcDbEntity
  8
0
  6
Continuous
 62
     7
370
     0
100
AcDbLine
 10
-6.305383586399686
 20
-2.312153362725097
 30
0.0
 11
-6.261569504253997
 21
-2.311026540400198
 31
0.0
  0
LINE
  5
E7
330
1F
100
AcDbEntity
  8
0
  6
Continuous
 62
     7
370
     0
100
AcDbLine
 10
-6.261569504253997
 20
-2.311026540400198
 30
0.0
 11
-6.218994944895546
 21
-2.309148505881883
 31
0.0
  0
LINE
  5
E8
330
1F
100
AcDbEntity
  8
0
  6
Continuous
 62
     7
370
     0
100
AcDbLine
 10
-6.218994944895546
 20
-2.309148505881883
 30
0.0
 11
-6.177659906123552
 21
-2.30651926137094
 31
0.0
  0
LINE
  5
E9
330
1F
100
AcDbEntity
  8
0
  6
Continuous
 62
     7
370
     0
100
AcDbLine
 10
-6.177659906123552
 20
-2.30651926137094
 30
0.0
 11
-6.137564385737222
 21
-2.303138809068153
 31
0.0
  0
LINE
  5
EA
330
1F
100
AcDbEntity
  8
0
  6
Continuous
 62
     7
370
     0
100
AcDbLine
 10
-6.137564385737222
 20
-2.303138809068153
 30
0.0
 11
-6.09870838153577
 21
-2.299007151174311
 31
0.0
  0
LINE
  5
EB
330
1F
100
AcDbEntity
  8
0
  6
Continuous
 62
     7
370
     0
100
AcDbLine
 10
-6.09870838153577
 20
-2.299007151174311
 30
0.0
 11
-6.061091891318416
 21
-2.294124289890203
 31
0.0
  0
LINE
  5
EC
330
1F
100
AcDbEntity
  8
0
  6
Continuous
 62
     7
370
     0
100
AcDbLine
 10
-6.061091891318416
 20
-2.294124289890203
 30
0.0
 11
-6.024714912884369
 21
-2.288490227416613
 31
0.0
  0
LINE
  5
ED
330
1F
100
AcDbEntity
  8
0
  6
Continuous
 62
     7
370
     0
100
AcDbLine
 10
-6.024714912884369
 20
-2.288490227416613
 30
0.0
 11
-5.989577444032838
 21
-2.282104965954327
 31
0.0
  0
LINE
  5
EE
330
1F
100
AcDbEntity
  8
0
  6
Continuous
 62
     7
370
     0
100
AcDbLine
 10
-5.989577444032838
 20
-2.282104965954327
 30
0.0
 11
-5.955679482563039
 21
-2.274968507704134
 31
0.0
  0
LINE
  5
EF
330
1F
100
AcDbEntity
  8
0
  6
Continuous
 62
     7
370
     0
100
AcDbLine
 10
-5.955679482563039
 20
-2.274968507704134
 30
0.0
 11
-5.92302102627419
 21
-2.267080854866821
 31
0.0
  0
LINE
  5
F0
330
1F
100
AcDbEntity
  8
0
  6
Continuous
 62
     7
370
     0
100
AcDbLine
 10
-5.92302102627419
 20
-2.267080854866821
 30
0.0
 11
-5.891602072965498
 21
-2.258442009643174
 31
0.0
  0
LINE
  5
F1
330
1F
100
AcDbEntity
  8
0
  6
Continuous
 62
     7
370
     0
100
AcDbLine
 10
-5.891602072965498
 20
-2.258442009643174
 30
0.0
 11
-5.861422620436176
 21
-2.24905197423398
 31
0.0
  0
LINE
  5
F2
330
1F
100
AcDbEntity
  8
0
  6
Continuous
 62
     7
370
     0
100
AcDbLine
 10
-5.861422620436176
 20
-2.24905197423398
 30
0.0
 11
-5.832482666485442
 21
-2.238910750840027
 31
0.0
  0
LINE
  5
F3
330
1F
100
AcDbEntity
  8
0
  6
Continuous
 62
     7
370
     0
100
AcDbLine
 10
-5.832482666485442
 20
-2.238910750840027
 30
0.0
 11
-5.804782208912505
 21
-2.2280183416621
 31
0.0
  0
LINE
  5
F4
330
1F
100
AcDbEntity
  8
0
  6
Continuous
 62
     7
370
     0
100
AcDbLine
 10
-5.804782208912505
 20
-2.2280183416621
 30
0.0
 11
-5.77832124551658
 21
-2.216374748900987
 31
0.0
  0
LINE
  5
F5
330
1F
100
AcDbEntity
  8
0
  6
Continuous
 62
     7
370
     0
100
AcDbLine
 10
-5.77832124551658
 20
-2.216374748900987
 30
0.0
 11
-5.753099774096878
 21
-2.203979974757474
 31
0.0
  0
LINE
  5
F6
330
1F
100
AcDbEntity
  8
0
  6
Continuous
 62
     7
370
     0
100
AcDbLine
 10
-5.753099774096878
 20
-2.203979974757474
 30
0.0
 11
-5.729117792452614
 21
-2.190834021432349
 31
0.0
  0
LINE
  5
F7
330
1F
100
AcDbEntity
  8
0
  6
Continuous
 62
     7
370
     0
100
AcDbLine
 10
-5.729117792452614
 20
-2.190834021432349
 30
0.0
 11
-5.706375298383001
 21
-2.176936891126399
 31
0.0
  0
LINE
  5
F8
330
1F
100
AcDbEntity
  8
0
  6
Continuous
 62
     7
370
     0
100
AcDbLine
 10
-5.706375298383001
 20
-2.176936891126399
 30
0.0
 11
-5.684872289687252
 21
-2.16228858604041
 31
0.0
  0
LINE
  5
F9
330
1F
100
AcDbEntity
  8
0
  6
Continuous
 62
     7
370
     0
100
AcDbLine
 10
-5.684872289687252
 20
-2.16228858604041
 30
0.0
 11
-5.664187665968989
 21
-2.146693369289311
 31
0.0
  0
LINE
  5
FA
330
1F
100
AcDbEntity
  8
0
  6
Continuous
 62
     7
370
     0
100
AcDbLine
 10
-5.664187665968989
 20
-2.146693369289311
 30
0.0
 11
-5.643901208613785
 21
-2.129956379901213
 31
0.0
  0
LINE
  5
FB
330
1F
100
AcDbEntity
  8
0
  6
Continuous
 62
     7
370
     0
100
AcDbLine
 10
-5.643901208613785
 20
-2.129956379901213
 30
0.0
 11
-5.624012917621634
 21
-2.112077613474539
 31
0.0
  0
LINE
  5
FC
330
1F
100
AcDbEntity
  8
0
  6
Continuous
 62
     7
370
     0
100
AcDbLine
 10
-5.624012917621634
 20
-2.112077613474539
 30
0.0
 11
-5.604522792992542
 21
-2.093057065607718
 31
0.0
  0
LINE
  5
FD
330
1F
100
AcDbEntity
  8
0
  6
Continuous
 62
     7
370
     0
100
AcDbLine
 10
-5.604522792992542
 20
-2.093057065607718
 30
0.0
 11
-5.585430834726504
 21
-2.072894731899174
 31
0.0
  0
LINE
  5
FE
330
1F
100
AcDbEntity
  8
0
  6
Continuous
 62
     7
370
     0
100
AcDbLine
 10
-5.585430834726504
 20
-2.072894731899174
 30
0.0
 11
-5.566737042823519
 21
-2.051590607947336
 31
0.0
  0
LINE
  5
FF
330
1F
100
AcDbEntity
  8
0
  6
Continuous
 62
     7
370
     0
100
AcDbLine
 10
-5.566737042823519
 20
-2.051590607947336
 30
0.0
 11
-5.548441417283595
 21
-2.029144689350628
 31
0.0
  0
LINE
  5
100
330
1F
100
AcDbEntity
  8
0
  6
Continuous
 62
     7
370
     0
100
AcDbLine
 10
-5.548441417283595
 20
-2.029144689350628
 30
0.0
 11
-5.530543958106725
 21
-2.005556971707478
 31
0.0
  0
LINE
  5
101
330
1F
100
AcDbEntity
  8
0
  6
Continuous
 62
     7
370
     0
100
AcDbLine
 10
-5.530543958106725
 20
-2.005556971707478
 30
0.0
 11
-5.513044665292909
 21
-1.980827450616309
 31
0.0
  0
LINE
  5
102
330
1F
100
AcDbEntity
  8
0
  6
Continuous
 62
     7
370
     0
100
AcDbLine
 10
-5.513044665292909
 20
-1.980827450616309
 30
0.0
 11
-5.49594353884215
 21
-1.954956121675551
 31
0.0
  0
LINE
  5
103
330
1F
100
AcDbEntity
  8
0
  6
Continuous
 62
     7
370
     0
100
AcDbLine
 10
-5.49594353884215
 20
-1.954956121675551
 30
0.0
 11
-5.479240578754448
 21
-1.927942980483628
 31
0.0
  0
LINE
  5
104
330
1F
100
AcDbEntity
  8
0
  6
Continuous
 62
     7
370
     0
100
AcDbLine
 10
-5.479240578754448
 20
-1.927942980483628
 30
0.0
 11
-5.462935785029801
 21
-1.899788022638968
 31
0.0
  0
LINE
  5
105
330
1F
100
AcDbEntity
  8
0
  6
Continuous
 62
     7
370
     0
100
AcDbLine
 10
-5.462935785029801
 20
-1.899788022638968
 30
0.0
 11
-5.447029157668211
 21
-1.870491243739995
 31
0.0
  0
LINE
  5
106
330
1F
100
AcDbEntity
  8
0
  6
Continuous
 62
     7
370
     0
100
AcDbLine
 10
-5.447029157668211
 20
-1.870491243739995
 30
0.0
 11
-5.431520696669675
 21
-1.840052639385136
 31
0.0
  0
LINE
  5
107
330
1F
100
AcDbEntity
  8
0
  6
Continuous
 62
     7
370
     0
100
AcDbLine
 10
-5.431520696669675
 20
-1.840052639385136
 30
0.0
 11
-5.416410402034194
 21
-1.808472205172819
 31
0.0
  0
LINE
  5
108
330
1F
100
AcDbEntity
  8
0
  6
Continuous
 62
     7
370
     0
100
AcDbLine
 10
-5.416410402034194
 20
-1.808472205172819
 30
0.0
 11
-5.401698273761772
 21
-1.775749936701468
 31
0.0
  0
LINE
  5
109
330
1F
100
AcDbEntity
  8
0
  6
Continuous
 62
     7
370
     0
100
AcDbLine
 10
-5.401698273761772
 20
-1.775749936701468
 30
0.0
 11
-5.387384311852405
 21
-1.741885829569509
 31
0.0
  0
LINE
  5
10A
330
1F
100
AcDbEntity
  8
0
  6
Continuous
 62
     7
370
     0
100
AcDbLine
 10
-5.387384311852405
 20
-1.741885829569509
 30
0.0
 11
-5.373468516306093
 21
-1.70687987937537
 31
0.0
  0
LINE
  5
10B
330
1F
100
AcDbEntity
  8
0
  6
Continuous
 62
     7
370
     0
100
AcDbLine
 10
-5.373468516306093
 20
-1.70687987937537
 30
0.0
 11
-5.359950887122837
 21
-1.670732081717477
 31
0.0
  0
LINE
  5
10C
330
1F
100
AcDbEntity
  8
0
  6
Continuous
 62
     7
370
     0
100
AcDbLine
 10
-5.359950887122837
 20
-1.670732081717477
 30
0.0
 11
-5.346831424302638
 21
-1.633442432194256
 31
0.0
  0
LINE
  5
10D
330
1F
100
AcDbEntity
  8
0
  6
Continuous
 62
     7
370
     0
100
AcDbLine
 10
-5.346831424302638
 20
-1.633442432194256
 30
0.0
 11
-5.151518924302638
 21
-1.062528970655795
 31
0.0
  0
LINE
  5
10E
330
1F
100
AcDbEntity
  8
0
  6
Continuous
 62
     7
370
     0
100
AcDbLine
 10
-5.151518924302638
 20
-1.062528970655795
 30
0.0
 11
-5.139195310402231
 21
-1.02524680527517
 31
0.0
  0
LINE
  5
10F
330
1F
100
AcDbEntity
  8
0
  6
Continuous
 62
     7
370
     0
100
AcDbLine
 10
-5.139195310402231
 20
-1.02524680527517
 30
0.0
 11
-5.128066109760308
 21
-0.9891214659138325
 31
0.0
  0
LINE
  5
110
330
1F
100
AcDbEntity
  8
0
  6
Continuous
 62
     7
370
     0
100
AcDbLine
 10
-5.128066109760308
 20
-0.9891214659138325
 30
0.0
 11
-5.118131324577648
 21
-0.9541529569733559
 31
0.0
  0
LINE
  5
111
330
1F
100
AcDbEntity
  8
0
  6
Continuous
 62
     7
370
     0
100
AcDbLine
 10
-5.118131324577648
 20
-0.9541529569733559
 30
0.0
 11
-5.109390957055043
 21
-0.9203412828553141
 31
0.0
  0
LINE
  5
112
330
1F
100
AcDbEntity
  8
0
  6
Continuous
 62
     7
370
     0
100
AcDbLine
 10
-5.109390957055043
 20
-0.9203412828553141
 30
0.0
 11
-5.101845009393275
 21
-0.8876864479612805
 31
0.0
  0
LINE
  5
113
330
1F
100
AcDbEntity
  8
0
  6
Continuous
 62
     7
370
     0
100
AcDbLine
 10
-5.101845009393275
 20
-0.8876864479612805
 30
0.0
 11
-5.095493483793133
 21
-0.8561884566928286
 31
0.0
  0
LINE
  5
114
330
1F
100
AcDbEntity
  8
0
  6
Continuous
 62
     7
370
     0
100
AcDbLine
 10
-5.095493483793133
 20
-0.8561884566928286
 30
0.0
 11
-5.090336382455408
 21
-0.8258473134515335
 31
0.0
  0
LINE
  5
115
330
1F
100
AcDbEntity
  8
0
  6
Continuous
 62
     7
370
     0
100
AcDbLine
 10
-5.090336382455408
 20
-0.8258473134515335
 30
0.0
 11
-5.086373707580883
 21
-0.7966630226389679
 31
0.0
  0
LINE
  5
116
330
1F
100
AcDbEntity
  8
0
  6
Continuous
 62
     7
370
     0
100
AcDbLine
 10
-5.086373707580883
 20
-0.7966630226389679
 30
0.0
 11
-5.083605461370345
 21
-0.7686355886567056
 31
0.0
  0
LINE
  5
117
330
1F
100
AcDbEntity
  8
0
  6
Continuous
 62
     7
370
     0
100
AcDbLine
 10
-5.083605461370345
 20
-0.7686355886567056
 30
0.0
 11
-5.082031646024579
 21
-0.7417650159063204
 31
0.0
  0
LINE
  5
118
330
1F
100
AcDbEntity
  8
0
  6
Continuous
 62
     7
370
     0
100
AcDbLine
 10
-5.082031646024579
 20
-0.7417650159063204
 30
0.0
 11
-5.081652263744377
 21
-0.7160513087893867
 31
0.0
  0
LINE
  5
119
330
1F
100
AcDbEntity
  8
0
  6
Continuous
 62
     7
370
     0
100
AcDbLine
 10
-5.081652263744377
 20
-0.7160513087893867
 30
0.0
 11
-5.082467316730522
 21
-0.6914944717074774
 31
0.0
  0
LINE
  5
11A
330
1F
100
AcDbEntity
  8
0
  6
Continuous
 62
     7
370
     0
100
AcDbLine
 10
-5.082467316730522
 20
-0.6914944717074774
 30
0.0
 11
-5.084476807183802
 21
-0.6680945090621667
 31
0.0
  0
LINE
  5
11B
330
1F
100
AcDbEntity
  8
0
  6
Continuous
 62
     7
370
     0
100
AcDbLine
 10
-5.084476807183802
 20
-0.6680945090621667
 30
0.0
 11
-5.087680737305003
 21
-0.6458514252550284
 31
0.0
  0
LINE
  5
11C
330
1F
100
AcDbEntity
  8
0
  6
Continuous
 62
     7
370
     0
100
AcDbLine
 10
-5.087680737305003
 20
-0.6458514252550284
 30
0.0
 11
-5.092079109294914
 21
-0.6247652246876362
 31
0.0
  0
LINE
  5
11D
330
1F
100
AcDbEntity
  8
0
  6
Continuous
 62
     7
370
     0
100
AcDbLine
 10
-5.092079109294914
 20
-0.6247652246876362
 30
0.0
 11
-5.097671925354319
 21
-0.6048359117615638
 31
0.0
  0
LINE
  5
11E
330
1F
100
AcDbEntity
  8
0
  6
Continuous
 62
     7
370
     0
100
AcDbLine
 10
-5.097671925354319
 20
-0.6048359117615638
 30
0.0
 11
-5.104459187684009
 21
-0.5860634908783852
 31
0.0
  0
LINE
  5
11F
330
1F
100
AcDbEntity
  8
0
  6
Continuous
 62
     7
370
     0
100
AcDbLine
 10
-5.104459187684009
 20
-0.5860634908783852
 30
0.0
 11
-5.112440898484767
 21
-0.5684479664396738
 31
0.0
  0
LINE
  5
120
330
1F
100
AcDbEntity
  8
0
  6
Continuous
 62
     7
370
     0
100
AcDbLine
 10
-5.112440898484767
 20
-0.5684479664396738
 30
0.0
 11
-5.121617059957381
 21
-0.5519893428470036
 31
0.0
  0
LINE
  5
121
330
1F
100
AcDbEntity
  8
0
  6
Continuous
 62
     7
370
     0
100
AcDbLine
 10
-5.121617059957381
 20
-0.5519893428470036
 30
0.0
 11
-5.131987674302638
 21
-0.5366876245019483
 31
0.0
  0
LINE
  5
122
330
1F
100
AcDbEntity
  8
0
  6
Continuous
 62
     7
370
     0
100
AcDbLine
 10
-5.131987674302638
 20
-0.5366876245019484
 30
0.0
 11
-5.143822714248386
 21
-0.5223320233379375
 31
0.0
  0
LINE
  5
123
330
1F
100
AcDbEntity
  8
0
  6
Continuous
 62
     7
370
     0
100
AcDbLine
 10
-5.143822714248386
 20
-0.5223320233379375
 30
0.0
 11
-5.157393032837231
 21
-0.5087126272015805
 31
0.0
  0
LINE
  5
124
330
1F
100
AcDbEntity
  8
0
  6
Continuous
 62
     7
370
     0
100
AcDbLine
 10
-5.157393032837231
 20
-0.5087126272015805
 30
0.0
 11
-5.172698632269956
 21
-0.4958294338920899
 31
0.0
  0
LINE
  5
125
330
1F
100
AcDbEntity
  8
0
  6
Continuous
 62
     7
370
     0
100
AcDbLine
 10
-5.172698632269956
 20
-0.4958294338920899
 30
0.0
 11
-5.189739514747351
 21
-0.4836824412086794
 31
0.0
  0
LINE
  5
126
330
1F
100
AcDbEntity
  8
0
  6
Continuous
 62
     7
370
     0
100
AcDbLine
 10
-5.189739514747351
 20
-0.4836824412086794
 30
0.0
 11
-5.208515682470199
 21
-0.4722716469505615
 31
0.0
  0
LINE
  5
127
330
1F
100
AcDbEntity
  8
0
  6
Continuous
 62
     7
370
     0
100
AcDbLine
 10
-5.208515682470199
 20
-0.4722716469505615
 30
0.0
 11
-5.229027137639288
 21
-0.4615970489169499
 31
0.0
  0
LINE
  5
128
330
1F
100
AcDbEntity
  8
0
  6
Continuous
 62
     7
370
     0
100
AcDbLine
 10
-5.229027137639288
 20
-0.4615970489169499
 30
0.0
 11
-5.251273882455409
 21
-0.4516586449070576
 31
0.0
  0
LINE
  5
129
330
1F
100
AcDbEntity
  8
0
  6
Continuous
 62
     7
370
     0
100
AcDbLine
 10
-5.251273882455409
 20
-0.4516586449070576
 30
0.0
 11
-5.275255919119346
 21
-0.4424564327200975
 31
0.0
  0
LINE
  5
12A
330
1F
100
AcDbEntity
  8
0
  6
Continuous
 62
     7
370
     0
100
AcDbLine
 10
-5.275255919119346
 20
-0.4424564327200975
 30
0.0
 11
-5.300973249831882
 21
-0.4339904101552827
 31
0.0
  0
LINE
  5
12B
330
1F
100
AcDbEntity
  8
0
  6
Continuous
 62
     7
370
     0
100
AcDbLine
 10
-5.300973249831882
 20
-0.4339904101552827
 30
0.0
 11
-5.328425876793809
 21
-0.4262605750118266
 31
0.0
  0
LINE
  5
12C
330
1F
100
AcDbEntity
  8
0
  6
Continuous
 62
     7
370
     0
100
AcDbLine
 10
-5.328425876793809
 20
-0.4262605750118266
 30
0.0
 11
-5.357613802205916
 21
-0.4192669250889423
 31
0.0
  0
LINE
  5
12D
330
1F
100
AcDbEntity
  8
0
  6
Continuous
 62
     7
370
     0
100
AcDbLine
 10
-5.357613802205916
 20
-0.4192669250889423
 30
0.0
 11
-5.388537028268984
 21
-0.4130094581858426
 31
0.0
  0
LINE
  5
12E
330
1F
100
AcDbEntity
  8
0
  6
Continuous
 62
     7
370
     0
100
AcDbLine
 10
-5.388537028268984
 20
-0.4130094581858426
 30
0.0
 11
-5.421195557183802
 21
-0.4074881721017408
 31
0.0
  0
LINE
  5
12F
330
1F
100
AcDbEntity
  8
0
  6
Continuous
 62
     7
370
     0
100
AcDbLine
 10
-5.421195557183802
 20
-0.4074881721017408
 30
0.0
 11
-5.455589391151157
 21
-0.4027030646358501
 31
0.0
  0
LINE
  5
130
330
1F
100
AcDbEntity
  8
0
  6
Continuous
 62
     7
370
     0
100
AcDbLine
 10
-5.455589391151157
 20
-0.4027030646358501
 30
0.0
 11
-5.491718532371837
 21
-0.3986541335873834
 31
0.0
  0
LINE
  5
131
330
1F
100
AcDbEntity
  8
0
  6
Continuous
 62
     7
370
     0
100
AcDbLine
 10
-5.491718532371837
 20
-0.3986541335873834
 30
0.0
 11
-5.529582983046629
 21
-0.3953413767555539
 31
0.0
  0
LINE
  5
132
330
1F
100
AcDbEntity
  8
0
  6
Continuous
 62
     7
370
     0
100
AcDbLine
 10
-5.529582983046629
 20
-0.3953413767555539
 30
0.0
 11
-5.569182745376316
 21
-0.392764791939575
 31
0.0
  0
LINE
  5
133
330
1F
100
AcDbEntity
  8
0
  6
Continuous
 62
     7
370
     0
100
AcDbLine
 10
-5.569182745376316
 20
-0.392764791939575
 30
0.0
 11
-5.610517821561689
 21
-0.3909243769386594
 31
0.0
  0
LINE
  5
134
330
1F
100
AcDbEntity
  8
0
  6
Continuous
 62
     7
370
     0
100
AcDbLine
 10
-5.610517821561689
 20
-0.3909243769386594
 30
0.0
 11
-5.653588213803534
 21
-0.3898201295520206
 31
0.0
  0
LINE
  5
135
330
1F
100
AcDbEntity
  8
0
  6
Continuous
 62
     7
370
     0
100
AcDbLine
 10
-5.653588213803534
 20
-0.3898201295520206
 30
0.0
 11
-5.698393924302637
 21
-0.3894520475788713
 31
0.0
  0
LINE
  5
136
330
1F
100
AcDbEntity
  8
0
  6
Continuous
 62
     7
370
     0
100
AcDbLine
 10
-12.12267277045648
 20
-3.466375124501949
 30
0.0
 11
-9.76990834737956
 21
3.456701798574974
 31
0.0
  0
LINE
  5
137
330
1F
100
AcDbEntity
  8
0
  6
Continuous
 62
     7
370
     0
100
AcDbLine
 10
-9.76990834737956
 20
3.456701798574974
 30
0.0
 11
-3.685172770456484
 21
3.456701798574974
 31
0.0
  0
LINE
  5
138
330
1F
100
AcDbEntity
  8
0
  6
Continuous
 62
     7
370
     0
100
AcDbLine
 10
-3.685172770456484
 20
3.456701798574974
 30
0.0
 11
-3.611952854186154
 21
3.455890500498051
 31
0.0
  0
LINE
  5
139
330
1F
100
AcDbEntity
  8
0
  6
Continuous
 62
     7
370
     0
100
AcDbLine
 10
-3.611952854186154
 20
3.455890500498051
 30
0.0
 11
-3.541332150855748
 21
3.453456606267283
 31
0.0
  0
LINE
  5
13A
330
1F
100
AcDbEntity
  8
0
  6
Continuous
 62
     7
370
     0
100
AcDbLine
 10
-3.541332150855748
 20
3.453456606267283
 30
0.0
 11
-3.473310656063689
 21
3.449400115882667
 31
0.0
  0
LINE
  5
13B
330
1F
100
AcDbEntity
  8
0
  6
Continuous
 62
     7
370
     0
100
AcDbLine
 10
-3.473310656063689
 20
3.449400115882667
 30
0.0
 11
-3.407888365408407
 21
3.443721029344206
 31
0.0
  0
LINE
  5
13C
330
1F
100
AcDbEntity
  8
0
  6
Continuous
 62
     7
370
     0
100
AcDbLine
 10
-3.407888365408407
 20
3.443721029344206
 30
0.0
 11
-3.345065274488324
 21
3.436419346651897
 31
0.0
  0
LINE
  5
13D
330
1F
100
AcDbEntity
  8
0
  6
Continuous
 62
     7
370
     0
100
AcDbLine
 10
-3.345065274488324
 20
3.436419346651897
 30
0.0
 11
-3.28484137890187
 21
3.427495067805743
 31
0.0
  0
LINE
  5
13E
330
1F
100
AcDbEntity
  8
0
  6
Continuous
 62
     7
370
     0
100
AcDbLine
 10
-3.28484137890187
 20
3.427495067805743
 30
0.0
 11
-3.227216674247471
 21
3.416948192805744
 31
0.0
  0
LINE
  5
13F
330
1F
100
AcDbEntity
  8
0
  6
Continuous
 62
     7
370
     0
100
AcDbLine
 10
-3.227216674247471
 20
3.416948192805744
 30
0.0
 11
-3.172191156123552
 21
3.404778721651898
 31
0.0
  0
LINE
  5
140
330
1F
100
AcDbEntity
  8
0
  6
Continuous
 62
     7
370
     0
100
AcDbLine
 10
-3.172191156123552
 20
3.404778721651898
 30
0.0
 11
-3.119764820128537
 21
3.390986654344205
 31
0.0
  0
LINE
  5
141
330
1F
100
AcDbEntity
  8
0
  6
Continuous
 62
     7
370
     0
100
AcDbLine
 10
-3.119764820128537
 20
3.390986654344205
 30
0.0
 11
-3.069937661860854
 21
3.375571990882667
 31
0.0
  0
LINE
  5
142
330
1F
100
AcDbEntity
  8
0
  6
Continuous
 62
     7
370
     0
100
AcDbLine
 10
-3.069937661860854
 20
3.375571990882667
 30
0.0
 11
-3.022709676918932
 21
3.358534731267282
 31
0.0
  0
LINE
  5
143
330
1F
100
AcDbEntity
  8
0
  6
Continuous
 62
     7
370
     0
100
AcDbLine
 10
-3.022709676918932
 20
3.358534731267282
 30
0.0
 11
-2.978080860901195
 21
3.339874875498051
 31
0.0
  0
LINE
  5
144
330
1F
100
AcDbEntity
  8
0
  6
Continuous
 62
     7
370
     0
100
AcDbLine
 10
-2.978080860901195
 20
3.339874875498051
 30
0.0
 11
-2.936051209406068
 21
3.319592423574974
 31
0.0
  0
LINE
  5
145
330
1F
100
AcDbEntity
  8
0
  6
Continuous
 62
     7
370
     0
100
AcDbLine
 10
-2.936051209406068
 20
3.319592423574974
 30
0.0
 11
-2.896620718031978
 21
3.297687375498052
 31
0.0
  0
LINE
  5
146
330
1F
100
AcDbEntity
  8
0
  6
Continuous
 62
     7
370
     0
100
AcDbLine
 10
-2.896620718031978
 20
3.297687375498052
 30
0.0
 11
-2.859789382377353
 21
3.274159731267282
 31
0.0
  0
LINE
  5
147
330
1F
100
AcDbEntity
  8
0
  6
Continuous
 62
     7
370
     0
100
AcDbLine
 10
-2.859789382377353
 20
3.274159731267282
 30
0.0
 11
-2.825557198040617
 21
3.249009490882667
 31
0.0
  0
LINE
  5
148
330
1F
100
AcDbEntity
  8
0
  6
Continuous
 62
     7
370
     0
100
AcDbLine
 10
-2.825557198040617
 20
3.249009490882667
 30
0.0
 11
-2.793924160620198
 21
3.222236654344206
 31
0.0
  0
LINE
  5
149
330
1F
100
AcDbEntity
  8
0
  6
Continuous
 62
     7
370
     0
100
AcDbLine
 10
-2.793924160620198
 20
3.222236654344206
 30
0.0
 11
-2.76489026571452
 21
3.193841221651898
 31
0.0
  0
LINE
  5
14A
330
1F
100
AcDbEntity
  8
0
  6
Continuous
 62
     7
370
     0
100
AcDbLine
 10
-2.76489026571452
 20
3.193841221651898
 30
0.0
 11
-2.738455508922011
 21
3.163823192805744
 31
0.0
  0
LINE
  5
14B
330
1F
100
AcDbEntity
  8
0
  6
Continuous
 62
     7
370
     0
100
AcDbLine
 10
-2.738455508922011
 20
3.163823192805744
 30
0.0
 11
-2.714619885841097
 21
3.132182567805744
 31
0.0
  0
LINE
  5
14C
330
1F
100
AcDbEntity
  8
0
  6
Continuous
 62
     7
370
     0
100
AcDbLine
 10
-2.714619885841097
 20
3.132182567805744
 30
0.0
 11
-2.693248177191242
 21
3.098776625255671
 31
0.0
  0
LINE
  5
14D
330
1F
100
AcDbEntity
  8
0
  6
Continuous
 62
     7
370
     0
100
AcDbLine
 10
-2.693248177191242
 20
3.098776625255671
 30
0.0
 11
-2.674205169560674
 21
3.06346264229211
 31
0.0
  0
LINE
  5
14E
330
1F
100
AcDbEntity
  8
0
  6
Continuous
 62
     7
370
     0
100
AcDbLine
 10
-2.674205169560674
 20
3.06346264229211
 30
0.0
 11
-2.657490867350966
 21
3.02624061671427
 31
0.0
  0
LINE
  5
14F
330
1F
100
AcDbEntity
  8
0
  6
Continuous
 62
     7
370
     0
100
AcDbLine
 10
-2.657490867350966
 20
3.02624061671427
 30
0.0
 11
-2.643105274963695
 21
2.987110546321369
 31
0.0
  0
LINE
  5
150
330
1F
100
AcDbEntity
  8
0
  6
Continuous
 62
     7
370
     0
100
AcDbLine
 10
-2.643105274963695
 20
2.987110546321369
 30
0.0
 11
-2.63104839680043
 21
2.946072428912617
 31
0.0
  0
LINE
  5
151
330
1F
100
AcDbEntity
  8
0
  6
Continuous
 62
     7
370
     0
100
AcDbLine
 10
-2.63104839680043
 20
2.946072428912617
 30
0.0
 11
-2.621320237262748
 21
2.903126262287226
 31
0.0
  0
LINE
  5
152
330
1F
100
AcDbEntity
  8
0
  6
Continuous
 62
     7
370
     0
100
AcDbLine
 10
-2.621320237262748
 20
2.903126262287226
 30
0.0
 11
-2.613920800752222
 21
2.858272044244413
 31
0.0
  0
LINE
  5
153
330
1F
100
AcDbEntity
  8
0
  6
Continuous
 62
     7
370
     0
100
AcDbLine
 10
-2.613920800752222
 20
2.858272044244413
 30
0.0
 11
-2.608850091670426
 21
2.811509772583388
 31
0.0
  0
LINE
  5
154
330
1F
100
AcDbEntity
  8
0
  6
Continuous
 62
     7
370
     0
100
AcDbLine
 10
-2.608850091670426
 20
2.811509772583388
 30
0.0
 11
-2.606108114418932
 21
2.762839445103365
 31
0.0
  0
LINE
  5
155
330
1F
100
AcDbEntity
  8
0
  6
Continuous
 62
     7
370
     0
100
AcDbLine
 10
-2.606108114418932
 20
2.762839445103365
 30
0.0
 11
-2.605694873399316
 21
2.712261059603557
 31
0.0
  0
LINE
  5
156
330
1F
100
AcDbEntity
  8
0
  6
Continuous
 62
     7
370
     0
100
AcDbLine
 10
-2.605694873399316
 20
2.712261059603557
 30
0.0
 11
-2.607610373013152
 21
2.659774613883179
 31
0.0
  0
LINE
  5
157
330
1F
100
AcDbEntity
  8
0
  6
Continuous
 62
     7
370
     0
100
AcDbLine
 10
-2.607610373013152
 20
2.659774613883179
 30
0.0
 11
-2.611854617662012
 21
2.605380105741442
 31
0.0
  0
LINE
  5
158
330
1F
100
AcDbEntity
  8
0
  6
Continuous
 62
     7
370
     0
100
AcDbLine
 10
-2.611854617662012
 20
2.605380105741442
 30
0.0
 11
-2.618427611747471
 21
2.549077532977558
 31
0.0
  0
LINE
  5
159
330
1F
100
AcDbEntity
  8
0
  6
Continuous
 62
     7
370
     0
100
AcDbLine
 10
-2.618427611747471
 20
2.549077532977558
 30
0.0
 11
-2.627329359671101
 21
2.490866893390742
 31
0.0
  0
LINE
  5
15A
330
1F
100
AcDbEntity
  8
0
  6
Continuous
 62
     7
370
     0
100
AcDbLine
 10
-2.627329359671101
 20
2.490866893390742
 30
0.0
 11
-2.638559865834479
 21
2.430748184780208
 31
0.0
  0
LINE
  5
15B
330
1F
100
AcDbEntity
  8
0
  6
Continuous
 62
     7
370
     0
100
AcDbLine
 10
-2.638559865834479
 20
2.430748184780208
 30
0.0
 11
-2.652119134639176
 21
2.368721404945167
 31
0.0
  0
LINE
  5
15C
330
1F
100
AcDbEntity
  8
0
  6
Continuous
 62
     7
370
     0
100
AcDbLine
 10
-2.652119134639176
 20
2.368721404945167
 30
0.0
 11
-2.668007170486767
 21
2.304786551684833
 31
0.0
  0
LINE
  5
15D
330
1F
100
AcDbEntity
  8
0
  6
Continuous
 62
     7
370
     0
100
AcDbLine
 10
-2.668007170486767
 20
2.304786551684833
 30
0.0
 11
-2.686223977778825
 21
2.23894362279842
 31
0.0
  0
LINE
  5
15E
330
1F
100
AcDbEntity
  8
0
  6
Continuous
 62
     7
370
     0
100
AcDbLine
 10
-2.686223977778825
 20
2.23894362279842
 30
0.0
 11
-2.706769560916924
 21
2.171192616085139
 31
0.0
  0
LINE
  5
15F
330
1F
100
AcDbEntity
  8
0
  6
Continuous
 62
     7
370
     0
100
AcDbLine
 10
-2.706769560916924
 20
2.171192616085139
 30
0.0
 11
-2.729643924302638
 21
2.101533529344205
 31
0.0
  0
LINE
  5
160
330
1F
100
AcDbEntity
  8
0
  6
Continuous
 62
     7
370
     0
100
AcDbLine
 10
-2.729643924302638
 20
2.101533529344206
 30
0.0
 11
-2.997071808918021
 21
1.31427391395959
 31
0.0
  0
LINE
  5
161
330
1F
100
AcDbEntity
  8
0
  6
Continuous
 62
     7
370
     0
100
AcDbLine
 10
-2.997071808918021
 20
1.31427391395959
 30
0.0
 11
-3.014150112841994
 21
1.266381181706148
 31
0.0
  0
LINE
  5
162
330
1F
100
AcDbEntity
  8
0
  6
Continuous
 62
     7
370
     0
100
AcDbLine
 10
-3.014150112841994
 20
1.266381181706148
 30
0.0
 11
-3.032332725407843
 21
1.21945749773269
 31
0.0
  0
LINE
  5
163
330
1F
100
AcDbEntity
  8
0
  6
Continuous
 62
     7
370
     0
100
AcDbLine
 10
-3.032332725407843
 20
1.21945749773269
 30
0.0
 11
-3.051619644414778
 21
1.173502859838426
 31
0.0
  0
LINE
  5
164
330
1F
100
AcDbEntity
  8
0
  6
Continuous
 62
     7
370
     0
100
AcDbLine
 10
-3.051619644414778
 20
1.173502859838426
 30
0.0
 11
-3.072010867662013
 21
1.128517265822571
 31
0.0
  0
LINE
  5
165
330
1F
100
AcDbEntity
  8
0
  6
Continuous
 62
     7
370
     0
100
AcDbLine
 10
-3.072010867662013
 20
1.128517265822571
 30
0.0
 11
-3.09350639294876
 21
1.084500713484338
 31
0.0
  0
LINE
  5
166
330
1F
100
AcDbEntity
  8
0
  6
Continuous
 62
     7
370
     0
100
AcDbLine
 10
-3.09350639294876
 20
1.084500713484338
 30
0.0
 11
-3.116106218074234
 21
1.041453200622939
 31
0.0
  0
LINE
  5
167
330
1F
100
AcDbEntity
  8
0
  6
Continuous
 62
     7
370
     0
100
AcDbLine
 10
-3.116106218074234
 20
1.041453200622939
 30
0.0
 11
-3.139810340837648
 21
0.9993747250375886
 31
0.0
  0
LINE
  5
168
330
1F
100
AcDbEntity
  8
0
  6
Continuous
 62
     7
370
     0
100
AcDbLine
 10
-3.139810340837648
 20
0.9993747250375886
 30
0.0
 11
-3.164618759038214
 21
0.9582652845274994
 31
0.0
  0
LINE
  5
169
330
1F
100
AcDbEntity
  8
0
  6
Continuous
 62
     7
370
     0
100
AcDbLine
 10
-3.164618759038214
 20
0.9582652845274994
 30
0.0
 11
-3.190531470475146
 21
0.9181248768918837
 31
0.0
  0
LINE
  5
16A
330
1F
100
AcDbEntity
  8
0
  6
Continuous
 62
     7
370
     0
100
AcDbLine
 10
-3.190531470475146
 20
0.9181248768918837
 30
0.0
 11
-3.217548472947656
 21
0.8789534999299554
 31
0.0
  0
LINE
  5
16B
330
1F
100
AcDbEntity
  8
0
  6
Continuous
 62
     7
370
     0
100
AcDbLine
 10
-3.217548472947656
 20
0.8789534999299554
 30
0.0
 11
-3.245669764254959
 21
0.8407511514409278
 31
0.0
  0
LINE
  5
16C
330
1F
100
AcDbEntity
  8
0
  6
Continuous
 62
     7
370
     0
100
AcDbLine
 10
-3.245669764254959
 20
0.8407511514409278
 30
0.0
 11
-3.274895342196267
 21
0.8035178292240137
 31
0.0
  0
LINE
  5
16D
330
1F
100
AcDbEntity
  8
0
  6
Continuous
 62
     7
370
     0
100
AcDbLine
 10
-3.274895342196267
 20
0.8035178292240137
 30
0.0
 11
-3.305225204570793
 21
0.7672535310784258
 31
0.0
  0
LINE
  5
16E
330
1F
100
AcDbEntity
  8
0
  6
Continuous
 62
     7
370
     0
100
AcDbLine
 10
-3.305225204570793
 20
0.7672535310784258
 30
0.0
 11
-3.33665934917775
 21
0.731958254803378
 31
0.0
  0
LINE
  5
16F
330
1F
100
AcDbEntity
  8
0
  6
Continuous
 62
     7
370
     0
100
AcDbLine
 10
-3.33665934917775
 20
0.731958254803378
 30
0.0
 11
-3.369197773816351
 21
0.6976319981980827
 31
0.0
  0
LINE
  5
170
330
1F
100
AcDbEntity
  8
0
  6
Continuous
 62
     7
370
     0
100
AcDbLine
 10
-3.369197773816351
 20
0.6976319981980827
 30
0.0
 11
-3.40284047628581
 21
0.6642747590617537
 31
0.0
  0
LINE
  5
171
330
1F
100
AcDbEntity
  8
0
  6
Continuous
 62
     7
370
     0
100
AcDbLine
 10
-3.40284047628581
 20
0.6642747590617537
 30
0.0
 11
-3.437587454385341
 21
0.6318865351936037
 31
0.0
  0
LINE
  5
172
330
1F
100
AcDbEntity
  8
0
  6
Continuous
 62
     7
370
     0
100
AcDbLine
 10
-3.437587454385341
 20
0.6318865351936037
 30
0.0
 11
-3.473438705914153
 21
0.6004673243928458
 31
0.0
  0
LINE
  5
173
330
1F
100
AcDbEntity
  8
0
  6
Continuous
 62
     7
370
     0
100
AcDbLine
 10
-3.473438705914153
 20
0.6004673243928458
 30
0.0
 11
-3.510394228671464
 21
0.5700171244586931
 31
0.0
  0
LINE
  5
174
330
1F
100
AcDbEntity
  8
0
  6
Continuous
 62
     7
370
     0
100
AcDbLine
 10
-3.510394228671464
 20
0.5700171244586931
 30
0.0
 11
-3.548454020456484
 21
0.5405359331903591
 31
0.0
  0
LINE
  5
175
330
1F
100
AcDbEntity
  8
0
  6
Continuous
 62
     7
370
     0
100
AcDbLine
 10
-3.548454020456484
 20
0.5405359331903592
 30
0.0
 11
-3.587489949622837
 21
0.5120918187253792
 31
0.0
  0
LINE
  5
176
330
1F
100
AcDbEntity
  8
0
  6
Continuous
 62
     7
370
     0
100
AcDbLine
 10
-3.587489949622837
 20
0.5120918187253792
 30
0.0
 11
-3.627374766306093
 21
0.4847519688865357
 31
0.0
  0
LINE
  5
177
330
1F
100
AcDbEntity
  8
0
  6
Continuous
 62
     7
370
     0
100
AcDbLine
 10
-3.627374766306093
 20
0.4847519688865357
 30
0.0
 11
-3.668108470506251
 21
0.4585163814730412
 31
0.0
  0
LINE
  5
178
330
1F
100
AcDbEntity
  8
0
  6
Continuous
 62
     7
370
     0
100
AcDbLine
 10
-3.668108470506251
 20
0.4585163814730412
 30
0.0
 11
-3.709691062223311
 21
0.4333850542841094
 31
0.0
  0
LINE
  5
179
330
1F
100
AcDbEntity
  8
0
  6
Continuous
 62
     7
370
     0
100
AcDbLine
 10
-3.709691062223311
 20
0.4333850542841094
 30
0.0
 11
-3.752122541457271
 21
0.4093579851189529
 31
0.0
  0
LINE
  5
17A
330
1F
100
AcDbEntity
  8
0
  6
Continuous
 62
     7
370
     0
100
AcDbLine
 10
-3.752122541457271
 20
0.4093579851189529
 30
0.0
 11
-3.795402908208135
 21
0.386435171776785
 31
0.0
  0
LINE
  5
17B
330
1F
100
AcDbEntity
  8
0
  6
Continuous
 62
     7
370
     0
100
AcDbLine
 10
-3.795402908208135
 20
0.386435171776785
 30
0.0
 11
-3.839532162475901
 21
0.3646166120568191
 31
0.0
  0
LINE
  5
17C
330
1F
100
AcDbEntity
  8
0
  6
Continuous
 62
     7
370
     0
100
AcDbLine
 10
-3.839532162475901
 20
0.3646166120568191
 30
0.0
 11
-3.884510304260571
 21
0.3439023037582681
 31
0.0
  0
LINE
  5
17D
330
1F
100
AcDbEntity
  8
0
  6
Continuous
 62
     7
370
     0
100
AcDbLine
 10
-3.884510304260571
 20
0.3439023037582681
 30
0.0
 11
-3.930337333562139
 21
0.324292244680345
 31
0.0
  0
LINE
  5
17E
330
1F
100
AcDbEntity
  8
0
  6
Continuous
 62
     7
370
     0
100
AcDbLine
 10
-3.930337333562139
 20
0.324292244680345
 30
0.0
 11
-3.977013250380611
 21
0.3057864326222629
 31
0.0
  0
LINE
  5
17F
330
1F
100
AcDbEntity
  8
0
  6
Continuous
 62
     7
370
     0
100
AcDbLine
 10
-3.977013250380611
 20
0.3057864326222629
 30
0.0
 11
-4.024538054715986
 21
0.2883848653832353
 31
0.0
  0
LINE
  5
180
330
1F
100
AcDbEntity
  8
0
  6
Continuous
 62
     7
370
     0
100
AcDbLine
 10
-4.024538054715986
 20
0.2883848653832353
 30
0.0
 11
-4.072911746568263
 21
0.2720875407624749
 31
0.0
  0
LINE
  5
181
330
1F
100
AcDbEntity
  8
0
  6
Continuous
 62
     7
370
     0
100
AcDbLine
 10
-4.072911746568263
 20
0.2720875407624749
 30
0.0
 11
-4.12213432593744
 21
0.2568944565591949
 31
0.0
  0
LINE
  5
182
330
1F
100
AcDbEntity
  8
0
  6
Continuous
 62
     7
370
     0
100
AcDbLine
 10
-4.12213432593744
 20
0.2568944565591949
 30
0.0
 11
-4.17220579282352
 21
0.2428056105726085
 31
0.0
  0
LINE
  5
183
330
1F
100
AcDbEntity
  8
0
  6
Continuous
 62
     7
370
     0
100
AcDbLine
 10
-4.17220579282352
 20
0.2428056105726085
 30
0.0
 11
-4.223126147226503
 21
0.2298210006019288
 31
0.0
  0
LINE
  5
184
330
1F
100
AcDbEntity
  8
0
  6
Continuous
 62
     7
370
     0
100
AcDbLine
 10
-4.223126147226503
 20
0.2298210006019288
 30
0.0
 11
-4.274895389146386
 21
0.217940624446369
 31
0.0
  0
LINE
  5
185
330
1F
100
AcDbEntity
  8
0
  6
Continuous
 62
     7
370
     0
100
AcDbLine
 10
-4.274895389146386
 20
0.217940624446369
 30
0.0
 11
-4.327513518583173
 21
0.2071644799051421
 31
0.0
  0
LINE
  5
186
330
1F
100
AcDbEntity
  8
0
  6
Continuous
 62
     7
370
     0
100
AcDbLine
 10
-4.327513518583173
 20
0.2071644799051421
 30
0.0
 11
-4.380980535536862
 21
0.1974925647774612
 31
0.0
  0
LINE
  5
187
330
1F
100
AcDbEntity
  8
0
  6
Continuous
 62
     7
370
     0
100
AcDbLine
 10
-4.380980535536862
 20
0.1974925647774612
 30
0.0
 11
-4.435296440007453
 21
0.1889248768625395
 31
0.0
  0
LINE
  5
188
330
1F
100
AcDbEntity
  8
0
  6
Continuous
 62
     7
370
     0
100
AcDbLine
 10
-4.435296440007453
 20
0.1889248768625395
 30
0.0
 11
-4.490461231994945
 21
0.1814614139595901
 31
0.0
  0
LINE
  5
189
330
1F
100
AcDbEntity
  8
0
  6
Continuous
 62
     7
370
     0
100
AcDbLine
 10
-4.490461231994945
 20
0.1814614139595901
 30
0.0
 11
-4.441125773899687
 21
0.1723421013797749
 31
0.0
  0
LINE
  5
18A
330
1F
100
AcDbEntity
  8
0
  6
Continuous
 62
     7
370
     0
100
AcDbLine
 10
-4.441125773899687
 20
0.1723421013797749
 30
0.0
 11
-4.393480561946304
 21
0.16181049984075
 31
0.0
  0
LINE
  5
18B
330
1F
100
AcDbEntity
  8
0
  6
Continuous
 62
     7
370
     0
100
AcDbLine
 10
-4.393480561946304
 20
0.16181049984075
 30
0.0
 11
-4.347525593934008
 21
0.1498666093425153
 31
0.0
  0
LINE
  5
18C
330
1F
100
AcDbEntity
  8
0
  6
Continuous
 62
     7
370
     0
100
AcDbLine
 10
-4.347525593934008
 20
0.1498666093425153
 30
0.0
 11
-4.303260867662013
 21
0.136510429885071
 31
0.0
  0
LINE
  5
18D
330
1F
100
AcDbEntity
  8
0
  6
Continuous
 62
     7
370
     0
100
AcDbLine
 10
-4.303260867662013
 20
0.136510429885071
 30
0.0
 11
-4.260686380929529
 21
0.1217419614684168
 31
0.0
  0
LINE
  5
18E
330
1F
100
AcDbEntity
  8
0
  6
Continuous
 62
     7
370
     0
100
AcDbLine
 10
-4.260686380929529
 20
0.1217419614684168
 30
0.0
 11
-4.219802131535771
 21
0.1055612040925529
 31
0.0
  0
LINE
  5
18F
330
1F
100
AcDbEntity
  8
0
  6
Continuous
 62
     7
370
     0
100
AcDbLine
 10
-4.219802131535771
 20
0.1055612040925529
 30
0.0
 11
-4.180608117279954
 21
0.0879681577574794
 31
0.0
  0
LINE
  5
190
330
1F
100
AcDbEntity
  8
0
  6
Continuous
 62
     7
370
     0
100
AcDbLine
 10
-4.180608117279954
 20
0.0879681577574794
 30
0.0
 11
-4.143104335961291
 21
0.068962822463196
 31
0.0
  0
LINE
  5
191
330
1F
100
AcDbEntity
  8
0
  6
Continuous
 62
     7
370
     0
100
AcDbLine
 10
-4.143104335961291
 20
0.068962822463196
 30
0.0
 11
-4.107290785378991
 21
0.0485451982097029
 31
0.0
  0
LINE
  5
192
330
1F
100
AcDbEntity
  8
0
  6
Continuous
 62
     7
370
     0
100
AcDbLine
 10
-4.107290785378991
 20
0.0485451982097029
 30
0.0
 11
-4.073167463332271
 21
0.0267152849970001
 31
0.0
  0
LINE
  5
193
330
1F
100
AcDbEntity
  8
0
  6
Continuous
 62
     7
370
     0
100
AcDbLine
 10
-4.073167463332271
 20
0.0267152849970001
 30
0.0
 11
-4.040734367620343
 21
0.0034730828250875
 31
0.0
  0
LINE
  5
194
330
1F
100
AcDbEntity
  8
0
  6
Continuous
 62
     7
370
     0
100
AcDbLine
 10
-4.040734367620343
 20
0.0034730828250875
 30
0.0
 11
-4.009991496042421
 21
-0.0211814083060348
 31
0.0
  0
LINE
  5
195
330
1F
100
AcDbEntity
  8
0
  6
Continuous
 62
     7
370
     0
100
AcDbLine
 10
-4.009991496042421
 20
-0.0211814083060348
 30
0.0
 11
-3.980938846397715
 21
-0.0472481883963668
 31
0.0
  0
LINE
  5
196
330
1F
100
AcDbEntity
  8
0
  6
Continuous
 62
     7
370
     0
100
AcDbLine
 10
-3.980938846397715
 20
-0.0472481883963668
 30
0.0
 11
-3.953576416485442
 21
-0.0747272574459086
 31
0.0
  0
LINE
  5
197
330
1F
100
AcDbEntity
  8
0
  6
Continuous
 62
     7
370
     0
100
AcDbLine
 10
-3.953576416485442
 20
-0.0747272574459086
 30
0.0
 11
-3.927904204104812
 21
-0.1036186154546602
 31
0.0
  0
LINE
  5
198
330
1F
100
AcDbEntity
  8
0
  6
Continuous
 62
     7
370
     0
100
AcDbLine
 10
-3.927904204104812
 20
-0.1036186154546602
 30
0.0
 11
-3.90392220705504
 21
-0.1339222624226214
 31
0.0
  0
LINE
  5
199
330
1F
100
AcDbEntity
  8
0
  6
Continuous
 62
     7
370
     0
100
AcDbLine
 10
-3.90392220705504
 20
-0.1339222624226214
 30
0.0
 11
-3.88163042313534
 21
-0.1656381983497925
 31
0.0
  0
LINE
  5
19A
330
1F
100
AcDbEntity
  8
0
  6
Continuous
 62
     7
370
     0
100
AcDbLine
 10
-3.88163042313534
 20
-0.1656381983497925
 30
0.0
 11
-3.861028850144921
 21
-0.1987664232361732
 31
0.0
  0
LINE
  5
19B
330
1F
100
AcDbEntity
  8
0
  6
Continuous
 62
     7
370
     0
100
AcDbLine
 10
-3.861028850144921
 20
-0.1987664232361732
 30
0.0
 11
-3.842117485883001
 21
-0.2333069370817637
 31
0.0
  0
LINE
  5
19C
330
1F
100
AcDbEntity
  8
0
  6
Continuous
 62
     7
370
     0
100
AcDbLine
 10
-3.842117485883001
 20
-0.2333069370817637
 30
0.0
 11
-3.82489632814879
 21
-0.2692597398865639
 31
0.0
  0
LINE
  5
19D
330
1F
100
AcDbEntity
  8
0
  6
Continuous
 62
     7
370
     0
100
AcDbLine
 10
-3.82489632814879
 20
-0.2692597398865637
 30
0.0
 11
-3.809425059714999
 21
-0.3064741437726252
 31
0.0
  0
LINE
  5
19E
330
1F
100
AcDbEntity
  8
0
  6
Continuous
 62
     7
370
     0
100
AcDbLine
 10
-3.809425059714999
 20
-0.3064741437726252
 30
0.0
 11
-3.795764242201901
 21
-0.3448003411767531
 31
0.0
  0
LINE
  5
19F
330
1F
100
AcDbEntity
  8
0
  6
Continuous
 62
     7
370
     0
100
AcDbLine
 10
-3.795764242201901
 20
-0.3448003411767531
 30
0.0
 11
-3.783913871207919
 21
-0.3842383320989474
 31
0.0
  0
LINE
  5
1A0
330
1F
100
AcDbEntity
  8
0
  6
Continuous
 62
     7
370
     0
100
AcDbLine
 10
-3.783913871207919
 20
-0.3842383320989474
 30
0.0
 11
-3.773873942331484
 21
-0.4247881165392082
 31
0.0
  0
LINE
  5
1A1
330
1F
100
AcDbEntity
  8
0
  6
Continuous
 62
     7
370
     0
100
AcDbLine
 10
-3.773873942331484
 20
-0.4247881165392082
 30
0.0
 11
-3.765644451171017
 21
-0.466449694497535
 31
0.0
  0
LINE
  5
1A2
330
1F
100
AcDbEntity
  8
0
  6
Continuous
 62
     7
370
     0
100
AcDbLine
 10
-3.765644451171017
 20
-0.466449694497535
 30
0.0
 11
-3.759225393324946
 21
-0.5092230659739285
 31
0.0
  0
LINE
  5
1A3
330
1F
100
AcDbEntity
  8
0
  6
Continuous
 62
     7
370
     0
100
AcDbLine
 10
-3.759225393324946
 20
-0.5092230659739285
 30
0.0
 11
-3.754616764391701
 21
-0.5531082309683883
 31
0.0
  0
LINE
  5
1A4
330
1F
100
AcDbEntity
  8
0
  6
Continuous
 62
     7
370
     0
100
AcDbLine
 10
-3.754616764391701
 20
-0.5531082309683883
 30
0.0
 11
-3.751818559969704
 21
-0.5981051894809148
 31
0.0
  0
LINE
  5
1A5
330
1F
100
AcDbEntity
  8
0
  6
Continuous
 62
     7
370
     0
100
AcDbLine
 10
-3.751818559969704
 20
-0.5981051894809148
 30
0.0
 11
-3.750830775657382
 21
-0.6442139415115073
 31
0.0
  0
LINE
  5
1A6
330
1F
100
AcDbEntity
  8
0
  6
Continuous
 62
     7
370
     0
100
AcDbLine
 10
-3.750830775657382
 20
-0.6442139415115073
 30
0.0
 11
-3.751653407053162
 21
-0.6914344870601663
 31
0.0
  0
LINE
  5
1A7
330
1F
100
AcDbEntity
  8
0
  6
Continuous
 62
     7
370
     0
100
AcDbLine
 10
-3.751653407053162
 20
-0.6914344870601663
 30
0.0
 11
-3.75428644975547
 21
-0.7397668261268918
 31
0.0
  0
LINE
  5
1A8
330
1F
100
AcDbEntity
  8
0
  6
Continuous
 62
     7
370
     0
100
AcDbLine
 10
-3.75428644975547
 20
-0.7397668261268918
 30
0.0
 11
-3.758729899362733
 21
-0.7892109587116839
 31
0.0
  0
LINE
  5
1A9
330
1F
100
AcDbEntity
  8
0
  6
Continuous
 62
     7
370
     0
100
AcDbLine
 10
-3.758729899362733
 20
-0.7892109587116839
 30
0.0
 11
-3.764983751473375
 21
-0.8397668848145422
 31
0.0
  0
LINE
  5
1AA
330
1F
100
AcDbEntity
  8
0
  6
Continuous
 62
     7
370
     0
100
AcDbLine
 10
-3.764983751473375
 20
-0.8397668848145422
 30
0.0
 11
-3.773048001685825
 21
-0.8914346044354667
 31
0.0
  0
LINE
  5
1AB
330
1F
100
AcDbEntity
  8
0
  6
Continuous
 62
     7
370
     0
100
AcDbLine
 10
-3.773048001685825
 20
-0.8914346044354667
 30
0.0
 11
-3.782922645598507
 21
-0.9442141175744582
 31
0.0
  0
LINE
  5
1AC
330
1F
100
AcDbEntity
  8
0
  6
Continuous
 62
     7
370
     0
100
AcDbLine
 10
-3.782922645598507
 20
-0.9442141175744582
 30
0.0
 11
-3.794607678809848
 21
-0.9981054242315156
 31
0.0
  0
LINE
  5
1AD
330
1F
100
AcDbEntity
  8
0
  6
Continuous
 62
     7
370
     0
100
AcDbLine
 10
-3.794607678809848
 20
-0.9981054242315156
 30
0.0
 11
-3.808103096918275
 21
-1.05310852440664
 31
0.0
  0
LINE
  5
1AE
330
1F
100
AcDbEntity
  8
0
  6
Continuous
 62
     7
370
     0
100
AcDbLine
 10
-3.808103096918275
 20
-1.05310852440664
 30
0.0
 11
-3.823408895522213
 21
-1.10922341809983
 31
0.0
  0
LINE
  5
1AF
330
1F
100
AcDbEntity
  8
0
  6
Continuous
 62
     7
370
     0
100
AcDbLine
 10
-3.823408895522213
 20
-1.10922341809983
 30
0.0
 11
-3.84052507022009
 21
-1.166450105311087
 31
0.0
  0
LINE
  5
1B0
330
1F
100
AcDbEntity
  8
0
  6
Continuous
 62
     7
370
     0
100
AcDbLine
 10
-3.84052507022009
 20
-1.166450105311087
 30
0.0
 11
-3.85945161661033
 21
-1.22478858604041
 31
0.0
  0
LINE
  5
1B1
330
1F
100
AcDbEntity
  8
0
  6
Continuous
 62
     7
370
     0
100
AcDbLine
 10
-3.859451616610329
 20
-1.22478858604041
 30
0.0
 11
-4.189980462764175
 21
-2.192336662963486
 31
0.0
  0
LINE
  5
1B2
330
1F
100
AcDbEntity
  8
0
  6
Continuous
 62
     7
370
     0
100
AcDbLine
 10
-4.189980462764175
 20
-2.192336662963486
 30
0.0
 11
-4.212790430392067
 21
-2.256109810839932
 31
0.0
  0
LINE
  5
1B3
330
1F
100
AcDbEntity
  8
0
  6
Continuous
 62
     7
370
     0
100
AcDbLine
 10
-4.212790430392067
 20
-2.256109810839932
 30
0.0
 11
-4.237350727844555
 21
-2.318222817138292
 31
0.0
  0
LINE
  5
1B4
330
1F
100
AcDbEntity
  8
0
  6
Continuous
 62
     7
370
     0
100
AcDbLine
 10
-4.237350727844555
 20
-2.318222817138292
 30
0.0
 11
-4.263661355121634
 21
-2.378675681858562
 31
0.0
  0
LINE
  5
1B5
330
1F
100
AcDbEntity
  8
0
  6
Continuous
 62
     7
370
     0
100
AcDbLine
 10
-4.263661355121634
 20
-2.378675681858562
 30
0.0
 11
-4.291722312223311
 21
-2.437468405000747
 31
0.0
  0
LINE
  5
1B6
330
1F
100
AcDbEntity
  8
0
  6
Continuous
 62
     7
370
     0
100
AcDbLine
 10
-4.291722312223311
 20
-2.437468405000747
 30
0.0
 11
-4.321533599149579
 21
-2.494600986564842
 31
0.0
  0
LINE
  5
1B7
330
1F
100
AcDbEntity
  8
0
  6
Continuous
 62
     7
370
     0
100
AcDbLine
 10
-4.321533599149579
 20
-2.494600986564842
 30
0.0
 11
-4.353095215900442
 21
-2.550073426550851
 31
0.0
  0
LINE
  5
1B8
330
1F
100
AcDbEntity
  8
0
  6
Continuous
 62
     7
370
     0
100
AcDbLine
 10
-4.353095215900442
 20
-2.550073426550851
 30
0.0
 11
-4.386407162475901
 21
-2.603885724958773
 31
0.0
  0
LINE
  5
1B9
330
1F
100
AcDbEntity
  8
0
  6
Continuous
 62
     7
370
     0
100
AcDbLine
 10
-4.386407162475901
 20
-2.603885724958773
 30
0.0
 11
-4.421469438875954
 21
-2.656037881788607
 31
0.0
  0
LINE
  5
1BA
330
1F
100
AcDbEntity
  8
0
  6
Continuous
 62
     7
370
     0
100
AcDbLine
 10
-4.421469438875954
 20
-2.656037881788607
 30
0.0
 11
-4.458282045100601
 21
-2.706529897040354
 31
0.0
  0
LINE
  5
1BB
330
1F
100
AcDbEntity
  8
0
  6
Continuous
 62
     7
370
     0
100
AcDbLine
 10
-4.458282045100601
 20
-2.706529897040354
 30
0.0
 11
-4.496844981149842
 21
-2.755361770714012
 31
0.0
  0
LINE
  5
1BC
330
1F
100
AcDbEntity
  8
0
  6
Continuous
 62
     7
370
     0
100
AcDbLine
 10
-4.496844981149842
 20
-2.755361770714012
 30
0.0
 11
-4.537158247023678
 21
-2.802533502809584
 31
0.0
  0
LINE
  5
1BD
330
1F
100
AcDbEntity
  8
0
  6
Continuous
 62
     7
370
     0
100
AcDbLine
 10
-4.537158247023678
 20
-2.802533502809584
 30
0.0
 11
-4.579221842722108
 21
-2.848045093327069
 31
0.0
  0
LINE
  5
1BE
330
1F
100
AcDbEntity
  8
0
  6
Continuous
 62
     7
370
     0
100
AcDbLine
 10
-4.579221842722108
 20
-2.848045093327069
 30
0.0
 11
-4.623035768245132
 21
-2.891896542266465
 31
0.0
  0
LINE
  5
1BF
330
1F
100
AcDbEntity
  8
0
  6
Continuous
 62
     7
370
     0
100
AcDbLine
 10
-4.623035768245132
 20
-2.891896542266465
 30
0.0
 11
-4.668600023592751
 21
-2.934087849627775
 31
0.0
  0
LINE
  5
1C0
330
1F
100
AcDbEntity
  8
0
  6
Continuous
 62
     7
370
     0
100
AcDbLine
 10
-4.668600023592751
 20
-2.934087849627775
 30
0.0
 11
-4.715914608764964
 21
-2.974619015410997
 31
0.0
  0
LINE
  5
1C1
330
1F
100
AcDbEntity
  8
0
  6
Continuous
 62
     7
370
     0
100
AcDbLine
 10
-4.715914608764964
 20
-2.974619015410997
 30
0.0
 11
-4.764979523761771
 21
-3.013490039616131
 31
0.0
  0
LINE
  5
1C2
330
1F
100
AcDbEntity
  8
0
  6
Continuous
 62
     7
370
     0
100
AcDbLine
 10
-4.764979523761771
 20
-3.013490039616131
 30
0.0
 11
-4.815794768583173
 21
-3.050700922243178
 31
0.0
  0
LINE
  5
1C3
330
1F
100
AcDbEntity
  8
0
  6
Continuous
 62
     7
370
     0
100
AcDbLine
 10
-4.815794768583173
 20
-3.050700922243178
 30
0.0
 11
-4.86836034322917
 21
-3.086251663292138
 31
0.0
  0
LINE
  5
1C4
330
1F
100
AcDbEntity
  8
0
  6
Continuous
 62
     7
370
     0
100
AcDbLine
 10
-4.86836034322917
 20
-3.086251663292138
 30
0.0
 11
-4.92267624769976
 21
-3.12014226276301
 31
0.0
  0
LINE
  5
1C5
330
1F
100
AcDbEntity
  8
0
  6
Continuous
 62
     7
370
     0
100
AcDbLine
 10
-4.92267624769976
 20
-3.12014226276301
 30
0.0
 11
-4.978742481994946
 21
-3.152372720655795
 31
0.0
  0
LINE
  5
1C6
330
1F
100
AcDbEntity
  8
0
  6
Continuous
 62
     7
370
     0
100
AcDbLine
 10
-4.978742481994945
 20
-3.152372720655795
 30
0.0
 11
-5.036611182756005
 21
-3.182987690202772
 31
0.0
  0
LINE
  5
1C7
330
1F
100
AcDbEntity
  8
0
  6
Continuous
 62
     7
370
     0
100
AcDbLine
 10
-5.036611182756005
 20
-3.182987690202772
 30
0.0
 11
-5.09633536693898
 21
-3.212032702016598
 31
0.0
  0
LINE
  5
1C8
330
1F
100
AcDbEntity
  8
0
  6
Continuous
 62
     7
370
     0
100
AcDbLine
 10
-5.09633536693898
 20
-3.212032702016598
 30
0.0
 11
-5.157915034543867
 21
-3.239507751695693
 31
0.0
  0
LINE
  5
1C9
330
1F
100
AcDbEntity
  8
0
  6
Continuous
 62
     7
370
     0
100
AcDbLine
 10
-5.157915034543867
 20
-3.239507751695693
 30
0.0
 11
-5.221350185570667
 21
-3.265412834838488
 31
0.0
  0
LINE
  5
1CA
330
1F
100
AcDbEntity
  8
0
  6
Continuous
 62
     7
370
     0
100
AcDbLine
 10
-5.221350185570667
 20
-3.265412834838488
 30
0.0
 11
-5.286640820019377
 21
-3.289747947043405
 31
0.0
  0
LINE
  5
1CB
330
1F
100
AcDbEntity
  8
0
  6
Continuous
 62
     7
370
     0
100
AcDbLine
 10
-5.286640820019377
 20
-3.289747947043405
 30
0.0
 11
-5.353786937890001
 21
-3.312513083908873
 31
0.0
  0
LINE
  5
1CC
330
1F
100
AcDbEntity
  8
0
  6
Continuous
 62
     7
370
     0
100
AcDbLine
 10
-5.353786937890001
 20
-3.312513083908873
 30
0.0
 11
-5.422788539182538
 21
-3.333708241033321
 31
0.0
  0
LINE
  5
1CD
330
1F
100
AcDbEntity
  8
0
  6
Continuous
 62
     7
370
     0
100
AcDbLine
 10
-5.422788539182538
 20
-3.333708241033321
 30
0.0
 11
-5.493645623896988
 21
-3.35333341401517
 31
0.0
  0
LINE
  5
1CE
330
1F
100
AcDbEntity
  8
0
  6
Continuous
 62
     7
370
     0
100
AcDbLine
 10
-5.493645623896988
 20
-3.35333341401517
 30
0.0
 11
-5.56635819203335
 21
-3.371388598452848
 31
0.0
  0
LINE
  5
1CF
330
1F
100
AcDbEntity
  8
0
  6
Continuous
 62
     7
370
     0
100
AcDbLine
 10
-5.56635819203335
 20
-3.371388598452848
 30
0.0
 11
-5.640926243591625
 21
-3.387873789944781
 31
0.0
  0
LINE
  5
1D0
330
1F
100
AcDbEntity
  8
0
  6
Continuous
 62
     7
370
     0
100
AcDbLine
 10
-5.640926243591625
 20
-3.387873789944781
 30
0.0
 11
-5.717349778571812
 21
-3.402788984089398
 31
0.0
  0
LINE
  5
1D1
330
1F
100
AcDbEntity
  8
0
  6
Continuous
 62
     7
370
     0
100
AcDbLine
 10
-5.717349778571812
 20
-3.402788984089398
 30
0.0
 11
-5.795628796973912
 21
-3.416134176485122
 31
0.0
  0
LINE
  5
1D2
330
1F
100
AcDbEntity
  8
0
  6
Continuous
 62
     7
370
     0
100
AcDbLine
 10
-5.795628796973912
 20
-3.416134176485122
 30
0.0
 11
-5.875763298797923
 21
-3.427909362730379
 31
0.0
  0
LINE
  5
1D3
330
1F
100
AcDbEntity
  8
0
  6
Continuous
 62
     7
370
     0
100
AcDbLine
 10
-5.875763298797923
 20
-3.427909362730379
 30
0.0
 11
-5.957753284043847
 21
-3.438114538423598
 31
0.0
  0
LINE
  5
1D4
330
1F
100
AcDbEntity
  8
0
  6
Continuous
 62
     7
370
     0
100
AcDbLine
 10
-5.957753284043847
 20
-3.438114538423598
 30
0.0
 11
-6.041598752711685
 21
-3.446749699163203
 31
0.0
  0
LINE
  5
1D5
330
1F
100
AcDbEntity
  8
0
  6
Continuous
 62
     7
370
     0
100
AcDbLine
 10
-6.041598752711685
 20
-3.446749699163203
 30
0.0
 11
-6.127299704801435
 21
-3.453814840547621
 31
0.0
  0
LINE
  5
1D6
330
1F
100
AcDbEntity
  8
0
  6
Continuous
 62
     7
370
     0
100
AcDbLine
 10
-6.127299704801435
 20
-3.453814840547621
 30
0.0
 11
-6.214856140313098
 21
-3.459309958175279
 31
0.0
  0
LINE
  5
1D7
330
1F
100
AcDbEntity
  8
0
  6
Continuous
 62
     7
370
     0
100
AcDbLine
 10
-6.214856140313098
 20
-3.459309958175279
 30
0.0
 11
-6.304268059246672
 21
-3.463235047644601
 31
0.0
  0
LINE
  5
1D8
330
1F
100
AcDbEntity
  8
0
  6
Continuous
 62
     7
370
     0
100
AcDbLine
 10
-6.304268059246672
 20
-3.463235047644601
 30
0.0
 11
-6.395535461602161
 21
-3.465590104554016
 31
0.0
  0
LINE
  5
1D9
330
1F
100
AcDbEntity
  8
0
  6
Continuous
 62
     7
370
     0
100
AcDbLine
 10
-6.395535461602161
 20
-3.465590104554016
 30
0.0
 11
-6.488658347379561
 21
-3.466375124501949
 31
0.0
  0
LINE
  5
1DA
330
1F
100
AcDbEntity
  8
0
  6
Continuous
 62
     7
370
     0
100
AcDbLine
 10
-1.545749693533409
 20
-3.466375124501949
 30
0.0
 11
0.8070147295435145
 21
3.456701798574974
 31
0.0
  0
LINE
  5
1DB
330
1F
100
AcDbEntity
  8
0
  6
Continuous
 62
     7
370
     0
100
AcDbLine
 10
0.8070147295435145
 20
3.456701798574974
 30
0.0
 11
7.730091652620437
 21
3.456701798574974
 31
0.0
  0
LINE
  5
1DC
330
1F
100
AcDbEntity
  8
0
  6
Continuous
 62
     7
370
     0
100
AcDbLine
 10
7.730091652620437
 20
3.456701798574974
 30
0.0
 11
7.339466652620437
 21
2.302855644728821
 31
0.0
  0
LINE
  5
1DD
330
1F
100
AcDbEntity
  8
0
  6
Continuous
 62
     7
370
     0
100
AcDbLine
 10
7.339466652620437
 20
2.302855644728821
 30
0.0
 11
1.954851268005052
 21
2.302855644728821
 31
0.0
  0
LINE
  5
1DE
330
1F
100
AcDbEntity
  8
0
  6
Continuous
 62
     7
370
     0
100
AcDbLine
 10
1.954851268005052
 20
2.302855644728821
 30
0.0
 11
1.299803191081975
 21
0.3797787216518977
 31
0.0
  0
LINE
  5
1DF
330
1F
100
AcDbEntity
  8
0
  6
Continuous
 62
     7
370
     0
100
AcDbLine
 10
1.299803191081975
 20
0.3797787216518977
 30
0.0
 11
4.18441857569736
 21
0.3797787216518977
 31
0.0
  0
LINE
  5
1E0
330
1F
100
AcDbEntity
  8
0
  6
Continuous
 62
     7
370
     0
100
AcDbLine
 10
4.18441857569736
 20
0.3797787216518977
 30
0.0
 11
3.79379357569736
 21
-0.7740674321942557
 31
0.0
  0
LINE
  5
1E1
330
1F
100
AcDbEntity
  8
0
  6
Continuous
 62
     7
370
     0
100
AcDbLine
 10
3.79379357569736
 20
-0.7740674321942557
 30
0.0
 11
0.9091781910819755
 21
-0.7740674321942557
 31
0.0
  0
LINE
  5
1E2
330
1F
100
AcDbEntity
  8
0
  6
Continuous
 62
     7
370
     0
100
AcDbLine
 10
0.9091781910819755
 20
-0.7740674321942557
 30
0.0
 11
-0.0072881550718707
 21
-3.466375124501949
 31
0.0
  0
LINE
  5
1E3
330
1F
100
AcDbEntity
  8
0
  6
Continuous
 62
     7
370
     0
100
AcDbLine
 10
-0.0072881550718707
 20
-3.466375124501949
 30
0.0
 11
-1.545749693533409
 21
-3.466375124501949
 31
0.0
  0
LINE
  5
1E4
330
1F
100
AcDbEntity
  8
0
  6
Continuous
 62
     7
370
     0
100
AcDbLine
 10
7.300404152620442
 20
-3.466375124501949
 30
0.0
 11
9.653168575697366
 21
3.456701798574974
 31
0.0
  0
LINE
  5
1E5
330
1F
100
AcDbEntity
  8
0
  6
Continuous
 62
     7
370
     0
100
AcDbLine
 10
9.653168575697366
 20
3.456701798574974
 30
0.0
 11
16.76855319108198
 21
3.456701798574974
 31
0.0
  0
LINE
  5
1E6
330
1F
100
AcDbEntity
  8
0
  6
Continuous
 62
     7
370
     0
100
AcDbLine
 10
16.76855319108198
 20
3.456701798574974
 30
0.0
 11
16.37792819108198
 21
2.302855644728821
 31
0.0
  0
LINE
  5
1E7
330
1F
100
AcDbEntity
  8
0
  6
Continuous
 62
     7
370
     0
100
AcDbLine
 10
16.37792819108198
 20
2.302855644728821
 30
0.0
 11
10.8010051141589
 21
2.302855644728821
 31
0.0
  0
LINE
  5
1E8
330
1F
100
AcDbEntity
  8
0
  6
Continuous
 62
     7
370
     0
100
AcDbLine
 10
10.8010051141589
 20
2.302855644728821
 30
0.0
 11
10.27816857569737
 21
0.764394106267283
 31
0.0
  0
LINE
  5
1E9
330
1F
100
AcDbEntity
  8
0
  6
Continuous
 62
     7
370
     0
100
AcDbLine
 10
10.27816857569737
 20
0.764394106267283
 30
0.0
 11
13.35509165262044
 21
0.764394106267283
 31
0.0
  0
LINE
  5
1EA
330
1F
100
AcDbEntity
  8
0
  6
Continuous
 62
     7
370
     0
100
AcDbLine
 10
13.35509165262044
 20
0.764394106267283
 30
0.0
 11
12.96146184492813
 21
-0.3894520475788713
 31
0.0
  0
LINE
  5
1EB
330
1F
100
AcDbEntity
  8
0
  6
Continuous
 62
     7
370
     0
100
AcDbLine
 10
12.96146184492813
 20
-0.3894520475788713
 30
0.0
 11
9.88453876800506
 21
-0.3894520475788713
 31
0.0
  0
LINE
  5
1EC
330
1F
100
AcDbEntity
  8
0
  6
Continuous
 62
     7
370
     0
100
AcDbLine
 10
9.88453876800506
 20
-0.3894520475788713
 30
0.0
 11
9.295596460312751
 21
-2.120221278348102
 31
0.0
  0
LINE
  5
1ED
330
1F
100
AcDbEntity
  8
0
  6
Continuous
 62
     7
370
     0
100
AcDbLine
 10
9.295596460312751
 20
-2.120221278348102
 30
0.0
 11
14.87251953723583
 21
-2.120221278348102
 31
0.0
  0
LINE
  5
1EE
330
1F
100
AcDbEntity
  8
0
  6
Continuous
 62
     7
370
     0
100
AcDbLine
 10
14.87251953723583
 20
-2.120221278348102
 30
0.0
 11
14.41578876800506
 21
-3.466375124501949
 31
0.0
  0
LINE
  5
1EF
330
1F
100
AcDbEntity
  8
0
  6
Continuous
 62
     7
370
     0
100
AcDbLine
 10
14.41578876800506
 20
-3.466375124501949
 30
0.0
 11
7.300404152620442
 21
-3.466375124501949
 31
0.0
  0
LINE
  5
1F0
330
1F
100
AcDbEntity
  8
0
  6
Continuous
 62
     7
370
     0
100
AcDbLine
 10
25.22408203723583
 20
2.302855644728821
 30
0.0
 11
20.8010051141589
 21
2.302855644728821
 31
0.0
  0
LINE
  5
1F1
330
1F
100
AcDbEntity
  8
0
  6
Continuous
 62
     7
370
     0
100
AcDbLine
 10
20.8010051141589
 20
2.302855644728821
 30
0.0
 11
20.27816857569737
 21
0.764394106267283
 31
0.0
  0
LINE
  5
1F2
330
1F
100
AcDbEntity
  8
0
  6
Continuous
 62
     7
370
     0
100
AcDbLine
 10
20.27816857569737
 20
0.764394106267283
 30
0.0
 11
24.49090896031275
 21
0.764394106267283
 31
0.0
  0
LINE
  5
1F3
330
1F
100
AcDbEntity
  8
0
  6
Continuous
 62
     7
370
     0
100
AcDbLine
 10
24.49090896031275
 20
0.764394106267283
 30
0.0
 11
24.59170900429914
 21
0.7635227259748306
 31
0.0
  0
LINE
  5
1F4
330
1F
100
AcDbEntity
  8
0
  6
Continuous
 62
     7
370
     0
100
AcDbLine
 10
24.59170900429914
 20
0.7635227259748306
 30
0.0
 11
24.6885802871701
 21
0.7609085821630913
 31
0.0
  0
LINE
  5
1F5
330
1F
100
AcDbEntity
  8
0
  6
Continuous
 62
     7
370
     0
100
AcDbLine
 10
24.6885802871701
 20
0.7609085821630913
 30
0.0
 11
24.78152280452404
 21
0.756551670430491
 31
0.0
  0
LINE
  5
1F6
330
1F
100
AcDbEntity
  8
0
  6
Continuous
 62
     7
370
     0
100
AcDbLine
 10
24.78152280452404
 20
0.756551670430491
 30
0.0
 11
24.87053655195939
 21
0.7504519863754562
 31
0.0
  0
LINE
  5
1F7
330
1F
100
AcDbEntity
  8
0
  6
Continuous
 62
     7
370
     0
100
AcDbLine
 10
24.87053655195939
 20
0.7504519863754562
 30
0.0
 11
24.95562152507458
 21
0.7426095255964126
 31
0.0
  0
LINE
  5
1F8
330
1F
100
AcDbEntity
  8
0
  6
Continuous
 62
     7
370
     0
100
AcDbLine
 10
24.95562152507458
 20
0.7426095255964126
 30
0.0
 11
25.03677771946802
 21
0.733024283691787
 31
0.0
  0
LINE
  5
1F9
330
1F
100
AcDbEntity
  8
0
  6
Continuous
 62
     7
370
     0
100
AcDbLine
 10
25.03677771946802
 20
0.733024283691787
 30
0.0
 11
25.11400513073816
 21
0.7216962562600056
 31
0.0
  0
LINE
  5
1FA
330
1F
100
AcDbEntity
  8
0
  6
Continuous
 62
     7
370
     0
100
AcDbLine
 10
25.11400513073816
 20
0.7216962562600056
 30
0.0
 11
25.18730375448343
 21
0.7086254388994946
 31
0.0
  0
LINE
  5
1FB
330
1F
100
AcDbEntity
  8
0
  6
Continuous
 62
     7
370
     0
100
AcDbLine
 10
25.18730375448343
 20
0.7086254388994946
 30
0.0
 11
25.25667358630223
 21
0.6938118272086797
 31
0.0
  0
LINE
  5
1FC
330
1F
100
AcDbEntity
  8
0
  6
Continuous
 62
     7
370
     0
100
AcDbLine
 10
25.25667358630223
 20
0.6938118272086797
 30
0.0
 11
25.32211462179299
 21
0.6772554167859876
 31
0.0
  0
LINE
  5
1FD
330
1F
100
AcDbEntity
  8
0
  6
Continuous
 62
     7
370
     0
100
AcDbLine
 10
25.32211462179299
 20
0.6772554167859876
 30
0.0
 11
25.38362685655416
 21
0.6589562032298448
 31
0.0
  0
LINE
  5
1FE
330
1F
100
AcDbEntity
  8
0
  6
Continuous
 62
     7
370
     0
100
AcDbLine
 10
25.38362685655416
 20
0.6589562032298448
 30
0.0
 11
25.44121028618415
 21
0.6389141821386771
 31
0.0
  0
LINE
  5
1FF
330
1F
100
AcDbEntity
  8
0
  6
Continuous
 62
     7
370
     0
100
AcDbLine
 10
25.44121028618415
 20
0.6389141821386771
 30
0.0
 11
25.49486490628138
 21
0.6171293491109106
 31
0.0
  0
LINE
  5
200
330
1F
100
AcDbEntity
  8
0
  6
Continuous
 62
     7
370
     0
100
AcDbLine
 10
25.49486490628138
 20
0.6171293491109106
 30
0.0
 11
25.54459071244429
 21
0.5936016997449719
 31
0.0
  0
LINE
  5
201
330
1F
100
AcDbEntity
  8
0
  6
Continuous
 62
     7
370
     0
100
AcDbLine
 10
25.54459071244429
 20
0.5936016997449719
 30
0.0
 11
25.59038770027129
 21
0.5683312296392872
 31
0.0
  0
LINE
  5
202
330
1F
100
AcDbEntity
  8
0
  6
Continuous
 62
     7
370
     0
100
AcDbLine
 10
25.59038770027129
 20
0.5683312296392872
 30
0.0
 11
25.63225586536083
 21
0.5413179343922825
 31
0.0
  0
LINE
  5
203
330
1F
100
AcDbEntity
  8
0
  6
Continuous
 62
     7
370
     0
100
AcDbLine
 10
25.63225586536083
 20
0.5413179343922825
 30
0.0
 11
25.67019520331131
 21
0.5125618096023843
 31
0.0
  0
LINE
  5
204
330
1F
100
AcDbEntity
  8
0
  6
Continuous
 62
     7
370
     0
100
AcDbLine
 10
25.67019520331131
 20
0.5125618096023843
 30
0.0
 11
25.70420570972117
 21
0.4820628508680185
 31
0.0
  0
LINE
  5
205
330
1F
100
AcDbEntity
  8
0
  6
Continuous
 62
     7
370
     0
100
AcDbLine
 10
25.70420570972117
 20
0.4820628508680185
 30
0.0
 11
25.73428738018885
 21
0.4498210537876117
 31
0.0
  0
LINE
  5
206
330
1F
100
AcDbEntity
  8
0
  6
Continuous
 62
     7
370
     0
100
AcDbLine
 10
25.73428738018885
 20
0.4498210537876117
 30
0.0
 11
25.76044021031275
 21
0.4158364139595899
 31
0.0
  0
LINE
  5
207
330
1F
100
AcDbEntity
  8
0
  6
Continuous
 62
     7
370
     0
100
AcDbLine
 10
25.76044021031275
 20
0.4158364139595901
 30
0.0
 11
25.78322055498239
 21
0.3794858853159087
 31
0.0
  0
LINE
  5
208
330
1F
100
AcDbEntity
  8
0
  6
Continuous
 62
     7
370
     0
100
AcDbLine
 10
25.78322055498239
 20
0.3794858853159087
 30
0.0
 11
25.80318389023969
 21
0.3401455458753429
 31
0.0
  0
LINE
  5
209
330
1F
100
AcDbEntity
  8
0
  6
Continuous
 62
     7
370
     0
100
AcDbLine
 10
25.80318389023969
 20
0.3401455458753429
 30
0.0
 11
25.8203302138839
 21
0.2978153978386796
 31
0.0
  0
LINE
  5
20A
330
1F
100
AcDbEntity
  8
0
  6
Continuous
 62
     7
370
     0
100
AcDbLine
 10
25.8203302138839
 20
0.2978153978386796
 30
0.0
 11
25.8346595237142
 21
0.2524954434067057
 31
0.0
  0
LINE
  5
20B
330
1F
100
AcDbEntity
  8
0
  6
Continuous
 62
     7
370
     0
100
AcDbLine
 10
25.8346595237142
 20
0.2524954434067057
 30
0.0
 11
25.84617181752981
 21
0.2041856847802079
 31
0.0
  0
LINE
  5
20C
330
1F
100
AcDbEntity
  8
0
  6
Continuous
 62
     7
370
     0
100
AcDbLine
 10
25.84617181752981
 20
0.2041856847802079
 30
0.0
 11
25.85486709312994
 21
0.1528861241599733
 31
0.0
  0
LINE
  5
20D
330
1F
100
AcDbEntity
  8
0
  6
Continuous
 62
     7
370
     0
100
AcDbLine
 10
25.85486709312994
 20
0.1528861241599733
 30
0.0
 11
25.86074534831382
 21
0.0985967637467889
 31
0.0
  0
LINE
  5
20E
330
1F
100
AcDbEntity
  8
0
  6
Continuous
 62
     7
370
     0
100
AcDbLine
 10
25.86074534831382
 20
0.0985967637467889
 30
0.0
 11
25.86380658088066
 21
0.0413176057414413
 31
0.0
  0
LINE
  5
20F
330
1F
100
AcDbEntity
  8
0
  6
Continuous
 62
     7
370
     0
100
AcDbLine
 10
25.86380658088066
 20
0.0413176057414413
 30
0.0
 11
25.86405078862966
 21
-0.0189513476552825
 31
0.0
  0
LINE
  5
210
330
1F
100
AcDbEntity
  8
0
  6
Continuous
 62
     7
370
     0
100
AcDbLine
 10
25.86405078862966
 20
-0.0189513476552825
 30
0.0
 11
25.86147796936003
 21
-0.0822100942425957
 31
0.0
  0
LINE
  5
211
330
1F
100
AcDbEntity
  8
0
  6
Continuous
 62
     7
370
     0
100
AcDbLine
 10
25.86147796936003
 20
-0.0822100942425957
 30
0.0
 11
25.85608812087101
 21
-0.1484586318197112
 31
0.0
  0
LINE
  5
212
330
1F
100
AcDbEntity
  8
0
  6
Continuous
 62
     7
370
     0
100
AcDbLine
 10
25.85608812087101
 20
-0.1484586318197112
 30
0.0
 11
25.84788124096179
 21
-0.2176969581858424
 31
0.0
  0
LINE
  5
213
330
1F
100
AcDbEntity
  8
0
  6
Continuous
 62
     7
370
     0
100
AcDbLine
 10
25.84788124096179
 20
-0.2176969581858424
 30
0.0
 11
25.83685732743158
 21
-0.2899250711402023
 31
0.0
  0
LINE
  5
214
330
1F
100
AcDbEntity
  8
0
  6
Continuous
 62
     7
370
     0
100
AcDbLine
 10
25.83685732743158
 20
-0.2899250711402023
 30
0.0
 11
25.82301637807961
 21
-0.3651429684820039
 31
0.0
  0
LINE
  5
215
330
1F
100
AcDbEntity
  8
0
  6
Continuous
 62
     7
370
     0
100
AcDbLine
 10
25.82301637807961
 20
-0.3651429684820039
 30
0.0
 11
25.80635839070509
 21
-0.4433506480104605
 31
0.0
  0
LINE
  5
216
330
1F
100
AcDbEntity
  8
0
  6
Continuous
 62
     7
370
     0
100
AcDbLine
 10
25.80635839070509
 20
-0.4433506480104605
 30
0.0
 11
25.78688336310722
 21
-0.524548107524785
 31
0.0
  0
LINE
  5
217
330
1F
100
AcDbEntity
  8
0
  6
Continuous
 62
     7
370
     0
100
AcDbLine
 10
25.78688336310722
 20
-0.524548107524785
 30
0.0
 11
25.76459129308523
 21
-0.6087353448241908
 31
0.0
  0
LINE
  5
218
330
1F
100
AcDbEntity
  8
0
  6
Continuous
 62
     7
370
     0
100
AcDbLine
 10
25.76459129308523
 20
-0.6087353448241908
 30
0.0
 11
25.73948217843831
 21
-0.6959123577078906
 31
0.0
  0
LINE
  5
219
330
1F
100
AcDbEntity
  8
0
  6
Continuous
 62
     7
370
     0
100
AcDbLine
 10
25.73948217843831
 20
-0.6959123577078906
 30
0.0
 11
25.7115560169657
 21
-0.786079143975098
 31
0.0
  0
LINE
  5
21A
330
1F
100
AcDbEntity
  8
0
  6
Continuous
 62
     7
370
     0
100
AcDbLine
 10
25.7115560169657
 20
-0.786079143975098
 30
0.0
 11
25.68081280646659
 21
-0.8792357014250256
 31
0.0
  0
LINE
  5
21B
330
1F
100
AcDbEntity
  8
0
  6
Continuous
 62
     7
370
     0
100
AcDbLine
 10
25.68081280646659
 20
-0.8792357014250252
 30
0.0
 11
25.36530799877429
 21
-1.807721278348102
 31
0.0
  0
LINE
  5
21C
330
1F
100
AcDbEntity
  8
0
  6
Continuous
 62
     7
370
     0
100
AcDbLine
 10
25.36530799877429
 20
-1.807721278348102
 30
0.0
 11
25.33246545766652
 21
-1.901764247098102
 31
0.0
  0
LINE
  5
21D
330
1F
100
AcDbEntity
  8
0
  6
Continuous
 62
     7
370
     0
100
AcDbLine
 10
25.33246545766652
 20
-1.901764247098102
 30
0.0
 11
25.29884167902989
 21
-1.992787384117333
 31
0.0
  0
LINE
  5
21E
330
1F
100
AcDbEntity
  8
0
  6
Continuous
 62
     7
370
     0
100
AcDbLine
 10
25.29884167902989
 20
-1.992787384117333
 30
0.0
 11
25.26443666066358
 21
-2.080790689405795
 31
0.0
  0
LINE
  5
21F
330
1F
100
AcDbEntity
  8
0
  6
Continuous
 62
     7
370
     0
100
AcDbLine
 10
25.26443666066358
 20
-2.080790689405795
 30
0.0
 11
25.22925040036685
 21
-2.165774162963487
 31
0.0
  0
LINE
  5
220
330
1F
100
AcDbEntity
  8
0
  6
Continuous
 62
     7
370
     0
100
AcDbLine
 10
25.22925040036685
 20
-2.165774162963487
 30
0.0
 11
25.19328289593885
 21
-2.247737804790409
 31
0.0
  0
LINE
  5
221
330
1F
100
AcDbEntity
  8
0
  6
Continuous
 62
     7
370
     0
100
AcDbLine
 10
25.19328289593885
 20
-2.247737804790409
 30
0.0
 11
25.15653414517885
 21
-2.326681614886564
 31
0.0
  0
LINE
  5
222
330
1F
100
AcDbEntity
  8
0
  6
Continuous
 62
     7
370
     0
100
AcDbLine
 10
25.15653414517885
 20
-2.326681614886564
 30
0.0
 11
25.11900414588603
 21
-2.402605593251948
 31
0.0
  0
LINE
  5
223
330
1F
100
AcDbEntity
  8
0
  6
Continuous
 62
     7
370
     0
100
AcDbLine
 10
25.11900414588603
 20
-2.402605593251948
 30
0.0
 11
25.08069289585963
 21
-2.475509739886565
 31
0.0
  0
LINE
  5
224
330
1F
100
AcDbEntity
  8
0
  6
Continuous
 62
     7
370
     0
100
AcDbLine
 10
25.08069289585963
 20
-2.475509739886565
 30
0.0
 11
25.04160039289883
 21
-2.54539405479041
 31
0.0
  0
LINE
  5
225
330
1F
100
AcDbEntity
  8
0
  6
Continuous
 62
     7
370
     0
100
AcDbLine
 10
25.04160039289883
 20
-2.54539405479041
 30
0.0
 11
25.00172663480287
 21
-2.612258537963486
 31
0.0
  0
LINE
  5
226
330
1F
100
AcDbEntity
  8
0
  6
Continuous
 62
     7
370
     0
100
AcDbLine
 10
25.00172663480287
 20
-2.612258537963486
 30
0.0
 11
24.96107161937095
 21
-2.676103189405794
 31
0.0
  0
LINE
  5
227
330
1F
100
AcDbEntity
  8
0
  6
Continuous
 62
     7
370
     0
100
AcDbLine
 10
24.96107161937095
 20
-2.676103189405794
 30
0.0
 11
24.9196353444023
 21
-2.736928009117334
 31
0.0
  0
LINE
  5
228
330
1F
100
AcDbEntity
  8
0
  6
Continuous
 62
     7
370
     0
100
AcDbLine
 10
24.9196353444023
 20
-2.736928009117334
 30
0.0
 11
24.87741780769611
 21
-2.794732997098103
 31
0.0
  0
LINE
  5
229
330
1F
100
AcDbEntity
  8
0
  6
Continuous
 62
     7
370
     0
100
AcDbLine
 10
24.87741780769611
 20
-2.794732997098103
 30
0.0
 11
24.83441900705159
 21
-2.849518153348103
 31
0.0
  0
LINE
  5
22A
330
1F
100
AcDbEntity
  8
0
  6
Continuous
 62
     7
370
     0
100
AcDbLine
 10
24.83441900705159
 20
-2.849518153348103
 30
0.0
 11
24.79063894026799
 21
-2.901283477867333
 31
0.0
  0
LINE
  5
22B
330
1F
100
AcDbEntity
  8
0
  6
Continuous
 62
     7
370
     0
100
AcDbLine
 10
24.79063894026799
 20
-2.901283477867333
 30
0.0
 11
24.74607760514448
 21
-2.950028970655794
 31
0.0
  0
LINE
  5
22C
330
1F
100
AcDbEntity
  8
0
  6
Continuous
 62
     7
370
     0
100
AcDbLine
 10
24.74607760514448
 20
-2.950028970655794
 30
0.0
 11
24.7007349994803
 21
-2.995754631713488
 31
0.0
  0
LINE
  5
22D
330
1F
100
AcDbEntity
  8
0
  6
Continuous
 62
     7
370
     0
100
AcDbLine
 10
24.7007349994803
 20
-2.995754631713488
 30
0.0
 11
24.65461112107466
 21
-3.03846046104041
 31
0.0
  0
LINE
  5
22E
330
1F
100
AcDbEntity
  8
0
  6
Continuous
 62
     7
370
     0
100
AcDbLine
 10
24.65461112107466
 20
-3.03846046104041
 30
0.0
 11
24.60770596772677
 21
-3.078146458636564
 31
0.0
  0
LINE
  5
22F
330
1F
100
AcDbEntity
  8
0
  6
Continuous
 62
     7
370
     0
100
AcDbLine
 10
24.60770596772677
 20
-3.078146458636564
 30
0.0
 11
24.56001953723582
 21
-3.114812624501949
 31
0.0
  0
LINE
  5
230
330
1F
100
AcDbEntity
  8
0
  6
Continuous
 62
     7
370
     0
100
AcDbLine
 10
24.56001953723583
 20
-3.114812624501949
 30
0.0
 11
24.51057569148693
 21
-3.149089968251948
 31
0.0
  0
LINE
  5
231
330
1F
100
AcDbEntity
  8
0
  6
Continuous
 62
     7
370
     0
100
AcDbLine
 10
24.51057569148693
 20
-3.149089968251948
 30
0.0
 11
24.45839741645195
 21
-3.181609499501949
 31
0.0
  0
LINE
  5
232
330
1F
100
AcDbEntity
  8
0
  6
Continuous
 62
     7
370
     0
100
AcDbLine
 10
24.45839741645195
 20
-3.181609499501949
 30
0.0
 11
24.40348471653247
 21
-3.212371218251949
 31
0.0
  0
LINE
  5
233
330
1F
100
AcDbEntity
  8
0
  6
Continuous
 62
     7
370
     0
100
AcDbLine
 10
24.40348471653247
 20
-3.212371218251949
 30
0.0
 11
24.34583759613007
 21
-3.241375124501949
 31
0.0
  0
LINE
  5
234
330
1F
100
AcDbEntity
  8
0
  6
Continuous
 62
     7
370
     0
100
AcDbLine
 10
24.34583759613007
 20
-3.241375124501949
 30
0.0
 11
24.28545605964629
 21
-3.268621218251948
 31
0.0
  0
LINE
  5
235
330
1F
100
AcDbEntity
  8
0
  6
Continuous
 62
     7
370
     0
100
AcDbLine
 10
24.28545605964629
 20
-3.268621218251948
 30
0.0
 11
24.22234011148274
 21
-3.294109499501948
 31
0.0
  0
LINE
  5
236
330
1F
100
AcDbEntity
  8
0
  6
Continuous
 62
     7
370
     0
100
AcDbLine
 10
24.22234011148274
 20
-3.294109499501948
 30
0.0
 11
24.15648975604099
 21
-3.317839968251949
 31
0.0
  0
LINE
  5
237
330
1F
100
AcDbEntity
  8
0
  6
Continuous
 62
     7
370
     0
100
AcDbLine
 10
24.15648975604099
 20
-3.317839968251949
 30
0.0
 11
24.08790499772261
 21
-3.339812624501949
 31
0.0
  0
LINE
  5
238
330
1F
100
AcDbEntity
  8
0
  6
Continuous
 62
     7
370
     0
100
AcDbLine
 10
24.08790499772261
 20
-3.339812624501949
 30
0.0
 11
24.01658584092916
 21
-3.360027468251948
 31
0.0
  0
LINE
  5
239
330
1F
100
AcDbEntity
  8
0
  6
Continuous
 62
     7
370
     0
100
AcDbLine
 10
24.01658584092916
 20
-3.360027468251948
 30
0.0
 11
23.94253229006222
 21
-3.378484499501948
 31
0.0
  0
LINE
  5
23A
330
1F
100
AcDbEntity
  8
0
  6
Continuous
 62
     7
370
     0
100
AcDbLine
 10
23.94253229006222
 20
-3.378484499501948
 30
0.0
 11
23.86574434952338
 21
-3.395183718251948
 31
0.0
  0
LINE
  5
23B
330
1F
100
AcDbEntity
  8
0
  6
Continuous
 62
     7
370
     0
100
AcDbLine
 10
23.86574434952338
 20
-3.395183718251948
 30
0.0
 11
23.7862220237142
 21
-3.410125124501949
 31
0.0
  0
LINE
  5
23C
330
1F
100
AcDbEntity
  8
0
  6
Continuous
 62
     7
370
     0
100
AcDbLine
 10
23.7862220237142
 20
-3.410125124501949
 30
0.0
 11
23.70396531703624
 21
-3.423308718251949
 31
0.0
  0
LINE
  5
23D
330
1F
100
AcDbEntity
  8
0
  6
Continuous
 62
     7
370
     0
100
AcDbLine
 10
23.70396531703624
 20
-3.423308718251949
 30
0.0
 11
23.6189742338911
 21
-3.434734499501948
 31
0.0
  0
LINE
  5
23E
330
1F
100
AcDbEntity
  8
0
  6
Continuous
 62
     7
370
     0
100
AcDbLine
 10
23.6189742338911
 20
-3.434734499501948
 30
0.0
 11
23.53124877868034
 21
-3.444402468251949
 31
0.0
  0
LINE
  5
23F
330
1F
100
AcDbEntity
  8
0
  6
Continuous
 62
     7
370
     0
100
AcDbLine
 10
23.53124877868034
 20
-3.444402468251949
 30
0.0
 11
23.44078895580554
 21
-3.452312624501948
 31
0.0
  0
LINE
  5
240
330
1F
100
AcDbEntity
  8
0
  6
Continuous
 62
     7
370
     0
100
AcDbLine
 10
23.44078895580554
 20
-3.452312624501948
 30
0.0
 11
23.34759476966827
 21
-3.458464968251949
 31
0.0
  0
LINE
  5
241
330
1F
100
AcDbEntity
  8
0
  6
Continuous
 62
     7
370
     0
100
AcDbLine
 10
23.34759476966827
 20
-3.458464968251949
 30
0.0
 11
23.2516662246701
 21
-3.462859499501948
 31
0.0
  0
LINE
  5
242
330
1F
100
AcDbEntity
  8
0
  6
Continuous
 62
     7
370
     0
100
AcDbLine
 10
23.2516662246701
 20
-3.462859499501948
 30
0.0
 11
23.15300332521261
 21
-3.465496218251948
 31
0.0
  0
LINE
  5
243
330
1F
100
AcDbEntity
  8
0
  6
Continuous
 62
     7
370
     0
100
AcDbLine
 10
23.15300332521261
 20
-3.465496218251948
 30
0.0
 11
23.05160607569737
 21
-3.466375124501949
 31
0.0
  0
LINE
  5
244
330
1F
100
AcDbEntity
  8
0
  6
Continuous
 62
     7
370
     0
100
AcDbLine
 10
23.05160607569737
 20
-3.466375124501949
 30
0.0
 11
18.87792819108198
 21
-3.466375124501949
 31
0.0
  0
LINE
  5
245
330
1F
100
AcDbEntity
  8
0
  6
Continuous
 62
     7
370
     0
100
AcDbLine
 10
18.87792819108198
 20
-3.466375124501949
 30
0.0
 11
18.77594905278101
 21
-3.465496218251948
 31
0.0
  0
LINE
  5
246
330
1F
100
AcDbEntity
  8
0
  6
Continuous
 62
     7
370
     0
100
AcDbLine
 10
18.77594905278101
 20
-3.465496218251948
 30
0.0
 11
18.6779437433093
 21
-3.462859499501949
 31
0.0
  0
LINE
  5
247
330
1F
100
AcDbEntity
  8
0
  6
Continuous
 62
     7
370
     0
100
AcDbLine
 10
18.6779437433093
 20
-3.462859499501949
 30
0.0
 11
18.58391226266683
 21
-3.458464968251949
 31
0.0
  0
LINE
  5
248
330
1F
100
AcDbEntity
  8
0
  6
Continuous
 62
     7
370
     0
100
AcDbLine
 10
18.58391226266683
 20
-3.458464968251949
 30
0.0
 11
18.49385461085362
 21
-3.452312624501949
 31
0.0
  0
LINE
  5
249
330
1F
100
AcDbEntity
  8
0
  6
Continuous
 62
     7
370
     0
100
AcDbLine
 10
18.49385461085362
 20
-3.452312624501949
 30
0.0
 11
18.40777078786965
 21
-3.444402468251948
 31
0.0
  0
LINE
  5
24A
330
1F
100
AcDbEntity
  8
0
  6
Continuous
 62
     7
370
     0
100
AcDbLine
 10
18.40777078786965
 20
-3.444402468251948
 30
0.0
 11
18.32566079371494
 21
-3.434734499501948
 31
0.0
  0
LINE
  5
24B
330
1F
100
AcDbEntity
  8
0
  6
Continuous
 62
     7
370
     0
100
AcDbLine
 10
18.32566079371494
 20
-3.434734499501948
 30
0.0
 11
18.24752462838949
 21
-3.423308718251949
 31
0.0
  0
LINE
  5
24C
330
1F
100
AcDbEntity
  8
0
  6
Continuous
 62
     7
370
     0
100
AcDbLine
 10
18.24752462838949
 20
-3.423308718251949
 30
0.0
 11
18.17336229189328
 21
-3.410125124501949
 31
0.0
  0
LINE
  5
24D
330
1F
100
AcDbEntity
  8
0
  6
Continuous
 62
     7
370
     0
100
AcDbLine
 10
18.17336229189328
 20
-3.410125124501949
 30
0.0
 11
18.10317378422632
 21
-3.395183718251948
 31
0.0
  0
LINE
  5
24E
330
1F
100
AcDbEntity
  8
0
  6
Continuous
 62
     7
370
     0
100
AcDbLine
 10
18.10317378422632
 20
-3.395183718251948
 30
0.0
 11
18.03695910538862
 21
-3.378484499501948
 31
0.0
  0
LINE
  5
24F
330
1F
100
AcDbEntity
  8
0
  6
Continuous
 62
     7
370
     0
100
AcDbLine
 10
18.03695910538862
 20
-3.378484499501948
 30
0.0
 11
17.97471825538017
 21
-3.360027468251948
 31
0.0
  0
LINE
  5
250
330
1F
100
AcDbEntity
  8
0
  6
Continuous
 62
     7
370
     0
100
AcDbLine
 10
17.97471825538017
 20
-3.360027468251948
 30
0.0
 11
17.91645123420097
 21
-3.339812624501949
 31
0.0
  0
LINE
  5
251
330
1F
100
AcDbEntity
  8
0
  6
Continuous
 62
     7
370
     0
100
AcDbLine
 10
17.91645123420097
 20
-3.339812624501949
 30
0.0
 11
17.86215804185102
 21
-3.317839968251949
 31
0.0
  0
LINE
  5
252
330
1F
100
AcDbEntity
  8
0
  6
Continuous
 62
     7
370
     0
100
AcDbLine
 10
17.86215804185102
 20
-3.317839968251949
 30
0.0
 11
17.81183867833033
 21
-3.294109499501948
 31
0.0
  0
LINE
  5
253
330
1F
100
AcDbEntity
  8
0
  6
Continuous
 62
     7
370
     0
100
AcDbLine
 10
17.81183867833033
 20
-3.294109499501948
 30
0.0
 11
17.76549314363888
 21
-3.268621218251949
 31
0.0
  0
LINE
  5
254
330
1F
100
AcDbEntity
  8
0
  6
Continuous
 62
     7
370
     0
100
AcDbLine
 10
17.76549314363888
 20
-3.268621218251949
 30
0.0
 11
17.72312143777669
 21
-3.241375124501948
 31
0.0
  0
LINE
  5
255
330
1F
100
AcDbEntity
  8
0
  6
Continuous
 62
     7
370
     0
100
AcDbLine
 10
17.72312143777669
 20
-3.241375124501948
 30
0.0
 11
17.68472356074376
 21
-3.212371218251949
 31
0.0
  0
LINE
  5
256
330
1F
100
AcDbEntity
  8
0
  6
Continuous
 62
     7
370
     0
100
AcDbLine
 10
17.68472356074376
 20
-3.212371218251949
 30
0.0
 11
17.65029951254006
 21
-3.181609499501948
 31
0.0
  0
LINE
  5
257
330
1F
100
AcDbEntity
  8
0
  6
Continuous
 62
     7
370
     0
100
AcDbLine
 10
17.65029951254006
 20
-3.181609499501948
 30
0.0
 11
17.61984929316563
 21
-3.149089968251948
 31
0.0
  0
LINE
  5
258
330
1F
100
AcDbEntity
  8
0
  6
Continuous
 62
     7
370
     0
100
AcDbLine
 10
17.61984929316563
 20
-3.149089968251948
 30
0.0
 11
17.59337290262044
 21
-3.114812624501949
 31
0.0
  0
LINE
  5
259
330
1F
100
AcDbEntity
  8
0
  6
Continuous
 62
     7
370
     0
100
AcDbLine
 10
17.59337290262044
 20
-3.114812624501949
 30
0.0
 11
17.57030737998638
 21
-3.078146458636563
 31
0.0
  0
LINE
  5
25A
330
1F
100
AcDbEntity
  8
0
  6
Continuous
 62
     7
370
     0
100
AcDbLine
 10
17.57030737998638
 20
-3.078146458636563
 30
0.0
 11
17.55008888549774
 21
-3.03846046104041
 31
0.0
  0
LINE
  5
25B
330
1F
100
AcDbEntity
  8
0
  6
Continuous
 62
     7
370
     0
100
AcDbLine
 10
17.55008888549774
 20
-3.03846046104041
 30
0.0
 11
17.5327174213553
 21
-2.995754631713487
 31
0.0
  0
LINE
  5
25C
330
1F
100
AcDbEntity
  8
0
  6
Continuous
 62
     7
370
     0
100
AcDbLine
 10
17.5327174213553
 20
-2.995754631713487
 30
0.0
 11
17.51819298975987
 21
-2.950028970655795
 31
0.0
  0
LINE
  5
25D
330
1F
100
AcDbEntity
  8
0
  6
Continuous
 62
     7
370
     0
100
AcDbLine
 10
17.51819298975987
 20
-2.950028970655795
 30
0.0
 11
17.50651559291221
 21
-2.901283477867333
 31
0.0
  0
LINE
  5
25E
330
1F
100
AcDbEntity
  8
0
  6
Continuous
 62
     7
370
     0
100
AcDbLine
 10
17.50651559291221
 20
-2.901283477867333
 30
0.0
 11
17.49768523301313
 21
-2.849518153348102
 31
0.0
  0
LINE
  5
25F
330
1F
100
AcDbEntity
  8
0
  6
Continuous
 62
     7
370
     0
100
AcDbLine
 10
17.49768523301313
 20
-2.849518153348102
 30
0.0
 11
17.49170191226341
 21
-2.794732997098102
 31
0.0
  0
LINE
  5
260
330
1F
100
AcDbEntity
  8
0
  6
Continuous
 62
     7
370
     0
100
AcDbLine
 10
17.49170191226341
 20
-2.794732997098102
 30
0.0
 11
17.48856563286384
 21
-2.736928009117334
 31
0.0
  0
LINE
  5
261
330
1F
100
AcDbEntity
  8
0
  6
Continuous
 62
     7
370
     0
100
AcDbLine
 10
17.48856563286384
 20
-2.736928009117334
 30
0.0
 11
17.48827639701518
 21
-2.676103189405795
 31
0.0
  0
LINE
  5
262
330
1F
100
AcDbEntity
  8
0
  6
Continuous
 62
     7
370
     0
100
AcDbLine
 10
17.48827639701518
 20
-2.676103189405795
 30
0.0
 11
17.49083420691825
 21
-2.612258537963486
 31
0.0
  0
LINE
  5
263
330
1F
100
AcDbEntity
  8
0
  6
Continuous
 62
     7
370
     0
100
AcDbLine
 10
17.49083420691825
 20
-2.612258537963486
 30
0.0
 11
17.49623906477383
 21
-2.54539405479041
 31
0.0
  0
LINE
  5
264
330
1F
100
AcDbEntity
  8
0
  6
Continuous
 62
     7
370
     0
100
AcDbLine
 10
17.49623906477383
 20
-2.54539405479041
 30
0.0
 11
17.5044909727827
 21
-2.475509739886564
 31
0.0
  0
LINE
  5
265
330
1F
100
AcDbEntity
  8
0
  6
Continuous
 62
     7
370
     0
100
AcDbLine
 10
17.5044909727827
 20
-2.475509739886564
 30
0.0
 11
17.51558993314565
 21
-2.402605593251948
 31
0.0
  0
LINE
  5
266
330
1F
100
AcDbEntity
  8
0
  6
Continuous
 62
     7
370
     0
100
AcDbLine
 10
17.51558993314565
 20
-2.402605593251948
 30
0.0
 11
17.52953594806346
 21
-2.326681614886564
 31
0.0
  0
LINE
  5
267
330
1F
100
AcDbEntity
  8
0
  6
Continuous
 62
     7
370
     0
100
AcDbLine
 10
17.52953594806346
 20
-2.326681614886564
 30
0.0
 11
17.54632901973693
 21
-2.24773780479041
 31
0.0
  0
LINE
  5
268
330
1F
100
AcDbEntity
  8
0
  6
Continuous
 62
     7
370
     0
100
AcDbLine
 10
17.54632901973693
 20
-2.24773780479041
 30
0.0
 11
17.56596915036684
 21
-2.165774162963487
 31
0.0
  0
LINE
  5
269
330
1F
100
AcDbEntity
  8
0
  6
Continuous
 62
     7
370
     0
100
AcDbLine
 10
17.56596915036684
 20
-2.165774162963487
 30
0.0
 11
17.58845634215397
 21
-2.080790689405794
 31
0.0
  0
LINE
  5
26A
330
1F
100
AcDbEntity
  8
0
  6
Continuous
 62
     7
370
     0
100
AcDbLine
 10
17.58845634215397
 20
-2.080790689405794
 30
0.0
 11
17.61379059729911
 21
-1.992787384117332
 31
0.0
  0
LINE
  5
26B
330
1F
100
AcDbEntity
  8
0
  6
Continuous
 62
     7
370
     0
100
AcDbLine
 10
17.61379059729911
 20
-1.992787384117332
 30
0.0
 11
17.64197191800306
 21
-1.901764247098101
 31
0.0
  0
LINE
  5
26C
330
1F
100
AcDbEntity
  8
0
  6
Continuous
 62
     7
370
     0
100
AcDbLine
 10
17.64197191800306
 20
-1.901764247098101
 30
0.0
 11
17.67300030646659
 21
-1.807721278348102
 31
0.0
  0
LINE
  5
26D
330
1F
100
AcDbEntity
  8
0
  6
Continuous
 62
     7
370
     0
100
AcDbLine
 10
17.67300030646659
 20
-1.807721278348102
 30
0.0
 11
17.73309646031275
 21
-1.627432816809641
 31
0.0
  0
LINE
  5
26E
330
1F
100
AcDbEntity
  8
0
  6
Continuous
 62
     7
370
     0
100
AcDbLine
 10
17.73309646031275
 20
-1.627432816809641
 30
0.0
 11
19.17239934492813
 21
-1.350990509117333
 31
0.0
  0
LINE
  5
26F
330
1F
100
AcDbEntity
  8
0
  6
Continuous
 62
     7
370
     0
100
AcDbLine
 10
19.17239934492813
 20
-1.350990509117333
 30
0.0
 11
18.91098107569737
 21
-2.120221278348102
 31
0.0
  0
LINE
  5
270
330
1F
100
AcDbEntity
  8
0
  6
Continuous
 62
     7
370
     0
100
AcDbLine
 10
18.91098107569737
 20
-2.120221278348102
 30
0.0
 11
23.91098107569737
 21
-2.120221278348102
 31
0.0
  0
LINE
  5
271
330
1F
100
AcDbEntity
  8
0
  6
Continuous
 62
     7
370
     0
100
AcDbLine
 10
23.91098107569737
 20
-2.120221278348102
 30
0.0
 11
24.43381761415891
 21
-0.5817597398865637
 31
0.0
  0
LINE
  5
272
330
1F
100
AcDbEntity
  8
0
  6
Continuous
 62
     7
370
     0
100
AcDbLine
 10
24.43381761415891
 20
-0.5817597398865637
 30
0.0
 11
20.11891376800506
 21
-0.5817597398865637
 31
0.0
  0
LINE
  5
273
330
1F
100
AcDbEntity
  8
0
  6
Continuous
 62
     7
370
     0
100
AcDbLine
 10
20.11891376800506
 20
-0.5817597398865637
 30
0.0
 11
20.02402972489839
 21
-0.580873307679016
 31
0.0
  0
LINE
  5
274
330
1F
100
AcDbEntity
  8
0
  6
Continuous
 62
     7
370
     0
100
AcDbLine
 10
20.02402972489839
 20
-0.580873307679016
 30
0.0
 11
19.9328866255537
 21
-0.5782140139907554
 31
0.0
  0
LINE
  5
275
330
1F
100
AcDbEntity
  8
0
  6
Continuous
 62
     7
370
     0
100
AcDbLine
 10
19.9328866255537
 20
-0.5782140139907554
 30
0.0
 11
19.84548447217176
 21
-0.5737818632233557
 31
0.0
  0
LINE
  5
276
330
1F
100
AcDbEntity
  8
0
  6
Continuous
 62
     7
370
     0
100
AcDbLine
 10
19.84548447217176
 20
-0.5737818632233557
 30
0.0
 11
19.76182326695338
 21
-0.5675768597783908
 31
0.0
  0
LINE
  5
277
330
1F
100
AcDbEntity
  8
0
  6
Continuous
 62
     7
370
     0
100
AcDbLine
 10
19.76182326695338
 20
-0.5675768597783908
 30
0.0
 11
19.68190301209932
 21
-0.559599008057434
 31
0.0
  0
LINE
  5
278
330
1F
100
AcDbEntity
  8
0
  6
Continuous
 62
     7
370
     0
100
AcDbLine
 10
19.68190301209932
 20
-0.559599008057434
 30
0.0
 11
19.60572370981038
 21
-0.5498483124620595
 31
0.0
  0
LINE
  5
279
330
1F
100
AcDbEntity
  8
0
  6
Continuous
 62
     7
370
     0
100
AcDbLine
 10
19.60572370981038
 20
-0.5498483124620595
 30
0.0
 11
19.53328536228736
 21
-0.5383247773938409
 31
0.0
  0
LINE
  5
27A
330
1F
100
AcDbEntity
  8
0
  6
Continuous
 62
     7
370
     0
100
AcDbLine
 10
19.53328536228736
 20
-0.5383247773938409
 30
0.0
 11
19.46458797173102
 21
-0.5250284072543524
 31
0.0
  0
LINE
  5
27B
330
1F
100
AcDbEntity
  8
0
  6
Continuous
 62
     7
370
     0
100
AcDbLine
 10
19.46458797173102
 20
-0.5250284072543524
 30
0.0
 11
19.39963154034216
 21
-0.5099592064451669
 31
0.0
  0
LINE
  5
27C
330
1F
100
AcDbEntity
  8
0
  6
Continuous
 62
     7
370
     0
100
AcDbLine
 10
19.39963154034216
 20
-0.5099592064451669
 30
0.0
 11
19.33841607032157
 21
-0.4931171793678588
 31
0.0
  0
LINE
  5
27D
330
1F
100
AcDbEntity
  8
0
  6
Continuous
 62
     7
370
     0
100
AcDbLine
 10
19.33841607032157
 20
-0.4931171793678588
 30
0.0
 11
19.28094156387004
 21
-0.4745023304240018
 31
0.0
  0
LINE
  5
27E
330
1F
100
AcDbEntity
  8
0
  6
Continuous
 62
     7
370
     0
100
AcDbLine
 10
19.28094156387004
 20
-0.4745023304240018
 30
0.0
 11
19.22720802318836
 21
-0.4541146640151695
 31
0.0
  0
LINE
  5
27F
330
1F
100
AcDbEntity
  8
0
  6
Continuous
 62
     7
370
     0
100
AcDbLine
 10
19.22720802318836
 20
-0.4541146640151695
 30
0.0
 11
19.17721545047728
 21
-0.4319541845429357
 31
0.0
  0
LINE
  5
280
330
1F
100
AcDbEntity
  8
0
  6
Continuous
 62
     7
370
     0
100
AcDbLine
 10
19.17721545047728
 20
-0.4319541845429357
 30
0.0
 11
19.13096384793764
 21
-0.4080208964088742
 31
0.0
  0
LINE
  5
281
330
1F
100
AcDbEntity
  8
0
  6
Continuous
 62
     7
370
     0
100
AcDbLine
 10
19.13096384793764
 20
-0.4080208964088742
 30
0.0
 11
19.08845321777019
 21
-0.382314804014559
 31
0.0
  0
LINE
  5
282
330
1F
100
AcDbEntity
  8
0
  6
Continuous
 62
     7
370
     0
100
AcDbLine
 10
19.08845321777019
 20
-0.382314804014559
 30
0.0
 11
19.04968356217573
 21
-0.3548359117615635
 31
0.0
  0
LINE
  5
283
330
1F
100
AcDbEntity
  8
0
  6
Continuous
 62
     7
370
     0
100
AcDbLine
 10
19.04968356217573
 20
-0.3548359117615635
 30
0.0
 11
19.01465488335505
 21
-0.3255842240514616
 31
0.0
  0
LINE
  5
284
330
1F
100
AcDbEntity
  8
0
  6
Continuous
 62
     7
370
     0
100
AcDbLine
 10
19.01465488335505
 20
-0.3255842240514616
 30
0.0
 11
18.98336718350892
 21
-0.2945597452858271
 31
0.0
  0
LINE
  5
285
330
1F
100
AcDbEntity
  8
0
  6
Continuous
 62
     7
370
     0
100
AcDbLine
 10
18.98336718350892
 20
-0.2945597452858271
 30
0.0
 11
18.95582046483815
 21
-0.2617624798662338
 31
0.0
  0
LINE
  5
286
330
1F
100
AcDbEntity
  8
0
  6
Continuous
 62
     7
370
     0
100
AcDbLine
 10
18.95582046483815
 20
-0.2617624798662338
 30
0.0
 11
18.93201472954352
 21
-0.2271924321942554
 31
0.0
  0
LINE
  5
287
330
1F
100
AcDbEntity
  8
0
  6
Continuous
 62
     7
370
     0
100
AcDbLine
 10
18.93201472954352
 20
-0.2271924321942556
 30
0.0
 11
18.91144709965601
 21
-0.1902181341572402
 31
0.0
  0
LINE
  5
288
330
1F
100
AcDbEntity
  8
0
  6
Continuous
 62
     7
370
     0
100
AcDbLine
 10
18.91144709965601
 20
-0.1902181341572402
 30
0.0
 11
18.89361381542468
 21
-0.1502089950229066
 31
0.0
  0
LINE
  5
289
330
1F
100
AcDbEntity
  8
0
  6
Continuous
 62
     7
370
     0
100
AcDbLine
 10
18.89361381542468
 20
-0.1502089950229066
 30
0.0
 11
18.87851487684952
 21
-0.1071650147912547
 31
0.0
  0
LINE
  5
28A
330
1F
100
AcDbEntity
  8
0
  6
Continuous
 62
     7
370
     0
100
AcDbLine
 10
18.87851487684952
 20
-0.1071650147912547
 30
0.0
 11
18.86615028393054
 21
-0.0610861934622847
 31
0.0
  0
LINE
  5
28B
330
1F
100
AcDbEntity
  8
0
  6
Continuous
 62
     7
370
     0
100
AcDbLine
 10
18.86615028393054
 20
-0.0610861934622847
 30
0.0
 11
18.85652003666773
 21
-0.0119725310359965
 31
0.0
  0
LINE
  5
28C
330
1F
100
AcDbEntity
  8
0
  6
Continuous
 62
     7
370
     0
100
AcDbLine
 10
18.85652003666773
 20
-0.0119725310359965
 30
0.0
 11
18.8496241350611
 21
0.04017597248761
 31
0.0
  0
LINE
  5
28D
330
1F
100
AcDbEntity
  8
0
  6
Continuous
 62
     7
370
     0
100
AcDbLine
 10
18.8496241350611
 20
0.04017597248761
 30
0.0
 11
18.84546257911064
 21
0.0953593171085347
 31
0.0
  0
LINE
  5
28E
330
1F
100
AcDbEntity
  8
0
  6
Continuous
 62
     7
370
     0
100
AcDbLine
 10
18.84546257911064
 20
0.0953593171085347
 30
0.0
 11
18.84403536881636
 21
0.1535775028267776
 31
0.0
  0
LINE
  5
28F
330
1F
100
AcDbEntity
  8
0
  6
Continuous
 62
     7
370
     0
100
AcDbLine
 10
18.84403536881636
 20
0.1535775028267776
 30
0.0
 11
18.84534250417825
 21
0.2148305296423388
 31
0.0
  0
LINE
  5
290
330
1F
100
AcDbEntity
  8
0
  6
Continuous
 62
     7
370
     0
100
AcDbLine
 10
18.84534250417825
 20
0.2148305296423388
 30
0.0
 11
18.84938398519631
 21
0.2791183975552181
 31
0.0
  0
LINE
  5
291
330
1F
100
AcDbEntity
  8
0
  6
Continuous
 62
     7
370
     0
100
AcDbLine
 10
18.84938398519631
 20
0.2791183975552181
 30
0.0
 11
18.85615981187055
 21
0.3464411065654156
 31
0.0
  0
LINE
  5
292
330
1F
100
AcDbEntity
  8
0
  6
Continuous
 62
     7
370
     0
100
AcDbLine
 10
18.85615981187055
 20
0.3464411065654156
 30
0.0
 11
18.86566998420097
 21
0.4167986566729315
 31
0.0
  0
LINE
  5
293
330
1F
100
AcDbEntity
  8
0
  6
Continuous
 62
     7
370
     0
100
AcDbLine
 10
18.86566998420097
 20
0.4167986566729315
 30
0.0
 11
18.87791450218756
 21
0.4901910478777655
 31
0.0
  0
LINE
  5
294
330
1F
100
AcDbEntity
  8
0
  6
Continuous
 62
     7
370
     0
100
AcDbLine
 10
18.87791450218756
 20
0.4901910478777655
 30
0.0
 11
18.89289336583033
 21
0.5666182801799178
 31
0.0
  0
LINE
  5
295
330
1F
100
AcDbEntity
  8
0
  6
Continuous
 62
     7
370
     0
100
AcDbLine
 10
18.89289336583033
 20
0.5666182801799178
 30
0.0
 11
18.91060657512927
 21
0.6460803535793883
 31
0.0
  0
LINE
  5
296
330
1F
100
AcDbEntity
  8
0
  6
Continuous
 62
     7
370
     0
100
AcDbLine
 10
18.91060657512927
 20
0.6460803535793883
 30
0.0
 11
18.93105413008438
 21
0.7285772680761768
 31
0.0
  0
LINE
  5
297
330
1F
100
AcDbEntity
  8
0
  6
Continuous
 62
     7
370
     0
100
AcDbLine
 10
18.93105413008438
 20
0.7285772680761768
 30
0.0
 11
18.95423603069568
 21
0.8141090236702839
 31
0.0
  0
LINE
  5
298
330
1F
100
AcDbEntity
  8
0
  6
Continuous
 62
     7
370
     0
100
AcDbLine
 10
18.95423603069568
 20
0.8141090236702839
 30
0.0
 11
18.98015227696314
 21
0.9026756203617091
 31
0.0
  0
LINE
  5
299
330
1F
100
AcDbEntity
  8
0
  6
Continuous
 62
     7
370
     0
100
AcDbLine
 10
18.98015227696314
 20
0.9026756203617091
 30
0.0
 11
19.00880286888678
 21
0.9942770581504526
 31
0.0
  0
LINE
  5
29A
330
1F
100
AcDbEntity
  8
0
  6
Continuous
 62
     7
370
     0
100
AcDbLine
 10
19.00880286888678
 20
0.9942770581504526
 30
0.0
 11
19.04018780646659
 21
1.088913337036514
 31
0.0
  0
LINE
  5
29B
330
1F
100
AcDbEntity
  8
0
  6
Continuous
 62
     7
370
     0
100
AcDbLine
 10
19.04018780646659
 20
1.088913337036513
 30
0.0
 11
19.31062049877429
 21
1.885187375498051
 31
0.0
  0
LINE
  5
29C
330
1F
100
AcDbEntity
  8
0
  6
Continuous
 62
     7
370
     0
100
AcDbLine
 10
19.31062049877429
 20
1.885187375498051
 30
0.0
 11
19.34192697830169
 21
1.974204935796678
 31
0.0
  0
LINE
  5
29D
330
1F
100
AcDbEntity
  8
0
  6
Continuous
 62
     7
370
     0
100
AcDbLine
 10
19.34192697830169
 20
1.974204935796678
 30
0.0
 11
19.37394708498411
 21
2.060367901644574
 31
0.0
  0
LINE
  5
29E
330
1F
100
AcDbEntity
  8
0
  6
Continuous
 62
     7
370
     0
100
AcDbLine
 10
19.37394708498411
 20
2.060367901644574
 30
0.0
 11
19.40668081882152
 21
2.143676275242526
 31
0.0
  0
LINE
  5
29F
330
1F
100
AcDbEntity
  8
0
  6
Continuous
 62
     7
370
     0
100
AcDbLine
 10
19.40668081882152
 20
2.143676275242526
 30
0.0
 11
19.44012817981396
 21
2.224130058791321
 31
0.0
  0
LINE
  5
2A0
330
1F
100
AcDbEntity
  8
0
  6
Continuous
 62
     7
370
     0
100
AcDbLine
 10
19.44012817981396
 20
2.224130058791321
 30
0.0
 11
19.4742891679614
 21
2.301729254491746
 31
0.0
  0
LINE
  5
2A1
330
1F
100
AcDbEntity
  8
0
  6
Continuous
 62
     7
370
     0
100
AcDbLine
 10
19.4742891679614
 20
2.301729254491746
 30
0.0
 11
19.50916378326384
 21
2.376473864544589
 31
0.0
  0
LINE
  5
2A2
330
1F
100
AcDbEntity
  8
0
  6
Continuous
 62
     7
370
     0
100
AcDbLine
 10
19.50916378326384
 20
2.376473864544589
 30
0.0
 11
19.54475202572131
 21
2.448363891150635
 31
0.0
  0
LINE
  5
2A3
330
1F
100
AcDbEntity
  8
0
  6
Continuous
 62
     7
370
     0
100
AcDbLine
 10
19.54475202572131
 20
2.448363891150635
 30
0.0
 11
19.58105389533379
 21
2.517399336510672
 31
0.0
  0
LINE
  5
2A4
330
1F
100
AcDbEntity
  8
0
  6
Continuous
 62
     7
370
     0
100
AcDbLine
 10
19.58105389533379
 20
2.517399336510672
 30
0.0
 11
19.61806939210127
 21
2.583580202825486
 31
0.0
  0
LINE
  5
2A5
330
1F
100
AcDbEntity
  8
0
  6
Continuous
 62
     7
370
     0
100
AcDbLine
 10
19.61806939210127
 20
2.583580202825486
 30
0.0
 11
19.65579851602376
 21
2.646906492295865
 31
0.0
  0
LINE
  5
2A6
330
1F
100
AcDbEntity
  8
0
  6
Continuous
 62
     7
370
     0
100
AcDbLine
 10
19.65579851602376
 20
2.646906492295865
 30
0.0
 11
19.69424126710127
 21
2.707378207122596
 31
0.0
  0
LINE
  5
2A7
330
1F
100
AcDbEntity
  8
0
  6
Continuous
 62
     7
370
     0
100
AcDbLine
 10
19.69424126710127
 20
2.707378207122596
 30
0.0
 11
19.73339764533379
 21
2.764995349506465
 31
0.0
  0
LINE
  5
2A8
330
1F
100
AcDbEntity
  8
0
  6
Continuous
 62
     7
370
     0
100
AcDbLine
 10
19.73339764533379
 20
2.764995349506465
 30
0.0
 11
19.77326765072131
 21
2.819757921648259
 31
0.0
  0
LINE
  5
2A9
330
1F
100
AcDbEntity
  8
0
  6
Continuous
 62
     7
370
     0
100
AcDbLine
 10
19.77326765072131
 20
2.819757921648259
 30
0.0
 11
19.81385128326385
 21
2.871665925748765
 31
0.0
  0
LINE
  5
2AA
330
1F
100
AcDbEntity
  8
0
  6
Continuous
 62
     7
370
     0
100
AcDbLine
 10
19.81385128326385
 20
2.871665925748765
 30
0.0
 11
19.8551485429614
 21
2.920719364008771
 31
0.0
  0
LINE
  5
2AB
330
1F
100
AcDbEntity
  8
0
  6
Continuous
 62
     7
370
     0
100
AcDbLine
 10
19.8551485429614
 20
2.920719364008771
 30
0.0
 11
19.89715942981395
 21
2.966918238629061
 31
0.0
  0
LINE
  5
2AC
330
1F
100
AcDbEntity
  8
0
  6
Continuous
 62
     7
370
     0
100
AcDbLine
 10
19.89715942981395
 20
2.966918238629061
 30
0.0
 11
19.93988394382152
 21
3.010262551810425
 31
0.0
  0
LINE
  5
2AD
330
1F
100
AcDbEntity
  8
0
  6
Continuous
 62
     7
370
     0
100
AcDbLine
 10
19.93988394382152
 20
3.010262551810425
 30
0.0
 11
19.9833220849841
 21
3.050752305753648
 31
0.0
  0
LINE
  5
2AE
330
1F
100
AcDbEntity
  8
0
  6
Continuous
 62
     7
370
     0
100
AcDbLine
 10
19.9833220849841
 20
3.050752305753648
 30
0.0
 11
20.02747385330169
 21
3.088387502659518
 31
0.0
  0
LINE
  5
2AF
330
1F
100
AcDbEntity
  8
0
  6
Continuous
 62
     7
370
     0
100
AcDbLine
 10
20.02747385330169
 20
3.088387502659518
 30
0.0
 11
20.07233924877429
 21
3.123168144728822
 31
0.0
  0
LINE
  5
2B0
330
1F
100
AcDbEntity
  8
0
  6
Continuous
 62
     7
370
     0
100
AcDbLine
 10
20.07233924877429
 20
3.123168144728821
 30
0.0
 11
20.11885019460793
 21
3.155687675978821
 31
0.0
  0
LINE
  5
2B1
330
1F
100
AcDbEntity
  8
0
  6
Continuous
 62
     7
370
     0
100
AcDbLine
 10
20.11885019460793
 20
3.155687675978821
 30
0.0
 11
20.16793773369391
 21
3.18653953895959
 31
0.0
  0
LINE
  5
2B2
330
1F
100
AcDbEntity
  8
0
  6
Continuous
 62
     7
370
     0
100
AcDbLine
 10
20.16793773369391
 20
3.18653953895959
 30
0.0
 11
20.21960186603221
 21
3.215723733671128
 31
0.0
  0
LINE
  5
2B3
330
1F
100
AcDbEntity
  8
0
  6
Continuous
 62
     7
370
     0
100
AcDbLine
 10
20.21960186603221
 20
3.215723733671128
 30
0.0
 11
20.27384259162285
 21
3.243240260113437
 31
0.0
  0
LINE
  5
2B4
330
1F
100
AcDbEntity
  8
0
  6
Continuous
 62
     7
370
     0
100
AcDbLine
 10
20.27384259162285
 20
3.243240260113437
 30
0.0
 11
20.33065991046581
 21
3.269089118286513
 31
0.0
  0
LINE
  5
2B5
330
1F
100
AcDbEntity
  8
0
  6
Continuous
 62
     7
370
     0
100
AcDbLine
 10
20.33065991046581
 20
3.269089118286513
 30
0.0
 11
20.39005382256109
 21
3.293270308190358
 31
0.0
  0
LINE
  5
2B6
330
1F
100
AcDbEntity
  8
0
  6
Continuous
 62
     7
370
     0
100
AcDbLine
 10
20.39005382256109
 20
3.293270308190358
 30
0.0
 11
20.45202432790872
 21
3.315783829824974
 31
0.0
  0
LINE
  5
2B7
330
1F
100
AcDbEntity
  8
0
  6
Continuous
 62
     7
370
     0
100
AcDbLine
 10
20.45202432790872
 20
3.315783829824974
 30
0.0
 11
20.51657142650867
 21
3.33662968319036
 31
0.0
  0
LINE
  5
2B8
330
1F
100
AcDbEntity
  8
0
  6
Continuous
 62
     7
370
     0
100
AcDbLine
 10
20.51657142650867
 20
3.33662968319036
 30
0.0
 11
20.58369511836094
 21
3.355807868286512
 31
0.0
  0
LINE
  5
2B9
330
1F
100
AcDbEntity
  8
0
  6
Continuous
 62
     7
370
     0
100
AcDbLine
 10
20.58369511836094
 20
3.355807868286512
 30
0.0
 11
20.65339540346554
 21
3.373318385113435
 31
0.0
  0
LINE
  5
2BA
330
1F
100
AcDbEntity
  8
0
  6
Continuous
 62
     7
370
     0
100
AcDbLine
 10
20.65339540346554
 20
3.373318385113435
 30
0.0
 11
20.72567228182248
 21
3.389161233671128
 31
0.0
  0
LINE
  5
2BB
330
1F
100
AcDbEntity
  8
0
  6
Continuous
 62
     7
370
     0
100
AcDbLine
 10
20.72567228182248
 20
3.389161233671128
 30
0.0
 11
20.80052575343174
 21
3.403336413959591
 31
0.0
  0
LINE
  5
2BC
330
1F
100
AcDbEntity
  8
0
  6
Continuous
 62
     7
370
     0
100
AcDbLine
 10
20.80052575343174
 20
3.403336413959591
 30
0.0
 11
20.87795581829333
 21
3.41584392597882
 31
0.0
  0
LINE
  5
2BD
330
1F
100
AcDbEntity
  8
0
  6
Continuous
 62
     7
370
     0
100
AcDbLine
 10
20.87795581829333
 20
3.41584392597882
 30
0.0
 11
20.95796247640725
 21
3.426683769728821
 31
0.0
  0
LINE
  5
2BE
330
1F
100
AcDbEntity
  8
0
  6
Continuous
 62
     7
370
     0
100
AcDbLine
 10
20.95796247640725
 20
3.426683769728821
 30
0.0
 11
21.0405457277735
 21
3.43585594520959
 31
0.0
  0
LINE
  5
2BF
330
1F
100
AcDbEntity
  8
0
  6
Continuous
 62
     7
370
     0
100
AcDbLine
 10
21.0405457277735
 20
3.43585594520959
 30
0.0
 11
21.12570557239208
 21
3.443360452421128
 31
0.0
  0
LINE
  5
2C0
330
1F
100
AcDbEntity
  8
0
  6
Continuous
 62
     7
370
     0
100
AcDbLine
 10
21.12570557239208
 20
3.443360452421128
 30
0.0
 11
21.21344201026298
 21
3.449197291363436
 31
0.0
  0
LINE
  5
2C1
330
1F
100
AcDbEntity
  8
0
  6
Continuous
 62
     7
370
     0
100
AcDbLine
 10
21.21344201026298
 20
3.449197291363436
 30
0.0
 11
21.30375504138621
 21
3.453366462036513
 31
0.0
  0
LINE
  5
2C2
330
1F
100
AcDbEntity
  8
0
  6
Continuous
 62
     7
370
     0
100
AcDbLine
 10
21.30375504138621
 20
3.453366462036513
 30
0.0
 11
21.39664466576178
 21
3.455867964440359
 31
0.0
  0
LINE
  5
2C3
330
1F
100
AcDbEntity
  8
0
  6
Continuous
 62
     7
370
     0
100
AcDbLine
 10
21.39664466576178
 20
3.455867964440359
 30
0.0
 11
21.49211088338967
 21
3.456701798574974
 31
0.0
  0
LINE
  5
2C4
330
1F
100
AcDbEntity
  8
0
  6
Continuous
 62
     7
370
     0
100
AcDbLine
 10
21.49211088338967
 20
3.456701798574974
 30
0.0
 11
25.32624549877429
 21
3.456701798574974
 31
0.0
  0
LINE
  5
2C5
330
1F
100
AcDbEntity
  8
0
  6
Continuous
 62
     7
370
     0
100
AcDbLine
 10
25.32624549877429
 20
3.456701798574974
 30
0.0
 11
25.41738507906075
 21
3.455901768526897
 31
0.0
  0
LINE
  5
2C6
330
1F
100
AcDbEntity
  8
0
  6
Continuous
 62
     7
370
     0
100
AcDbLine
 10
25.41738507906075
 20
3.455901768526897
 30
0.0
 11
25.50510670306836
 21
3.453501678382667
 31
0.0
  0
LINE
  5
2C7
330
1F
100
AcDbEntity
  8
0
  6
Continuous
 62
     7
370
     0
100
AcDbLine
 10
25.50510670306836
 20
3.453501678382667
 30
0.0
 11
25.58941036859628
 21
3.449501528142283
 31
0.0
  0
LINE
  5
2C8
330
1F
100
AcDbEntity
  8
0
  6
Continuous
 62
     7
370
     0
100
AcDbLine
 10
25.58941036859628
 20
3.449501528142283
 30
0.0
 11
25.67029607344377
 21
3.443901317805745
 31
0.0
  0
LINE
  5
2C9
330
1F
100
AcDbEntity
  8
0
  6
Continuous
 62
     7
370
     0
100
AcDbLine
 10
25.67029607344377
 20
3.443901317805745
 30
0.0
 11
25.74776381541001
 21
3.436701047373051
 31
0.0
  0
LINE
  5
2CA
330
1F
100
AcDbEntity
  8
0
  6
Continuous
 62
     7
370
     0
100
AcDbLine
 10
25.74776381541001
 20
3.436701047373051
 30
0.0
 11
25.82181359229423
 21
3.427900716844205
 31
0.0
  0
LINE
  5
2CB
330
1F
100
AcDbEntity
  8
0
  6
Continuous
 62
     7
370
     0
100
AcDbLine
 10
25.82181359229423
 20
3.427900716844205
 30
0.0
 11
25.89244540189565
 21
3.417500326219205
 31
0.0
  0
LINE
  5
2CC
330
1F
100
AcDbEntity
  8
0
  6
Continuous
 62
     7
370
     0
100
AcDbLine
 10
25.89244540189565
 20
3.417500326219205
 30
0.0
 11
25.95965924201348
 21
3.405499875498052
 31
0.0
  0
LINE
  5
2CD
330
1F
100
AcDbEntity
  8
0
  6
Continuous
 62
     7
370
     0
100
AcDbLine
 10
25.95965924201348
 20
3.405499875498052
 30
0.0
 11
26.02345511044691
 21
3.391899364680744
 31
0.0
  0
LINE
  5
2CE
330
1F
100
AcDbEntity
  8
0
  6
Continuous
 62
     7
370
     0
100
AcDbLine
 10
26.02345511044691
 20
3.391899364680744
 30
0.0
 11
26.08383300499517
 21
3.376698793767281
 31
0.0
  0
LINE
  5
2CF
330
1F
100
AcDbEntity
  8
0
  6
Continuous
 62
     7
370
     0
100
AcDbLine
 10
26.08383300499517
 20
3.376698793767281
 30
0.0
 11
26.14079292345749
 21
3.359898162757667
 31
0.0
  0
LINE
  5
2D0
330
1F
100
AcDbEntity
  8
0
  6
Continuous
 62
     7
370
     0
100
AcDbLine
 10
26.14079292345749
 20
3.359898162757667
 30
0.0
 11
26.19433486363306
 21
3.341497471651898
 31
0.0
  0
LINE
  5
2D1
330
1F
100
AcDbEntity
  8
0
  6
Continuous
 62
     7
370
     0
100
AcDbLine
 10
26.19433486363306
 20
3.341497471651898
 30
0.0
 11
26.2444588233211
 21
3.321496720449975
 31
0.0
  0
LINE
  5
2D2
330
1F
100
AcDbEntity
  8
0
  6
Continuous
 62
     7
370
     0
100
AcDbLine
 10
26.2444588233211
 20
3.321496720449975
 30
0.0
 11
26.29116480032082
 21
3.299895909151897
 31
0.0
  0
LINE
  5
2D3
330
1F
100
AcDbEntity
  8
0
  6
Continuous
 62
     7
370
     0
100
AcDbLine
 10
26.29116480032082
 20
3.299895909151897
 30
0.0
 11
26.33445279243144
 21
3.276695037757667
 31
0.0
  0
LINE
  5
2D4
330
1F
100
AcDbEntity
  8
0
  6
Continuous
 62
     7
370
     0
100
AcDbLine
 10
26.33445279243144
 20
3.276695037757667
 30
0.0
 11
26.37432279745217
 21
3.251894106267282
 31
0.0
  0
LINE
  5
2D5
330
1F
100
AcDbEntity
  8
0
  6
Continuous
 62
     7
370
     0
100
AcDbLine
 10
26.37432279745217
 20
3.251894106267282
 30
0.0
 11
26.41077481318222
 21
3.225493114680744
 31
0.0
  0
LINE
  5
2D6
330
1F
100
AcDbEntity
  8
0
  6
Continuous
 62
     7
370
     0
100
AcDbLine
 10
26.41077481318222
 20
3.225493114680744
 30
0.0
 11
26.44380883742081
 21
3.197492062998052
 31
0.0
  0
LINE
  5
2D7
330
1F
100
AcDbEntity
  8
0
  6
Continuous
 62
     7
370
     0
100
AcDbLine
 10
26.44380883742081
 20
3.197492062998052
 30
0.0
 11
26.47342486796714
 21
3.167890951219206
 31
0.0
  0
LINE
  5
2D8
330
1F
100
AcDbEntity
  8
0
  6
Continuous
 62
     7
370
     0
100
AcDbLine
 10
26.47342486796714
 20
3.167890951219206
 30
0.0
 11
26.49962290262044
 21
3.136689779344206
 31
0.0
  0
LINE
  5
2D9
330
1F
100
AcDbEntity
  8
0
  6
Continuous
 62
     7
370
     0
100
AcDbLine
 10
26.49962290262044
 20
3.136689779344206
 30
0.0
 11
26.52280902874254
 21
3.103452857226825
 31
0.0
  0
LINE
  5
2DA
330
1F
100
AcDbEntity
  8
0
  6
Continuous
 62
     7
370
     0
100
AcDbLine
 10
26.52280902874254
 20
3.103452857226825
 30
0.0
 11
26.54338845484776
 21
3.067744493253649
 31
0.0
  0
LINE
  5
2DB
330
1F
100
AcDbEntity
  8
0
  6
Continuous
 62
     7
370
     0
100
AcDbLine
 10
26.54338845484776
 20
3.067744493253649
 30
0.0
 11
26.56136118093606
 21
3.029564685223887
 31
0.0
  0
LINE
  5
2DC
330
1F
100
AcDbEntity
  8
0
  6
Continuous
 62
     7
370
     0
100
AcDbLine
 10
26.56136118093606
 20
3.029564685223887
 30
0.0
 11
26.57672720700747
 21
2.988913430936755
 31
0.0
  0
LINE
  5
2DD
330
1F
100
AcDbEntity
  8
0
  6
Continuous
 62
     7
370
     0
100
AcDbLine
 10
26.57672720700747
 20
2.988913430936755
 30
0.0
 11
26.58948653306196
 21
2.945790728191464
 31
0.0
  0
LINE
  5
2DE
330
1F
100
AcDbEntity
  8
0
  6
Continuous
 62
     7
370
     0
100
AcDbLine
 10
26.58948653306196
 20
2.945790728191464
 30
0.0
 11
26.59963915909956
 21
2.900196574787226
 31
0.0
  0
LINE
  5
2DF
330
1F
100
AcDbEntity
  8
0
  6
Continuous
 62
     7
370
     0
100
AcDbLine
 10
26.59963915909956
 20
2.900196574787226
 30
0.0
 11
26.60718508512026
 21
2.85213096852326
 31
0.0
  0
LINE
  5
2E0
330
1F
100
AcDbEntity
  8
0
  6
Continuous
 62
     7
370
     0
100
AcDbLine
 10
26.60718508512026
 20
2.85213096852326
 30
0.0
 11
26.61212431112406
 21
2.801593907198773
 31
0.0
  0
LINE
  5
2E1
330
1F
100
AcDbEntity
  8
0
  6
Continuous
 62
     7
370
     0
100
AcDbLine
 10
26.61212431112406
 20
2.801593907198773
 30
0.0
 11
26.61445683711095
 21
2.748585388612981
 31
0.0
  0
LINE
  5
2E2
330
1F
100
AcDbEntity
  8
0
  6
Continuous
 62
     7
370
     0
100
AcDbLine
 10
26.61445683711095
 20
2.748585388612981
 30
0.0
 11
26.61418266308092
 21
2.693105410565096
 31
0.0
  0
LINE
  5
2E3
330
1F
100
AcDbEntity
  8
0
  6
Continuous
 62
     7
370
     0
100
AcDbLine
 10
26.61418266308092
 20
2.693105410565096
 30
0.0
 11
26.61130178903402
 21
2.635153970854333
 31
0.0
  0
LINE
  5
2E4
330
1F
100
AcDbEntity
  8
0
  6
Continuous
 62
     7
370
     0
100
AcDbLine
 10
26.61130178903402
 20
2.635153970854333
 30
0.0
 11
26.60581421497021
 21
2.574731067279903
 31
0.0
  0
LINE
  5
2E5
330
1F
100
AcDbEntity
  8
0
  6
Continuous
 62
     7
370
     0
100
AcDbLine
 10
26.60581421497021
 20
2.574731067279903
 30
0.0
 11
26.59771994088949
 21
2.511836697641019
 31
0.0
  0
LINE
  5
2E6
330
1F
100
AcDbEntity
  8
0
  6
Continuous
 62
     7
370
     0
100
AcDbLine
 10
26.59771994088949
 20
2.511836697641019
 30
0.0
 11
26.58701896679187
 21
2.446470859736896
 31
0.0
  0
LINE
  5
2E7
330
1F
100
AcDbEntity
  8
0
  6
Continuous
 62
     7
370
     0
100
AcDbLine
 10
26.58701896679187
 20
2.446470859736896
 30
0.0
 11
26.57371129267735
 21
2.378633551366746
 31
0.0
  0
LINE
  5
2E8
330
1F
100
AcDbEntity
  8
0
  6
Continuous
 62
     7
370
     0
100
AcDbLine
 10
26.57371129267735
 20
2.378633551366746
 30
0.0
 11
26.55779691854592
 21
2.308324770329782
 31
0.0
  0
LINE
  5
2E9
330
1F
100
AcDbEntity
  8
0
  6
Continuous
 62
     7
370
     0
100
AcDbLine
 10
26.55779691854592
 20
2.308324770329782
 30
0.0
 11
26.5392758443976
 21
2.235544514425218
 31
0.0
  0
LINE
  5
2EA
330
1F
100
AcDbEntity
  8
0
  6
Continuous
 62
     7
370
     0
100
AcDbLine
 10
26.5392758443976
 20
2.235544514425218
 30
0.0
 11
26.51814807023237
 21
2.160292781452266
 31
0.0
  0
LINE
  5
2EB
330
1F
100
AcDbEntity
  8
0
  6
Continuous
 62
     7
370
     0
100
AcDbLine
 10
26.51814807023237
 20
2.160292781452266
 30
0.0
 11
26.49441359605024
 21
2.082569569210139
 31
0.0
  0
LINE
  5
2EC
330
1F
100
AcDbEntity
  8
0
  6
Continuous
 62
     7
370
     0
100
AcDbLine
 10
26.49441359605024
 20
2.082569569210139
 30
0.0
 11
26.46807242185121
 21
2.002374875498051
 31
0.0
  0
LINE
  5
2ED
330
1F
100
AcDbEntity
  8
0
  6
Continuous
 62
     7
370
     0
100
AcDbLine
 10
26.46807242185121
 20
2.002374875498051
 30
0.0
 11
26.41999549877429
 21
1.86114891395959
 31
0.0
  0
LINE
  5
2EE
330
1F
100
AcDbEntity
  8
0
  6
Continuous
 62
     7
370
     0
100
AcDbLine
 10
26.41999549877429
 20
1.86114891395959
 30
0.0
 11
24.96266376800506
 21
1.533624875498051
 31
0.0
  0
LINE
  5
2EF
330
1F
100
AcDbEntity
  8
0
  6
Continuous
 62
     7
370
     0
100
AcDbLine
 10
24.96266376800506
 20
1.533624875498051
 30
0.0
 11
25.22408203723583
 21
2.302855644728821
 31
0.0
  0
ENDSEC
  0
SECTION
  2
OBJECTS
  0
DICTIONARY
  5
C
330
0
100
AcDbDictionary
281
     1
  3
ACAD_GROUP
350
D
  3
ACAD_LAYOUT
350
1A
  3
ACAD_MLINESTYLE
350
17
  3
ACAD_PLOTSETTINGS
350
19
  3
ACAD_PLOTSTYLENAME
350
E
  3
ACAD_TABLESTYLE
350
2F0
  3
ACAD_VISUALSTYLE
350
2A
  3
AcDbVariableDictionary
350
2F1
  0
DICTIONARY
  5
D
102
{ACAD_REACTORS
330
C
102
}
330
C
100
AcDbDictionary
281
     1
  0
DICTIONARY
  5
1A
102
{ACAD_REACTORS
330
C
102
}
330
C
100
AcDbDictionary
281
     1
  3
Layout1
350
1E
  3
Model
350
22
  0
DICTIONARY
  5
17
102
{ACAD_REACTORS
330
C
102
}
330
C
100
AcDbDictionary
281
     1
  3
Standard
350
18
  0
DICTIONARY
  5
19
102
{ACAD_REACTORS
330
C
102
}
330
C
100
AcDbDictionary
281
     1
  0
ACDBDICTIONARYWDFLT
  5
E
102
{ACAD_REACTORS
330
C
102
}
330
C
100
AcDbDictionary
281
     1
  3
Normal
350
F
100
AcDbDictionaryWithDefault
340
F
  0
DICTIONARY
  5
2F0
102
{ACAD_REACTORS
330
C
102
}
330
C
100
AcDbDictionary
281
     1
  0
DICTIONARY
  5
2A
102
{ACAD_REACTORS
330
C
102
}
330
C
100
AcDbDictionary
281
     1
  3
2dWireframe
350
2F
  3
3D Hidden
350
31
  3
3dWireframe
350
30
  3
Basic
350
32
  3
Brighten
350
36
  3
ColorChange
350
3A
  3
Conceptual
350
34
  3
Dim
350
35
  3
Facepattern
350
39
  3
Flat
350
2B
  3
FlatWithEdges
350
2C
  3
Gouraud
350
2D
  3
GouraudWithEdges
350
2E
  3
Linepattern
350
38
  3
Realistic
350
33
  3
Thicken
350
37
  0
DICTIONARY
  5
2F1
102
{ACAD_REACTORS
330
C
102
}
330
C
100
AcDbDictionary
281
     1
  3
PSOLHEIGHT
350
2F3
  3
PSOLWIDTH
350
2F2
  0
LAYOUT
  5
1E
102
{ACAD_REACTORS
330
1A
102
}
330
1A
100
AcDbPlotSettings
  1

  2
none_device
  4

  6

 40
0.0
 41
0.0
 42
0.0
 43
0.0
 44
0.0
 45
0.0
 46
0.0
 47
0.0
 48
0.0
 49
0.0
140
0.0
141
0.0
142
1.0
143
1.0
 70
   688
 72
     0
 73
     0
 74
     5
  7

 75
    16
147
1.0
148
0.0
149
0.0
100
AcDbLayout
  1
Layout1
 70
     1
 71
     1
 10
0.0
 20
0.0
 11
420.0
 21
297.0
 12
0.0
 22
0.0
 32
0.0
 14
1.000000000000000E+20
 24
1.000000000000000E+20
 34
1.000000000000000E+20
 15
-1.000000000000000E+20
 25
-1.000000000000000E+20
 35
-1.000000000000000E+20
146
0.0
 13
0.0
 23
0.0
 33
0.0
 16
1.0
 26
0.0
 36
0.0
 17
0.0
 27
1.0
 37
0.0
 76
     0
330
1B
  0
LAYOUT
  5
22
102
{ACAD_REACTORS
330
1A
102
}
330
1A
100
AcDbPlotSettings
  1

  2
none_device
  4

  6

 40
0.0
 41
0.0
 42
0.0
 43
0.0
 44
0.0
 45
0.0
 46
0.0
 47
0.0
 48
0.0
 49
0.0
140
0.0
141
0.0
142
1.0
143
1.0
 70
  1712
 72
     0
 73
     0
 74
     0
  7

 75
     0
147
1.0
148
0.0
149
0.0
100
AcDbLayout
  1
Model
 70
     1
 71
     0
 10
0.0
 20
0.0
 11
420.0
 21
297.0
 12
0.0
 22
0.0
 32
0.0
 14
1.000000000000000E+20
 24
1.000000000000000E+20
 34
1.000000000000000E+20
 15
-1.000000000000000E+20
 25
-1.000000000000000E+20
 35
-1.000000000000000E+20
146
0.0
 13
0.0
 23
0.0
 33
0.0
 16
1.0
 26
0.0
 36
0.0
 17
0.0
 27
1.0
 37
0.0
 76
     0
330
1F
331
29
  0
MLINESTYLE
  5
18
102
{ACAD_REACTORS
330
17
330
17
102
}
330
17
100
AcDbMlineStyle
  2
STANDARD
 70
     0
  3
STANDARD
 62
     0
 51
90.0
 52
90.0
 71
     2
 49
0.5
 62
   256
  6
BYLAYER
 49
-0.5
 62
   256
  6
BYLAYER
  0
ACDBPLACEHOLDER
  5
F
102
{ACAD_REACTORS
330
E
102
}
330
E
  0
VISUALSTYLE
  5
2F
102
{ACAD_REACTORS
330
2A
102
}
330
2A
100
AcDbVisualStyle
  2
2dWireframe
 70
     4
 71
     0
 72
     2
 73
     0
 90
        0
 40
-0.6
 41
-30.0
 62
     5
 63
     7
 74
     1
 91
        4
 64
     7
 65
   257
 75
     1
175
     1
 42
1.0
 92
        0
 66
   257
 43
1.0
 76
     1
 77
     6
 78
     2
 67
     7
 79
     5
170
     0
171
     0
290
     0
174
     0
 93
        1
 44
0.0
173
     0
291
     0
 45
0.0
1001
ACAD
1000
AcDbSavedByObjectVersion
1070
     0
  0
VISUALSTYLE
  5
31
102
{ACAD_REACTORS
330
2A
102
}
330
2A
100
AcDbVisualStyle
  2
3D Hidden
 70
     6
 71
     1
 72
     2
 73
     2
 90
        0
 40
-0.6
 41
-30.0
 62
     5
 63
     7
 74
     2
 91
        2
 64
     7
 65
   257
 75
     2
175
     1
 42
40.0
 92
        0
 66
   257
 43
1.0
 76
     1
 77
     6
 78
     2
 67
     7
 79
     3
170
     0
171
     0
290
     0
174
     0
 93
        1
 44
0.0
173
     0
291
     0
 45
0.0
1001
ACAD
1000
AcDbSavedByObjectVersion
1070
     0
  0
VISUALSTYLE
  5
30
102
{ACAD_REACTORS
330
2A
102
}
330
2A
100
AcDbVisualStyle
  2
3dWireframe
 70
     5
 71
     0
 72
     2
 73
     0
 90
        0
 40
-0.6
 41
-30.0
 62
     5
 63
     7
 74
     1
 91
        4
 64
     7
 65
   257
 75
     1
175
     1
 42
1.0
 92
        0
 66
   257
 43
1.0
 76
     1
 77
     6
 78
     2
 67
     7
 79
     5
170
     0
171
     0
290
     0
174
     0
 93
        1
 44
0.0
173
     0
291
     0
 45
0.0
1001
ACAD
1000
AcDbSavedByObjectVersion
1070
     0
  0
VISUALSTYLE
  5
32
102
{ACAD_REACTORS
330
2A
102
}
330
2A
100
AcDbVisualStyle
  2
Basic
 70
     7
 71
     1
 72
     0
 73
     1
 90
        0
 40
-0.6
 41
-30.0
 62
     5
 63
     7
 74
     0
 91
        4
 64
     7
 65
   257
 75
     1
175
     1
 42
1.0
 92
        8
 66
     7
 43
1.0
 76
     1
 77
     6
 78
     2
 67
     7
 79
     5
170
     0
171
     0
290
     0
174
     0
 93
        1
 44
0.0
173
     0
291
     1
 45
0.0
1001
ACAD
1000
AcDbSavedByObjectVersion
1070
     0
  0
VISUALSTYLE
  5
36
102
{ACAD_REACTORS
330
2A
102
}
330
2A
100
AcDbVisualStyle
  2
Brighten
 70
    12
 71
     2
 72
     2
 73
     0
 90
        0
 40
-0.6
 41
-30.0
 62
     5
 63
     7
 74
     1
 91
        4
 64
     7
 65
   257
 75
     1
175
     1
 42
1.0
 92
        8
 66
     7
 43
1.0
 76
     1
 77
     6
 78
     2
 67
     7
 79
     5
170
     0
171
     0
290
     0
174
     0
 93
        1
 44
50.0
173
     0
291
     1
 45
0.0
1001
ACAD
1000
AcDbSavedByObjectVersion
1070
     0
  0
VISUALSTYLE
  5
3A
102
{ACAD_REACTORS
330
2A
102
}
330
2A
100
AcDbVisualStyle
  2
ColorChange
 70
    16
 71
     2
 72
     2
 73
     3
 90
        0
 40
-0.6
 41
-30.0
 62
     5
 63
     8
 74
     1
 91
        4
 64
     7
 65
   257
 75
     1
175
     1
 42
1.0
 92
        8
 66
     8
 43
1.0
 76
     1
 77
     6
 78
     2
 67
     7
 79
     5
170
     0
171
     0
290
     0
174
     0
 93
        1
 44
0.0
173
     0
291
     1
 45
0.0
1001
ACAD
1000
AcDbSavedByObjectVersion
1070
     0
  0
VISUALSTYLE
  5
34
102
{ACAD_REACTORS
330
2A
102
}
330
2A
100
AcDbVisualStyle
  2
Conceptual
 70
     9
 71
     3
 72
     2
 73
     0
 90
        0
 40
-0.6
 41
-30.0
 62
     5
 63
     7
 74
     2
 91
        2
 64
     7
 65
   257
 75
     1
175
     1
 42
40.0
 92
        8
 66
     7
 43
1.0
 76
     1
 77
     6
 78
     2
 67
     7
 79
     3
170
     0
171
     0
290
     0
174
     0
 93
        1
 44
0.0
173
     0
291
     0
 45
0.0
1001
ACAD
1000
AcDbSavedByObjectVersion
1070
     0
  0
VISUALSTYLE
  5
35
102
{ACAD_REACTORS
330
2A
102
}
330
2A
100
AcDbVisualStyle
  2
Dim
 70
    11
 71
     2
 72
     2
 73
     0
 90
        0
 40
-0.6
 41
-30.0
 62
     5
 63
     7
 74
     1
 91
        4
 64
     7
 65
   257
 75
     1
175
     1
 42
1.0
 92
        8
 66
     7
 43
1.0
 76
     1
 77
     6
 78
     2
 67
     7
 79
     5
170
     0
171
     0
290
     0
174
     0
 93
        1
 44
-50.0
173
     0
291
     1
 45
0.0
1001
ACAD
1000
AcDbSavedByObjectVersion
1070
     0
  0
VISUALSTYLE
  5
39
102
{ACAD_REACTORS
330
2A
102
}
330
2A
100
AcDbVisualStyle
  2
Facepattern
 70
    15
 71
     2
 72
     2
 73
     0
 90
        0
 40
-0.6
 41
-30.0
 62
     5
 63
     7
 74
     1
 91
        4
 64
     7
 65
   257
 75
     1
175
     1
 42
1.0
 92
        8
 66
     7
 43
1.0
 76
     1
 77
     6
 78
     2
 67
     7
 79
     5
170
     0
171
     0
290
     0
174
     0
 93
        1
 44
0.0
173
     0
291
     1
 45
0.0
1001
ACAD
1000
AcDbSavedByObjectVersion
1070
     0
  0
VISUALSTYLE
  5
2B
102
{ACAD_REACTORS
330
2A
102
}
330
2A
100
AcDbVisualStyle
  2
Flat
 70
     0
 71
     2
 72
     1
 73
     1
 90
        2
 40
-0.6
 41
30.0
 62
     5
 63
     7
 74
     0
 91
        4
 64
     7
 65
   257
 75
     1
175
     1
 42
1.0
 92
        8
 66
     7
 43
1.0
 76
     1
 77
     6
 78
     2
 67
     7
 79
     5
170
     0
171
     0
290
     0
174
     0
 93
       13
 44
0.0
173
     0
291
     1
 45
0.0
1001
ACAD
1000
AcDbSavedByObjectVersion
1070
     0
  0
VISUALSTYLE
  5
2C
102
{ACAD_REACTORS
330
2A
102
}
330
2A
100
AcDbVisualStyle
  2
FlatWithEdges
 70
     1
 71
     2
 72
     1
 73
     1
 90
        2
 40
-0.6
 41
30.0
 62
     5
 63
     7
 74
     1
 91
        4
 64
     7
 65
   257
 75
     1
175
     1
 42
1.0
 92
        0
 66
   257
 43
1.0
 76
     1
 77
     6
 78
     2
 67
     7
 79
     5
170
     0
171
     0
290
     0
174
     0
 93
       13
 44
0.0
173
     0
291
     1
 45
0.0
1001
ACAD
1000
AcDbSavedByObjectVersion
1070
     0
  0
VISUALSTYLE
  5
2D
102
{ACAD_REACTORS
330
2A
102
}
330
2A
100
AcDbVisualStyle
  2
Gouraud
 70
     2
 71
     2
 72
     2
 73
     1
 90
        2
 40
-0.6
 41
30.0
 62
     5
 63
     7
 74
     0
 91
        4
 64
     7
 65
   257
 75
     1
175
     1
 42
1.0
 92
        0
 66
     7
 43
1.0
 76
     1
 77
     6
 78
     2
 67
     7
 79
     5
170
     0
171
     0
290
     0
174
     0
 93
       13
 44
0.0
173
     0
291
     1
 45
0.0
1001
ACAD
1000
AcDbSavedByObjectVersion
1070
     0
  0
VISUALSTYLE
  5
2E
102
{ACAD_REACTORS
330
2A
102
}
330
2A
100
AcDbVisualStyle
  2
GouraudWithEdges
 70
     3
 71
     2
 72
     2
 73
     1
 90
        2
 40
-0.6
 41
30.0
 62
     5
 63
     7
 74
     1
 91
        4
 64
     7
 65
   257
 75
     1
175
     1
 42
1.0
 92
        0
 66
   257
 43
1.0
 76
     1
 77
     6
 78
     2
 67
     7
 79
     5
170
     0
171
     0
290
     0
174
     0
 93
       13
 44
0.0
173
     0
291
     1
 45
0.0
1001
ACAD
1000
AcDbSavedByObjectVersion
1070
     0
  0
VISUALSTYLE
  5
38
102
{ACAD_REACTORS
330
2A
102
}
330
2A
100
AcDbVisualStyle
  2
Linepattern
 70
    14
 71
     2
 72
     2
 73
     0
 90
        0
 40
-0.6
 41
-30.0
 62
     5
 63
     7
 74
     1
 91
        4
 64
     7
 65
   257
 75
     7
175
     7
 42
1.0
 92
        8
 66
     7
 43
1.0
 76
     1
 77
     6
 78
     2
 67
     7
 79
     5
170
     0
171
     0
290
     0
174
     0
 93
        1
 44
0.0
173
     0
291
     1
 45
0.0
1001
ACAD
1000
AcDbSavedByObjectVersion
1070
     0
  0
VISUALSTYLE
  5
33
102
{ACAD_REACTORS
330
2A
102
}
330
2A
100
AcDbVisualStyle
  2
Realistic
 70
     8
 71
     2
 72
     2
 73
     0
 90
        0
 40
-0.6
 41
-30.0
 62
     5
 63
     7
 74
     1
 91
        0
 64
     7
 65
   257
 75
     1
175
     1
 42
1.0
 92
        8
 66
     8
 43
1.0
 76
     1
 77
     6
 78
     2
 67
     7
 79
     5
170
     0
171
     0
290
     0
174
     0
 93
       13
 44
0.0
173
     0
291
     0
 45
0.0
1001
ACAD
1000
AcDbSavedByObjectVersion
1070
     0
  0
VISUALSTYLE
  5
37
102
{ACAD_REACTORS
330
2A
102
}
330
2A
100
AcDbVisualStyle
  2
Thicken
 70
    13
 71
     2
 72
     2
 73
     0
 90
        0
 40
-0.6
 41
-30.0
 62
     5
 63
     7
 74
     1
 91
        4
 64
     7
 65
   257
 75
     1
175
     1
 42
1.0
 92
       12
 66
     7
 43
1.0
 76
     1
 77
     6
 78
     2
 67
     7
 79
     5
170
     0
171
     0
290
     0
174
     0
 93
        1
 44
0.0
173
     0
291
     1
 45
0.0
1001
ACAD
1000
AcDbSavedByObjectVersion
1070
     0
  0
DICTIONARYVAR
  5
2F3
102
{ACAD_REACTORS
330
2F1
102
}
330
2F1
100
DictionaryVariables
280
     0
  1
80.000000
  0
DICTIONARYVAR
  5
2F2
102
{ACAD_REACTORS
330
2F1
102
}
330
2F1
100
DictionaryVariables
280
     0
  1
5.000000
  0
ENDSEC
  0
EOF
