# Exported from Wings 3D 0.98.22c
mtllib robot.mtl
o NoName0
#76 vertices, 116 faces
v -2.99869 3.88975 -1.47340
v -2.99871 3.88975 4.52660
v -4.99871 3.88975 4.52658
v -4.99869 3.88975 -1.47341
v -4.99869 1.88975 -1.47341
v -2.99869 1.88975 -1.47340
v -4.99871 1.88975 4.52660
v -2.99871 1.88975 4.52660
v 5.00131 3.88975 -1.47338
v 5.00129 3.88975 4.52662
v 3.00129 3.88975 4.52660
v 3.00131 3.88975 -1.47339
v 3.00131 1.88975 -1.47339
v 5.00131 1.88975 -1.47338
v 3.00129 1.88975 4.52662
v 5.00129 1.88975 4.52662
v -3.99869 4.87577 -2.47342
v 4.00131 4.87577 -2.47338
v 4.00131 4.87577 1.52661
v -3.99869 4.87577 1.52659
v 2.78235 -1.09628 -2.47338
v -2.82177 -1.09628 -2.47340
v -2.80137 -1.12422 1.55338
v 2.78009 -1.11115 1.53349
v -0.998702 9.88975 1.16367
v -0.998702 5.88975 1.16368
v -1.99870 5.88975 -0.473404
v -1.99870 9.88975 -0.473410
v 1.00130 9.88975 1.16368
v 1.00130 5.88975 1.16368
v 2.00131 9.88975 -0.473400
v 2.00131 5.88975 -0.473394
v 1.00131 9.88975 -2.11048
v 1.00131 5.88975 -2.11047
v -0.998694 9.88975 -2.11049
v -0.998694 5.88975 -2.11048
v 1.50130 8.78975 0.944352
v 1.50130 8.78975 1.88952
v -1.49870 8.78975 1.88952
v -1.49870 8.78975 0.944344
v -1.49870 7.78975 0.944346
v 1.50130 7.78975 0.944354
v -1.49870 7.78975 1.88952
v 1.50130 7.78975 1.88952
v -1.99869 -0.610255 -1.47340
v -1.99870 -0.610253 0.526604
v -3.99869 -0.610253 0.526598
v -3.99869 -0.610255 -1.47340
v -3.99869 -7.61025 -1.47339
v -1.99869 -7.61025 -1.47339
v -3.99869 -7.61025 0.526608
v -1.99870 -7.61025 0.526614
v -1.49869 -7.41025 -2.07339
v -1.49870 -7.41025 1.92662
v -4.49869 -7.41025 1.92660
v -4.49869 -7.41025 -2.07339
v -4.49869 -8.81025 -2.07339
v -1.49869 -8.81025 -2.07338
v -4.49869 -8.81025 1.92660
v -1.49870 -8.81025 1.92662
v 4.50131 -7.41025 -2.07337
v 4.50131 -7.41025 1.92662
v 1.50130 -7.41025 1.92662
v 1.50131 -7.41025 -2.07338
v 1.50131 -8.81025 -2.07338
v 4.50131 -8.81025 -2.07337
v 1.50130 -8.81025 1.92662
v 4.50131 -8.81025 1.92664
v 4.00131 -0.610255 -1.47338
v 4.00131 -0.610253 0.526620
v 2.00131 -0.610253 0.526614
v 2.00131 -0.610255 -1.47339
v 2.00131 -7.61025 -1.47338
v 4.00131 -7.61025 -1.47337
v 2.00131 -7.61025 0.526624
v 4.00131 -7.61025 0.526630
vn 0.333336 0.666666 -0.666666
vn 0.816494 0.408249 0.408252
vn -0.333336 0.666668 0.666664
vn -0.816495 0.408248 -0.408251
vn -0.333331 -0.666667 -0.666667
vn 0.816498 -0.408249 -0.408246
vn -0.816499 -0.408245 0.408247
vn 0.333331 -0.666665 0.666670
vn 0.333335 0.666666 -0.666666
vn 0.816494 0.408249 0.408252
vn -0.333336 0.666668 0.666664
vn -0.816496 0.408248 -0.408251
vn -0.333331 -0.666667 -0.666667
vn 0.816498 -0.408249 -0.408245
vn -0.816499 -0.408245 0.408247
vn 0.333331 -0.666665 0.666670
vn -0.342069 0.629888 -0.697302
vn 0.859296 0.263164 -0.438583
vn 0.429487 0.789561 0.438332
vn -0.682595 0.215172 0.698402
vn 0.386832 -0.473758 -0.791148
vn -0.602957 -0.735129 -0.309884
vn -0.531734 -0.649387 0.543651
vn 0.533977 -0.650258 0.540400
vn -0.512631 0.600703 0.613486
vn -0.300126 -0.351686 0.886702
vn -0.643544 -0.754109 0.131034
vn -0.643544 0.754109 -0.131037
vn 0.300121 0.351688 0.886703
vn 0.512627 -0.600702 0.613490
vn 0.643543 0.754110 0.131037
vn 0.643544 -0.754110 -0.131034
vn 0.512631 0.600702 -0.613488
vn 0.300126 -0.351688 -0.886702
vn -0.300121 0.351686 -0.886704
vn -0.512628 -0.600703 -0.613489
vn 0.333335 0.666666 -0.666666
vn 0.816496 0.408248 0.408250
vn -0.333333 0.666667 0.666666
vn -0.816496 0.408248 -0.408250
vn -0.333331 -0.666667 -0.666667
vn 0.816497 -0.408249 -0.408246
vn -0.816497 -0.408249 0.408247
vn 0.333333 -0.666666 0.666667
vn 0.333335 0.666666 -0.666666
vn 0.816495 0.408249 0.408250
vn -0.333335 0.666667 0.666665
vn -0.816496 0.408248 -0.408249
vn -0.333331 -0.666668 -0.666667
vn 0.816498 -0.408249 -0.408246
vn -0.816497 -0.408247 0.408248
vn 0.333332 -0.666666 0.666668
vn 0.333335 0.666666 -0.666666
vn 0.816495 0.408249 0.408251
vn -0.333337 0.666666 0.666666
vn -0.816496 0.408248 -0.408249
vn -0.333332 -0.666668 -0.666667
vn 0.816497 -0.408249 -0.408246
vn -0.816497 -0.408247 0.408247
vn 0.333329 -0.666667 0.666668
vn 0.333335 0.666666 -0.666667
vn 0.816495 0.408253 0.408247
vn -0.333334 0.666669 0.666664
vn -0.816496 0.408248 -0.408250
vn -0.333331 -0.666667 -0.666667
vn 0.816497 -0.408248 -0.408248
vn -0.816498 -0.408248 0.408246
vn 0.333332 -0.666665 0.666669
vn 0.333335 0.666665 -0.666667
vn 0.816496 0.408249 0.408248
vn -0.333335 0.666667 0.666665
vn -0.816496 0.408248 -0.408249
vn -0.333331 -0.666668 -0.666667
vn 0.816497 -0.408248 -0.408248
vn -0.816497 -0.408247 0.408248
vn 0.333332 -0.666667 0.666668
g NoName0_default
usemtl default
f 1//1 3//3 2//2
f 1//1 4//4 3//3
f 1//1 5//5 4//4
f 1//1 6//6 5//5
f 2//2 6//6 1//1
f 2//2 8//8 6//6
f 3//3 8//8 2//2
f 4//4 7//7 3//3
f 5//5 7//7 4//4
f 5//5 8//8 7//7
f 6//6 8//8 5//5
f 7//7 8//8 3//3
f 9//9 11//11 10//10
f 9//9 12//12 11//11
f 9//9 13//13 12//12
f 9//9 14//14 13//13
f 10//10 14//14 9//9
f 10//10 16//16 14//14
f 11//11 16//16 10//10
f 12//12 15//15 11//11
f 13//13 15//15 12//12
f 13//13 16//16 15//15
f 14//14 16//16 13//13
f 15//15 16//16 11//11
f 17//17 19//19 18//18
f 17//17 20//20 19//19
f 17//17 22//22 20//20
f 18//18 21//21 17//17
f 18//18 24//24 21//21
f 19//19 24//24 18//18
f 20//20 24//24 19//19
f 21//21 22//22 17//17
f 21//21 24//24 22//22
f 22//22 23//23 20//20
f 22//22 24//24 23//23
f 23//23 24//24 20//20
f 25//25 27//27 26//26
f 25//25 28//28 27//27
f 25//25 31//31 28//28
f 26//26 29//29 25//25
f 26//26 30//30 29//29
f 27//27 30//30 26//26
f 27//27 32//32 30//30
f 27//27 36//36 32//32
f 28//28 36//36 27//27
f 29//29 31//31 25//25
f 30//30 31//31 29//29
f 30//30 32//32 31//31
f 31//31 33//33 28//28
f 32//32 33//33 31//31
f 32//32 34//34 33//33
f 32//32 36//36 34//34
f 33//33 35//35 28//28
f 34//34 35//35 33//33
f 34//34 36//36 35//35
f 35//35 36//36 28//28
f 37//37 39//39 38//38
f 37//37 40//40 39//39
f 37//37 41//41 40//40
f 37//37 42//42 41//41
f 38//38 42//42 37//37
f 38//38 44//44 42//42
f 39//39 44//44 38//38
f 40//40 43//43 39//39
f 41//41 43//43 40//40
f 41//41 44//44 43//43
f 42//42 44//44 41//41
f 43//43 44//44 39//39
f 45//45 47//47 46//46
f 45//45 48//48 47//47
f 45//45 49//49 48//48
f 45//45 50//50 49//49
f 46//46 50//50 45//45
f 46//46 52//52 50//50
f 47//47 52//52 46//46
f 48//48 51//51 47//47
f 49//49 51//51 48//48
f 49//49 52//52 51//51
f 50//50 52//52 49//49
f 51//51 52//52 47//47
f 53//53 55//55 54//54
f 53//53 56//56 55//55
f 53//53 57//57 56//56
f 53//53 58//58 57//57
f 54//54 58//58 53//53
f 54//54 60//60 58//58
f 55//55 60//60 54//54
f 56//56 59//59 55//55
f 57//57 59//59 56//56
f 57//57 60//60 59//59
f 58//58 60//60 57//57
f 59//59 60//60 55//55
f 61//61 63//63 62//62
f 61//61 64//64 63//63
f 61//61 65//65 64//64
f 61//61 66//66 65//65
f 62//62 66//66 61//61
f 62//62 68//68 66//66
f 63//63 68//68 62//62
f 64//64 67//67 63//63
f 65//65 67//67 64//64
f 65//65 68//68 67//67
f 66//66 68//68 65//65
f 67//67 68//68 63//63
f 69//69 71//71 70//70
f 69//69 72//72 71//71
f 69//69 73//73 72//72
f 69//69 74//74 73//73
f 70//70 74//74 69//69
f 70//70 76//76 74//74
f 71//71 76//76 70//70
f 72//72 75//75 71//71
f 73//73 75//75 72//72
f 73//73 76//76 75//75
f 74//74 76//76 73//73
f 75//75 76//76 71//71
